<svg width="30" height="30" viewBox="0 0 30 30" fill="none" xmlns="http://www.w3.org/2000/svg">
<path d="M22.5 25.3131V21.6648L19.3987 20.7344L16.4062 29.4146H19.0706L22.3209 25.7818C22.4362 25.6529 22.5 25.486 22.5 25.3131Z" fill="#F8C02E"/>
<path d="M6.79689 25.3123V21.875L4.04774 22.6998C3.58793 22.8354 3.1846 23.1167 2.89843 23.5013C2.61227 23.8859 2.45874 24.353 2.46096 24.8324V29.0623C2.46096 29.1556 2.498 29.245 2.56393 29.3109C2.62986 29.3769 2.71928 29.4139 2.81252 29.4139H9.98597L7.15514 26.2498C6.92435 25.9921 6.79679 25.6583 6.79689 25.3123Z" fill="#F8C02E"/>
<path d="M25.9519 22.6998L23.2028 21.875V25.3123C23.2029 25.6583 23.0754 25.9921 22.8446 26.2498L20.0137 29.4139H27.1871C27.2804 29.4139 27.3698 29.3769 27.4357 29.3109C27.5017 29.245 27.5387 29.1556 27.5387 29.0623V24.8324C27.5409 24.353 27.3874 23.8859 27.1012 23.5013C26.8151 23.1167 26.4117 22.8354 25.9519 22.6998Z" fill="#F8C02E"/>
<path d="M7.5 21.6648V25.3131C7.50002 25.486 7.56379 25.6529 7.67912 25.7818L10.9294 29.4146H13.5938L10.6013 20.7344L7.5 21.6648Z" fill="#F8C02E"/>
<path d="M15.0001 19.1004C14.1411 19.1004 12.9379 18.722 11.836 17.9922V20.3623L11.2754 20.5305L13.0852 25.7801H16.915L18.7248 20.5305L18.1641 20.3623V17.9922C17.0626 18.722 15.8591 19.1004 15.0001 19.1004Z" fill="#F8C02E"/>
<path d="M18.5059 14.207C18.5383 14.2411 18.5715 14.2743 18.6055 14.3066C18.5745 14.2713 18.5412 14.238 18.5059 14.207Z" fill="#F8C02E"/>
<path d="M20.8262 14.3959C22.0692 14.2046 22.8516 12.2803 22.8516 11.2485C22.8516 10.8459 22.7454 10.5449 22.5267 10.328C22.164 9.96816 21.615 9.95345 20.9766 9.95749V13.1235C20.9772 13.5521 20.9267 13.9792 20.8262 14.3959Z" fill="#F8C02E"/>
<path d="M7.47322 10.328C7.25467 10.5448 7.14844 10.8459 7.14844 11.2485C7.14844 12.2802 7.93078 14.2046 9.17385 14.3958C9.07332 13.9792 9.02283 13.5521 9.02344 13.1235V9.95746C8.38518 9.9536 7.83592 9.96813 7.47322 10.328Z" fill="#F8C02E"/>
<path d="M8.895 9.25535H8.96953C9.26482 8.84917 9.64586 8.51295 10.0856 8.27051C10.1184 7.77111 10.2956 6.32812 11.25 6.32812C12.8613 6.32812 14.562 7.58203 14.5781 7.59375C14.6998 7.68503 14.8479 7.73438 15 7.73438C15.1521 7.73438 15.3002 7.68503 15.4219 7.59375C15.8913 7.24172 17.4041 6.32812 18.75 6.32812C19.7051 6.32812 19.8819 7.77305 19.9144 8.27074C20.3542 8.5132 20.7352 8.84943 21.0305 9.25559H21.1049C21.6726 9.25559 22.2601 9.28799 22.7505 9.61125C23.4636 8.43252 24.1406 6.86408 24.1406 5.15625C24.1406 3.48996 23.4015 2.13094 22.0031 1.22607C20.8718 0.494121 19.5437 0.234375 18.75 0.234375C17.502 0.234375 15.676 0.869648 15 1.12195C14.324 0.869648 12.498 0.234375 11.25 0.234375C10.4563 0.234375 9.1282 0.494121 7.99693 1.22607C6.59854 2.13094 5.85938 3.48996 5.85938 5.15625C5.85938 6.86408 6.53631 8.43252 7.24951 9.61096C7.73988 9.28775 8.32734 9.25535 8.895 9.25535Z" fill="#F8C02E"/>
<path d="M20.9764 11.25C20.9767 10.6998 20.8086 10.1627 20.4946 9.71099C20.1807 9.25923 19.7359 8.91445 19.2201 8.72302C18.7043 8.53158 18.1423 8.50267 17.6096 8.64018C17.0769 8.77768 16.5991 9.075 16.2404 9.49216H13.7592C13.3174 8.98216 12.6994 8.65761 12.0287 8.58333C11.358 8.50904 10.684 8.6905 10.1413 9.09144C9.59853 9.49239 9.22702 10.0833 9.10092 10.7462C8.97483 11.4091 9.10345 12.0952 9.46108 12.6674C9.81871 13.2396 10.379 13.6558 11.0301 13.833C11.6813 14.0101 12.3752 13.9351 12.9735 13.6229C13.5717 13.3108 14.0302 12.7844 14.2573 12.149C14.4844 11.5136 14.4635 10.8159 14.1987 10.1953H15.8007C15.6443 10.563 15.5717 10.9609 15.588 11.3602C15.6043 11.7595 15.7092 12.1502 15.8951 12.5039C16.081 12.8576 16.3432 13.1656 16.6628 13.4056C16.9824 13.6455 17.3513 13.8113 17.7429 13.8911C18.1344 13.9709 18.5389 13.9627 18.9268 13.8669C19.3148 13.7712 19.6766 13.5904 19.9861 13.3376C20.2956 13.0848 20.545 12.7663 20.7163 12.4053C20.8876 12.0442 20.9764 11.6496 20.9764 11.25ZM11.7186 13.2422C11.3245 13.2422 10.9394 13.1253 10.6118 12.9064C10.2841 12.6875 10.0288 12.3764 9.87801 12.0123C9.72723 11.6483 9.68778 11.2478 9.76465 10.8613C9.84152 10.4749 10.0313 10.1199 10.3099 9.84128C10.5885 9.56267 10.9435 9.37293 11.3299 9.29606C11.7163 9.21919 12.1169 9.25865 12.4809 9.40943C12.845 9.56021 13.1561 9.81556 13.375 10.1432C13.5939 10.4708 13.7107 10.856 13.7107 11.25C13.7102 11.7781 13.5001 12.2845 13.1266 12.658C12.7531 13.0315 12.2467 13.2416 11.7186 13.2422ZM18.2811 13.2422C17.887 13.2422 17.5019 13.1253 17.1743 12.9064C16.8467 12.6875 16.5913 12.3764 16.4405 12.0123C16.2897 11.6483 16.2503 11.2478 16.3272 10.8613C16.404 10.4749 16.5938 10.1199 16.8724 9.84128C17.151 9.56267 17.506 9.37293 17.8924 9.29606C18.2789 9.21919 18.6794 9.25865 19.0434 9.40943C19.4075 9.56021 19.7186 9.81556 19.9375 10.1432C20.1564 10.4708 20.2733 10.856 20.2733 11.25C20.2727 11.7781 20.0626 12.2845 19.6891 12.658C19.3156 13.0315 18.8092 13.2416 18.2811 13.2422Z" fill="#F8C02E"/>
<path d="M22.6163 16.4834C22.3643 16.1051 22.1789 15.3865 22.0489 14.5664C21.649 14.9017 21.1731 15.1156 20.625 15.1156C20.6157 15.1156 20.6065 15.115 20.5972 15.1149C20.2192 16.0607 19.5918 16.8465 18.8672 17.4633V19.8387L25.8076 21.9208C25.8981 21.223 25.8039 20.5137 25.5345 19.8637C25.0805 18.7635 24.2017 17.9871 23.4955 17.3633C23.1294 17.0398 22.7835 16.7343 22.6163 16.4834Z" fill="#F8C02E"/>
</svg>
