<svg width="30" height="30" viewBox="0 0 30 30" fill="none" xmlns="http://www.w3.org/2000/svg">
<path d="M8.57715 10.5728L14.9998 13.1418L21.4225 10.5728L14.9998 8.00391L8.57715 10.5728Z" fill="#F8C02E"/>
<path d="M10.6055 13.2775V15.3058L15 17.0636L19.3945 15.3058V13.2773L15 15.0354L10.6055 13.2775Z" fill="#F8C02E"/>
<path d="M0 0.90625V23.7578H30V0.90625H0ZM24.668 18.4844H22.9102V11.872L21.1523 12.5752V16.4965L15 18.9581L8.84766 16.4965V12.5755L3.84457 10.5742L15 6.11189L24.668 9.97943V18.4844Z" fill="#F8C02E"/>
<path d="M18.5633 25.5742H11.4367L10.8507 27.332H7.08984V29.0898H22.9102V27.332H19.1493L18.5633 25.5742Z" fill="#F8C02E"/>
</svg>
