<svg width="36" height="36" viewBox="0 0 36 36" fill="none" xmlns="http://www.w3.org/2000/svg">
<path d="M24 25.5H10.5V15.75C10.5 12 13.5 9 17.25 9C21 9 24 12 24 15.75V25.5ZM27 24V15.75C27 11.145 23.79 7.29 19.5 6.27V5.25C19.5 4.65326 19.2629 4.08097 18.841 3.65901C18.419 3.23705 17.8467 3 17.25 3C16.6533 3 16.081 3.23705 15.659 3.65901C15.2371 4.08097 15 4.65326 15 5.25V6.27C10.695 7.29 7.5 11.145 7.5 15.75V24L4.5 27V28.5H30V27L27 24ZM17.25 33C18.0456 33 18.8087 32.6839 19.3713 32.1213C19.9339 31.5587 20.25 30.7956 20.25 30H14.25C14.25 30.7956 14.5661 31.5587 15.1287 32.1213C15.6913 32.6839 16.4544 33 17.25 33Z" fill="#DBDBDB"/>
</svg>
