<svg width="30" height="30" viewBox="0 0 30 30" fill="none" xmlns="http://www.w3.org/2000/svg">
<path d="M14.7863 14.4511C16.7717 14.4511 18.4908 13.739 19.8954 12.3342C21.3001 10.9295 22.0121 9.21086 22.0121 7.22531C22.0121 5.24046 21.3001 3.52156 19.8952 2.11646C18.4903 0.712049 16.7714 0 14.7863 0C12.8008 0 11.0821 0.712049 9.67747 2.11669C8.27283 3.52133 7.56055 5.24023 7.56055 7.22531C7.56055 9.21086 8.27283 10.9298 9.6777 12.3344C11.0826 13.7388 12.8015 14.4511 14.7863 14.4511Z" fill="#929292"/>
<path d="M26.9685 22.5773C26.928 21.9928 26.846 21.3551 26.7254 20.6817C26.6037 20.0033 26.4469 19.362 26.2592 18.7758C26.0653 18.17 25.8017 17.5717 25.4757 16.9983C25.1374 16.4032 24.7401 15.8851 24.2942 15.4587C23.828 15.0126 23.2572 14.6539 22.5971 14.3923C21.9393 14.1321 21.2103 14.0002 20.4305 14.0002C20.1242 14.0002 19.8281 14.1259 19.2561 14.4983C18.9041 14.7278 18.4923 14.9933 18.0327 15.287C17.6397 15.5374 17.1073 15.772 16.4498 15.9844C15.8082 16.192 15.1568 16.2973 14.5139 16.2973C13.871 16.2973 13.2198 16.192 12.5775 15.9844C11.9207 15.7722 11.3883 15.5376 10.9957 15.2872C10.5405 14.9963 10.1285 14.7308 9.77122 14.498C9.19994 14.1257 8.90353 14 8.59729 14C7.81726 14 7.0885 14.1321 6.43092 14.3925C5.77129 14.6537 5.20023 15.0123 4.73354 15.4589C4.2879 15.8855 3.89034 16.4035 3.55251 16.9983C3.22681 17.5717 2.96313 18.1698 2.76904 18.7761C2.58159 19.3622 2.4248 20.0033 2.30304 20.6817C2.18242 21.3542 2.10048 21.9921 2.05997 22.578C2.02014 23.152 2 23.7478 2 24.3495C2 25.9155 2.49782 27.1833 3.47949 28.1183C4.44904 29.0409 5.73192 29.509 7.29198 29.509H21.7372C23.2972 29.509 24.5797 29.0411 25.5494 28.1183C26.5313 27.184 27.0291 25.916 27.0291 24.3493C27.0289 23.7448 27.0085 23.1486 26.9685 22.5773Z" fill="#929292"/>
</svg>
