<svg width="30" height="30" viewBox="0 0 30 30" fill="none" xmlns="http://www.w3.org/2000/svg">
<path d="M22.0312 7.03125C21.0604 7.03125 20.2734 6.24428 20.2734 5.27344V1.75781C20.2734 0.786973 21.0604 0 22.0312 0C23.0021 0 23.7891 0.786973 23.7891 1.75781V5.27344C23.7891 6.24428 23.0021 7.03125 22.0312 7.03125Z" fill="#929292"/>
<path d="M26.7773 3.51562H25.5469V5.27344C25.5469 7.21195 23.9698 8.78906 22.0312 8.78906C20.0927 8.78906 18.5156 7.21195 18.5156 5.27344V3.51562H11.4844V5.27344C11.4844 7.21195 9.90727 8.78906 7.96875 8.78906C6.03023 8.78906 4.45312 7.21195 4.45312 5.27344V3.51562H3.22266C1.44568 3.51562 0 4.96131 0 6.73828V10.6641H30V6.73828C30 4.96131 28.5543 3.51562 26.7773 3.51562Z" fill="#929292"/>
<path d="M7.96875 7.03125C6.99791 7.03125 6.21094 6.24428 6.21094 5.27344V1.75781C6.21094 0.786973 6.99791 0 7.96875 0C8.93959 0 9.72656 0.786973 9.72656 1.75781V5.27344C9.72656 6.24428 8.93959 7.03125 7.96875 7.03125Z" fill="#929292"/>
<path d="M0 12.4219V26.7773C0 28.5543 1.44568 30 3.22266 30H26.7773C28.5543 30 30 28.5543 30 26.7773V12.4219H0ZM15.9237 23.8477C15.9237 25.7862 14.3466 27.3633 12.408 27.3633C10.6638 27.3633 9.16705 26.0622 8.92623 24.3369C8.90379 24.176 8.89242 24.0114 8.89242 23.8477C8.89242 23.3623 9.28594 22.9688 9.77133 22.9688C10.2567 22.9688 10.6502 23.3623 10.6502 23.8477C10.6502 23.9304 10.656 24.0132 10.6672 24.094C10.7874 24.9557 11.5358 25.6055 12.408 25.6055C13.3773 25.6055 14.1659 24.8169 14.1659 23.8477C14.1659 22.8784 13.3773 22.0898 12.408 22.0898C11.9227 22.0898 11.5291 21.6963 11.5291 21.2109C11.5291 20.7255 11.9227 20.332 12.408 20.332C13.3773 20.332 14.1659 19.5435 14.1659 18.5742C14.1659 17.605 13.3773 16.8164 12.408 16.8164C11.5698 16.8164 10.8444 17.412 10.6832 18.2326C10.5896 18.7089 10.1272 19.0191 9.65145 18.9256C9.17514 18.832 8.86482 18.3701 8.9584 17.8938C9.28102 16.251 10.7318 15.0586 12.408 15.0586C14.3466 15.0586 15.9237 16.6357 15.9237 18.5742C15.9237 19.6235 15.461 20.5662 14.7297 21.2109C15.461 21.8556 15.9237 22.7984 15.9237 23.8477ZM21.1076 26.4844C21.1076 26.9698 20.7141 27.3633 20.2287 27.3633C19.7433 27.3633 19.3498 26.9698 19.3498 26.4844V16.8164H17.9744C17.489 16.8164 17.0955 16.4229 17.0955 15.9375C17.0955 15.4521 17.489 15.0586 17.9744 15.0586H20.2287C20.7141 15.0586 21.1076 15.4521 21.1076 15.9375V26.4844Z" fill="#929292"/>
</svg>
