<svg width="30" height="30" viewBox="0 0 30 30" fill="none" xmlns="http://www.w3.org/2000/svg">
<g clip-path="url(#clip0_307:601)">
<path d="M27.3955 15L29.8242 11.7617C30.024 11.4954 30.0561 11.1391 29.9073 10.8413C29.7584 10.5436 29.454 10.3555 29.1211 10.3555H24.4141C24.1375 10.3555 23.8769 10.4857 23.7109 10.707L20.8867 14.4727C20.6523 14.7852 20.6523 15.2149 20.8867 15.5274L23.7109 19.293C23.8769 19.5143 24.1375 19.6446 24.4141 19.6446H29.1211C29.454 19.6446 29.7583 19.4565 29.9073 19.1587C30.0561 18.8609 30.024 18.5046 29.8242 18.2383L27.3955 15Z" fill="#929292"/>
<path d="M16.7358 14.1211H18.77C18.3385 10.8669 15.546 8.34766 12.1758 8.34766C8.50762 8.34766 5.52344 11.3319 5.52344 15C5.52344 18.6681 8.50762 21.6523 12.1758 21.6523C15.546 21.6523 18.3385 19.1331 18.77 15.8789H16.7358C16.3237 18.0209 14.4363 19.6445 12.1758 19.6445C9.61475 19.6445 7.53121 17.561 7.53121 15C7.53121 12.439 9.61475 10.3554 12.1758 10.3554C14.4363 10.3554 16.3237 11.9791 16.7358 14.1211Z" fill="#929292"/>
<path d="M22.3048 20.3477L20.195 17.5346C19.1172 20.9371 15.9301 23.4101 12.1758 23.4101C7.53838 23.4101 3.76564 19.6373 3.76564 15C3.76564 10.3627 7.53838 6.58986 12.1758 6.58986C15.9301 6.58986 19.1172 9.06293 20.195 12.4653L22.3047 9.65238C22.4576 9.44853 22.6386 9.27023 22.8398 9.12088C20.7658 5.36695 16.768 2.82422 12.1758 2.82422C5.45127 2.82422 0 8.27549 0 15C0 21.7245 5.45127 27.1758 12.1758 27.1758C16.768 27.1758 20.7658 24.6331 22.8398 20.8792C22.6386 20.7298 22.4576 20.5516 22.3048 20.3477Z" fill="#929292"/>
<path d="M12.1758 14.1211H14.9253C14.5525 12.9579 13.4611 12.1133 12.1758 12.1133C10.584 12.1133 9.28906 13.4083 9.28906 15C9.28906 16.5918 10.584 17.8868 12.1758 17.8868C13.4612 17.8868 14.5525 17.0421 14.9253 15.8789H12.1758C11.6904 15.8789 11.2969 15.4854 11.2969 15C11.2969 14.5146 11.6904 14.1211 12.1758 14.1211Z" fill="#929292"/>
</g>
<defs>
<clipPath id="clip0_307:601">
<rect width="30" height="30" fill="white"/>
</clipPath>
</defs>
</svg>
