<svg width="16" height="14" viewBox="0 0 16 14" fill="none" xmlns="http://www.w3.org/2000/svg">
<path d="M4.53672 0.000327282C5.87143 -0.00721135 7.14027 0.612308 8.00002 1.69132C8.85438 0.604933 10.1267 -0.0163478 11.4633 0.000327282C13.9689 0.000327282 16 2.14699 16 4.79506C16 9.33299 8.50634 13.7638 8.20253 13.9351C8.07995 14.0216 7.92008 14.0216 7.79747 13.9351C7.49366 13.7638 0 9.39719 0 4.79506C0 2.14699 2.03117 0.000327282 4.53672 0.000327282ZM8.00002 13.0789C9.1747 12.3511 15.1899 8.47678 15.1899 4.79506C15.1899 2.61988 13.5214 0.856494 11.4633 0.856494C10.2029 0.839 9.02344 1.51088 8.3443 2.63311C8.20641 2.83407 7.94044 2.87885 7.75029 2.73308C7.71397 2.70522 7.68202 2.6715 7.6557 2.63311C6.52936 0.812574 4.21985 0.301749 2.49729 1.49216C1.44278 2.2209 0.808072 3.46343 0.810165 4.79502C0.810127 8.51955 6.82534 12.3725 8.00002 13.0789Z" fill="#B0B0B0"/>
</svg>
