<svg width="30" height="30" viewBox="0 0 30 30" fill="none" xmlns="http://www.w3.org/2000/svg">
<path d="M8.57715 10.5763L14.9998 13.1452L21.4225 10.5763L14.9998 8.00732L8.57715 10.5763Z" fill="#929292"/>
<path d="M10.6055 13.2804V15.3087L15 17.0665L19.3945 15.3087V13.2803L15 15.0384L10.6055 13.2804Z" fill="#929292"/>
<path d="M0 0.908203V23.7598H30V0.908203H0ZM24.668 18.4863H22.9102V11.8739L21.1523 12.5771V16.4984L15 18.9601L8.84766 16.4984V12.5774L3.84457 10.5762L15 6.11385L24.668 9.98139V18.4863Z" fill="#929292"/>
<path d="M18.5633 25.5762H11.4367L10.8507 27.334H7.08984V29.0918H22.9102V27.334H19.1493L18.5633 25.5762Z" fill="#929292"/>
</svg>
