<svg width="28" height="28" viewBox="0 0 28 28" fill="none" xmlns="http://www.w3.org/2000/svg">
<g clip-path="url(#clip0_1570_3036)">
<path d="M22.1666 14.0536C21.5215 14.0536 21 14.5764 21 15.2202V24.5536C21 25.1964 20.4773 25.7202 19.8334 25.7202H3.5C2.85593 25.7202 2.3334 25.1964 2.3334 24.5536V8.22022C2.3334 7.57742 2.85593 7.05362 3.5 7.05362H12.8334C13.4785 7.05362 14 6.53088 14 5.88702C14 5.24295 13.4785 4.72021 12.8334 4.72021H3.5C1.57034 4.72021 0 6.29056 0 8.22022V24.5536C0 26.4833 1.57034 28.0536 3.5 28.0536H19.8334C21.7631 28.0536 23.3334 26.4833 23.3334 24.5536V15.2202C23.3334 14.5751 22.8117 14.0536 22.1666 14.0536Z" fill="#BFBFBF"/>
<path d="M10.9383 12.9909C10.8567 13.0725 10.8018 13.1763 10.7785 13.2883L9.95374 17.4138C9.91529 17.6049 9.97595 17.8021 10.1135 17.941C10.2244 18.0518 10.3737 18.1112 10.5267 18.1112C10.5638 18.1112 10.6025 18.1078 10.641 18.0997L14.7652 17.2749C14.8795 17.2514 14.9833 17.1967 15.0638 17.1149L24.2945 7.88425L20.1703 3.76025L10.9383 12.9909Z" fill="#BFBFBF"/>
<path d="M27.146 0.907845C26.0087 -0.229698 24.1583 -0.229698 23.0218 0.907845L21.4072 2.52241L25.5314 6.64661L27.146 5.03184C27.6967 4.4824 28.0001 3.74967 28.0001 2.97038C28.0001 2.19108 27.6967 1.45835 27.146 0.907845Z" fill="#BFBFBF"/>
</g>
<defs>
<clipPath id="clip0_1570_3036">
<rect width="28" height="28" fill="white"/>
</clipPath>
</defs>
</svg>
