<svg width="22" height="22" viewBox="0 0 22 22" fill="none" xmlns="http://www.w3.org/2000/svg">
<path d="M19.9375 0H2.0625C0.923398 0 0 0.923398 0 2.0625V19.9375C0 21.0766 0.923398 22 2.0625 22H19.9375C21.0766 22 22 21.0766 22 19.9375V2.0625C22 0.923398 21.0766 0 19.9375 0ZM20.625 13.4681L17.6756 10.5188C17.4075 10.2522 16.9744 10.2522 16.7062 10.5188L13.0625 14.1556L8.73812 9.83125C8.46996 9.56467 8.03692 9.56467 7.76875 9.83125L1.375 16.2181V2.0625C1.375 1.68279 1.68279 1.375 2.0625 1.375H19.9375C20.3172 1.375 20.625 1.68279 20.625 2.0625V13.4681Z" fill="#B5B5B5"/>
<path d="M12.375 3.4375C10.8562 3.4375 9.625 4.66873 9.625 6.1875C9.625 7.70627 10.8562 8.9375 12.375 8.9375C13.8938 8.9375 15.125 7.70627 15.125 6.1875C15.125 4.66873 13.8938 3.4375 12.375 3.4375ZM12.375 7.5625C11.6156 7.5625 11 6.94689 11 6.1875C11 5.42811 11.6156 4.8125 12.375 4.8125C13.1344 4.8125 13.75 5.42811 13.75 6.1875C13.75 6.94689 13.1344 7.5625 12.375 7.5625Z" fill="#B5B5B5"/>
</svg>
