<svg width="30" height="30" viewBox="0 0 30 30" fill="none" xmlns="http://www.w3.org/2000/svg">
<path d="M14.2336 1.03271C17.7011 1.03271 20.5292 3.81225 20.5292 7.2343V13.9247H12.0025C11.3914 13.9247 10.9082 14.3996 10.9082 15.0002C10.9082 15.5869 11.3914 16.0757 12.0025 16.0757H20.5292V22.7522C20.5292 26.1743 17.7011 28.9678 14.2052 28.9678H7.28436C3.80263 28.9678 0.974609 26.1882 0.974609 22.7662V7.24827C0.974609 3.81225 3.81684 1.03271 7.29857 1.03271H14.2336ZM24.0772 10.1817C24.4962 9.74873 25.1806 9.74873 25.5996 10.1678L29.6782 14.2323C29.8877 14.4418 29.9994 14.7072 29.9994 15.0005C29.9994 15.2799 29.8877 15.5592 29.6782 15.7548L25.5996 19.8193C25.3901 20.0288 25.1108 20.1406 24.8454 20.1406C24.566 20.1406 24.2867 20.0288 24.0772 19.8193C23.6582 19.4003 23.6582 18.7159 24.0772 18.2969L26.312 16.076H20.5294V13.925H26.312L24.0772 11.7042C23.6582 11.2852 23.6582 10.6008 24.0772 10.1817Z" fill="#929292"/>
</svg>
