<svg width="24" height="24" viewBox="0 0 24 24" fill="none" xmlns="http://www.w3.org/2000/svg">
<path d="M12 1.99951C17.53 1.99951 22 6.48051 22 11.9995C22 17.5205 17.53 21.9995 12 21.9995C6.48 21.9995 2 17.5205 2 11.9995C2 6.48051 6.48 1.99951 12 1.99951ZM12 14.9305C11.52 14.9305 11.13 15.3205 11.13 15.8005C11.13 16.2805 11.52 16.6805 12.01 16.6805C12.49 16.6805 12.88 16.2805 12.88 15.8005C12.88 15.3205 12.49 14.9305 12 14.9305ZM12 7.32951C11.52 7.32951 11.12 7.73051 11.12 8.20951V12.6295C11.12 13.1105 11.52 13.4995 12 13.4995C12.48 13.4995 12.87 13.1105 12.87 12.6295V8.20951C12.87 7.73051 12.48 7.32951 12 7.32951Z" fill="#EB4436"/>
</svg>
