<svg width="30" height="30" viewBox="0 0 30 30" fill="none" xmlns="http://www.w3.org/2000/svg">
<path d="M6.73828 7.03125C8.67991 7.03125 10.2539 5.45725 10.2539 3.51562C10.2539 1.574 8.67991 0 6.73828 0C4.79666 0 3.22266 1.574 3.22266 3.51562C3.22266 5.45725 4.79666 7.03125 6.73828 7.03125Z" fill="#E84A47"/>
<path d="M16.4062 2.92969V14.1211H13.4766V12.0117C13.4766 9.90809 12.3035 8.0734 10.5772 7.12705C9.61482 8.14951 8.24988 8.78906 6.73828 8.78906C5.22668 8.78906 3.86174 8.14951 2.89934 7.12705C1.17305 8.0734 0 9.90809 0 12.0117V16.6992C0 17.83 0.91998 18.75 2.05078 18.75H2.34375V27.9492C2.34375 29.08 3.26373 30 4.39453 30H5.85938V19.6289C5.85938 19.1435 6.25289 18.75 6.73828 18.75C7.22367 18.75 7.61719 19.1435 7.61719 19.6289V30H9.08203C10.2128 30 11.1328 29.08 11.1328 27.9492V18.75H11.4258C12.5566 18.75 13.4766 17.83 13.4766 16.6992V15.8789H16.4062V27.0703C16.4062 27.5557 16.7998 27.9492 17.2852 27.9492H20.5078V26.1914H18.1641V19.9024H20.5078V18.1446H18.1641V11.8554H20.5078V10.0976H18.1641V3.80859H20.5078V2.05078H17.2852C16.7998 2.05078 16.4062 2.4443 16.4062 2.92969Z" fill="#E84A47"/>
<path d="M29.1211 24.1406H23.1445C22.6591 24.1406 22.2656 24.5341 22.2656 25.0195V29.1211C22.2656 29.6065 22.6591 30 23.1445 30H29.1211C29.6065 30 30 29.6065 30 29.1211V25.0195C30 24.5341 29.6065 24.1406 29.1211 24.1406Z" fill="#E84A47"/>
<path d="M29.1211 0H23.1445C22.6591 0 22.2656 0.393516 22.2656 0.878906V4.98047C22.2656 5.46586 22.6591 5.85938 23.1445 5.85938H29.1211C29.6065 5.85938 30 5.46586 30 4.98047V0.878906C30 0.393516 29.6065 0 29.1211 0Z" fill="#E84A47"/>
<path d="M29.1211 8.04688H23.1445C22.6591 8.04688 22.2656 8.44039 22.2656 8.92578V13.0273C22.2656 13.5127 22.6591 13.9063 23.1445 13.9063H29.1211C29.6065 13.9063 30 13.5127 30 13.0273V8.92578C30 8.44039 29.6065 8.04688 29.1211 8.04688Z" fill="#E84A47"/>
<path d="M29.1211 16.0938H23.1445C22.6591 16.0938 22.2656 16.4873 22.2656 16.9727V21.0742C22.2656 21.5596 22.6591 21.9531 23.1445 21.9531H29.1211C29.6065 21.9531 30 21.5596 30 21.0742V16.9727C30 16.4872 29.6065 16.0938 29.1211 16.0938Z" fill="#E84A47"/>
</svg>
