<svg width="351" height="62" viewBox="0 0 351 62" fill="none" xmlns="http://www.w3.org/2000/svg">
<g filter="url(#filter0_dd_1650_3039)">
<path d="M3 23C3 13.5719 3 8.85786 5.92893 5.92893C8.85786 3 13.5719 3 23 3H328C337.428 3 342.142 3 345.071 5.92893C348 8.85786 348 13.5719 348 23V37C348 46.4281 348 51.1421 345.071 54.0711C342.142 57 337.428 57 328 57H23C13.5719 57 8.85786 57 5.92893 54.0711C3 51.1421 3 46.4281 3 37V23Z" fill="white"/>
<rect x="53.5" y="3" width="244" height="54" rx="10" fill="white"/>
<rect width="24" height="24" transform="translate(68.5 18)" fill="white"/>
<path fill-rule="evenodd" clip-rule="evenodd" d="M91.54 30.2615C91.54 29.446 91.4668 28.6619 91.3309 27.9092H80.5V32.3576H86.6891C86.4225 33.7951 85.6123 35.013 84.3943 35.8285V38.714H88.1109C90.2855 36.7119 91.54 33.7637 91.54 30.2615Z" fill="#4285F4"/>
<path fill-rule="evenodd" clip-rule="evenodd" d="M80.4995 41.5001C83.6045 41.5001 86.2077 40.4703 88.1104 38.7139L84.3938 35.8285C83.364 36.5185 82.0467 36.9262 80.4995 36.9262C77.5042 36.9262 74.969 34.9032 74.0647 32.1851H70.2227V35.1646C72.1149 38.923 76.004 41.5001 80.4995 41.5001Z" fill="#34A853"/>
<path fill-rule="evenodd" clip-rule="evenodd" d="M74.0652 32.185C73.8352 31.495 73.7045 30.7579 73.7045 30C73.7045 29.242 73.8352 28.505 74.0652 27.815V24.8354H70.2232C69.4443 26.3879 69 28.1443 69 30C69 31.8557 69.4443 33.612 70.2232 35.1645L74.0652 32.185Z" fill="#FBBC05"/>
<path fill-rule="evenodd" clip-rule="evenodd" d="M80.4995 23.0739C82.1879 23.0739 83.7038 23.6541 84.8956 24.7936L88.194 21.4952C86.2024 19.6395 83.5992 18.5 80.4995 18.5C76.004 18.5 72.1149 21.077 70.2227 24.8355L74.0647 27.815C74.969 25.0968 77.5042 23.0739 80.4995 23.0739Z" fill="#EA4335"/>
<path d="M120.195 21.7812V36H117.754V23.7344H111.436V36H108.994V21.7812H120.195ZM125.273 27.4648V40.0625H122.92V25.4336H125.088L125.273 27.4648ZM132.158 30.6191V30.8242C132.158 31.5924 132.067 32.3053 131.885 32.9629C131.709 33.6139 131.445 34.1836 131.094 34.6719C130.749 35.1536 130.322 35.528 129.814 35.7949C129.307 36.0618 128.721 36.1953 128.057 36.1953C127.399 36.1953 126.823 36.0749 126.328 35.834C125.84 35.5866 125.426 35.2383 125.088 34.7891C124.749 34.3398 124.476 33.8125 124.268 33.207C124.066 32.5951 123.923 31.9245 123.838 31.1953V30.4043C123.923 29.6296 124.066 28.9264 124.268 28.2949C124.476 27.6634 124.749 27.1198 125.088 26.6641C125.426 26.2083 125.84 25.8568 126.328 25.6094C126.816 25.362 127.386 25.2383 128.037 25.2383C128.701 25.2383 129.29 25.3685 129.805 25.6289C130.319 25.8828 130.752 26.2474 131.104 26.7227C131.455 27.1914 131.719 27.7578 131.895 28.4219C132.07 29.0794 132.158 29.8118 132.158 30.6191ZM129.805 30.8242V30.6191C129.805 30.1309 129.759 29.6784 129.668 29.2617C129.577 28.8385 129.434 28.4674 129.238 28.1484C129.043 27.8294 128.792 27.582 128.486 27.4062C128.187 27.224 127.826 27.1328 127.402 27.1328C126.986 27.1328 126.628 27.2044 126.328 27.3477C126.029 27.4844 125.778 27.6764 125.576 27.9238C125.374 28.1712 125.218 28.4609 125.107 28.793C124.997 29.1185 124.919 29.4733 124.873 29.8574V31.752C124.951 32.2207 125.085 32.6504 125.273 33.041C125.462 33.4316 125.729 33.7441 126.074 33.9785C126.426 34.2064 126.875 34.3203 127.422 34.3203C127.845 34.3203 128.206 34.2292 128.506 34.0469C128.805 33.8646 129.049 33.6139 129.238 33.2949C129.434 32.9694 129.577 32.5951 129.668 32.1719C129.759 31.7487 129.805 31.2995 129.805 30.8242ZM136.592 32.5625L140.742 25.4336H143.096V36H140.742V28.8613L136.592 36H134.238V25.4336H136.592V32.5625ZM150.723 31.4785H147.344L147.324 29.8184H150.098C150.553 29.8184 150.928 29.7728 151.221 29.6816C151.52 29.5905 151.742 29.4538 151.885 29.2715C152.028 29.0827 152.1 28.8548 152.1 28.5879C152.1 28.3665 152.057 28.1745 151.973 28.0117C151.888 27.8424 151.758 27.7057 151.582 27.6016C151.413 27.4909 151.198 27.4128 150.938 27.3672C150.684 27.3151 150.387 27.2891 150.049 27.2891H148.125V36H145.771V25.4336H150.049C150.726 25.4336 151.335 25.4922 151.875 25.6094C152.422 25.7266 152.887 25.9056 153.271 26.1465C153.656 26.3874 153.949 26.6934 154.15 27.0645C154.359 27.429 154.463 27.8587 154.463 28.3535C154.463 28.679 154.391 28.985 154.248 29.2715C154.111 29.5579 153.906 29.8118 153.633 30.0332C153.359 30.2546 153.024 30.4368 152.627 30.5801C152.23 30.7168 151.774 30.8014 151.26 30.834L150.723 31.4785ZM150.723 36H146.66L147.598 34.1445H150.723C151.139 34.1445 151.484 34.0924 151.758 33.9883C152.031 33.8841 152.233 33.7344 152.363 33.5391C152.5 33.3372 152.568 33.0996 152.568 32.8262C152.568 32.5462 152.503 32.3053 152.373 32.1035C152.243 31.9017 152.041 31.7487 151.768 31.6445C151.501 31.5339 151.152 31.4785 150.723 31.4785H148.037L148.057 29.8184H151.25L151.924 30.4629C152.594 30.5085 153.151 30.6517 153.594 30.8926C154.036 31.1335 154.368 31.4362 154.59 31.8008C154.811 32.1654 154.922 32.5625 154.922 32.9922C154.922 33.487 154.827 33.9232 154.639 34.3008C154.456 34.6784 154.183 34.9941 153.818 35.248C153.46 35.4954 153.021 35.6842 152.5 35.8145C151.979 35.9382 151.387 36 150.723 36ZM159.053 21V22.377C159.053 22.7871 158.978 23.2135 158.828 23.6562C158.685 24.0924 158.483 24.5124 158.223 24.916C157.962 25.3132 157.663 25.6582 157.324 25.9512L156.143 25.209C156.41 24.8053 156.624 24.3789 156.787 23.9297C156.956 23.474 157.041 22.9629 157.041 22.3965V21H159.053ZM163.359 30.834H165.801L162.803 36H160.371L163.359 30.834ZM165.078 25.4336H169.609V36H167.266V27.2891H165.078C164.635 27.2891 164.271 27.3672 163.984 27.5234C163.698 27.6732 163.486 27.8717 163.35 28.1191C163.213 28.36 163.145 28.6074 163.145 28.8613C163.145 29.1152 163.206 29.3594 163.33 29.5938C163.46 29.8281 163.659 30.0202 163.926 30.1699C164.199 30.3197 164.541 30.3945 164.951 30.3945H168.057V32.1133H164.951C164.3 32.1133 163.717 32.0319 163.203 31.8691C162.689 31.6999 162.253 31.4688 161.895 31.1758C161.536 30.8763 161.263 30.528 161.074 30.1309C160.885 29.7272 160.791 29.2878 160.791 28.8125C160.791 28.3242 160.889 27.875 161.084 27.4648C161.279 27.0547 161.559 26.6966 161.924 26.3906C162.295 26.0846 162.744 25.8503 163.271 25.6875C163.805 25.5182 164.408 25.4336 165.078 25.4336ZM176.602 30.9512H174.57V29.7598H176.211C176.628 29.7598 176.96 29.7044 177.207 29.5938C177.461 29.4831 177.64 29.3301 177.744 29.1348C177.855 28.9329 177.91 28.6986 177.91 28.4316C177.91 28.1973 177.855 27.9759 177.744 27.7676C177.64 27.5527 177.461 27.377 177.207 27.2402C176.953 27.1035 176.608 27.0352 176.172 27.0352C175.814 27.0352 175.492 27.0938 175.205 27.2109C174.925 27.3281 174.704 27.4909 174.541 27.6992C174.378 27.9076 174.297 28.1484 174.297 28.4219H171.943C171.943 27.7643 172.129 27.1979 172.5 26.7227C172.878 26.2474 173.382 25.8828 174.014 25.6289C174.645 25.375 175.339 25.248 176.094 25.248C176.738 25.248 177.318 25.3164 177.832 25.4531C178.346 25.5833 178.783 25.7786 179.141 26.0391C179.505 26.293 179.782 26.612 179.971 26.9961C180.166 27.3737 180.264 27.8132 180.264 28.3145C180.264 28.6725 180.179 29.0111 180.01 29.3301C179.84 29.6491 179.596 29.9323 179.277 30.1797C178.958 30.4206 178.571 30.6094 178.115 30.7461C177.666 30.8828 177.161 30.9512 176.602 30.9512ZM174.57 30.2676H176.602C177.227 30.2676 177.78 30.3294 178.262 30.4531C178.743 30.5703 179.147 30.7461 179.473 30.9805C179.798 31.2148 180.042 31.5046 180.205 31.8496C180.374 32.1882 180.459 32.5788 180.459 33.0215C180.459 33.5163 180.352 33.9622 180.137 34.3594C179.928 34.75 179.629 35.082 179.238 35.3555C178.854 35.6289 178.395 35.8372 177.861 35.9805C177.327 36.1237 176.738 36.1953 176.094 36.1953C175.391 36.1953 174.707 36.0781 174.043 35.8438C173.385 35.6094 172.842 35.248 172.412 34.7598C171.989 34.265 171.777 33.6367 171.777 32.875H174.131C174.131 33.1419 174.212 33.3926 174.375 33.627C174.538 33.8613 174.772 34.0534 175.078 34.2031C175.384 34.3464 175.752 34.418 176.182 34.418C176.624 34.418 176.986 34.3496 177.266 34.2129C177.546 34.0697 177.754 33.8841 177.891 33.6562C178.027 33.4219 178.096 33.1745 178.096 32.9141C178.096 32.5625 178.027 32.2793 177.891 32.0645C177.754 31.8496 177.546 31.6934 177.266 31.5957C176.986 31.4915 176.634 31.4395 176.211 31.4395H174.57V30.2676ZM188.418 33.8809V28.8418C188.418 28.4642 188.35 28.1387 188.213 27.8652C188.076 27.5918 187.868 27.3802 187.588 27.2305C187.314 27.0807 186.969 27.0059 186.553 27.0059C186.169 27.0059 185.837 27.071 185.557 27.2012C185.277 27.3314 185.059 27.5072 184.902 27.7285C184.746 27.9499 184.668 28.2005 184.668 28.4805H182.324C182.324 28.0638 182.425 27.6602 182.627 27.2695C182.829 26.8789 183.122 26.5306 183.506 26.2246C183.89 25.9186 184.349 25.6777 184.883 25.502C185.417 25.3262 186.016 25.2383 186.68 25.2383C187.474 25.2383 188.177 25.3717 188.789 25.6387C189.408 25.9056 189.893 26.3092 190.244 26.8496C190.602 27.3835 190.781 28.054 190.781 28.8613V33.5586C190.781 34.0404 190.814 34.4733 190.879 34.8574C190.951 35.235 191.051 35.5638 191.182 35.8438V36H188.77C188.659 35.7461 188.571 35.4238 188.506 35.0332C188.447 34.6361 188.418 34.252 188.418 33.8809ZM188.76 29.5742L188.779 31.0293H187.09C186.654 31.0293 186.27 31.0716 185.938 31.1562C185.605 31.2344 185.329 31.3516 185.107 31.5078C184.886 31.6641 184.72 31.8529 184.609 32.0742C184.499 32.2956 184.443 32.5462 184.443 32.8262C184.443 33.1061 184.508 33.3633 184.639 33.5977C184.769 33.8255 184.958 34.0046 185.205 34.1348C185.459 34.265 185.765 34.3301 186.123 34.3301C186.605 34.3301 187.025 34.2324 187.383 34.0371C187.747 33.8353 188.034 33.5911 188.242 33.3047C188.451 33.0117 188.561 32.735 188.574 32.4746L189.336 33.5195C189.258 33.7865 189.124 34.0729 188.936 34.3789C188.747 34.6849 188.499 34.9779 188.193 35.2578C187.894 35.5312 187.533 35.7559 187.109 35.9316C186.693 36.1074 186.211 36.1953 185.664 36.1953C184.974 36.1953 184.359 36.0586 183.818 35.7852C183.278 35.5052 182.855 35.1309 182.549 34.6621C182.243 34.1868 182.09 33.6497 182.09 33.0508C182.09 32.4909 182.194 31.9961 182.402 31.5664C182.617 31.1302 182.93 30.7656 183.34 30.4727C183.757 30.1797 184.264 29.9583 184.863 29.8086C185.462 29.6523 186.146 29.5742 186.914 29.5742H188.76ZM197.988 25.4336V36H195.625V25.4336H197.988ZM201.455 25.4336V27.2891H192.217V25.4336H201.455ZM205.459 32.5625L209.609 25.4336H211.963V36H209.609V28.8613L205.459 36H203.105V25.4336H205.459V32.5625ZM230.586 28.7344V34.1641C230.384 34.431 230.068 34.724 229.639 35.043C229.215 35.3555 228.652 35.6257 227.949 35.8535C227.246 36.0814 226.37 36.1953 225.322 36.1953C224.43 36.1953 223.613 36.0456 222.871 35.7461C222.129 35.4401 221.488 34.9941 220.947 34.4082C220.413 33.8223 220 33.1094 219.707 32.2695C219.414 31.4232 219.268 30.4596 219.268 29.3789V28.3926C219.268 27.3184 219.401 26.3613 219.668 25.5215C219.941 24.6751 220.332 23.959 220.84 23.373C221.348 22.7871 221.96 22.3444 222.676 22.0449C223.398 21.7389 224.215 21.5859 225.127 21.5859C226.292 21.5859 227.256 21.7812 228.018 22.1719C228.786 22.556 229.378 23.0898 229.795 23.7734C230.212 24.457 230.475 25.2383 230.586 26.1172H228.184C228.105 25.6224 227.952 25.1797 227.725 24.7891C227.503 24.3984 227.184 24.0924 226.768 23.8711C226.357 23.6432 225.824 23.5293 225.166 23.5293C224.6 23.5293 224.102 23.6367 223.672 23.8516C223.242 24.0664 222.884 24.3822 222.598 24.7988C222.318 25.2155 222.106 25.7233 221.963 26.3223C221.82 26.9212 221.748 27.6048 221.748 28.373V29.3789C221.748 30.1602 221.829 30.8535 221.992 31.459C222.161 32.0645 222.402 32.5755 222.715 32.9922C223.034 33.4089 223.421 33.7246 223.877 33.9395C224.333 34.1478 224.847 34.252 225.42 34.252C225.98 34.252 226.439 34.2064 226.797 34.1152C227.155 34.0176 227.438 33.9036 227.646 33.7734C227.861 33.6367 228.027 33.5065 228.145 33.3828V30.5605H225.186V28.7344H230.586ZM232.617 30.834V30.6094C232.617 29.8477 232.728 29.1413 232.949 28.4902C233.171 27.8327 233.49 27.263 233.906 26.7812C234.329 26.293 234.844 25.9154 235.449 25.6484C236.061 25.375 236.751 25.2383 237.52 25.2383C238.294 25.2383 238.984 25.375 239.59 25.6484C240.202 25.9154 240.719 26.293 241.143 26.7812C241.566 27.263 241.888 27.8327 242.109 28.4902C242.331 29.1413 242.441 29.8477 242.441 30.6094V30.834C242.441 31.5957 242.331 32.3021 242.109 32.9531C241.888 33.6042 241.566 34.1738 241.143 34.6621C240.719 35.1439 240.205 35.5215 239.6 35.7949C238.994 36.0618 238.307 36.1953 237.539 36.1953C236.764 36.1953 236.071 36.0618 235.459 35.7949C234.854 35.5215 234.339 35.1439 233.916 34.6621C233.493 34.1738 233.171 33.6042 232.949 32.9531C232.728 32.3021 232.617 31.5957 232.617 30.834ZM234.971 30.6094V30.834C234.971 31.3092 235.02 31.7585 235.117 32.1816C235.215 32.6048 235.368 32.9759 235.576 33.2949C235.785 33.6139 236.051 33.8646 236.377 34.0469C236.702 34.2292 237.09 34.3203 237.539 34.3203C237.975 34.3203 238.353 34.2292 238.672 34.0469C238.997 33.8646 239.264 33.6139 239.473 33.2949C239.681 32.9759 239.834 32.6048 239.932 32.1816C240.036 31.7585 240.088 31.3092 240.088 30.834V30.6094C240.088 30.1406 240.036 29.6979 239.932 29.2812C239.834 28.8581 239.678 28.4837 239.463 28.1582C239.255 27.8327 238.988 27.5788 238.662 27.3965C238.343 27.2077 237.962 27.1133 237.52 27.1133C237.077 27.1133 236.693 27.2077 236.367 27.3965C236.048 27.5788 235.785 27.8327 235.576 28.1582C235.368 28.4837 235.215 28.8581 235.117 29.2812C235.02 29.6979 234.971 30.1406 234.971 30.6094ZM243.965 30.834V30.6094C243.965 29.8477 244.076 29.1413 244.297 28.4902C244.518 27.8327 244.837 27.263 245.254 26.7812C245.677 26.293 246.191 25.9154 246.797 25.6484C247.409 25.375 248.099 25.2383 248.867 25.2383C249.642 25.2383 250.332 25.375 250.938 25.6484C251.549 25.9154 252.067 26.293 252.49 26.7812C252.913 27.263 253.236 27.8327 253.457 28.4902C253.678 29.1413 253.789 29.8477 253.789 30.6094V30.834C253.789 31.5957 253.678 32.3021 253.457 32.9531C253.236 33.6042 252.913 34.1738 252.49 34.6621C252.067 35.1439 251.553 35.5215 250.947 35.7949C250.342 36.0618 249.655 36.1953 248.887 36.1953C248.112 36.1953 247.419 36.0618 246.807 35.7949C246.201 35.5215 245.687 35.1439 245.264 34.6621C244.84 34.1738 244.518 33.6042 244.297 32.9531C244.076 32.3021 243.965 31.5957 243.965 30.834ZM246.318 30.6094V30.834C246.318 31.3092 246.367 31.7585 246.465 32.1816C246.562 32.6048 246.715 32.9759 246.924 33.2949C247.132 33.6139 247.399 33.8646 247.725 34.0469C248.05 34.2292 248.438 34.3203 248.887 34.3203C249.323 34.3203 249.701 34.2292 250.02 34.0469C250.345 33.8646 250.612 33.6139 250.82 33.2949C251.029 32.9759 251.182 32.6048 251.279 32.1816C251.383 31.7585 251.436 31.3092 251.436 30.834V30.6094C251.436 30.1406 251.383 29.6979 251.279 29.2812C251.182 28.8581 251.025 28.4837 250.811 28.1582C250.602 27.8327 250.335 27.5788 250.01 27.3965C249.691 27.2077 249.31 27.1133 248.867 27.1133C248.424 27.1133 248.04 27.2077 247.715 27.3965C247.396 27.5788 247.132 27.8327 246.924 28.1582C246.715 28.4837 246.562 28.8581 246.465 29.2812C246.367 29.6979 246.318 30.1406 246.318 30.6094ZM262.529 25.4336H264.668V35.707C264.668 36.6576 264.466 37.4648 264.062 38.1289C263.659 38.793 263.096 39.2975 262.373 39.6426C261.65 39.9941 260.814 40.1699 259.863 40.1699C259.46 40.1699 259.01 40.1113 258.516 39.9941C258.027 39.877 257.552 39.6882 257.09 39.4277C256.634 39.1738 256.253 38.8385 255.947 38.4219L257.051 37.0352C257.428 37.4844 257.845 37.8132 258.301 38.0215C258.757 38.2298 259.235 38.334 259.736 38.334C260.277 38.334 260.736 38.2331 261.113 38.0312C261.497 37.8359 261.794 37.5462 262.002 37.1621C262.21 36.778 262.314 36.3092 262.314 35.7559V27.8262L262.529 25.4336ZM255.352 30.834V30.6289C255.352 29.8281 255.449 29.099 255.645 28.4414C255.84 27.7773 256.12 27.2077 256.484 26.7324C256.849 26.2507 257.292 25.8828 257.812 25.6289C258.333 25.3685 258.923 25.2383 259.58 25.2383C260.264 25.2383 260.846 25.362 261.328 25.6094C261.816 25.8568 262.223 26.2116 262.549 26.6738C262.874 27.1296 263.128 27.6764 263.311 28.3145C263.499 28.946 263.639 29.6491 263.73 30.4238V31.0781C263.646 31.8333 263.503 32.5234 263.301 33.1484C263.099 33.7734 262.832 34.3138 262.5 34.7695C262.168 35.2253 261.758 35.5768 261.27 35.8242C260.788 36.0716 260.218 36.1953 259.561 36.1953C258.916 36.1953 258.333 36.0618 257.812 35.7949C257.298 35.528 256.855 35.1536 256.484 34.6719C256.12 34.1901 255.84 33.6237 255.645 32.9727C255.449 32.3151 255.352 31.6022 255.352 30.834ZM257.705 30.6289V30.834C257.705 31.3158 257.751 31.765 257.842 32.1816C257.939 32.5983 258.086 32.9661 258.281 33.2852C258.483 33.5977 258.737 33.8451 259.043 34.0273C259.355 34.2031 259.723 34.291 260.146 34.291C260.7 34.291 261.152 34.1738 261.504 33.9395C261.862 33.7051 262.135 33.3893 262.324 32.9922C262.52 32.5885 262.656 32.1393 262.734 31.6445V29.877C262.695 29.4928 262.614 29.1348 262.49 28.8027C262.373 28.4707 262.214 28.181 262.012 27.9336C261.81 27.6797 261.556 27.4844 261.25 27.3477C260.944 27.2044 260.583 27.1328 260.166 27.1328C259.743 27.1328 259.375 27.224 259.062 27.4062C258.75 27.5885 258.493 27.8392 258.291 28.1582C258.096 28.4772 257.949 28.8483 257.852 29.2715C257.754 29.6947 257.705 30.1471 257.705 30.6289ZM269.629 21V36H267.266V21H269.629ZM276.865 36.1953C276.084 36.1953 275.378 36.0684 274.746 35.8145C274.121 35.554 273.587 35.1927 273.145 34.7305C272.708 34.2682 272.373 33.7246 272.139 33.0996C271.904 32.4746 271.787 31.8008 271.787 31.0781V30.6875C271.787 29.8607 271.908 29.112 272.148 28.4414C272.389 27.7708 272.725 27.1979 273.154 26.7227C273.584 26.2409 274.092 25.873 274.678 25.6191C275.264 25.3652 275.898 25.2383 276.582 25.2383C277.337 25.2383 277.998 25.3652 278.564 25.6191C279.131 25.873 279.6 26.2311 279.971 26.6934C280.348 27.1491 280.628 27.6927 280.811 28.3242C280.999 28.9557 281.094 29.6523 281.094 30.4141V31.4199H272.93V29.7305H278.77V29.5449C278.757 29.1217 278.672 28.7246 278.516 28.3535C278.366 27.9824 278.135 27.6829 277.822 27.4551C277.51 27.2272 277.093 27.1133 276.572 27.1133C276.182 27.1133 275.833 27.1979 275.527 27.3672C275.228 27.5299 274.977 27.7676 274.775 28.0801C274.574 28.3926 274.417 28.7702 274.307 29.2129C274.202 29.6491 274.15 30.1406 274.15 30.6875V31.0781C274.15 31.5404 274.212 31.9701 274.336 32.3672C274.466 32.7578 274.655 33.0996 274.902 33.3926C275.15 33.6855 275.449 33.9167 275.801 34.0859C276.152 34.2487 276.553 34.3301 277.002 34.3301C277.568 34.3301 278.073 34.2161 278.516 33.9883C278.958 33.7604 279.342 33.4382 279.668 33.0215L280.908 34.2227C280.68 34.5547 280.384 34.8737 280.02 35.1797C279.655 35.4792 279.209 35.7233 278.682 35.9121C278.161 36.1009 277.555 36.1953 276.865 36.1953Z" fill="black" fill-opacity="0.54"/>
</g>
<defs>
<filter id="filter0_dd_1650_3039" x="0" y="0" width="351" height="62" filterUnits="userSpaceOnUse" color-interpolation-filters="sRGB">
<feFlood flood-opacity="0" result="BackgroundImageFix"/>
<feColorMatrix in="SourceAlpha" type="matrix" values="0 0 0 0 0 0 0 0 0 0 0 0 0 0 0 0 0 0 127 0" result="hardAlpha"/>
<feOffset dy="2"/>
<feGaussianBlur stdDeviation="1.5"/>
<feColorMatrix type="matrix" values="0 0 0 0 0 0 0 0 0 0 0 0 0 0 0 0 0 0 0.168 0"/>
<feBlend mode="normal" in2="BackgroundImageFix" result="effect1_dropShadow_1650_3039"/>
<feColorMatrix in="SourceAlpha" type="matrix" values="0 0 0 0 0 0 0 0 0 0 0 0 0 0 0 0 0 0 127 0" result="hardAlpha"/>
<feOffset/>
<feGaussianBlur stdDeviation="1.5"/>
<feColorMatrix type="matrix" values="0 0 0 0 0 0 0 0 0 0 0 0 0 0 0 0 0 0 0.084 0"/>
<feBlend mode="normal" in2="effect1_dropShadow_1650_3039" result="effect2_dropShadow_1650_3039"/>
<feBlend mode="normal" in="SourceGraphic" in2="effect2_dropShadow_1650_3039" result="shape"/>
</filter>
</defs>
</svg>
