<svg width="345" height="54" viewBox="0 0 345 54" fill="none" xmlns="http://www.w3.org/2000/svg">
<path d="M0 16C0 10.3995 0 7.59921 1.08993 5.46009C2.04867 3.57847 3.57847 2.04867 5.46009 1.08993C7.59921 0 10.3995 0 16 0H329C334.601 0 337.401 0 339.54 1.08993C341.422 2.04867 342.951 3.57847 343.91 5.46009C345 7.59921 345 10.3995 345 16V38C345 43.6005 345 46.4008 343.91 48.5399C342.951 50.4215 341.422 51.9513 339.54 52.9101C337.401 54 334.601 54 329 54H16C10.3995 54 7.59921 54 5.46009 52.9101C3.57847 51.9513 2.04867 50.4215 1.08993 48.5399C0 46.4008 0 43.6005 0 38V16Z" fill="#1877F2"/>
<rect x="33" width="280" height="54" rx="10" fill="#1877F2"/>
<rect width="24" height="24" transform="translate(48 15)" fill="#1877F2"/>
<path d="M71.5 27.0699C71.5 20.7186 66.3513 15.5699 60 15.5699C53.6487 15.5699 48.5 20.7186 48.5 27.0699C48.5 32.8099 52.7054 37.5674 58.2031 38.4302V30.3941H55.2832V27.0699H58.2031V24.5363C58.2031 21.6541 59.92 20.0621 62.5468 20.0621C63.805 20.0621 65.1211 20.2867 65.1211 20.2867V23.1168H63.671C62.2424 23.1168 61.7969 24.0032 61.7969 24.9127V27.0699H64.9863L64.4765 30.3941H61.7969V38.4302C67.2946 37.5674 71.5 32.8099 71.5 27.0699Z" fill="white"/>
<path d="M88.3965 18.6445H100.037V33H97.0391V21.1152H91.4043V33H88.3965V18.6445ZM106.658 22.4824C106.912 22.3327 107.192 22.222 107.498 22.1504C107.811 22.0788 108.162 22.043 108.553 22.043C108.878 22.043 109.214 22.082 109.559 22.1602C109.904 22.2383 110.239 22.3652 110.564 22.541C110.896 22.7103 111.209 22.9349 111.502 23.2148C111.795 23.4883 112.052 23.8268 112.273 24.2305C112.495 24.6341 112.671 25.1061 112.801 25.6465C112.931 26.1803 112.996 26.7923 112.996 27.4824C112.996 28.3418 112.902 29.1296 112.713 29.8457C112.531 30.5618 112.251 31.1771 111.873 31.6914C111.502 32.2057 111.03 32.6061 110.457 32.8926C109.891 33.179 109.223 33.3223 108.455 33.3223C108.188 33.3223 107.918 33.2962 107.645 33.2441C107.371 33.1921 107.104 33.1042 106.844 32.9805C106.583 32.8568 106.336 32.6908 106.102 32.4824C105.874 32.2676 105.672 32.0007 105.496 31.6816H105.457V37.1211H102.693V22.3555H105.33V23.8789H105.369C105.558 23.5599 105.757 23.2865 105.965 23.0586C106.173 22.8242 106.404 22.6322 106.658 22.4824ZM106.219 30.373C106.395 30.5488 106.606 30.6921 106.854 30.8027C107.101 30.9069 107.394 30.959 107.732 30.959C108.071 30.959 108.364 30.9069 108.611 30.8027C108.859 30.6921 109.07 30.5488 109.246 30.373C109.422 30.1973 109.565 29.9954 109.676 29.7676C109.793 29.5397 109.884 29.3053 109.949 29.0645C110.014 28.8171 110.057 28.5762 110.076 28.3418C110.102 28.1009 110.115 27.8796 110.115 27.6777C110.115 27.3066 110.073 26.9323 109.988 26.5547C109.904 26.1771 109.767 25.8385 109.578 25.5391C109.396 25.2396 109.152 24.9954 108.846 24.8066C108.54 24.6178 108.169 24.5234 107.732 24.5234C107.29 24.5234 106.915 24.6178 106.609 24.8066C106.31 24.9954 106.066 25.2396 105.877 25.5391C105.695 25.8385 105.561 26.1771 105.477 26.5547C105.392 26.9323 105.35 27.3066 105.35 27.6777C105.35 27.8796 105.359 28.1009 105.379 28.3418C105.405 28.5762 105.451 28.8171 105.516 29.0645C105.581 29.3053 105.669 29.5397 105.779 29.7676C105.896 29.9954 106.043 30.1973 106.219 30.373ZM121.824 33V26.584H121.775L118.016 33H114.998V22.3555H117.762V28.918H117.801L121.678 22.3555H124.578V33H121.824ZM133.27 33H127.303V22.3555H132.811C133.299 22.3555 133.768 22.3978 134.217 22.4824C134.673 22.5671 135.073 22.7168 135.418 22.9316C135.763 23.14 136.036 23.4264 136.238 23.791C136.447 24.1491 136.551 24.6048 136.551 25.1582C136.551 25.4772 136.515 25.7539 136.443 25.9883C136.378 26.2227 136.287 26.4245 136.17 26.5938C136.053 26.7565 135.916 26.8965 135.76 27.0137C135.61 27.1243 135.454 27.2188 135.291 27.2969C135.825 27.4857 136.232 27.7884 136.512 28.2051C136.792 28.6152 136.932 29.1068 136.932 29.6797C136.932 30.181 136.844 30.6367 136.668 31.0469C136.499 31.4505 136.255 31.7988 135.936 32.0918C135.623 32.3783 135.239 32.6029 134.783 32.7656C134.334 32.9219 133.829 33 133.27 33ZM133.055 28.4395C132.814 28.4004 132.527 28.3809 132.195 28.3809H130.066V31.0371H132.195C132.592 31.0371 132.911 30.9948 133.152 30.9102C133.4 30.8255 133.589 30.7181 133.719 30.5879C133.855 30.4577 133.943 30.3145 133.982 30.1582C134.028 30.002 134.051 29.8555 134.051 29.7188C134.051 29.4583 134.015 29.2435 133.943 29.0742C133.878 28.8984 133.771 28.7585 133.621 28.6543C133.478 28.5501 133.289 28.4785 133.055 28.4395ZM133.475 26.2422C133.592 26.151 133.673 26.0371 133.719 25.9004C133.771 25.7572 133.797 25.5911 133.797 25.4023C133.797 25.2461 133.771 25.1029 133.719 24.9727C133.673 24.8359 133.592 24.722 133.475 24.6309C133.357 24.5332 133.201 24.4583 133.006 24.4062C132.811 24.3477 132.566 24.3184 132.273 24.3184H130.066V26.5352H132.195C132.508 26.5352 132.768 26.5124 132.977 26.4668C133.185 26.4147 133.351 26.3398 133.475 26.2422ZM141.912 20.7148C141.912 21.6979 141.671 22.4727 141.189 23.0391C140.714 23.6055 140.044 23.9733 139.178 24.1426V23.1172C139.816 22.9154 140.255 22.5736 140.496 22.0918C140.626 21.8053 140.682 21.5156 140.662 21.2227H139.129V18.6543H141.912V20.7148ZM145.164 28.8301C145.268 28.6803 145.411 28.5501 145.594 28.4395C145.776 28.3288 146.02 28.2279 146.326 28.1367C146.229 28.1107 146.118 28.0749 145.994 28.0293C145.877 27.9772 145.75 27.9121 145.613 27.834C145.483 27.7493 145.35 27.6452 145.213 27.5215C145.083 27.3913 144.959 27.2318 144.842 27.043C144.757 26.9193 144.689 26.7891 144.637 26.6523C144.591 26.5091 144.555 26.3724 144.529 26.2422C144.503 26.1055 144.487 25.9785 144.48 25.8613C144.474 25.7441 144.471 25.6432 144.471 25.5586C144.471 25.181 144.516 24.8457 144.607 24.5527C144.699 24.2533 144.816 23.9928 144.959 23.7715C145.102 23.5501 145.265 23.3613 145.447 23.2051C145.63 23.0488 145.815 22.9219 146.004 22.8242C146.212 22.707 146.443 22.6191 146.697 22.5605C146.951 22.4954 147.199 22.4499 147.439 22.4238C147.68 22.3913 147.905 22.3717 148.113 22.3652C148.322 22.3587 148.484 22.3555 148.602 22.3555H154.324V33H151.551V29.084H149.744C149.347 29.084 149.005 29.1003 148.719 29.1328C148.439 29.1589 148.208 29.2272 148.025 29.3379C147.843 29.4421 147.703 29.5983 147.605 29.8066C147.514 30.015 147.462 30.2982 147.449 30.6562L147.41 31.6816C147.397 31.8314 147.378 32.0267 147.352 32.2676C147.332 32.5085 147.27 32.7526 147.166 33H144.246C144.331 32.8568 144.399 32.7201 144.451 32.5898C144.503 32.4531 144.542 32.3229 144.568 32.1992C144.601 32.069 144.624 31.9388 144.637 31.8086C144.656 31.6784 144.673 31.5417 144.686 31.3984L144.822 30.1191C144.855 29.8327 144.894 29.5853 144.939 29.377C144.985 29.1686 145.06 28.9863 145.164 28.8301ZM147.547 26.5645C147.658 26.7402 147.801 26.8704 147.977 26.9551C148.159 27.0397 148.361 27.0885 148.582 27.1016C148.803 27.1146 149.025 27.1211 149.246 27.1211H151.551V24.4355H149.324C149.09 24.4355 148.855 24.4421 148.621 24.4551C148.387 24.4681 148.175 24.5202 147.986 24.6113C147.804 24.696 147.654 24.8327 147.537 25.0215C147.426 25.2038 147.371 25.4642 147.371 25.8027C147.371 26.1348 147.43 26.3887 147.547 26.5645ZM159.305 26.5352H160.369C160.988 26.5352 161.424 26.4277 161.678 26.2129C161.938 25.998 162.068 25.6855 162.068 25.2754C162.068 25.0345 162.029 24.8327 161.951 24.6699C161.88 24.5072 161.775 24.377 161.639 24.2793C161.508 24.1751 161.352 24.1035 161.17 24.0645C160.988 24.0189 160.789 23.9961 160.574 23.9961C160.086 23.9961 159.689 24.11 159.383 24.3379C159.083 24.5592 158.934 24.8815 158.934 25.3047H156.336C156.342 24.7188 156.46 24.2207 156.688 23.8105C156.922 23.3939 157.238 23.0553 157.635 22.7949C158.032 22.5345 158.501 22.3457 159.041 22.2285C159.581 22.1048 160.164 22.043 160.789 22.043C161.492 22.043 162.098 22.1276 162.605 22.2969C163.113 22.4661 163.533 22.6908 163.865 22.9707C164.197 23.2507 164.441 23.5729 164.598 23.9375C164.754 24.2956 164.832 24.6634 164.832 25.041C164.832 25.3535 164.786 25.6335 164.695 25.8809C164.604 26.1217 164.48 26.3333 164.324 26.5156C164.168 26.6914 163.986 26.8379 163.777 26.9551C163.576 27.0723 163.364 27.1602 163.143 27.2188V27.2578C163.514 27.3164 163.829 27.4271 164.09 27.5898C164.35 27.7461 164.562 27.9349 164.725 28.1562C164.887 28.3776 165.005 28.6217 165.076 28.8887C165.154 29.1491 165.193 29.4062 165.193 29.6602C165.193 30.3242 165.063 30.8874 164.803 31.3496C164.542 31.8118 164.201 32.1895 163.777 32.4824C163.361 32.7754 162.889 32.987 162.361 33.1172C161.84 33.2539 161.316 33.3223 160.789 33.3223C160.099 33.3223 159.464 33.2572 158.885 33.127C158.312 33.0033 157.817 32.7982 157.4 32.5117C156.99 32.2188 156.668 31.8411 156.434 31.3789C156.199 30.9102 156.079 30.3372 156.072 29.6602H158.709C158.709 29.9076 158.755 30.1354 158.846 30.3438C158.937 30.5521 159.064 30.7311 159.227 30.8809C159.389 31.0306 159.585 31.1478 159.812 31.2324C160.04 31.3171 160.294 31.3594 160.574 31.3594C160.913 31.3594 161.193 31.3073 161.414 31.2031C161.642 31.0924 161.821 30.9557 161.951 30.793C162.081 30.6302 162.173 30.4577 162.225 30.2754C162.283 30.0866 162.312 29.9141 162.312 29.7578C162.312 29.25 162.173 28.8952 161.893 28.6934C161.619 28.485 161.18 28.3809 160.574 28.3809H159.305V26.5352ZM171.814 26.3594C171.912 26.3464 172.016 26.3268 172.127 26.3008C172.244 26.2747 172.352 26.2324 172.449 26.1738C172.547 26.1087 172.628 26.0241 172.693 25.9199C172.758 25.8092 172.791 25.6628 172.791 25.4805C172.791 25.3047 172.762 25.1452 172.703 25.002C172.651 24.8522 172.56 24.7253 172.43 24.6211C172.299 24.5104 172.124 24.4258 171.902 24.3672C171.688 24.3086 171.417 24.2793 171.092 24.2793C170.721 24.2793 170.421 24.3184 170.193 24.3965C169.972 24.4681 169.796 24.5723 169.666 24.709C169.536 24.8392 169.441 24.9954 169.383 25.1777C169.324 25.3535 169.282 25.5423 169.256 25.7441H166.492C166.492 25.6139 166.512 25.4349 166.551 25.207C166.596 24.9727 166.674 24.7188 166.785 24.4453C166.902 24.1719 167.062 23.8952 167.264 23.6152C167.472 23.3353 167.742 23.0814 168.074 22.8535C168.413 22.6191 168.823 22.4271 169.305 22.2773C169.786 22.1276 170.363 22.0495 171.033 22.043C171.984 22.043 172.752 22.1406 173.338 22.3359C173.93 22.5247 174.389 22.7754 174.715 23.0879C175.047 23.3939 175.268 23.7389 175.379 24.123C175.496 24.5007 175.555 24.8783 175.555 25.2559V30.9004C175.555 31.2194 175.571 31.4831 175.604 31.6914C175.643 31.8932 175.691 32.056 175.75 32.1797C175.809 32.2969 175.874 32.3848 175.945 32.4434C176.023 32.4954 176.105 32.5345 176.189 32.5605V33H173.133C173.081 32.8763 173.022 32.7135 172.957 32.5117C172.898 32.3034 172.869 32.0527 172.869 31.7598C172.654 31.9811 172.443 32.1862 172.234 32.375C172.033 32.5638 171.805 32.7298 171.551 32.873C171.297 33.0098 171.004 33.1172 170.672 33.1953C170.34 33.2799 169.939 33.3223 169.471 33.3223C168.995 33.3223 168.556 33.2507 168.152 33.1074C167.755 32.9707 167.41 32.7656 167.117 32.4922C166.824 32.2188 166.596 31.877 166.434 31.4668C166.271 31.0566 166.189 30.5814 166.189 30.041C166.189 29.6048 166.258 29.2012 166.395 28.8301C166.531 28.4525 166.723 28.1237 166.971 27.8438C167.225 27.5573 167.531 27.3229 167.889 27.1406C168.253 26.9518 168.66 26.8249 169.109 26.7598L171.814 26.3594ZM169.803 31.2812C169.972 31.3333 170.154 31.3594 170.35 31.3594C170.454 31.3594 170.587 31.3496 170.75 31.3301C170.913 31.304 171.085 31.2585 171.268 31.1934C171.45 31.1283 171.632 31.0404 171.814 30.9297C171.997 30.8125 172.16 30.6628 172.303 30.4805C172.446 30.2982 172.563 30.0768 172.654 29.8164C172.745 29.5495 172.791 29.237 172.791 28.8789V27.8047C172.622 27.8958 172.452 27.9805 172.283 28.0586C172.114 28.1302 171.889 28.1921 171.609 28.2441L170.877 28.3809C170.558 28.4395 170.278 28.5078 170.037 28.5859C169.796 28.6641 169.594 28.7682 169.432 28.8984C169.275 29.0221 169.155 29.1751 169.07 29.3574C168.992 29.5397 168.953 29.7676 168.953 30.041C168.953 30.2689 168.989 30.4674 169.061 30.6367C169.132 30.7995 169.23 30.9362 169.354 31.0469C169.484 31.151 169.633 31.2292 169.803 31.2812ZM186.365 22.3555V24.6016H183.143V33H180.389V24.6016H177.166V22.3555H186.365ZM194.91 33V26.584H194.861L191.102 33H188.084V22.3555H190.848V28.918H190.887L194.764 22.3555H197.664V33H194.91ZM216.287 21.1543H209.07V24.4648H215.389V26.9648H209.07V33H206.082V18.625H216.287V21.1543ZM218.484 23.5078C219.22 22.5703 220.483 22.1016 222.273 22.1016C223.439 22.1016 224.474 22.3327 225.379 22.7949C226.284 23.2572 226.736 24.1296 226.736 25.4121V30.2949C226.736 30.6335 226.743 31.0436 226.756 31.5254C226.775 31.89 226.831 32.1374 226.922 32.2676C227.013 32.3978 227.15 32.5052 227.332 32.5898V33H224.305C224.22 32.7852 224.161 32.5833 224.129 32.3945C224.096 32.2057 224.07 31.9909 224.051 31.75C223.667 32.1667 223.224 32.5215 222.723 32.8145C222.124 33.1595 221.447 33.332 220.691 33.332C219.728 33.332 218.93 33.0586 218.299 32.5117C217.674 31.9583 217.361 31.1771 217.361 30.168C217.361 28.8594 217.866 27.9121 218.875 27.3262C219.428 27.0072 220.242 26.7793 221.316 26.6426L222.264 26.5254C222.778 26.4603 223.146 26.3789 223.367 26.2812C223.764 26.112 223.963 25.8483 223.963 25.4902C223.963 25.054 223.81 24.7546 223.504 24.5918C223.204 24.4225 222.762 24.3379 222.176 24.3379C221.518 24.3379 221.053 24.5007 220.779 24.8262C220.584 25.0671 220.454 25.3926 220.389 25.8027H217.703C217.762 24.8717 218.022 24.1068 218.484 23.5078ZM220.555 30.9883C220.815 31.2031 221.134 31.3105 221.512 31.3105C222.111 31.3105 222.661 31.1348 223.162 30.7832C223.67 30.4316 223.934 29.7904 223.953 28.8594V27.8242C223.777 27.9349 223.598 28.026 223.416 28.0977C223.24 28.1628 222.996 28.2246 222.684 28.2832L222.059 28.4004C221.473 28.5046 221.053 28.6315 220.799 28.7812C220.369 29.0352 220.154 29.429 220.154 29.9629C220.154 30.4382 220.288 30.7799 220.555 30.9883ZM238.426 26.1738H235.574C235.522 25.7767 235.389 25.4186 235.174 25.0996C234.861 24.6699 234.376 24.4551 233.719 24.4551C232.781 24.4551 232.14 24.9206 231.795 25.8516C231.613 26.3464 231.521 27.0039 231.521 27.8242C231.521 28.6055 231.613 29.2337 231.795 29.709C232.127 30.5944 232.752 31.0371 233.67 31.0371C234.321 31.0371 234.783 30.8613 235.057 30.5098C235.33 30.1582 235.496 29.7025 235.555 29.1426H238.396C238.331 29.9889 238.025 30.7897 237.479 31.5449C236.606 32.7624 235.314 33.3711 233.602 33.3711C231.889 33.3711 230.63 32.8633 229.822 31.8477C229.015 30.832 228.611 29.5137 228.611 27.8926C228.611 26.0632 229.057 24.6406 229.949 23.625C230.841 22.6094 232.072 22.1016 233.641 22.1016C234.975 22.1016 236.066 22.401 236.912 23C237.765 23.599 238.27 24.6569 238.426 26.1738ZM249.461 29.875C249.389 30.5065 249.061 31.1478 248.475 31.7988C247.563 32.834 246.287 33.3516 244.646 33.3516C243.292 33.3516 242.098 32.9154 241.062 32.043C240.027 31.1706 239.51 29.7513 239.51 27.7852C239.51 25.9427 239.975 24.5299 240.906 23.5469C241.844 22.5638 243.058 22.0723 244.549 22.0723C245.434 22.0723 246.232 22.2383 246.941 22.5703C247.651 22.9023 248.237 23.4264 248.699 24.1426C249.116 24.7741 249.386 25.5065 249.51 26.3398C249.581 26.8281 249.611 27.5312 249.598 28.4492H242.312C242.352 29.5169 242.687 30.2656 243.318 30.6953C243.702 30.9622 244.165 31.0957 244.705 31.0957C245.278 31.0957 245.743 30.9329 246.102 30.6074C246.297 30.4316 246.469 30.1875 246.619 29.875H249.461ZM246.707 26.6133C246.661 25.8776 246.437 25.321 246.033 24.9434C245.636 24.5592 245.141 24.3672 244.549 24.3672C243.904 24.3672 243.403 24.569 243.045 24.9727C242.693 25.3763 242.472 25.9232 242.381 26.6133H246.707ZM257.264 33.2832C256.385 33.2832 255.678 33.1074 255.145 32.7559C254.826 32.5475 254.48 32.1829 254.109 31.6621V33H251.385V18.625H254.158V23.7422C254.51 23.2474 254.897 22.8698 255.32 22.6094C255.822 22.2839 256.46 22.1211 257.234 22.1211C258.634 22.1211 259.728 22.6257 260.516 23.6348C261.31 24.6439 261.707 25.946 261.707 27.541C261.707 29.1947 261.316 30.5651 260.535 31.6523C259.754 32.7396 258.663 33.2832 257.264 33.2832ZM258.787 27.834C258.787 27.0788 258.689 26.4538 258.494 25.959C258.123 25.0215 257.439 24.5527 256.443 24.5527C255.434 24.5527 254.741 25.0117 254.363 25.9297C254.168 26.418 254.07 27.0495 254.07 27.8242C254.07 28.7357 254.272 29.4909 254.676 30.0898C255.079 30.6888 255.695 30.9883 256.521 30.9883C257.238 30.9883 257.794 30.6986 258.191 30.1191C258.589 29.5397 258.787 28.778 258.787 27.834ZM272.586 23.7031C273.484 24.8294 273.934 26.1608 273.934 27.6973C273.934 29.2598 273.484 30.5977 272.586 31.7109C271.688 32.8177 270.324 33.3711 268.494 33.3711C266.665 33.3711 265.301 32.8177 264.402 31.7109C263.504 30.5977 263.055 29.2598 263.055 27.6973C263.055 26.1608 263.504 24.8294 264.402 23.7031C265.301 22.5768 266.665 22.0137 268.494 22.0137C270.324 22.0137 271.688 22.5768 272.586 23.7031ZM268.484 24.3672C267.671 24.3672 267.042 24.6569 266.6 25.2363C266.163 25.8092 265.945 26.6296 265.945 27.6973C265.945 28.765 266.163 29.5885 266.6 30.168C267.042 30.7474 267.671 31.0371 268.484 31.0371C269.298 31.0371 269.923 30.7474 270.359 30.168C270.796 29.5885 271.014 28.765 271.014 27.6973C271.014 26.6296 270.796 25.8092 270.359 25.2363C269.923 24.6569 269.298 24.3672 268.484 24.3672ZM284.812 23.7031C285.711 24.8294 286.16 26.1608 286.16 27.6973C286.16 29.2598 285.711 30.5977 284.812 31.7109C283.914 32.8177 282.55 33.3711 280.721 33.3711C278.891 33.3711 277.527 32.8177 276.629 31.7109C275.73 30.5977 275.281 29.2598 275.281 27.6973C275.281 26.1608 275.73 24.8294 276.629 23.7031C277.527 22.5768 278.891 22.0137 280.721 22.0137C282.55 22.0137 283.914 22.5768 284.812 23.7031ZM280.711 24.3672C279.897 24.3672 279.269 24.6569 278.826 25.2363C278.39 25.8092 278.172 26.6296 278.172 27.6973C278.172 28.765 278.39 29.5885 278.826 30.168C279.269 30.7474 279.897 31.0371 280.711 31.0371C281.525 31.0371 282.15 30.7474 282.586 30.168C283.022 29.5885 283.24 28.765 283.24 27.6973C283.24 26.6296 283.022 25.8092 282.586 25.2363C282.15 24.6569 281.525 24.3672 280.711 24.3672ZM297.928 33H294.568L292.02 28.4492L290.867 29.6504V33H288.133V18.6543H290.867V26.4082L294.334 22.4043H297.781L294.061 26.4766L297.928 33Z" fill="white"/>
</svg>
