<svg width="36" height="43" viewBox="0 0 36 43" fill="none" xmlns="http://www.w3.org/2000/svg">
<path d="M9.01493 33.1082C13.6085 40.7168 23.5997 34.5104 28.0211 30.4562C44.9354 17.1846 18.5458 6.55131 10.2647 10.745C1.98353 14.9387 3.27294 23.5974 9.01493 33.1082Z" fill="#27AE60"/>
<g clip-path="url(#clip0_742_3587)">
<path d="M19.1476 15.4545C18.9595 15.3648 18.7379 15.3885 18.5758 15.5193L13.319 19.7246H10.8073C10.2118 19.7246 9.72656 20.2098 9.72656 20.8053V25.1284C9.72656 25.7249 10.2118 26.2091 10.8073 26.2091H13.319L18.5747 30.4144C18.6731 30.4922 18.7931 30.5322 18.913 30.5322C18.993 30.5322 19.073 30.5138 19.1476 30.4781C19.3345 30.3884 19.4534 30.1993 19.4534 29.9918V15.9419C19.4534 15.7344 19.3345 15.5453 19.1476 15.4545Z" fill="white"/>
<path d="M22.1895 19.1453C21.9766 18.9356 21.6351 18.9388 21.4254 19.1496C21.2158 19.3625 21.2179 19.704 21.4298 19.9148C22.2468 20.721 22.6964 21.805 22.6964 22.9668C22.6964 24.1286 22.2468 25.2126 21.4298 26.0189C21.2179 26.2275 21.2158 26.5701 21.4254 26.783C21.5314 26.89 21.6708 26.9429 21.8091 26.9429C21.9464 26.9429 22.0836 26.8911 22.1895 26.7862C23.2141 25.7779 23.7772 24.4204 23.7772 22.9668C23.7772 21.5132 23.2141 20.1558 22.1895 19.1453Z" fill="white"/>
<path d="M23.7142 17.6227C23.5013 17.4119 23.1598 17.4141 22.949 17.6259C22.7393 17.8377 22.7415 18.1803 22.9523 18.39C24.1811 19.608 24.8576 21.2335 24.8576 22.967C24.8576 24.7006 24.1811 26.325 22.9523 27.543C22.7415 27.7537 22.7393 28.0963 22.949 28.3082C23.056 28.4141 23.1943 28.467 23.3327 28.467C23.4699 28.467 23.6083 28.4151 23.7142 28.3103C25.1494 26.8891 25.9384 24.9913 25.9384 22.967C25.9384 20.9428 25.1494 19.045 23.7142 17.6227Z" fill="white"/>
</g>
<defs>
<clipPath id="clip0_742_3587">
<rect width="16.2114" height="16.2114" fill="white" transform="translate(9.72656 14.8608)"/>
</clipPath>
</defs>
</svg>
