<svg width="343" height="50" viewBox="0 0 343 50" fill="none" xmlns="http://www.w3.org/2000/svg">
<path d="M0 12.8C0 8.31958 0 6.07937 0.871948 4.36808C1.63893 2.86278 2.86278 1.63893 4.36808 0.871948C6.07937 0 8.31958 0 12.8 0H330.2C334.68 0 336.921 0 338.632 0.871948C340.137 1.63893 341.361 2.86278 342.128 4.36808C343 6.07937 343 8.31958 343 12.8V37.2C343 41.6804 343 43.9206 342.128 45.6319C341.361 47.1372 340.137 48.3611 338.632 49.1281C336.921 50 334.68 50 330.2 50H12.8C8.31958 50 6.07937 50 4.36808 49.1281C2.86278 48.3611 1.63893 47.1372 0.871948 45.6319C0 43.9206 0 41.6804 0 37.2V12.8Z" fill="black"/>
<path d="M103.899 18C105.712 18 107.139 18.4333 108.179 19.3C109.219 20.1667 109.739 21.36 109.739 22.88C109.739 24.4 109.219 25.5933 108.179 26.46C107.139 27.3267 105.712 27.76 103.899 27.76H100.439V32H98.4387V18H103.899ZM103.839 26.02C105.105 26.02 106.072 25.7533 106.739 25.22C107.405 24.6733 107.739 23.8933 107.739 22.88C107.739 21.8667 107.405 21.0933 106.739 20.56C106.072 20.0133 105.105 19.74 103.839 19.74H100.439V26.02H103.839ZM116.209 21.3C117.676 21.3 118.796 21.66 119.569 22.38C120.356 23.1 120.749 24.1733 120.749 25.6V32H118.929V30.6C118.609 31.0933 118.149 31.4733 117.549 31.74C116.963 31.9933 116.263 32.12 115.449 32.12C114.263 32.12 113.309 31.8333 112.589 31.26C111.883 30.6867 111.529 29.9333 111.529 29C111.529 28.0667 111.869 27.32 112.549 26.76C113.229 26.1867 114.309 25.9 115.789 25.9H118.829V25.52C118.829 24.6933 118.589 24.06 118.109 23.62C117.629 23.18 116.923 22.96 115.989 22.96C115.363 22.96 114.749 23.0667 114.149 23.28C113.549 23.48 113.043 23.7533 112.629 24.1L111.829 22.66C112.376 22.22 113.029 21.8867 113.789 21.66C114.549 21.42 115.356 21.3 116.209 21.3ZM115.769 30.64C116.503 30.64 117.136 30.48 117.669 30.16C118.203 29.8267 118.589 29.36 118.829 28.76V27.28H115.869C114.243 27.28 113.429 27.8267 113.429 28.92C113.429 29.4533 113.636 29.8733 114.049 30.18C114.463 30.4867 115.036 30.64 115.769 30.64ZM133.537 21.4L128.397 33.06C127.944 34.14 127.41 34.9 126.797 35.34C126.197 35.78 125.47 36 124.617 36C124.097 36 123.59 35.9133 123.097 35.74C122.617 35.58 122.217 35.34 121.897 35.02L122.717 33.58C123.264 34.1 123.897 34.36 124.617 34.36C125.084 34.36 125.47 34.2333 125.777 33.98C126.097 33.74 126.384 33.32 126.637 32.72L126.977 31.98L122.297 21.4H124.297L127.997 29.88L131.657 21.4H133.537ZM156.84 21.4L152.88 32H151.04L147.98 23.96L144.88 32H143.04L139.1 21.4H140.92L144 29.84L147.2 21.4H148.82L151.96 29.88L155.12 21.4H156.84ZM158.838 21.4H160.758V32H158.838V21.4ZM159.798 19.36C159.425 19.36 159.112 19.24 158.858 19C158.618 18.76 158.498 18.4667 158.498 18.12C158.498 17.7733 158.618 17.48 158.858 17.24C159.112 16.9867 159.425 16.86 159.798 16.86C160.172 16.86 160.478 16.98 160.718 17.22C160.972 17.4467 161.098 17.7333 161.098 18.08C161.098 18.44 160.972 18.7467 160.718 19C160.478 19.24 160.172 19.36 159.798 19.36ZM170.434 31.38C170.154 31.62 169.808 31.8067 169.394 31.94C168.981 32.06 168.554 32.12 168.114 32.12C167.048 32.12 166.221 31.8333 165.634 31.26C165.048 30.6867 164.754 29.8667 164.754 28.8V22.98H162.954V21.4H164.754V19.08H166.674V21.4H169.714V22.98H166.674V28.72C166.674 29.2933 166.814 29.7333 167.094 30.04C167.388 30.3467 167.801 30.5 168.334 30.5C168.921 30.5 169.421 30.3333 169.834 30L170.434 31.38ZM178.466 21.3C179.812 21.3 180.879 21.6933 181.666 22.48C182.466 23.2533 182.866 24.3933 182.866 25.9V32H180.946V26.12C180.946 25.0933 180.699 24.32 180.206 23.8C179.712 23.28 179.006 23.02 178.086 23.02C177.046 23.02 176.226 23.3267 175.626 23.94C175.026 24.54 174.726 25.4067 174.726 26.54V32H172.806V17.16H174.726V22.9C175.126 22.3933 175.646 22 176.286 21.72C176.939 21.44 177.666 21.3 178.466 21.3Z" fill="white"/>
<path d="M210.912 16.9342C212.399 16.9342 213.695 17.1795 214.799 17.6702C215.903 18.1608 216.754 18.8662 217.352 19.7862C217.95 20.7062 218.249 21.7795 218.249 23.0062C218.249 24.2328 217.95 25.3062 217.352 26.2262C216.754 27.1462 215.903 27.8515 214.799 28.3422C213.695 28.8328 212.399 29.0782 210.912 29.0782H208.589V33.0342H203.161V16.9342H210.912ZM210.567 24.8922C211.303 24.8922 211.855 24.7312 212.223 24.4092C212.591 24.0718 212.775 23.6042 212.775 23.0062C212.775 22.4082 212.591 21.9482 212.223 21.6262C211.855 21.2888 211.303 21.1202 210.567 21.1202H208.589V24.8922H210.567ZM224.168 20.2232C226.376 20.2232 228.062 20.7215 229.228 21.7182C230.393 22.6995 230.976 24.2175 230.976 26.2722V33.0342H226.146V31.3782C225.548 32.6355 224.359 33.2642 222.581 33.2642C221.584 33.2642 220.733 33.0955 220.028 32.7582C219.338 32.4055 218.809 31.9378 218.441 31.3552C218.088 30.7572 217.912 30.0902 217.912 29.3542C217.912 28.1122 218.387 27.1692 219.338 26.5252C220.288 25.8812 221.73 25.5592 223.662 25.5592H225.755C225.586 24.5778 224.796 24.0872 223.386 24.0872C222.818 24.0872 222.243 24.1792 221.661 24.3632C221.078 24.5318 220.58 24.7695 220.166 25.0762L218.51 21.6492C219.23 21.2045 220.097 20.8595 221.109 20.6142C222.136 20.3535 223.156 20.2232 224.168 20.2232ZM224.145 30.1362C224.513 30.1362 224.842 30.0365 225.134 29.8372C225.425 29.6378 225.64 29.3388 225.778 28.9402V28.0662H224.49C223.432 28.0662 222.903 28.4188 222.903 29.1242C222.903 29.4155 223.01 29.6608 223.225 29.8602C223.455 30.0442 223.761 30.1362 224.145 30.1362ZM245.781 20.4532L240.606 33.2872C239.947 34.9278 239.127 36.0778 238.145 36.7372C237.164 37.3965 235.96 37.7262 234.534 37.7262C233.829 37.7262 233.116 37.6188 232.395 37.4042C231.69 37.2048 231.13 36.9365 230.716 36.5992L232.441 33.0342C232.702 33.2335 232.993 33.3945 233.315 33.5172C233.653 33.6398 233.975 33.7012 234.281 33.7012C234.849 33.7012 235.278 33.5325 235.569 33.1952L230.279 20.4532H235.615L238.214 27.1922L240.859 20.4532H245.781Z" fill="white"/>
</svg>
