<svg width="38" height="22" viewBox="0 0 38 22" fill="none" xmlns="http://www.w3.org/2000/svg">
<g filter="url(#filter0_d_723_287)">
<path d="M4 8C3.44772 8 3 8.44772 3 9C3 9.55228 3.44772 10 4 10L4 8ZM34.7071 9.7071C35.0976 9.31658 35.0976 8.68341 34.7071 8.29289L28.3431 1.92893C27.9526 1.53841 27.3195 1.53841 26.9289 1.92893C26.5384 2.31945 26.5384 2.95262 26.9289 3.34314L32.5858 9L26.9289 14.6569C26.5384 15.0474 26.5384 15.6805 26.9289 16.0711C27.3195 16.4616 27.9526 16.4616 28.3431 16.0711L34.7071 9.7071ZM4 10L34 10L34 8L4 8L4 10Z" fill="white"/>
</g>
<defs>
<filter id="filter0_d_723_287" x="0" y="0.635986" width="38" height="20.728" filterUnits="userSpaceOnUse" color-interpolation-filters="sRGB">
<feFlood flood-opacity="0" result="BackgroundImageFix"/>
<feColorMatrix in="SourceAlpha" type="matrix" values="0 0 0 0 0 0 0 0 0 0 0 0 0 0 0 0 0 0 127 0" result="hardAlpha"/>
<feOffset dy="2"/>
<feGaussianBlur stdDeviation="1.5"/>
<feComposite in2="hardAlpha" operator="out"/>
<feColorMatrix type="matrix" values="0 0 0 0 0 0 0 0 0 0 0 0 0 0 0 0 0 0 0.25 0"/>
<feBlend mode="normal" in2="BackgroundImageFix" result="effect1_dropShadow_723_287"/>
<feBlend mode="normal" in="SourceGraphic" in2="effect1_dropShadow_723_287" result="shape"/>
</filter>
</defs>
</svg>
