<svg width="577" height="298" viewBox="0 0 577 298" fill="none" xmlns="http://www.w3.org/2000/svg">
<path d="M390.883 49.5196L391.225 49.1764L391.607 46.208L391.568 42.7157L391.841 39.6289L393.267 37.3065L397.234 33.8056L397.616 31.6163L398.372 30.2729L398.676 28.8821L399.12 27.7924L400.258 27.3543L404.194 27.8991L408.091 29.5032L409.619 29.3607L410.484 27.3535L410.32 27.1464L409.985 26.4063L409.658 25.5003L409.509 24.7773L409.634 23.9772L410.179 22.5311L411.777 15.3434L411.785 12.1679L411.473 8.65154L411.504 5.3772L412.534 2.95122L412.464 2.32701V1.79154L412.58 1.40472L412.822 1.21404L414.474 1L418.668 2.44532L424.537 2.92709L425.091 4.55064L425.41 6.11426L425.379 7.6771L424.88 9.31699L426.376 9.34657L432.128 7.78995L432.518 7.54011L433.562 6.28004L433.812 5.67374L433.999 4.12802L434.303 3.65792L434.88 3.6517L435.261 4.12724L435.573 4.69774L435.947 4.95925L439.477 5.0005L441.161 5.48227L444.785 7.33698L448.137 8.47175L449.758 9.40416L453.484 12.6466L455.213 13.3222L459.704 15.0749L465.557 18.3913L467.249 18.7944H468.987L470.258 18.3913L472.939 16.9677L473.593 16.8074L475.9 16.8012L476.337 17.1335L476.641 18.5454L477.015 19.1322L477.529 19.3517L478.971 19.4583L479.797 20.0631L480.358 20.3184L480.99 20.2771L480.218 21.3029L481.168 21.0772L482.018 21.113L482.579 21.629L482.657 22.8377L483.935 22.5062L484.332 22.9981V23.7919L484.441 24.3609L492.025 29.904L496.023 31.6443L502.991 31.224L513.536 32.7923L513.622 32.7152L515.189 32.4786L516.186 33.2951L516.606 33.4313L517.791 33.0818L518.617 32.3066L522.444 25.7237L523.753 24.8473L525.928 25.1672L526.708 25.1314L528.072 24.5508L528.766 24.4558L529.459 24.6924L530.745 25.5221L535.25 26.8367L536.645 27.0024L538.087 27.5885L538.68 28.9685L538.96 30.6138L539.506 31.9688L540.495 32.667L541.695 32.8802L544.564 32.7619L545.717 33.1581L548.445 34.9739L549.833 35.4946L551.282 35.3171L554.182 34.282L555.421 34.3769L557.205 36.8963L558.25 44.4645L560.853 47.5046L561.555 52.843L561.156 54.2759L560.994 54.8588L559.755 56.1726L558.508 57.1829L557.947 58.2577L557.55 59.7746L555.578 62.6302L554.814 64.1635L554.502 65.7902L553.832 71.8633L553.637 72.5801L553.449 72.9179L553.317 73.4347L553.271 74.6831L553.505 75.3672L554.089 75.7229L555.609 75.884L556.038 76.1362L556.833 76.7939L557.605 77.6601L557.948 78.5614L557.776 79.0657L557.48 79.7226L557.34 80.2978L557.667 80.5328L557.87 80.7733L558.127 81.3423L558.369 81.9937L558.462 82.5097L558.712 83.1783L559.288 83.5503L559.974 83.8671L560.808 84.6291L561.276 84.7902L561.557 85.1832L561.627 85.6759L561.525 86.9741L561.557 87.5166L562.733 91.5879L563.092 93.6372L563.099 96.0927L563.637 97.8564L565.539 99.95L566.576 100.587L567.784 100.774L568.579 101.286L569.709 103.352L568.774 104.334L568.248 104.609L567.594 104.79L566.705 104.604L566.062 104.159L565.263 103.759L564.714 103.987L563.72 105.042L563.427 106.718L563.474 107.513L563.708 108.383L563.603 109.305L563.065 110.356L562.153 110.913L560.957 110.291L558.654 108.476L557.473 107.944L555.927 108.131L554.185 108.954L551.129 111.202L547.946 112.72L547.057 112.583L546.18 112.755L544.574 113.499L542.715 115.054L541.651 117.894L540.887 119.299L539.835 120.278L537.228 122.125L535.762 123.621L532.817 125.135L527.524 123.379L524.882 123.551L522.715 124.198L519.063 127.04L517.883 128.326L516.737 130.543L516.585 134.905L516.292 136.212L515.848 137.218L514.92 138.289L514.032 139.021L511.437 139.332L511.402 146.193L511.998 147.579L513.155 149.562L515.708 152.571L517.929 156.024L515.447 160.87L514.967 161.59L514.242 162.942L513.809 164.226L513.575 166.677L513.809 168.273L514.23 169.602L514.184 170.971L514.054 172.092L510.111 176.33L508.883 177.305L506.997 178.326L505.079 178.684L500.738 178.603L498.143 176.332L497.344 174.713L496.876 173.495L496.782 172.998L496.713 172.213L496.49 171.387L496.268 170.872L496.011 170.543L495.648 170.393L493.879 171.291L493.142 171.548L492.605 171.519L492.008 171.274L491.307 170.607L489.456 169.584L483.302 168.527L482.379 165.966L481.463 164.191L479.487 162.692H477.664L477.091 162.568L476.607 162.293L476.42 161.57L476.513 161.067L476.852 160.007L476.934 159.191L476.91 158.455L476.782 157.824L476.666 157.454L476.209 156.579L475.824 156.127L475.239 155.797L474.269 155.971L471.74 157.378L470.933 157.427L470.22 156.938L469.648 155.46L469.379 154.183L468.93 150.938L468.572 150.134L468.042 149.627L467.06 149.444L466.44 149.566H465.704L464.838 149.374L463.397 148.614L462.333 147.884L461.432 146.625L459.886 144.96L454.796 144.519L451.885 142.4L445.657 139.346L442.485 136.407L441.27 135.904L439.75 135.762L435.128 136.903L434.622 136.92L431.5 136.441L429.427 139.108L429.018 139.95L428.281 140.81L427.475 141.306L424.571 141.957L420.733 143.452L418.407 144.142L417.678 144.149L416.415 143.913L415.281 143.966L413.758 144.375L410.73 145.686L408.866 146.824L406.949 147.282L405.378 147.067L403.098 145.17L402.397 144.409L401.977 144.171L394.124 144.212L391.501 142.105L392.776 139.34L392.908 137.975L392.978 135.365L393.995 131.202L395.34 129.253L395.375 127.143L394.849 126.288L394.042 125.324L392.463 124.09L390.834 123.17L388.457 122.43L384.506 120.466L372.347 111.234L370.975 109.608L371.068 109.086L371.652 108.917L372.007 108.698L372.346 108.348L373.41 106.377L373.503 105.997L373.491 105.412L373.561 105.114L373.655 104.892L374.531 103.887L374.941 103.189L374.953 102.76L374.824 102.444L374.626 102.122L374.497 101.672L374.158 98.4736L374.299 97.8299L374.685 96.9053L374.884 95.9161L375.328 91.3879L375.473 90.6765L375.589 90.4306L375.729 90.2142L375.94 89.9682L376.489 89.52L376.957 89.2538L377.975 88.3922L381.373 88.4568L382.675 88.9199L383.801 89.699L384.787 90.8119L386.844 93.8014L388.126 94.9813L389.701 95.4553L400.5 92.8355L401.544 91.9716L402.643 90.3551L403.766 89.2771L405.138 88.6739L408.863 88.4864L409.697 88.7089L410.625 89.2654L411.759 90.6189L411.805 88.0941L412.32 78.3116L411.443 72.6852L411.058 71.6687L409.651 70.5635L409.229 66.8977L407.37 66.2182L405.64 63.8179L405.301 62.6645L405.309 61.6581L405.441 60.9779L405.449 59.9505L405.519 59.5442L405.662 59.3294L405.943 59.2679L407.662 59.3971L407.896 59.2088L407.965 58.7379L407.849 57.5479L407.112 56.2987L406.048 55.4091L404.793 54.9639L402.057 54.5927L399.634 53.3108L397.167 52.2554L392.424 51.1704L391.056 49.8551L390.883 49.5196ZM525.982 83.439L525.76 83.1285L523.687 79.5086L523.254 78.9513L520.916 78.7163L520.647 79.6082L520.039 80.1188L518.749 80.4823L516.084 81.7727L511.014 85.0805L510.605 85.7311L509.728 86.5227L509.109 86.9508L508.15 87.2146L507.133 87.3321L505.305 86.441L504.743 87.0504L504.252 87.8007L504.053 88.1937L503.808 89.0436L503.784 90.0718L504.404 91.0999L504.977 91.7327L505.304 92.4767L505.503 93.1585L504.86 96.3924L505.468 97.51L505.947 98.0074L506.24 98.7297L507.132 99.2356L511.73 99.6395L513.753 99.2597L515.744 99.2363L516.773 99.9672L518.13 100.581L518.854 100.756L520.542 100.809L521.325 100.257L521.711 99.8387L521.956 99.2426L522.19 98.862L522.798 98.3242L523.921 98.0027L527.455 97.8276L532.677 98.7927L531.047 95.3642L530.545 93.743L530.895 90.6539L531.468 88.2785L531.526 87.9213L531.433 87.6403L531.234 87.2239L530.661 86.6527L530.381 85.1957L530.135 84.3629L529.351 83.492L528.954 82.5627L528.167 81.8233L526.74 82.0638L526.249 82.8966L526.039 83.4071L525.982 83.439Z" fill="#EB4436" stroke="white" stroke-width="1.5" stroke-linecap="round" stroke-linejoin="round"/>
<path d="M324.868 28.9468L327.9 29.764L329.334 30.5517L330.706 31.6288L332.358 33.0072L337.432 35.8107L338.095 36.5322L339.349 38.4655L339.833 39.4049L340.214 39.7653L340.737 39.9777L341.189 40.2968L341.384 40.9942L341.244 41.7087L340.901 41.8153L340.535 41.7445L340.309 41.9103L339.802 42.9796L339.373 43.1392L339.233 43.47L339.584 45.0289L339.911 45.6547L341.212 47.2837L341.843 47.8503L344.408 48.9298L355.094 50.1331L362.576 52.7871L363.3 52.7046L363.893 52.4688L365.412 51.2453L369.333 49.5493L370.525 48.3188L372.217 43.8124L373.316 43.0505L375.124 45.1877L378.132 46.77L379.021 46.9887L380.151 46.735L382.411 45.643L383.573 45.5488L384.056 45.9769L384.149 46.7062L384.157 47.4674L384.399 47.9484L384.983 48.013L386.137 47.609L386.628 47.718L387.439 48.7944L387.883 49.8685L388.476 50.6149L389.715 50.6973L390.885 49.5221L391.059 49.863L392.427 51.1783L397.17 52.2633L399.638 53.3187L402.061 54.6005L404.797 54.9718L406.052 55.417L407.116 56.3066L407.853 57.5558L407.969 58.7458L407.899 59.2167L407.665 59.405L405.947 59.2758L405.666 59.3373L405.522 59.5522L405.452 59.9584L405.445 60.9858L405.312 61.666L405.305 62.6724L405.644 63.8258L407.374 66.2261L409.233 66.9056L409.654 70.5714L411.061 71.6766L411.447 72.6931L412.324 78.3195L411.809 88.102L411.762 90.6268L410.628 89.2734L409.701 88.7169L408.867 88.4943L405.141 88.6818L403.77 89.285L402.647 90.363L401.548 91.9795L400.503 92.8434L389.705 95.4632L388.13 94.9892L386.848 93.8093L384.791 90.8198L383.805 89.7069L382.679 88.9278L381.377 88.4647L377.979 88.4001L376.961 89.2617L376.493 89.5279L375.944 89.9762L375.733 90.2221L375.593 90.4385L375.477 90.6844L375.332 91.3958L374.887 95.924L374.688 96.9132L374.303 97.8378L374.162 98.4815L374.501 101.68L374.629 102.13L374.828 102.452L374.956 102.768L374.945 103.197L374.535 103.895L373.658 104.9L373.565 105.122L373.495 105.42L373.507 106.005L373.414 106.384L372.35 108.356L372.011 108.706L371.656 108.925L371.072 109.094L370.978 109.616L372.35 111.242L384.509 120.474L388.461 122.438L390.838 123.178L392.467 124.098L394.046 125.332L394.853 126.296L395.379 127.151L395.344 129.261L393.999 131.21L392.982 135.373L392.912 137.983L392.78 139.348L391.505 142.113L386.696 146.001L375.835 150.363L375.016 151.499L374.736 152.284L373.906 153.087L372.608 153.776L370.231 154.471L368.336 155.595L364.954 158.184L363.107 158.757L360.893 158.76L359.362 158.305L357.721 157.57L353.473 154.593L352.772 154.436L351.743 154.697L348.933 156.021L345.258 157.014L343.738 158.108L343.271 158.143L342.897 157.063L342.78 156.198L341.938 154.066L338.521 150.009L335.196 150.466L334.05 150.205L332.071 149.44L329.803 149.02L328.781 148.588L326.945 147.498L326.268 147.382L325.437 147.55L317.386 151.585L316.12 152.638L315.173 153.892L314.753 155.48L314.566 156.876L314.437 159.07L314.484 160.167L314.741 161.333L315.349 162.479L316.179 163.595L317.141 164.67L317.726 165.589L318.427 167.099L318.778 168.928L318.813 170.422L318.532 171.612L318.286 172.112L317.971 172.467L316.084 174.101L315.839 174.534L314.915 174.756L314.214 175.128L307.226 173.766L302.885 170.993L300.22 168.248L299.632 166.734L299.483 165.045L299.904 163.576L301.062 161.615L301.482 160.729L301.705 159.572L301.482 158.599L300.232 156.41L302.991 147.885L302.617 146.927L302.056 145.874L300.185 145.639L298.614 144.969L297.901 144.528L297.493 144.162L297.247 143.776L296.885 142.94L297.025 142.411L297.539 141.994L300.501 141.86L301.716 141.633L302.64 140.466L300.874 138.851L287.242 135.801L286.058 134.981L285.368 134.045L285.053 133.045L284.094 128.939L283.884 127.473L283.814 125.988L284.001 122.823L284.189 121.474L284.434 120.518L284.703 119.965L285.089 119.644L285.626 119.557L287.653 120.152L288.752 120.257L289.816 119.978L290.506 119.15L290.575 118.282L289.933 117.485L289.255 117.016L288.483 116.625L286.199 114.969L281.051 117.348L276.71 117.868L273.83 117.538L270.861 116.492L270.511 116.316L270.133 116.06L267.935 113.715L266.064 112.603L264.166 112.338L260.97 112.518L259.567 112.953L258.644 113.686L258.071 115.389L257.86 115.885L256.933 116.468L253.414 117.468L251.91 118.078L251.711 116.865L250.58 114.346L245.272 108.766L244.571 107.651L243.901 106.289L243.52 104.8L243.667 103.274L244.127 102.462L244.611 102.295L245.102 102.319L245.562 102.108L246.638 100.416L246.942 100.041L249.943 97.9297L250.925 96.7949L252.305 94.6118L252.991 93.8568L254.129 93.245L258.307 92.4286L258.206 92.1593L259.375 91.2106L261.807 89.8485L264.613 87.1416L265.828 86.2714L273.645 83.152L284.035 81.3307L286.569 79.908L293.942 73.4379L294.994 71.6665L295.423 69.2537L295.571 68.6661L295.914 68.0785L296.249 67.2963L296.405 66.1109L296.264 62.8957L296.405 61.8365L296.763 60.7912L297.777 58.633L297.988 57.5223L297.824 56.5206L297.123 55.4217L296.819 53.3646L296.592 52.8517L296.546 52.4392L296.959 51.6461L297.636 51.0149L300.099 50.0864L302.625 49.7439L310.442 51.938L311.76 52.6517L312.983 53.5654L314.136 55.3454L317.227 56.7448L317.391 56.9184L318.061 53.8744L318.7 52.5746L318.957 52.6338L320.523 52.38L321.123 52.1209L321.747 51.499L322.105 50.9596L323.399 48.1461L323.866 46.647L324.1 45.0001L324.155 43.0808L323.758 39.3885L323.953 38.0234L324.959 37.0599L324.016 36.6045L323.642 36.2559L322.839 34.665L322.449 34.8067L322.621 33.7186L324.868 28.9468Z" fill="#EB4436" stroke="white" stroke-width="1.5" stroke-linecap="round" stroke-linejoin="round"/>
<path d="M576.189 115.477L571.458 119.458L572.253 120.385L572.222 121.085L571.856 121.79L571.645 122.757L571.498 122.946L570.796 123.426L570.593 123.747L570.671 124.236L571.044 124.464L571.442 124.592L571.598 124.816L571.286 126.822L570.85 128.298L570.102 129.436L568.863 130.419L566.252 131.003L565.309 131.5L565.332 132.728L565.808 133.234L567.39 133.969L567.983 134.417L568.708 136.518L569.199 137.23L568.069 138.494L568.17 140.428L568.677 142.704L568.817 146.372L569.191 147.503L569.829 148.359L570.687 148.898L569.136 149.623L563.642 150.362L557.663 151.866L554.803 151.339L553.704 148.399L552.706 149.249L551.225 151.617L550.391 152.443L549.729 152.603L545.481 151.93L544.67 151.432L543.829 150.554L543.645 150.185L543.252 149.394L542.971 148.211L542.566 147.202L541.615 146.532L535.575 144.167L532.41 143.767L529.643 145.026L529.191 146.111L529.324 147.59L528.911 148.556L528.272 149.177L525.263 150.774L524.367 151.585L523.868 151.895L523.517 151.823L523.144 151.472L522.707 150.918L522.154 151.481L521.008 153.347L520.346 154.187L521.71 154.978L525.935 156.696L528.023 156.226L531.653 157.717L532.988 158.265L535.474 157.836L537.119 158.595L538.437 160.372L539.076 162.634L538.654 164.803L539.932 165.526L540.977 166.593L541.561 167.995L541.476 169.718L540.673 171.145L538.475 172.075L537.617 173.008L537.921 177.508L536.873 178.33L534.04 180.554L525.933 184.273L525.029 182.797L524.023 182.093L523.081 182.353L522.317 183.765L522.504 188.041L522.34 188.37L521.966 188.566L521.639 188.866L521.592 189.525L521.803 189.951L522.146 190.136L522.481 190.265L522.683 190.487L524.975 195.313L525.279 197.142L524.78 198.632L523.712 199.615L521.366 200.888V200.897L521.615 202.839L520.454 205.275L520.719 207.11L521.172 207.5L521.772 207.449L522.403 207.509L522.91 208.227L522.933 209.203L522.317 211.096L522.294 211.71L523.308 212.381L525.856 211.153L527.095 211.274L528.015 212.622L527.656 213.921L525.934 216.206L524.344 217.197L523.852 218.816L524.414 220.28L525.933 220.79L526.822 221.242L527.087 221.818L526.783 222.425L525.933 222.972L522.558 224.349L521.615 225.202L523.775 225.468L524.85 225.829L525.934 226.831L526.269 228.029L524.843 228.375L522.879 228.398L521.624 228.632V228.644L521.297 228.948L520.931 229.039L520.541 228.93L520.136 228.627L518.834 227.643L517.236 227.445L514.165 227.821L511.351 227.251L510.322 227.391L509.605 228.615L509.278 230.294L508.67 230.8L507.921 230.966L507.157 231.623L506.962 232.298L507.024 232.913L506.985 233.585L506.479 234.391L505.956 234.797L504.382 235.471L502.464 236.882L501.591 237.79L498.855 241.541L497.889 242.474L496.681 243.043L493.581 244.888L492.004 245.827L491.734 245.894L491.731 245.844L491.708 245.388L491.603 244.173L491.474 243.91L491.17 243.448L490.235 242.698L489.869 242.164L489.814 241.482L490.142 239.635L490.2 238.507L490.457 237.465L490.995 236.405L493.696 234.042L497.348 229.176L499.328 226.281L499.866 225.11L499.947 224.358L499.748 223.422L497.008 219.931L496.342 218.679L496.038 217.134L495.957 216.016L496.752 212.558V209.557L494.683 201.499L494.578 199.763L493.993 195.548L493.277 192.44L492.435 189.683L491.102 186.492L490.997 185.53L491.254 184.596L492.4 183.008L493.172 182.23L494.087 182.12L494.497 182.739L494.731 183.494L495 183.985L496.391 183.201L500.744 178.61L505.085 178.691L507.003 178.333L508.889 177.312L510.116 176.336L514.06 172.098L514.189 170.978L514.236 169.609L513.815 168.279L513.581 166.684L513.815 164.232L514.248 162.948L514.973 161.597L515.452 160.876L517.935 156.03L515.714 152.577L513.161 149.569L512.004 147.586L511.407 146.2L511.442 139.338L514.038 139.027L514.926 138.296L515.853 137.224L516.298 136.218L516.59 134.911L516.743 130.549L517.888 128.333L519.069 127.046L522.721 124.205L524.888 123.558L527.53 123.386L532.822 125.142L535.768 123.628L537.233 122.131L539.84 120.284L540.893 119.305L541.657 117.9L542.721 115.06L544.58 113.505L546.186 112.761L547.063 112.589L547.951 112.726L551.135 111.208L554.191 108.961L555.932 108.137L557.479 107.95L558.66 108.482L560.963 110.298L562.159 110.92L563.071 110.362L563.609 109.312L563.714 108.389L563.48 107.519L563.433 106.725L563.725 105.048L564.72 103.993L565.269 103.765L566.068 104.166L566.711 104.61L567.599 104.797L568.254 104.615L568.78 104.341L569.715 103.358L570.074 104.013L571.055 105.068L570.283 106.023L569.894 107.167L569.465 109.27L569.761 109.456L570.665 110.212L570.26 112.065L571.99 113.016L574.43 113.889L576.189 115.477Z" fill="#EB4436" stroke="white" stroke-width="1.5" stroke-linecap="round" stroke-linejoin="round"/>
<path d="M46.5519 244.813L45.5049 244.772L42.2473 243.722L40.5481 242.735L37.6333 239.952L29.5667 237.339L27.6958 235.899L26.7374 234.534L26.613 233.496L26.8548 232.304L27.0421 229.708L27.3538 228.65V227.997L27.0654 227.654L26.5975 227.691L26.278 227.417L26.4024 226.155L12.1548 221.643L10.8917 221.452L6.93999 221.944L5.52923 221.569L6.06089 220.892L7.33408 219.272L7.61079 218.92L8.13312 216.037L8.01498 215.6L7.66442 214.301L7.36905 213.207L5.57664 210.694L4.46746 210.036L3.33185 209.363L3.32408 208.399L4.0726 206.728L4.15033 205.935L3.50363 204.393L2.7862 203.425L2.45119 202.448L2.65872 201.813L2.95798 200.899L1.98404 199.993L1.68712 199.718L1 198.699L3.42357 194.574L5.99559 191.461L6.28397 190.695L6.67339 188.731L7.02394 187.732L9.94652 184.024L10.6795 182.329L10.7417 177.599L8.58239 175.688L5.7764 174.401L3.54716 171.028L3.40413 170.357L2.98362 168.383L3.16473 168.497L3.48575 168.585L7.89605 169.8L12.7284 169.716L14.7859 168.734L15.8772 167.023L16.8123 164.988L18.457 163.068L19.5483 162.483L20.6785 162.356L21.7465 162.743L22.6271 163.709L22.8766 165.034L22.7289 166.396L23.0173 167.578L24.5524 168.376L25.1603 168.33L26.0876 167.729L26.4692 167.625L28.7373 168.469L30.9821 168.648L32.1201 168.422L33.0318 167.688L33.2425 169.537L34.0299 170.583L34.9727 171.53L35.6583 173.035V173.373L35.6816 173.714L35.7982 174.366L36.6244 174.862L37.2867 174.574L37.9567 173.984L38.814 173.592L42.524 179.047L43.1862 180.356L42.8357 181.529L41.121 182.87L41.9473 183.839L42.1501 184.997L42.2201 186.196L42.625 187.262L43.3572 187.977L43.864 187.953L44.4408 187.525L45.4303 187.049L45.8041 187.098L46.5837 187.574L46.9732 187.577L47.2926 187.329L48.1888 186.335L51.5016 185.73L52.8891 186.482L52.8346 188.49L51.4705 192.612L51.6423 193.343L51.6812 194.011L51.4938 194.754L51.1277 195.116L50.1297 195.415L49.8258 195.625L49.1325 196.882L48.8285 197.578L49.1635 197.773L50.3007 197.634L51.5451 200.832L52.4452 205.825L52.5035 206.922L52.3512 210.016L51.2288 212.773L48.3023 217.229L47.5305 219.301L46.6537 223.723L46.5138 225.458L46.5954 226.8L46.8294 228.341L46.8643 229.531L46.6654 231.458L46.1858 232.831L45.3634 233.962L44.44 234.797L43.47 236.019L43.2243 236.96L43.4 238.048L45.1069 240.863L46.4672 244.464L46.5371 244.766L46.5519 244.813Z" fill="#EB4436" stroke="white" stroke-width="1.5" stroke-linecap="round" stroke-linejoin="round"/>
<path d="M71.3339 242.86L71.1543 240.503L72.0894 236.748L71.6844 234.882L71.0144 234.076L68.4502 232.029L66.8754 229.484L66.0958 228.644V228.627H66.088L65.6908 228.367L65.2703 228.283L64.8568 228.367L62.6664 229.628L60.7644 231.819L59.4469 234.357L59.408 236.422L57.5293 236.511L56.0642 236.126L54.8407 236.354L53.695 238.294L53.3367 239.693L53.2745 240.624L53.0716 241.47L52.2998 242.597L49.0103 244.277L47.0617 244.833L46.5502 244.814L46.5393 244.768L46.4694 244.466L45.1091 240.865L43.4022 238.05L43.2266 236.962L43.4722 236.021L44.4422 234.799L45.3656 233.964L46.188 232.833L46.6676 231.461L46.8666 229.533L46.8316 228.343L46.5976 226.802L46.516 225.46L46.6559 223.725L47.5327 219.303L48.3045 217.231L51.231 212.775L52.3534 210.018L52.5058 206.924L52.4475 205.827L51.5474 200.834L50.3029 197.636L55.1602 197.04L56.8049 196.399L60.1799 194.319L61.6528 192.966L63.0092 191.136L64.685 187.752L65.1374 187.053L65.917 186.526L67.5073 185.969L68.154 185.531L69.4085 183.857L70.5076 181.6L71.1932 179.091L71.1776 176.696L70.866 175.313L70.461 174.329L69.8143 173.607L68.7541 173.027L69.5181 168.569L69.6114 167.535L69.1124 166.284L68.4579 165.049L68.3491 164.083L69.4793 163.635L70.7416 163.406L71.3183 163.178L71.5834 163.386L71.9184 164.43L71.8251 164.869L71.459 165.407L71.1784 166.119L71.3106 167.078L71.7078 167.593L72.3234 168.032L73.5002 168.575L76.7111 169.066L77.5995 168.91L78.5579 168.135L80.0853 165.993L81.13 165.262L82.9535 165.285L92.9066 169.066L93.2105 169.419L93.46 169.996L93.8339 170.528L94.4806 170.724L96.7098 170.452L99.7498 169.054L100.818 168.748L101.862 168.82L102.665 169.277L104.396 170.586L103.764 171.354L101.332 173.021L101.847 173.907L105.729 175.714L109.493 179.788L109.719 180.295L109.743 181.045L109.571 181.818L109.329 182.331L109.149 182.342L109.921 183.853L110.974 184.469L118.838 184.585L120.311 184.132L125.237 180.707L127.139 180.185L128.753 180.848L128.589 183.881L130.396 184.089L132.041 183.334L133.117 182.175L134.115 180.825L135.572 179.464L136.975 179.014L140.249 178.936L141.473 178.409L142.119 177.301L141.831 176.47L141.013 175.931L140.085 175.677L143.64 171.568L145.354 171.164L147.21 171.418L148.917 171.961L152.455 171.372L154.092 170.719L155.464 169.188L155.845 168.154L156.438 165.564L156.952 164.378L159.056 162.545L159.314 162.221L160.709 162.268L163.998 162.927L170.14 162.953L174.388 163.83L175.168 163.569L175.924 161.665L176.774 161.156L183.102 159.859L200.429 160.617L201.029 160.493L203.18 157.72L203.453 157.005L203.531 155.956L203.407 152.961L203.196 152.344L202.814 152.086L202.199 151.472L201.645 150.736L201.404 150.116L201.256 149.2L202.448 148.713L204.264 147.192L204.918 146.781L206.018 146.297L206.205 146.259L205.971 146.773L205.776 147.971L205.511 148.858L205.027 149.531L204.778 150.313L205.191 151.551L205.94 152.22L206.758 152.096L208.442 151.212L210.087 150.974L214.443 151.907L215.722 151.699L218.683 150.557L219.922 150.801L220.273 151.447L221.06 153.838L221.474 154.757L222.082 155.489L224.326 157.302L225.387 157.826L226.937 157.866L228.528 157.553L229.704 157.029L230.423 156.385L232.37 159.771L233.924 161.198L236.582 163.015L237.271 163.79L237.529 164.334L237.447 164.855L237.12 165.722L237.19 166.642L237.494 167.942L238.955 171.675L239.131 172.379L238.967 172.827L238.604 173.649L238.09 174.545L236.617 176.432L235.829 177.748L234.227 181.227L233.701 182.04L233.093 182.749L232.439 183.332L231.663 183.839L230.798 184.196L227.088 184.589L226.34 184.799L225.778 185.066L225.346 185.643L224.797 186.654L224.106 188.708L223.354 189.914L222.431 190.839L221.472 191.357L220.023 191.896L217.563 192.256L216.429 192.193L215.412 191.876L213.713 190.932L212.824 190.75L211.725 190.908L209.079 192.537L200.642 195.564L198.327 195.478L197.271 195.714L195.178 196.801L195.342 199.049L194.29 203.427L194.103 205.067L194.11 207.1L194.29 208.311L194.675 209.464L195.132 210.164L196.382 211.186L196.955 211.791L197.575 213.331L197.836 214.444L198.046 218.597L197.984 219.082L197.977 219.139L196.703 219.391L189.064 223.389L183.686 223.647L180.358 224.804L177.155 226.544L174.552 228.621L171.13 229.171L170.296 229.709L168.815 230.923L167.942 231.127L166.532 230.589L164.092 228.77L162.658 228.621L162.089 228.701L161.52 228.65L161.426 228.621H161.388L157.506 227.826L155.713 227.995L153.523 228.638H153.515L153.5 228.65H153.492L152.782 229.033L152.073 229.165L151.387 229.038L150.756 228.649L150.359 228.111L149.922 227.697L149.431 227.408L148.105 227.09L147.349 227.265L146.679 227.777L146.102 228.638L146.094 228.649L143.53 231.141L141.223 231.023L138.877 229.874L136.188 229.284L130.903 230.171L125.681 231.875L124.333 232.686L119.454 237.561L118.83 238.921L118.035 242.806L116.617 246.209L116.555 246.631L116.64 247.778L116.508 248.331L116.181 248.688L115.347 249.067L115.035 249.363L113.344 252.27L112.291 253.384L111.215 253.535L109.937 253.104L107.31 252.845L106.016 253.027L103.499 253.882L102.75 253.939L101.978 253.617L100.693 252.509L100.016 252.15L99.2445 252.139L97.8104 252.549L97.0697 252.52L94.9026 251.283L94.0297 250.99L92.4394 251.494L91.6287 251.465L91.1763 250.499L91.5269 249.955L93.2027 248.59L93.5688 247.826L92.8358 246.711L87.0684 243.243L85.9071 242.934L84.5741 243.083L76.9047 245.203L73.7792 244.855L71.3339 242.86ZM223.352 263.656L221.542 263.336L218.479 262.079L215.868 259.764L214.442 256.229L213.779 253.817L212.525 253.005L210.958 252.788L209.383 252.179L208.659 251.666L208.23 251.233L208.05 250.487L208.066 249.062L208.269 247.785L208.549 247.02L208.76 246.222L208.736 244.864L208.042 242.45L206.85 241.625L203.678 241.514L202.649 241.132L202.189 240.595L201.776 239.902L200.919 239.023L200.077 238.597L198.3 238.277L197.505 237.952L198.612 236.849L198.619 235.838L198.097 234.792L197.606 233.56L197.146 231.007L196.818 229.743L196.319 228.645L197.115 226.705L201.682 224.146L203.288 221.961L203.312 220.445L205.392 219.329L212.111 216.245L216.592 211.887L217.866 211.307L219.409 211.06L221.213 211.077L223.836 210.596L225.847 210.633L228.037 211.376L230.048 211.545L231.498 211.878L232.8 212.604L235.734 215.452L235.956 217.581L236.568 218.455L237.562 219.266L244.066 221.44L244.701 222.313L244.608 223.47L243.669 225.788L243.47 226.612L243.365 227.402L243.354 227.877L243.412 228.401L243.657 229.474L244.172 230.428L244.913 231.407L245.556 232.659L247.075 234.085L247.847 234.648L248.786 235.682L249.382 236.839L249.744 238.356L249.92 239.833L250.435 241.586L251.23 242.673L254.694 246.387L259.223 252.709L259.667 253.569L259.62 253.945L259.551 254.179L259.41 254.469L259.176 254.702L258.907 254.765L258.299 254.656L255.606 252.634L254.811 252.338L253.934 252.451L250.89 253.79L244.16 254.804L242.558 255.61L242.312 257.52L241.973 258.835L241.412 260.423L238.906 265.349L238.575 266.196L238.565 266.222L238.431 266.161L234.705 265.781L230.318 266.361L229.211 266.252L227.964 265.65L225.634 264.058L223.352 263.656Z" fill="#EB4436" stroke="white" stroke-width="1.5" stroke-linecap="round" stroke-linejoin="round"/>
<path d="M203.314 220.444L203.336 219.039L201.559 218.425L197.978 219.134L197.985 219.076L198.047 218.592L197.837 214.439L197.576 213.326L196.956 211.786L196.383 211.18L195.133 210.159L194.676 209.458L194.291 208.305L194.111 207.094L194.104 205.061L194.291 203.421L195.343 199.044L195.179 196.795L197.272 195.708L198.328 195.472L200.643 195.559L209.08 192.532L211.726 190.903L212.825 190.745L213.714 190.926L215.413 191.87L216.43 192.187L217.564 192.25L220.024 191.891L221.473 191.352L222.432 190.834L223.355 189.909L224.107 188.703L224.798 186.649L225.347 185.638L225.779 185.061L226.341 184.793L227.089 184.583L230.799 184.191L231.664 183.834L232.44 183.326L233.094 182.744L233.702 182.035L234.228 181.222L235.83 177.743L236.618 176.426L238.091 174.539L238.605 173.644L238.968 172.821L239.132 172.374L238.956 171.669L237.495 167.937L237.191 166.636L237.121 165.717L237.448 164.849L237.53 164.328L237.272 163.784L236.583 163.009L233.925 161.193L232.371 159.766L230.424 156.38L233.065 154.012L234.499 153.287L237.188 152.638H239.878L244.11 153.733L245.403 153.565L244.624 155.523L245.808 156.983L247.765 158.28L249.261 159.733L247.204 160.758L246.284 163.352L246.681 166.114L248.544 167.623L249.706 167.825L250.415 168.08L251.054 168.594L254.499 172.405L258.194 175.205L259.02 175.543L259.659 175.321L260.282 174.98L261.07 174.957L261.794 175.347L262.215 175.791L262.683 176.08L263.494 176.043L264.016 175.587L266.167 173.023L266.144 172.093L265.949 171.414L265.707 170.842L265.535 170.229L265.473 169.536V167.588L265.66 167.296L266.378 165.483L266.463 165.321L266.299 165.385L266.237 162.846L266.44 162.922L267.655 161.319L267.702 161.01L268.598 158.79L268.786 158.547L268.95 157.192L268.996 155.831L268.786 154.394L268.186 152.766L266.713 150.233L265.785 149.105L264.85 148.398L263.681 148.21L261.771 149.053L260.641 149.248L256.44 148.462L255.209 147.206L256.612 145.031L256.627 145.019L257.111 144.219L257.244 143.475L257.267 142.755L257.415 142.041L257.828 141.158L262.692 133.32L262.341 132.965L260.712 130.522L258.155 124.562L256.885 123.309L256.278 122.98L254.758 121.404L252.95 120.314L252.342 119.42L251.937 118.239L251.911 118.077L253.415 117.467L256.934 116.466L257.861 115.883L258.072 115.388L258.644 113.684L259.568 112.952L260.971 112.517L264.166 112.336L266.064 112.601L267.935 113.713L270.133 116.058L270.511 116.315L270.862 116.49L273.831 117.537L276.711 117.866L281.052 117.347L286.2 114.967L288.484 116.624L289.255 117.014L289.933 117.484L290.576 118.28L290.506 119.148L289.817 119.976L288.752 120.255L287.653 120.15L285.627 119.556L285.089 119.643L284.704 119.963L284.435 120.517L284.189 121.472L284.002 122.821L283.814 125.987L283.884 127.471L284.095 128.937L285.053 133.044L285.369 134.044L286.058 134.979L287.243 135.799L300.875 138.849L302.64 140.464L301.717 141.631L300.501 141.858L297.54 141.992L297.025 142.41L296.885 142.938L297.247 143.774L297.493 144.16L297.902 144.526L298.615 144.967L300.185 145.637L302.056 145.872L302.618 146.925L302.992 147.883L300.232 156.408L301.483 158.597L301.705 159.57L301.483 160.727L301.062 161.613L299.905 163.574L299.484 165.044L299.632 166.732L300.22 168.246L302.886 170.991L307.227 173.764L306.619 175.421L306.081 177.482L305.976 178.342L306.701 182.31L308.938 189.819L310.914 193.929L313.29 196.161L314.577 197.093L315.699 197.398L316.74 197.041L317.796 196.196L319.047 195.661L321.167 195.426L322.289 194.683L323.435 194.32L324.429 194.977L325.66 197.482L327.32 200.081L327.706 201.118L327.905 202.055L328.267 203.234L328.863 204.262L331.358 207.469L333.614 209.079L334.191 210.032L334.027 211.174L332.562 213.032L330.34 215.195L329.709 216.189L329.581 217.585L329.732 219.808L329.343 221.058L328.489 223.179L325.236 229.214L322.348 232.937L320.146 230.015L313.665 224.974L310.996 223.577L309.067 222.97L305.719 222.701L298.147 221.062L296.51 220.948L289.558 219.109L286.596 218.204L285.193 218.289L284.036 218.576L282.149 220.415L280.408 221.784L276.44 223.714L273.502 224.355L267.84 224.679L265.579 224.435L264.165 224.04L262.914 223.347L256.897 219.45L253.249 218.272L250.826 218.014L246.192 216.863L242.74 215.148L239.755 213.218L238.785 212.797L238.095 212.737L237.745 212.917L237.511 213.218L237.406 213.503L237.348 213.875L237.254 214.18L236.997 214.558L236.728 214.827L235.742 215.449L232.808 212.601L231.506 211.876L230.056 211.543L228.045 211.374L225.855 210.631L223.844 210.593L221.221 211.075L219.417 211.058L217.874 211.305L216.6 211.884L212.119 216.243L205.4 219.327L203.314 220.444Z" fill="#EB4436" stroke="white" stroke-width="1.5" stroke-linecap="round" stroke-linejoin="round"/>
<path d="M244.384 267.485L243.733 267.266L243.141 267.345L241.933 267.82L241.223 267.842L240.53 267.536L239.158 266.493L238.567 266.224L238.577 266.198L238.908 265.351L241.414 260.425L241.976 258.837L242.314 257.522L242.56 255.612L244.162 254.807L250.893 253.792L253.936 252.454L254.813 252.34L255.608 252.637L258.302 254.659L258.909 254.767L259.178 254.705L259.412 254.471L259.553 254.181L259.623 253.947L259.67 253.571L259.225 252.711L254.697 246.389L251.232 242.675L250.437 241.588L249.923 239.835L249.747 238.359L249.385 236.842L248.788 235.684L247.849 234.65L247.078 234.087L245.558 232.661L244.915 231.409L244.174 230.431L243.66 229.476L243.414 228.403L243.356 227.88L243.368 227.405L243.473 226.615L243.672 225.791L244.611 223.472L244.704 222.315L244.069 221.442L237.564 219.268L236.57 218.457L235.959 217.583L235.736 215.454L236.723 214.832L236.992 214.563L237.249 214.184L237.342 213.88L237.4 213.507L237.505 213.223L237.739 212.922L238.09 212.741L238.779 212.801L239.749 213.223L242.734 215.153L246.187 216.867L250.82 218.019L253.244 218.277L256.892 219.454L262.909 223.352L264.159 224.045L265.574 224.44L267.834 224.684L273.497 224.36L276.435 223.719L280.402 221.788L282.144 220.419L284.03 218.58L285.188 218.294L286.591 218.208L289.552 219.113L296.504 220.953L298.141 221.067L305.714 222.705L309.061 222.975L310.99 223.582L313.66 224.979L320.141 230.02L322.343 232.942L325.246 235.362L326.298 236.113L326.988 236.425L328.367 236.267L329.704 235.856L334.349 232.229L337.167 230.859L338.305 228.891L338.644 228.096L338.959 227.561L339.614 226.809L340.771 225.928L349.01 221.948L351.223 221.544L353.889 221.587L355.833 222.48L358.877 224.631L364.248 226.334L365.546 226.952L366.317 227.575L366.505 227.879L367.163 228.017L368.52 228.073L376.208 225.327L378.254 225.499L383.18 225.173L385.218 226.011L394.497 225.287L402.852 223.295L404.009 223.489L404.781 223.987L405.896 224.903L408.865 228.578L414.8 237.69L414.649 240.999L414.204 242.361L413.709 243.348L413.3 244.683L413.184 245.317L413.324 246.295L413.701 247.758L414.824 250.438L415.701 254.324L415.876 258.003L416.788 260.632L421.492 266.059L422.104 266.86L422.136 266.903L420.638 266.741L418.845 266.547L414.504 267.946L411.698 271.968L410.249 269.878L409.165 269.673L408.103 270.345L406.461 271.385L406.185 271.423L404.903 271.595L403.842 271.465L402.892 271.871L401.629 273.711L400.772 275.562L400.187 277.342L399.634 279.023L398.841 280.847L398.231 282.247L397.81 282.618L396.142 283.383L394.209 283.706L393.539 283.227L392.284 283.797L391.832 284.318L391.458 285.064L390.577 286.132L390.039 287.486L389.481 287.385L389.034 287.305L388.692 287.395L387.18 288.981L386.4 289.491L385.636 289.718L383.999 289.865L383.266 290.165L382.152 291.775L381.52 293.895L381.152 294.84L380.819 295.694L379.51 296.274L378.512 295.225L377.662 293.349L376.633 291.926L374.03 292.548L372.767 292.35L371.727 291.867L370.436 291.269L370.015 290.759L369.773 290.142L369.415 289.626L368.612 289.445L366.071 290.005L357.034 289.746L350.061 289.546L349.916 289.507L349.111 289.286L344.871 285.613L343.764 285.055L342.533 284.687L341.207 284.652L339.885 284.891L338.666 285.112L337.427 284.958L330.53 281.681L328.254 281.302L323.359 282.11L322.33 282.12L317.349 280.904L316.208 280.807L315.031 281.04L313.893 280.921L304.766 277.943L301.563 277.824L300.986 277.419L299.918 276.198L299.396 275.997L294.797 276.335L291.5 275.753L283.815 277.402L280.775 277.248L279.185 276.607L274.391 273.647L268.21 272.21L250.557 270.935L246.27 268.126L244.384 267.485Z" fill="#EB4436" stroke="white" stroke-width="1.5" stroke-linecap="round" stroke-linejoin="round"/>
<path d="M491.734 245.894L488.653 246.66L488.209 246.917L487.476 247.695L487.546 247.937L487.881 248.182L487.943 248.964L487.421 252.389L487.4 252.723L487.304 254.323L487.366 256.254L488.231 258.95L489.837 259.98L490.687 261.685L490.85 264.219L490.84 264.212L489.431 262.432L488.605 261.852L487.145 261.591L485.542 261.306L480.429 258.711L478.333 258.295L476.236 258.477L473.346 259.648L471.123 260.549L469.128 260.663L463.353 259.8L462.137 259.058L461.903 260.719L461.911 262.134L461.459 263.098L461.064 263.395L460.679 263.684L459.705 263.963L458.567 263.638L456.961 263.661L455.348 264.087L454.194 264.971L453.453 266.537L453.413 266.745L453.212 267.788L452.933 268.415L452.728 268.874L451.325 269.981L449.065 270.382L447.358 269.311L447.008 269.003L445.667 267.82L443.445 266.982L439.271 267.201L429.627 267.709L427.188 267.445L422.138 266.899L422.106 266.856L421.494 266.055L416.79 260.628L415.878 257.999L415.702 254.32L414.826 250.434L413.703 247.754L413.325 246.291L413.186 245.313L413.302 244.679L413.711 243.345L414.206 242.357L414.651 240.996L414.802 237.686L408.867 228.574L405.898 224.899L404.783 223.983L404.011 223.485L402.854 223.291L394.499 225.283L385.22 226.007L383.182 225.169L378.256 225.495L376.21 225.323L368.521 228.069L367.165 228.013L366.507 227.875L366.319 227.571L365.547 226.948L364.249 226.33L358.879 224.627L355.835 222.477L353.891 221.583L351.225 221.54L349.012 221.944L340.773 225.924L339.616 226.805L338.961 227.557L338.646 228.092L338.307 228.887L337.169 230.855L334.351 232.225L329.706 235.852L328.369 236.264L326.99 236.421L326.3 236.109L325.248 235.358L322.345 232.938L325.232 229.215L328.486 223.18L329.339 221.059L329.729 219.809L329.577 217.586L329.705 216.19L330.337 215.196L332.558 213.033L334.023 211.175L334.187 210.033L333.61 209.08L331.354 207.47L328.86 204.263L328.264 203.235L327.901 202.056L327.702 201.119L327.317 200.082L325.657 197.483L324.425 194.977L323.431 194.321L322.285 194.684L321.163 195.427L319.043 195.662L317.793 196.197L316.736 197.042L315.696 197.399L314.573 197.094L313.287 196.162L310.91 193.93L308.934 189.82L306.697 182.311L305.973 178.343L306.078 177.483L306.615 175.422L307.223 173.765L314.211 175.128L314.912 174.755L315.836 174.533L316.081 174.1L317.968 172.466L318.283 172.111L318.529 171.611L318.809 170.421L318.774 168.928L318.424 167.098L317.723 165.589L317.138 164.669L316.176 163.594L315.346 162.478L314.738 161.332L314.481 160.166L314.434 159.07L314.562 156.875L314.75 155.479L315.17 153.891L316.117 152.637L317.383 151.585L325.434 147.549L326.264 147.381L326.942 147.497L328.778 148.587L329.799 149.019L332.068 149.44L334.047 150.205L335.193 150.465L338.517 150.008L341.935 154.065L342.777 156.197L342.894 157.062L343.267 158.143L343.735 158.108L345.255 157.013L348.93 156.02L351.74 154.696L352.769 154.435L353.47 154.592L357.718 157.569L359.359 158.304L360.89 158.759L363.104 158.756L364.951 158.183L368.333 155.594L370.227 154.47L372.604 153.775L373.902 153.086L374.733 152.283L375.013 151.498L375.832 150.362L386.693 146L391.502 142.112L394.124 144.219L401.977 144.178L402.398 144.416L403.099 145.177L405.379 147.074L406.949 147.289L408.867 146.831L410.73 145.694L413.758 144.382L415.282 143.973L416.416 143.921L417.678 144.156L418.407 144.149L420.734 143.459L424.572 141.964L427.475 141.313L428.282 140.817L429.019 139.957L429.428 139.115L431.501 136.448L434.622 136.927L435.129 136.91L439.751 135.769L441.27 135.911L442.486 136.414L445.658 139.353L451.886 142.408L454.797 144.526L459.886 144.967L461.433 146.632L462.333 147.891L463.397 148.622L464.839 149.381L465.704 149.573H466.441L467.061 149.451L468.042 149.634L468.572 150.142L468.931 150.945L469.379 154.19L469.648 155.468L470.221 156.945L470.934 157.434L471.741 157.385L474.27 155.978L475.24 155.805L475.824 156.135L476.21 156.586L476.666 157.461L476.783 157.831L476.911 158.462L476.934 159.198L476.853 160.014L476.514 161.074L476.421 161.577L476.608 162.3L477.091 162.575L477.664 162.7H479.488L481.464 164.198L482.379 165.973L483.303 168.534L489.456 169.591L491.308 170.614L492.009 171.281L492.605 171.526L493.143 171.555L493.88 171.298L495.649 170.4L496.011 170.55L496.268 170.88L496.491 171.394L496.713 172.22L496.783 173.005L496.876 173.502L497.344 174.72L498.143 176.339L500.739 178.61L496.386 183.202L494.995 183.985L494.726 183.495L494.492 182.74L494.082 182.121L493.166 182.23L492.395 183.009L491.249 184.596L490.992 185.53L491.096 186.492L492.43 189.683L493.271 192.441L493.988 195.549L494.572 199.764L494.677 201.5L496.747 209.557V212.559L495.951 216.017L496.033 217.134L496.337 218.679L497.003 219.932L499.743 223.422L499.942 224.359L499.86 225.111L499.322 226.282L497.343 229.177L493.691 234.043L490.99 236.406L490.452 237.466L490.195 238.508L490.137 239.636L489.809 241.483L489.864 242.165L490.23 242.699L491.165 243.449L491.469 243.911L491.598 244.173L491.703 245.388L491.726 245.844L491.734 245.894Z" fill="#EB4436" stroke="white" stroke-width="1.5" stroke-linecap="round" stroke-linejoin="round"/>
<path d="M525.983 83.4388L526.041 83.4038L526.252 82.8932L526.743 82.0604L528.17 81.8199L528.957 82.5593L529.354 83.4886L530.138 84.3595L530.383 85.1923L530.664 86.6493L531.237 87.2206L531.436 87.637L531.529 87.9179L531.471 88.2752L530.898 90.6506L530.547 93.7397L531.05 95.3609L532.68 98.7893L527.458 97.8242L523.923 97.9993L522.801 98.3208L522.193 98.8586L521.959 99.2392L521.714 99.8354L521.328 100.253L520.545 100.806L518.857 100.753L518.133 100.578L516.776 99.9638L515.747 99.2329L513.756 99.2563L511.733 99.6361L507.135 99.2322L506.243 98.7263L505.95 98.004L505.471 97.5067L504.863 96.389L505.506 93.1551L505.307 92.4734L504.979 91.7293L504.407 91.0965L503.787 90.0684L503.81 89.0402L504.056 88.1903L504.255 87.7973L504.746 87.047L505.307 86.4376L507.136 87.3288L508.153 87.2112L509.112 86.9474L509.731 86.5193L510.608 85.7278L511.017 85.0771L516.087 81.7693L518.752 80.4789L520.042 80.1154L520.65 79.6048L520.918 78.7129L523.257 78.9479L523.689 79.5052L525.762 83.1251L525.983 83.4388Z" fill="#EB4436" stroke="white" stroke-width="1.5" stroke-linecap="round" stroke-linejoin="round"/>
</svg>
