<svg width="535" height="437" viewBox="0 0 535 437" fill="none" xmlns="http://www.w3.org/2000/svg">
<path d="M48.6671 176.202L37.6133 171.123L35.0569 168.968L34.3283 167.625L32.4716 163.212L31.6858 161.767L26.5441 156.831L25.6303 155.193L25.2019 153.713L24.5022 152.447L22.6882 151.487L21.3742 151.34L18.8034 151.702L17.6754 151.657L15.6472 151.227L14.6336 150.775L13.9049 149.532L12.7197 146.762L12.0909 146.05L10.4194 145.191L9.97659 144.444L10.1191 143.438L11.1899 141.005L11.3469 139.58L8.61911 129.969L9.41862 127.964L12.6038 124.769L13.4178 123.454L12.975 119.09L10.8043 115.802L5.86228 110.3L4.49112 106.06L3.10546 96.3609L1 91.3174L3.79225 89.2651L9.03296 87.5188L27.7913 73.2701L56.5254 56.2887L84.3367 37.9112L115.308 27.8453L115.37 27.8284L116.566 36.3509L115.994 41.8363L115.894 46.9876L117.851 52.5359L121.208 56.2275L122.195 56.6848L122.365 57.1349L117.795 60.0206L120.159 65.7436L116.809 68.1252L120.565 69.3675L123.786 75.1195L118.83 84.5888L112.782 88.5469L128.414 99.7256L125.422 101.89L129.55 109.014L125.936 114.42L128.3 117.63L124.03 119.568L130.685 122.912L127.907 122.861L130.007 124.958L129.05 125.949L125.779 125.468L126.865 127.989L125.008 129.824L126.136 132.836L129.335 130.86L131.492 131.76L132.592 135.869L129.335 139.22L137.89 146.617L136.105 148.867L139.29 153.253L138.947 154.84L130.322 161.265L124.123 165.876L117.861 172.448L117.311 174.117L115.954 173.683L115.147 173.621L111.741 171.106L111.94 168.114L108.999 163.906L103.129 164.798L97.4445 161.536L91.2779 164.716L89.5839 165.323L87.2876 161.182L84.9454 158.958L81.3609 157.862L70.3763 161.32L70.2579 160.587L69.0784 153.261L66.923 151.844L58.882 155.109L58.7532 156.081L61.5857 159.455L56.3675 161.604L55.7677 163.624L51.833 164.403L49.8692 162.586L48.9554 162.857L45.2775 165.126L48.0842 174.141L48.6671 176.202Z" fill="#EB4436" stroke="white" stroke-width="1.5" stroke-linecap="round" stroke-linejoin="round"/>
<path d="M70.375 161.317L63.1352 163.595L59.95 165.593L57.4363 168.313L53.2802 175.543L51.4517 176.952L49.2947 176.49L48.6659 176.201L48.0821 174.136L45.2754 165.122L48.9533 162.853L49.8671 162.582L51.8309 164.399L55.7656 163.62L56.3655 161.599L61.5836 159.451L58.7511 156.077L58.88 155.105L66.921 151.839L69.0763 153.257L70.2559 160.582L70.375 161.317ZM223.471 333.199L223.567 333.208L224.57 333.299L224.399 330.145L223.642 326.857L222.985 326.579L223.557 324.045L224.256 322.433L225.256 321.199L227.785 318.831L230.984 316.54L234.297 314.883L234.34 313.47L233.383 311.757L232.555 309.731L230.227 300.434L228.855 299.732L227.37 299.966L224.613 301.225L222.657 300.234L222.985 296.334L225.641 287.683L226.384 283.756L227.012 281.993L228.483 279.884L231.739 277.327L233.095 275.764L233.424 273.508L232.581 272.101L230.867 270.593L229.01 269.42L227.768 268.973L226.04 269.71L225.968 271.095L226.14 272.581L225.126 273.586L222.583 272.392L218.798 264.246L215.942 261.686L213 259.975L208.415 254.874L205.73 253.587L202.802 253.901L194.018 257.615L190.89 257.649L188.419 256.463L186.048 254.796L183.191 253.341L177.45 252.636L171.423 253.095L169.551 253.789L168.437 255.064L165.952 259.304L165.352 261.104L164.981 261.752L164.353 262.189L164.124 261.987L163.924 262.111L163.382 263.508L158.526 258.946L157.312 250.095L157.297 239.983L156.126 231.598L153.883 227.504L151.141 224.867L148.113 223.352L144.985 222.69L136.058 222.634L134.344 221.354L135.686 218.94L135.9 217.188L135.001 216.054L133.015 215.448L131.044 215.605L129.631 216.537L128.259 217.918L126.388 219.366L120.333 221.578L116.976 221.982L114.562 221.298L108.52 218.143L106.707 216.706L104.536 213.909L103.822 211.437L103.607 204.502L99.9513 192.25L98.837 185.945L100.765 182.305L99.1945 177.11L98.0947 175.091L96.238 174.483L94.296 174.212L93.1961 172.926L91.4965 168.775L89.5794 165.319L91.2734 164.713L97.4401 161.533L103.124 164.795L108.995 163.903L111.935 168.111L111.736 171.103L115.143 173.618L115.95 173.68L117.306 174.114L117.856 172.445L124.119 165.872L130.317 161.261L135.367 163.367L140.871 161.719L141.779 168.594L150.913 168.756L154.783 171.452L160.403 160.516L164.367 158.291L165.824 161.233L171.801 158.681L174.128 165.531L179.663 164.891L181.505 166.725L189.296 165.004L190.759 168.764L189.789 172.388L190.452 174.821L192.41 177.383L195.352 178.443L203.728 178.68L206.513 176.442L209.141 177.305L212.384 175.602L213.355 177.09L215.318 173.403L219.053 174.666L220.809 174.719L218.288 175.463L217.738 178.271L217.895 186.328L219.244 190.168L221.665 191.193L224.871 190.704L229.221 184.706L230.742 184.098L233.412 187.624L232.713 192.184L240.09 194.053L239.333 198.599L243.817 199.539L247.296 204.954L251.373 204.543L250.987 210.08L254.444 206.202L262.278 205.359L263.721 206.866L269.955 206.82L270.619 207.939L270.233 213.304L274.79 210.923L274.626 212.945L276.654 213.861L284.973 210.327L282.51 221.042L287.465 219.795L286.387 221.805L288.094 224.145L286.252 229.222L284.381 229.553L285.716 231.084L284.41 232.407L290.394 236.006L288.338 240.539L286.131 241.206L288.995 244.561L285.638 250.131L286.51 258.26L277.169 259.787L274.641 256.537L270.799 256.896L267.977 261.777L260.315 260.698L259.187 264.74L256.701 264.617L254.916 267.869L250.282 268.182L244.79 272.215L247.068 275.32L252.11 278.306L253.174 278.251L255.73 275.292L258.644 275.933L260.622 277.452L258.952 284.371L260.073 287.467L255.032 291.354L260.323 300.609L258.523 304.29L258.638 312.916L259.245 316.432L261.48 317.216L262.587 328.403L266.629 336.643L264.772 341.193L264.379 342.075L264.37 342.096L243.634 336.387L235.114 337.621L233.065 337.919L231.208 337.386L223.471 333.199Z" fill="#EB4436" stroke="white" stroke-width="1.5" stroke-linecap="round" stroke-linejoin="round"/>
<path d="M339.097 371.378L336.56 371.504L330.562 373.628L327.463 374.125L323.85 373.605L322.607 371.979L322.635 363.967L322.292 362.694L320.936 360.446L320.65 359.372L320.907 358.065L322.135 356.625L322.593 355.506L323.335 352.879L324.035 351.084L324.391 349.233L324.148 346.439L321.991 342.49L315.449 339.794L313.607 336.786L314.207 333.355L319.52 320.078L319.649 317.776L319.435 315.985L319.592 314.038L322.192 308.307L323.035 308.107L324.52 309.731L324.834 305.958L325.577 301.504L325.763 297.728L324.491 296.045L320.164 296.947L318.606 296.29L317.978 293.079L314.25 294.796L299.51 309.764L298.71 311.456L298.339 313.581L298.668 314.871L299.182 315.95L299.325 317.429L298.268 324.3L297.297 327.711L296.025 330.166L294.525 331.155L288.769 332.077L269.502 341.656L265.403 342.378L264.373 342.094L264.382 342.073L264.775 341.191L266.632 336.641L262.59 328.401L261.483 317.214L259.248 316.429L258.641 312.914L258.526 304.288L260.326 300.607L255.034 291.352L260.076 287.465L258.955 284.369L260.625 277.45L258.647 275.931L255.733 275.29L253.177 278.249L252.113 278.304L247.071 275.318L244.793 272.213L250.285 268.18L254.919 267.867L256.704 264.615L259.19 264.738L260.318 260.696L267.98 261.775L270.802 256.894L274.644 256.535L277.172 259.785L286.512 258.258L285.641 250.129L288.998 244.559L286.134 241.204L288.341 240.537L290.397 236.004L284.413 232.405L285.719 231.081L284.384 229.551L286.255 229.22L288.097 224.143L286.39 221.803L287.468 219.793L282.512 221.04L284.976 210.325L284.483 206.627L286.826 204.777L289.268 204.44L294.295 206.233L297.394 205.536L295.794 198.76L297.322 196.166L298.658 196.155L302.521 198.872L303.149 196.471L306.72 195.475L307.598 199.851L313.161 197.663L314.711 199.98L314.176 197.443L314.89 196.78L329.701 192.858L329.843 191.518L333.507 191.839L336.67 187.566L341.055 188.568L340.576 193.814L347.296 200.206L350.838 210.65L348.239 212.616L355.952 213.043L358.022 218.164L359.914 218.512L363.2 216.962L361.328 218.77L362.292 222.206L365.027 221.801L364.335 223.698L365.863 226.29L370.541 224.405L373.533 227.435L376.089 233.211L373.932 237.471L375.632 240.262L382.488 242.127L382.331 246.137L384.244 248.796L391.822 243.69L397.692 245.701L398.906 248.494L396.007 252.378L397.971 254.952L390.458 260.562L391.522 261.686L393.244 259.198L396.443 258.974L397.864 262.424L397.728 265.705L393.929 269.678L384.16 276L382.711 274.101L381.197 274.252L378.112 276.345L378.462 278.89L374.484 278.633L371.914 280.436L377.234 283.399L375.734 285.541L377.398 285.552L377.191 287.755L382.097 293.48L380.812 297.37L376.877 298.641L380.398 301.926L379.699 304.231L375.992 303.864L372.25 306.503L369.308 307.115L356.361 308.022L353.427 306.998L352.62 300.963L350.584 309.247L351.784 310.476L350.328 314.115L345.815 318.825L344.479 319.286L343.215 317.962L342.244 321.298L339.623 321.231L342.987 324.521L344.772 331.537L346.236 332.276L352.113 331.093L353.385 333.991L357.419 336.084L356.905 340.867L359.897 343.868L352.963 346.635L349.442 349.973L351.749 352.279L341.386 359.746L340.794 361.618L341.973 365.725L340.188 366.246L339.566 369.898L339.116 371.314L339.097 371.378Z" fill="#EB4436" stroke="white" stroke-width="1.5" stroke-linecap="round" stroke-linejoin="round"/>
<path d="M397.523 411.583L396.46 410.627L392.175 409.05L390.605 408.103L389.748 407.959L389.233 408.533L388.648 409.701L387.919 410.781L386.934 411.09L384.634 410.638L383.963 409.801L383.634 407.839L384.063 404.818L385.177 404.101L385.806 403.329L384.849 400.13L382.179 396.842L379.294 393.972L376.309 394.05L370.068 395.794L366.882 394.856L364.369 392.979L362.312 390.98L356.428 382.431L354.785 380.85L349.858 379.424L347.101 377.854L341.959 372.756L339.46 371.362L339.098 371.38L339.118 371.318L339.568 369.902L340.189 366.25L341.974 365.729L340.796 361.622L341.388 359.75L351.751 352.283L349.444 349.977L352.965 346.639L359.899 343.872L356.907 340.871L357.421 336.088L353.387 333.995L352.115 331.097L346.238 332.28L344.774 331.541L342.989 324.525L339.625 321.235L342.246 321.302L343.217 317.966L344.481 319.29L345.817 318.829L350.329 314.119L351.786 310.48L350.586 309.251L352.622 300.967L353.428 307.002L356.363 308.026L369.31 307.119L372.252 306.507L375.994 303.868L379.7 304.235L380.4 301.93L376.879 298.645L380.814 297.374L382.099 293.484L377.193 287.759L377.4 285.556L375.736 285.545L377.236 283.403L371.915 280.44L374.486 278.637L378.464 278.894L378.113 276.349L381.199 274.256L382.712 274.105L384.162 276.004L393.931 269.682L397.73 265.709L397.866 262.428L396.445 258.978L393.245 259.202L391.524 261.69L390.46 260.566L397.972 254.956L396.009 252.382L398.908 248.498L397.694 245.704L402.3 241.341L399.53 236.399L400.373 234.897L402.208 234.796L408.206 239.504L413.755 235.839L415.019 240.109L417.354 240.58L416.926 242.529L417.69 243.224L419.982 243.577L424.681 241.341L432.165 248.353L436.749 248.061L436.092 250.647L443.069 250.67L440.669 256.064L440.819 258.446L443.047 262.237L446.775 263.164L443.061 271.11L451.374 269.825L453.638 270.54L454.559 272.618L455.459 270.507L464.214 269.29L465.114 267.167L460.3 266.462L463.386 258.915L460.829 256.734L462.044 252.762L478.797 256.444L479.04 258.3L483.453 260.582L482.689 280.691L483.304 283.084L486.332 283.692L484.403 285.885L484.982 288.221L485.104 288.707L484.832 295.335L484.832 295.35L483.611 294.755L482.768 293.172L482.311 291.109L481.425 290.139L479.297 291.845L476.355 292.157L475.184 294.153L474.612 297.106L473.512 300.203L471.456 302.353L466.314 304.881L464.029 306.975L463.529 308.344L463.258 311.838L462.915 313.307L462.072 314.531L460.058 316.289L459.23 317.623L459.387 320.114V322.137L459.044 323.838L458.044 324.904L455.244 326.149L454.387 327.293L454.23 330.259L455.201 331.459L455.759 332.647L454.245 335.601L453.102 336.677L451.06 337.155L450.089 337.809L449.003 339.252L448.489 340.373L448.16 341.461L447.603 342.825L442.818 351.154L442.261 353.193L443.889 353.98L446.946 356.318L448.23 358.268L444.603 357.891L444.617 359.132L444.417 359.775L444.16 360.273L443.917 361.048L445.246 362.288L443.603 363.395L442.989 365.444L443.189 368.001L444.032 370.69L445.488 373.124L446.888 373.81L448.373 374.064L450.13 375.148L451.044 376.508L454.3 382.964L454.514 383.969L454.814 386.952L454.757 387.449L455.643 388.167L457.571 388.753L458.399 389.216L459.171 389.36L460.057 389.062L460.956 389.128L461.755 390.397L461.81 390.883L461.941 392.032L461.426 392.915L460.755 393.677L460.54 394.858L460.469 396.248L460.055 396.933L459.855 397.695L460.341 399.261L461.284 399.979L464.054 400.298L465.054 401.148L465.825 404.181L465.054 406.033L463.683 407.313L462.583 408.614L460.812 413.529L459.712 415.667L458.155 417.143L460.497 418.432L459.183 421.757L456.012 425.159L452.727 426.733L451.113 426.337L448.085 424.466L446.599 424.246L445.114 425.038L443.329 427.404L441.615 428.152L438.63 427.636L435.659 426.161L432.545 425.446L429.103 427.207L427.461 429.462L427.147 430.991L426.69 431.849L424.647 432.124L423.462 431.805L419.134 429.781L416.534 430.947L413.064 433.685L409.484 435.78L406.501 434.988L405.644 433.097L405.786 431.194L406.229 429.192L406.257 426.97L405.686 425.022L399.03 412.941L397.523 411.583Z" fill="#EB4436" stroke="white" stroke-width="1.5" stroke-linecap="round" stroke-linejoin="round"/>
<path d="M497.895 301.894L495.838 300.97L495.524 299.265L495.681 297.227L495.081 295.243L493.296 293.515L492.225 293.66L491.34 294.619L490.14 295.365L486.998 295.867L485.441 295.644L484.833 295.347L484.834 295.332L485.106 288.704L484.984 288.219L484.405 285.882L486.333 283.69L483.305 283.082L482.691 280.688L483.455 260.579L479.042 258.298L478.799 256.441L462.045 252.76L460.831 256.732L463.388 258.913L460.302 266.459L465.115 267.164L464.216 269.287L455.461 270.504L454.561 272.616L453.64 270.537L451.376 269.823L443.063 271.108L446.777 263.162L443.049 262.234L440.821 258.443L440.671 256.061L443.07 250.667L436.094 250.645L436.751 248.059L432.166 248.35L424.683 241.339L419.984 243.574L417.691 243.221L416.927 242.526L417.356 240.577L415.021 240.106L413.757 235.836L408.208 239.501L402.209 234.794L400.374 234.894L399.531 236.397L402.302 241.339L397.696 245.702L391.825 243.691L384.248 248.798L382.334 246.138L382.491 242.129L375.635 240.263L373.936 237.473L376.093 233.212L373.536 227.436L370.544 224.407L365.867 226.291L364.338 223.7L365.031 221.803L362.296 222.207L361.332 218.771L363.203 216.964L359.918 218.514L358.026 218.166L355.955 213.044L348.243 212.618L350.842 210.651L347.3 200.207L340.58 193.816L341.058 188.57L343.715 183.603L343.572 177.139L345.757 175.578L342.358 170.694L345.657 168.912L346.107 164.885L349.485 166.872L349.415 170.744L351.693 173.698L353.793 174.714L357.439 174.094L366.648 176.822L368.403 174.659L366.876 171.081L375.103 172.13L376.103 170.06L377.102 172.538L381.552 169.794L385.944 172.208L386.622 169.738L389.365 167.278L395.735 165.123L397.606 165.935L399.312 170.22L403.026 171.667L406.105 171.363L407.197 167.499L409.918 170.46L412.125 169.924L415.86 166.669L415.596 163.113L427.557 159.533L434.321 152.708L435.125 153.271L438.11 154.706L440.267 155.35L440.024 157.926L438.595 162.939L441.109 164.384L442.609 164.689L444.052 164.395L444.733 163.371L445.082 163.913L447.153 165.989L450.702 165.041L456.55 172.814L461.506 172.104L464.826 173.818L466.033 173.306L469.245 168.368L466.637 165.031L468.145 165.511L478.172 165.839L480.957 165.319L480.728 165.726L480.643 166.121L480.657 166.517L480.857 166.923L483.156 168.131L483.228 170.229L482.713 172.53L483.256 174.357L485.085 174.571L490.555 173.06L492.854 173.274L495.511 175.935L503.923 188.826L502.08 190.008L503.695 193.138L506.537 194.635L516.078 194.871L516.392 196.177L515.421 198.112L513.85 200.024V200.812L510.765 202.656L506.409 206.288L503.867 210.29L506.167 213.2L505.081 214.874L505.267 215.862L506.382 216.334L507.995 216.457L506.895 218.333L508.01 219.366L509.195 221.846L510.295 222.733L511.666 222.8L516.336 221.353L516.636 221.05L516.979 220.938L517.293 221.05L517.607 221.353L519.72 222.363L525.705 223.744L528.219 223.89L526.676 225.405L526.333 227.144L526.733 229.096L527.49 231.294L528.675 233.256L529.661 233.447L530.189 234.187L530.089 237.807L529.104 242.917L528.147 245.818L528.333 248.382L533.132 256.753L533.262 258.129L533.418 259.773L531.69 261.619L528.019 262.29L526.162 261.954L524.592 261.339L523.049 261.204L521.178 262.289L519.807 263.966L518.893 266.045L518.607 268.224L519.221 270.169L516.679 272.47L510.737 274.145L507.867 275.508L506.51 277.607L503.382 279.828L501.954 281.703L503.796 283.756L504.568 286.21L504.481 288.642L503.653 290.683L502.625 291.352L499.868 291.575L498.683 292.311L498.426 293.024L497.969 295.443L497.668 296.502L499.068 297.639L499.553 298.965L499.153 300.413L497.895 301.894Z" fill="#EB4436" stroke="white" stroke-width="1.5" stroke-linecap="round" stroke-linejoin="round"/>
<path d="M122.195 56.6816L125.393 58.1639L129.806 58.6832L136.347 57.6566L136.748 55.5689L136.391 52.7734L136.648 50.2227L138.161 48.6591L140.19 48.1511L142.404 48.0198L147.902 46.7807L151.316 46.581L154.844 47.1575L171.74 52.7911L174.354 54.5142L175.068 57.4062L174.839 59.8587L175.068 62.1623L177.125 64.6131L178.839 65.3708L195.192 65.1655L198.291 64.1679L204.59 59.2138L221.715 50.5649L228.571 45.1584L234.013 37.7035L234.784 35.503L235.812 30.3517L235.885 29.4258L235.98 29.4829L238.59 31.9507L239.692 34.148L240.67 38.1801L242.954 40.9692L245.462 43.164L247.149 45.3315L247.655 46.734L247.857 48.0826L247.486 49.6382L246.549 51.1897L246.046 51.5641L245.161 53.7783L248.095 63.2564L246.888 64.0318L250.238 68.8756L250.967 71.6549L251.302 73.2266L250.681 78.0542L248.946 81.4914L243.447 83.3006H237.848L235.106 83.8352L232.635 85.5759L230.893 87.6347L230.428 88.6017L230.614 89.534L230.786 91.501L231.193 93.5469L231.992 96.0356L232.421 98.5807L231.728 100.756L231.414 100.92L233.092 102.386L234.613 103.073L237.319 100.829L238.491 102.193L235.277 112.726L232.107 114.178L227.629 112.624L225.523 117.014L227.487 123.142L227.415 125.935L224.216 128.2L217.889 125.515L219.117 129.752L215.453 132.481L217.452 134.259L217.316 136.568L210.861 145.97L214.395 146.632L215.624 149.848L213.617 155.99L209.476 159.52L207.119 160.468L205.177 158.65L202.813 161.626L199.235 158.803L197.535 159.769L195.764 163.653L198.649 167.603L198.456 168.777L193.986 169.927L190.765 168.765L189.302 165.005L181.511 166.727L179.669 164.893L174.134 165.533L171.807 158.682L165.83 161.235L164.373 158.293L160.409 160.517L154.789 171.454L150.919 168.757L141.785 168.596L140.877 161.72L135.372 163.368L130.323 161.263L138.949 154.839L139.292 153.251L136.107 148.865L137.892 146.616L129.336 139.218L132.593 135.868L131.493 131.758L129.336 130.858L126.137 132.834L125.009 129.822L126.866 127.987L125.781 125.466L129.051 125.948L130.009 124.956L127.909 122.86L130.686 122.911L124.031 119.567L128.302 117.628L125.938 114.419L129.551 109.012L125.423 101.888L128.415 99.724L112.783 88.5453L118.831 84.5872L123.787 75.1179L120.567 69.3659L116.811 68.1236L120.16 65.7419L117.796 60.019L122.367 57.1333L122.195 56.6816Z" fill="#EB4436" stroke="white" stroke-width="1.5" stroke-linecap="round" stroke-linejoin="round"/>
<path d="M244.124 29.2156L245.365 29.2591L250.364 31.9869L253.034 32.9015L259.476 33.3186L262.104 31.9176L262.79 28.1029L261.947 25.929L258.848 22.2213L257.777 20.2293L257.877 17.9854L258.777 16.2559L259.063 14.6754L257.391 12.8365L264.618 8.6022L272.03 5.86228L276.115 5.18596L277.857 5.50721L278.957 7.35905L278.771 11.0668L277.599 13.8284L277.343 15.9935L279.985 17.8944L281.814 18.0659L285.798 17.3332L290.211 18.45L292.354 18.3066L294.21 17.5965L295.639 16.5313L306.322 3.35747L310.879 1L312.879 1.19485L315.392 2.15861L317.706 3.69L319.135 5.57082L319.434 8.91862L318.577 12.099L317.963 15.4556L318.963 19.309L312.936 16.4862L311.379 16.7157L310.593 19.3783L313.52 20.6488L323.189 20.9805L325.732 21.6673L331.073 24.1335L334.058 23.309L337.543 19.9032L340.728 15.5748L342.884 11.9886L343.841 9.26161L344.312 7.19883L345.141 5.86309L347.269 5.31237L347.654 5.83974L351.796 8.6022L354.51 13.7986L354.024 17.487L352.481 21.0304L351.996 25.8259L352.882 27.9765L357.638 33.2606L358.366 35.1817L359.78 40.0617L360.452 41.5069L362.836 42.8322L368.178 42.3636L370.734 42.6205L373.162 45.7155L373.234 53.5809L375.662 54.2025L376.555 53.9787L374.891 55.3611L373.384 63.7894L379.004 69.0832L379.454 77.9898L375.99 81.0799L371.52 79.7651L368.392 84.3456L361.465 84.7095L355.881 91.8286L344.819 94.0452L344.804 97.0565L340.827 102.645L338.913 100.345L336.32 100.509L330.986 102.667L327.273 105.971L325.581 105.131L318.389 108.122L316.618 106.925L314.261 101.747L309.748 105.2L306.692 104.547L301.307 110.602L302.871 107.129L299.157 105.097L289.081 107.81L287.274 112.287L285.153 112.247L280.747 109.649L278.24 111.998L273.577 108.417L271.071 112.225L267.985 109.059L259.594 111.113L258.922 107.856L256.337 107.056L257.658 103.723L253.352 106.618L252.452 106.176L253.388 104.62L246.576 101.543L243.219 100.957L238.485 102.19L237.313 100.827L234.607 103.07L233.086 102.383L231.408 100.918L231.722 100.754L232.415 98.5782L231.986 96.0331L231.187 93.5444L230.779 91.4985L230.608 89.5316L230.422 88.5992L230.886 87.6322L232.629 85.5734L235.1 83.8327L237.842 83.2981H243.441L248.939 81.4889L250.675 78.0518L251.296 73.2241L250.96 71.6525L250.232 68.8731L246.882 64.0293L248.089 63.254L245.154 53.7758L246.04 51.5616L246.543 51.1872L246.276 51.6309L247.884 50.8217L248.997 49.5818L250.988 45.329L246.332 43.3234L245.252 42.4417L244.712 40.4804L244.814 35.693L244.386 33.3886L243.363 31.6149L241.349 29.1181L244.124 29.2156Z" fill="#EB4436" stroke="white" stroke-width="1.5" stroke-linecap="round" stroke-linejoin="round"/>
<path d="M419.668 62.845L422.012 64.8562L429.839 67.2266L431.71 68.5487L433.039 70.0808L434.539 71.1573L436.91 71.1348L442.694 69.9383L444.465 70.1259L446.722 71.4818L449.607 75.4794L451.449 77.0333L455.691 75.952L458.047 76.1396L459.276 78.9455L459.619 80.0043L457.676 81.9334L457.233 84.4479L460.376 87.8263L459.104 88.6846L457.704 89.253L456.219 89.4809L454.705 89.3158L455.048 90.9076L455.262 91.5783L455.648 92.4647L454.62 95.4824L453.863 97.0452L452.82 98.4711L451.207 97.0847L450.079 97.7835L449.379 99.914L449.051 102.827L450.922 105.382L448.737 110.739L443.295 119.461L446.381 118.622L447.709 118.656L449.051 119.461L447.466 122.137L445.081 127.236L443.296 129.931L442.639 130.464L441.039 131.041L439.44 131.687L429.47 142.857L429.771 147.754L432.013 151.089L434.322 152.707L427.558 159.533L415.597 163.112L415.861 166.668L412.126 169.923L409.919 170.459L407.198 167.498L406.106 171.362L403.028 171.666L399.313 170.219L397.607 165.934L395.736 165.122L389.366 167.277L386.624 169.737L385.945 172.207L381.553 169.793L377.103 172.537L376.104 170.059L375.104 172.129L366.877 171.08L368.404 174.658L366.649 176.821L357.44 174.093L360.112 168.359L357.442 166.768L359.298 162.343L358.17 158.323L364.419 151.837L361.363 150.752L362.334 143.385L364.641 136.953L367.333 137.87L367.997 137.174L369.204 131.111L367.19 129.356L362.349 129.294L361.871 127.555L356.537 130.086L354.223 127.543L351.931 128.54L351.024 127.838L349.203 123.045L354.759 118.097L354.888 113.248L360.658 110.593L359.773 105.429L361.129 105.077L361.844 106.825L365.343 105.395L361.6 100.569L358.522 99.1603L354.645 99.6716L354.666 105.18L352.203 106.724L349.346 104.941L346.575 106.02L344.348 101.683L340.834 102.648L344.811 97.0597L344.826 94.0485L355.888 91.8319L361.472 84.7128L368.399 84.3489L371.527 79.7684L375.997 81.0832L379.461 77.993L379.011 69.0865L373.391 63.7926L374.898 55.3644L376.562 53.9819L380.883 52.899L397.236 53.5898L400.121 52.523L405.92 48.4192L408.647 47.1003L411.632 47.4433L414.875 49.4981L417.431 52.8539L418.416 57.1325L418.859 62.1501L419.668 62.845ZM444.731 163.373L446.22 161.134L447.449 160.186L448.835 160.716L451.662 163.843L453.076 164.837L465.059 164.533L466.636 165.034L469.244 168.371L466.032 173.309L464.825 173.822L461.505 172.107L456.549 172.818L450.7 165.044L447.151 165.992L445.08 163.916L444.731 163.373Z" fill="#EB4436" stroke="white" stroke-width="1.5" stroke-linecap="round" stroke-linejoin="round"/>
<path d="M271.573 155.38L260.336 161.42L257.408 162.108L254.373 161.561L250.553 158.975L246.904 151.23L244.39 152.541L239.213 149.647L240.855 146.301L244.362 145.713L245.239 142.034L243.826 139.548L246.447 134.364L251.517 131.806L257.423 132.802L261.007 129.246L263.385 131.104L265.555 134.838L265.485 136.946L263.321 139.175L268.876 142.739L271.069 149.671L268.14 150.055L266.976 151.977L271.573 155.38Z" fill="#EB4436" stroke="white" stroke-width="1.5" stroke-linecap="round" stroke-linejoin="round"/>
<path d="M219.06 174.667L215.325 173.404L213.361 177.091L212.39 175.603L209.147 177.305L206.519 176.443L203.734 178.681L195.358 178.444L192.416 177.384L190.458 174.822L189.795 172.388L190.765 168.764L193.986 169.926L198.456 168.776L198.649 167.602L195.764 163.652L197.536 159.768L199.235 158.802L202.813 161.625L205.177 158.649L207.119 160.467L209.476 159.519L213.618 155.989L215.624 149.848L214.395 146.631L210.861 145.969L217.316 136.567L217.453 134.258L215.453 132.481L219.117 129.751L217.889 125.514L224.216 128.2L227.415 125.934L227.487 123.141L225.523 117.013L227.63 112.623L232.107 114.177L235.278 112.725L238.491 102.192L243.225 100.959L246.582 101.544L253.394 104.622L252.459 106.177L253.359 106.62L257.665 103.725L256.344 107.057L258.929 107.858L259.6 111.114L267.992 109.06L271.077 112.226L273.583 108.419L278.247 111.999L280.753 109.651L285.16 112.249L287.28 112.288L289.087 107.812L299.164 105.098L302.877 107.13L301.313 110.604L306.698 104.548L309.755 105.201L314.267 101.749L316.624 106.927L318.395 108.124L325.587 105.133L327.279 105.973L330.993 102.668L336.327 100.511L338.919 100.346L340.833 102.647L344.347 101.681L346.575 106.019L349.345 104.94L352.202 106.722L354.666 105.178L354.644 99.67L358.522 99.1587L361.6 100.567L365.342 105.393L361.843 106.824L361.129 105.076L359.772 105.428L360.658 110.592L354.887 113.246L354.758 118.095L349.202 123.043L351.023 127.836L351.93 128.539L354.222 127.542L356.536 130.084L361.87 127.553L362.348 129.292L367.19 129.354L369.203 131.109L367.997 137.172L367.332 137.869L364.64 136.951L362.333 143.384L361.362 150.75L364.418 151.835L358.17 158.321L359.298 162.341L357.441 166.766L360.112 168.357L357.439 174.091L353.793 174.711L351.693 173.696L349.415 170.741L349.485 166.87L346.108 164.883L340.903 160.73L334.119 166.115L332.027 166.442L330.277 164.964L330.761 161.03L320.337 162.108L320.928 159.737L317.616 159.433L314.66 154.496L308.868 152.485L305.169 153.819L303.968 156.606L303.426 154.971L300.999 156.35L293.786 154.475L293.214 160.066L295.741 163.474L293.057 166.603L288.444 166.847L287.715 162.099L284.453 165.665L278.405 167.093L278.098 169.795L273.698 167.256L273.02 166.161L273.618 163.644L271.613 163.351L268.571 164.31L263.558 168.244L256.916 169.276L256.116 172.57L253.51 172.378L250.868 168.734L249.86 169.884L251.329 172.064L248.311 172.118L247.947 175.445L246.989 176.595L244.968 177.26L241.148 175.986L238.442 177.958L233.943 174.238L230.187 174.317L227.195 170.144L225.874 169.591L224.502 170.121L223.495 172.524L220.131 172.467L219.06 174.667ZM271.574 155.381L266.978 151.976L268.142 150.054L271.07 149.67L268.878 142.737L263.323 139.174L265.487 136.944L265.557 134.836L263.387 131.102L261.009 129.245L257.425 132.801L251.519 131.804L246.449 134.363L243.828 139.546L245.241 142.033L244.364 145.711L240.857 146.299L239.215 149.645L244.392 152.539L246.906 151.228L250.555 158.973L254.375 161.559L257.41 162.107L260.338 161.418L271.574 155.381Z" fill="#EB4436" stroke="white" stroke-width="1.5" stroke-linecap="round" stroke-linejoin="round"/>
<path d="M219.059 174.667L220.129 172.468L223.493 172.525L224.501 170.122L225.872 169.591L227.193 170.145L230.185 174.318L233.941 174.239L238.44 177.959L241.146 175.987L244.967 177.26L246.988 176.595L247.945 175.446L248.309 172.119L251.327 172.065L249.859 169.885L250.866 168.735L253.508 172.379L256.115 172.57L256.914 169.277L263.556 168.244L268.569 164.311L271.611 163.352L273.615 163.645L273.017 166.162L273.696 167.257L278.095 169.796L278.402 167.094L284.45 165.666L287.713 162.1L288.441 166.848L293.055 166.604L295.738 163.475L293.212 160.067L293.783 154.476L300.996 156.351L303.424 154.972L303.965 156.607L305.167 153.819L308.866 152.486L314.657 154.497L317.613 159.434L320.925 159.738L320.334 162.109L330.758 161.031L330.274 164.965L332.024 166.443L334.117 166.116L340.901 160.731L346.105 164.884L345.655 168.91L342.356 170.693L345.755 175.576L343.57 177.137L343.712 183.601L341.056 188.568L336.671 187.566L333.508 191.838L329.844 191.518L329.702 192.858L314.891 196.78L314.177 197.443L314.713 199.98L313.163 197.663L307.6 199.851L306.721 195.474L303.151 196.47L302.523 198.872L298.659 196.155L297.324 196.166L295.796 198.759L297.395 205.536L294.296 206.233L289.269 204.44L286.827 204.777L284.485 206.627L284.978 210.325L276.658 213.858L274.63 212.943L274.794 210.92L270.238 213.302L270.623 207.937L269.959 206.818L263.725 206.863L262.282 205.357L254.448 206.2L250.992 210.077L251.377 204.541L247.3 204.952L243.822 199.536L239.337 198.597L240.094 194.051L232.717 192.182L233.417 187.622L230.746 184.096L229.225 184.704L224.876 190.702L221.67 191.191L219.249 190.166L217.899 186.326L217.742 178.269L218.292 175.461L220.813 174.717L219.059 174.667Z" fill="#EB4436" stroke="white" stroke-width="1.5" stroke-linecap="round" stroke-linejoin="round"/>
</svg>
