<svg width="20" height="20" viewBox="0 0 20 20" fill="none" xmlns="http://www.w3.org/2000/svg">
<rect width="20" height="20" rx="10" fill="#F8C02E"/>
<path d="M8.8346 12.1209C10.5189 10.1878 12.1816 8.31581 13.8442 6.44379C14.1897 6.03682 14.5136 5.60951 14.9239 5.2636C15.1182 5.10081 15.5285 4.91768 15.7228 5.03977C15.9172 5.12116 15.8092 5.54847 15.7444 5.7723C15.6797 6.03682 15.4853 6.26065 15.3342 6.48448C13.5851 9.04834 11.8361 11.6122 10.087 14.1761C9.37443 15.2138 8.61867 15.2749 7.77654 14.3389C6.97759 13.4639 6.15705 12.5889 5.37969 11.6732C5.14216 11.3884 4.94783 10.9611 5.0126 10.6355C5.07738 10.3303 5.44447 9.96401 5.76837 9.82157C6.22183 9.61809 6.67528 9.82157 7.02077 10.1675C7.53901 10.7372 8.05725 11.307 8.55389 11.8564C8.64027 11.9378 8.70505 11.9988 8.8346 12.1209Z" fill="white"/>
</svg>
