<svg width="20" height="20" viewBox="0 0 20 20" fill="none" xmlns="http://www.w3.org/2000/svg">
<g clip-path="url(#clip0_770_705)">
<path d="M7.02926 14.4153C7.43362 13.9215 7.7623 13.5274 8.08421 13.1287C9.77846 11.0271 11.4704 8.92443 13.1658 6.82288C14.4117 5.27889 15.6597 3.73606 16.9101 2.19555C17.3608 1.64031 17.8058 1.08044 18.2813 0.547235C18.5546 0.240059 18.8856 -0.00336237 19.3306 -0.00104406C19.7135 0.00127424 19.9451 0.200648 19.9902 0.593601C20.0557 1.16506 19.8321 1.66118 19.5497 2.11673C17.8871 4.80132 16.2143 7.4778 14.5382 10.1531C13.0246 12.5688 11.5021 14.9787 9.98177 17.3897C9.59435 18.0041 9.24195 18.6486 8.80031 19.2189C8.03903 20.2007 6.61474 20.2656 5.75858 19.3637C5.18366 18.7575 4.66974 18.0887 4.1321 17.4454C2.93484 16.0115 1.7387 14.5753 0.542561 13.1403C-0.118194 12.3474 -0.179187 11.2404 0.392338 10.4406C0.984195 9.61296 2.04705 9.32897 2.98679 9.78567C3.24206 9.9097 3.48377 10.1091 3.67127 10.3293C4.72057 11.5627 5.7518 12.8122 6.78755 14.0583C6.86435 14.1534 6.92648 14.2635 7.02926 14.4153Z" fill="#EB4436"/>
</g>
<defs>
<clipPath id="clip0_770_705">
<rect width="20" height="20" fill="white"/>
</clipPath>
</defs>
</svg>
