<svg width="656" height="235" viewBox="0 0 656 235" fill="none" xmlns="http://www.w3.org/2000/svg">
<path d="M488.203 0.338547C469.343 1.9673 452.253 8.93837 440.33 19.851L437.62 22.3593L434.405 21.0889C423.891 16.9193 414.316 15.0299 402.249 14.7367C394.156 14.5413 388.375 15.0299 381.113 16.4632C350.222 22.685 328.218 43.4679 327.966 66.6288L327.929 69.9189L324.425 70.6681C310.262 73.7301 298.483 79.3005 289.198 87.2814C277.781 97.0865 272 108.651 272 121.583C272 126.86 272.614 130.574 274.24 135.167C277.998 145.786 286.741 155.787 298.556 162.888C305.095 166.83 315.212 170.771 323.485 172.595L326.737 173.312V178.264C326.773 181.586 326.99 184.16 327.387 186.082C332.482 209.21 356.364 226.768 387.978 230.644C392.386 231.198 405.284 231.198 409.475 230.677C422.301 229.048 433.899 225.4 442.895 220.155C444.088 219.471 445.208 218.885 445.388 218.885C445.533 218.885 446.617 219.569 447.809 220.383C462.514 230.742 482.313 235.987 502.185 234.846C514.108 234.162 523.755 231.915 533.763 227.517C546.011 222.142 555.874 214.129 562.233 204.389C563.173 202.955 563.317 202.858 564.401 203.053C578.528 205.724 589.511 205.822 602.157 203.411C629.291 198.265 650.318 181.326 655.015 160.803C658.448 145.786 652.775 129.824 640.057 118.586L637.673 116.501L638.359 115.622C639.877 113.7 643.128 107.12 644.176 103.895C645.658 99.269 646.019 96.6956 646.019 91.5161C645.983 69.984 628.026 50.6344 600.603 42.5558C591.824 39.9498 584.2 38.94 573.831 38.9074H565.846L565.015 36.9529C561.583 28.744 554.104 20.1768 544.963 13.9223C530.041 3.75894 508.327 -1.4205 488.203 0.338547Z" fill="#FFECB9"/>
<path d="M207.749 109.641C205.103 108.959 201.05 108.658 198.622 108.943C193.864 109.527 188.848 111.795 185.667 114.863C183.517 116.966 180.96 121.388 180.32 124.23C178.876 130.649 180.285 136.931 184.466 142.606C191.052 151.512 202.941 155.232 213.191 151.592C228.282 146.234 231.3 127.726 219.043 115.907C217.008 113.899 210.592 110.354 207.749 109.641Z" fill="#F8C02E" fill-opacity="0.5"/>
<path d="M130.853 121.808C124.925 120.366 117.923 122.612 113.746 127.271C112.082 129.123 110.082 133.084 109.648 135.319C108.132 143.198 111.836 150.979 118.791 154.588C125.985 158.284 135.084 156.26 140.329 149.799C141.119 148.815 142.026 147.535 142.345 146.915C143.344 144.97 144.118 141.52 144.161 138.799C144.287 130.919 138.619 123.696 130.853 121.808Z" fill="#F8C02E" fill-opacity="0.4"/>
<path d="M64.3368 150.442C61.9876 149.948 60.8806 150.02 58.7458 150.705C55.6291 151.705 54.2836 152.866 52.6617 156.023C51.4743 158.334 51.283 158.984 51.2231 160.628C51.1397 163.15 51.9094 165.47 53.5743 167.643C54.6938 169.073 55.2985 169.562 56.9631 170.417C60.8985 172.475 64.9158 172.152 68.4325 169.54C70.1051 168.298 70.4641 167.876 71.4923 165.875C72.4481 164.015 72.6545 163.266 72.7442 161.495C72.9696 156.266 69.3044 151.462 64.3368 150.442Z" fill="#F8C02E" fill-opacity="0.3"/>
<path d="M11.8083 169.902C10.2094 169.544 8.76154 169.655 7.03852 170.302C1.72691 172.312 0.980354 179.873 5.78287 183.089C8.374 184.847 11.68 184.729 14.3238 182.845C16.6817 181.17 17.8285 177.342 16.8505 174.595C16.1068 172.502 13.8175 170.364 11.8083 169.902Z" fill="#F8C02E" fill-opacity="0.1"/>
</svg>
