<svg width="78" height="78" viewBox="0 0 78 78" fill="none" xmlns="http://www.w3.org/2000/svg">
<g clip-path="url(#clip0_927_6732)">
<path d="M68.9373 23.0472L33.6985 7.36081L34.4637 5.64184C34.6749 5.16719 34.4614 4.61105 33.9868 4.39976L31.4083 3.25198C30.9337 3.04069 30.3775 3.25422 30.1662 3.72887L7.21054 55.2979C6.99925 55.7726 7.21278 56.3287 7.68743 56.54L10.2659 57.6878C10.7405 57.8991 11.2967 57.6855 11.508 57.2109L20.6902 36.5833L55.9291 52.2697C56.4037 52.481 56.9599 52.2674 57.1712 51.7928L69.4142 24.2893C69.6255 23.8146 69.412 23.2585 68.9373 23.0472ZM10.1716 55.5862L9.3121 55.2036L31.5026 5.35354L32.3621 5.73614L10.1716 55.5862ZM63.4867 32.9784L54.8918 29.1525L51.0659 37.7473L59.6607 41.5733L55.8348 50.1681L47.2399 46.3422L51.0659 37.7473L42.4711 33.9214L38.6451 42.5162L30.0503 38.6903L33.8762 30.0954L25.2814 26.2695L29.1073 17.6746L37.7022 21.5006L41.5281 12.9057L50.123 16.7317L46.297 25.3265L54.8918 29.1525L58.7178 20.5576L67.3126 24.3836L63.4867 32.9784Z" fill="black"/>
<path d="M46.298 25.3264L37.7031 21.5005L33.8772 30.0953L42.472 33.9213L46.298 25.3264Z" fill="black"/>
</g>
<defs>
<clipPath id="clip0_927_6732">
<rect width="58.3292" height="58.3292" fill="white" transform="translate(24.1035) rotate(23.996)"/>
</clipPath>
</defs>
</svg>
