<svg width="30" height="30" viewBox="0 0 30 30" fill="none" xmlns="http://www.w3.org/2000/svg">
<path d="M9.57047 1.81836C5.31514 1.81836 1.81836 5.31034 1.81836 9.57047V20.4299C1.81836 24.6852 5.31034 28.182 9.57047 28.182H20.4299C24.6852 28.182 28.182 24.69 28.182 20.4299V9.57167C28.182 5.31514 24.69 1.81836 20.4299 1.81836H9.57047ZM9.57047 4.21505H20.4299C21.1334 4.21411 21.8303 4.35198 22.4804 4.62078C23.1306 4.88958 23.7214 5.28402 24.2188 5.78151C24.7163 6.27899 25.1108 6.86974 25.3796 7.51992C25.6484 8.17009 25.7862 8.86692 25.7853 9.57047V20.4299C25.7862 21.1334 25.6484 21.8303 25.3796 22.4804C25.1108 23.1306 24.7163 23.7214 24.2188 24.2188C23.7214 24.7163 23.1306 25.1108 22.4804 25.3796C21.8303 25.6484 21.1334 25.7862 20.4299 25.7853H9.57167C8.86802 25.7864 8.17106 25.6486 7.52075 25.3799C6.87044 25.1112 6.27954 24.7168 5.78193 24.2193C5.28432 23.7218 4.88977 23.131 4.6209 22.4807C4.35202 21.8305 4.21411 21.1335 4.21505 20.4299V9.57167C4.21395 8.86802 4.35171 8.17106 4.62044 7.52075C4.88917 6.87044 5.28358 6.27954 5.78108 5.78193C6.27858 5.28432 6.86939 4.88977 7.51964 4.6209C8.1699 4.35202 8.86682 4.21411 9.57047 4.21505ZM22.0776 6.83704C21.9349 6.8364 21.7934 6.86405 21.6614 6.91839C21.5294 6.97273 21.4094 7.05267 21.3085 7.15362C21.2076 7.25456 21.1276 7.3745 21.0733 7.50651C21.0189 7.63852 20.9913 7.77999 20.9919 7.92274C20.9919 8.52671 21.4736 9.00844 22.0776 9.00844C22.2205 9.00924 22.3621 8.9817 22.4942 8.92744C22.6264 8.87317 22.7464 8.79325 22.8475 8.69229C22.9486 8.59133 23.0286 8.47134 23.0831 8.33925C23.1375 8.20716 23.1652 8.06559 23.1645 7.92274C23.1652 7.77988 23.1375 7.63832 23.0831 7.50623C23.0286 7.37414 22.9486 7.25415 22.8475 7.15319C22.7464 7.05223 22.6264 6.97231 22.4942 6.91804C22.3621 6.86378 22.2205 6.83624 22.0776 6.83704ZM15.0002 7.81009C11.0456 7.81009 7.81009 11.0456 7.81009 15.0002C7.81009 18.9547 11.0456 22.1903 15.0002 22.1903C18.9547 22.1903 22.1903 18.9547 22.1903 15.0002C22.1903 11.0456 18.9547 7.81009 15.0002 7.81009ZM15.0002 10.2068C17.6641 10.2068 19.7936 12.3363 19.7936 15.0002C19.7936 17.6641 17.6641 19.7936 15.0002 19.7936C12.3363 19.7936 10.2068 17.6641 10.2068 15.0002C10.2068 12.3363 12.3363 10.2068 15.0002 10.2068Z" fill="white"/>
</svg>
