<svg width="353" height="60" viewBox="0 0 353 60" fill="none" xmlns="http://www.w3.org/2000/svg">
<g filter="url(#filter0_d_1485_3061)">
<path d="M5 11.4C5 9.15979 5 8.03968 5.43597 7.18404C5.81947 6.43139 6.43139 5.81947 7.18404 5.43597C8.03968 5 9.15979 5 11.4 5H341.6C343.84 5 344.96 5 345.816 5.43597C346.569 5.81947 347.181 6.43139 347.564 7.18404C348 8.03968 348 9.15979 348 11.4V48.6C348 50.8402 348 51.9603 347.564 52.816C347.181 53.5686 346.569 54.1805 345.816 54.564C344.96 55 343.84 55 341.6 55H11.4C9.15979 55 8.03968 55 7.18404 54.564C6.43139 54.1805 5.81947 53.5686 5.43597 52.816C5 51.9603 5 50.8402 5 48.6V11.4Z" fill="white"/>
<path d="M101.952 29.6721V36.7481H99.6914V19.2744H105.685C107.204 19.2744 108.499 19.7773 109.559 20.7832C110.642 21.789 111.184 23.0171 111.184 24.4674C111.184 25.9528 110.642 27.1808 109.559 28.175C108.511 29.1691 107.216 29.6604 105.685 29.6604H101.952V29.6721ZM101.952 21.4265V27.52H105.732C106.627 27.52 107.381 27.2159 107.969 26.6194C108.57 26.0229 108.876 25.2978 108.876 24.4791C108.876 23.6721 108.57 22.9586 107.969 22.3621C107.381 21.7423 106.639 21.4382 105.732 21.4382H101.952V21.4265Z" fill="#5F6368"/>
<path d="M117.095 24.3975C118.768 24.3975 120.086 24.8419 121.052 25.7308C122.017 26.6197 122.5 27.8361 122.5 29.3799V36.7483H120.345V35.0875H120.251C119.321 36.4559 118.073 37.1343 116.518 37.1343C115.188 37.1343 114.081 36.7483 113.186 35.9647C112.291 35.1811 111.844 34.2103 111.844 33.0407C111.844 31.801 112.315 30.8185 113.257 30.0934C114.199 29.3565 115.459 28.9939 117.025 28.9939C118.367 28.9939 119.474 29.2396 120.334 29.7308V29.2162C120.334 28.4325 120.027 27.7776 119.403 27.2279C118.779 26.6782 118.049 26.4092 117.213 26.4092C115.953 26.4092 114.952 26.9355 114.222 27.9998L112.232 26.76C113.327 25.1811 114.952 24.3975 117.095 24.3975ZM114.175 33.0758C114.175 33.6606 114.422 34.1518 114.929 34.5378C115.423 34.9238 116.012 35.1226 116.683 35.1226C117.637 35.1226 118.485 34.7717 119.227 34.07C119.969 33.3682 120.345 32.5495 120.345 31.6021C119.639 31.0524 118.662 30.7717 117.402 30.7717C116.483 30.7717 115.718 30.9939 115.105 31.4267C114.481 31.8828 114.175 32.4325 114.175 33.0758Z" fill="#5F6368"/>
<path d="M134.794 24.7832L127.258 41.9996H124.926L127.729 35.9762L122.76 24.7832H125.221L128.8 33.368H128.847L132.333 24.7832H134.794Z" fill="#5F6368"/>
<path d="M92.9599 28.2451C92.9599 27.5129 92.894 26.8124 92.7715 26.1387H83.2949V29.9983L88.7527 29.9995C88.5313 31.2837 87.8189 32.3784 86.7274 33.1083V35.6123H89.9761C91.8731 33.8685 92.9599 31.2907 92.9599 28.2451Z" fill="#4285F4"/>
<path d="M86.7275 33.109C85.8232 33.7149 84.6586 34.0693 83.2962 34.0693C80.6645 34.0693 78.432 32.3079 77.6324 29.9336H74.2812V32.5161C75.9415 35.7886 79.354 38.0342 83.2962 38.0342C86.021 38.0342 88.3101 37.1441 89.9762 35.612L86.7275 33.109Z" fill="#34A853"/>
<path d="M77.3173 28.018C77.3173 27.3513 77.4292 26.7069 77.6329 26.101V23.5186H74.2817C73.5952 24.8718 73.209 26.3993 73.209 28.018C73.209 29.6367 73.5964 31.1642 74.2817 32.5174L77.6329 29.9349C77.4292 29.3291 77.3173 28.6846 77.3173 28.018Z" fill="#FABB05"/>
<path d="M83.2962 21.9649C84.7834 21.9649 86.1152 22.4737 87.1667 23.4678L90.0457 20.6105C88.2971 18.993 86.0175 18 83.2962 18C79.3551 18 75.9415 20.2456 74.2812 23.5181L77.6324 26.1006C78.432 23.7263 80.6645 21.9649 83.2962 21.9649Z" fill="#E94235"/>
<line x1="147.791" y1="17" x2="147.791" y2="43" stroke="#5F6368" stroke-width="2"/>
<path d="M194.765 28.731C194.732 27.9128 194.368 27.1397 193.751 26.5781C193.134 26.0165 192.314 25.7112 191.466 25.7278C190.453 25.685 189.434 25.7278 188.421 25.6973C188.148 25.6973 188.053 25.7768 188.009 26.0398C187.661 28.2539 187.287 30.462 186.92 32.6761C186.831 33.2143 186.749 33.7526 186.66 34.3031C186.721 34.3167 186.782 34.3269 186.844 34.3336C187.87 34.3336 188.895 34.3336 189.915 34.3336C190.737 34.3493 191.549 34.1565 192.27 33.7745C192.992 33.3924 193.596 32.8344 194.025 32.1562C194.657 31.125 194.917 29.9205 194.765 28.731ZM191.979 31.4039C191.783 31.81 191.465 32.15 191.066 32.38C190.668 32.61 190.207 32.7195 189.744 32.6944H189.111C189.218 32.0278 189.313 31.3978 189.421 30.7678C189.592 29.7219 189.776 28.6698 189.94 27.6178C189.94 27.416 190.035 27.3303 190.251 27.3487C190.364 27.3579 190.479 27.3579 190.593 27.3487C190.815 27.3166 191.042 27.3304 191.258 27.3892C191.474 27.448 191.675 27.5504 191.847 27.6897C192.02 27.829 192.16 28.002 192.258 28.1973C192.356 28.3926 192.41 28.6058 192.416 28.8228C192.573 29.7048 192.423 30.612 191.992 31.4039" fill="#0E307D"/>
<path d="M185.267 26.1075C184.831 25.9029 184.357 25.7824 183.874 25.7528C182.854 25.6916 181.828 25.7528 180.802 25.71C180.537 25.71 180.473 25.8078 180.442 26.028C180.083 28.2544 179.718 30.4787 179.346 32.701C179.257 33.2332 179.175 33.7714 179.08 34.3463C179.713 34.3463 180.347 34.3463 180.98 34.3463C181.214 34.3463 181.296 34.2668 181.328 34.0466C181.448 33.2331 181.6 32.4197 181.721 31.6001C181.721 31.4043 181.828 31.3187 182.037 31.3432C182.119 31.3555 182.202 31.3555 182.284 31.3432C182.506 31.3432 182.594 31.3982 182.632 31.6123C182.721 32.1138 182.829 32.6093 182.949 33.1047C182.997 33.4249 183.149 33.7219 183.384 33.9529C183.619 34.1838 183.923 34.3366 184.254 34.3892C184.767 34.4227 185.282 34.4104 185.792 34.3525C185.828 34.3426 185.86 34.3239 185.886 34.2981C185.911 34.2723 185.929 34.2404 185.938 34.2057C185.976 33.7714 185.995 33.3371 186.02 32.8906H185.704C185.597 32.9025 185.49 32.8938 185.387 32.865C185.285 32.8362 185.189 32.788 185.106 32.723C185.023 32.6581 184.954 32.5778 184.903 32.4869C184.852 32.3959 184.821 32.2961 184.811 32.1934C184.716 31.8447 184.659 31.49 184.545 31.1475C184.475 30.9273 184.545 30.8294 184.735 30.7193C185.163 30.4942 185.531 30.1767 185.811 29.7916C186.091 29.4065 186.275 28.9642 186.35 28.499C186.521 27.4226 186.16 26.5234 185.292 26.1259L185.267 26.1075ZM183.817 29.2819C183.744 29.4432 183.621 29.5778 183.463 29.6659C183.306 29.754 183.123 29.7909 182.943 29.7713C182.639 29.7557 182.335 29.7557 182.031 29.7713C182.158 29.0067 182.265 28.3033 182.392 27.5999C182.407 27.562 182.43 27.5279 182.461 27.5004C182.492 27.4728 182.529 27.4524 182.569 27.4409C182.826 27.4165 183.085 27.4165 183.342 27.4409C183.528 27.4652 183.699 27.5522 183.825 27.6864C183.951 27.8207 184.025 27.9936 184.032 28.1749C184.084 28.5537 183.999 28.9381 183.791 29.2636" fill="#0E307D"/>
<path d="M178.061 32.206C177.624 30.1264 177.187 28.0529 176.756 25.9672C176.712 25.7776 176.636 25.7103 176.427 25.7103C175.952 25.7103 175.477 25.7103 175.002 25.7103C174.907 25.6986 174.81 25.7182 174.727 25.7659C174.645 25.8135 174.581 25.8866 174.546 25.9733C173.723 27.5086 172.894 29.0315 172.07 30.5668C172.026 30.6585 171.975 30.7441 171.925 30.8359L170.215 34.0103C170.164 34.1021 170.126 34.1999 170.057 34.3467C170.81 34.3467 171.513 34.3467 172.21 34.3467C172.286 34.3467 172.381 34.2427 172.419 34.1632C172.659 33.7045 172.894 33.2396 173.115 32.7626C173.142 32.688 173.194 32.6244 173.263 32.5822C173.332 32.54 173.414 32.5216 173.495 32.5301C174.204 32.5301 174.92 32.5301 175.635 32.5301C175.851 32.5301 175.92 32.6035 175.952 32.7931C176.015 33.2274 176.085 33.6617 176.174 34.0898C176.174 34.1877 176.288 34.3467 176.357 34.3467C177.054 34.3467 177.757 34.3467 178.498 34.3467C178.498 34.1938 178.46 34.0776 178.434 33.9614C178.314 33.3497 178.187 32.7931 178.061 32.206ZM174.046 30.8971C174.426 30.1264 174.793 29.3924 175.16 28.6584H175.249C175.369 29.3924 175.496 30.1264 175.623 30.8971H174.046Z" fill="#0E307D"/>
<path d="M168.1 32.6705C167.882 32.7339 167.652 32.7486 167.428 32.7133C167.203 32.6781 166.989 32.594 166.803 32.4673C166.617 32.3406 166.463 32.1746 166.353 31.982C166.244 31.7894 166.181 31.5752 166.169 31.3555C166.02 30.4421 166.159 29.5066 166.568 28.6704C166.727 28.2841 167.003 27.9531 167.36 27.7207C167.717 27.4882 168.138 27.3652 168.569 27.3676H168.835C169.304 27.4043 169.772 27.4838 170.272 27.5511C170.45 27.0496 170.64 26.5297 170.83 26.0037C170.693 25.8045 170.503 25.645 170.28 25.5426C170.057 25.4402 169.809 25.3987 169.563 25.4226H164.649L164.599 25.6489C165.2 25.8007 165.79 25.9907 166.365 26.2177C165.823 26.5111 165.349 26.9087 164.972 27.386C164.029 28.6165 163.604 30.1462 163.782 31.6674C163.803 32.2208 163.996 32.7552 164.334 33.202C164.673 33.6489 165.142 33.9878 165.681 34.1752C166.322 34.4118 167.007 34.514 167.692 34.4749C168.376 34.4359 169.045 34.2566 169.652 33.9489C169.721 33.9122 169.816 33.8204 169.81 33.7593C169.753 33.27 169.677 32.7868 169.614 32.328C169.088 32.4504 168.613 32.5849 168.126 32.6705" fill="#0E307D"/>
<rect x="158.291" y="16.9619" width="41" height="26" stroke="#C4C4C4"/>
<path d="M209.455 33.9921C209.083 33.9921 208.765 33.8601 208.501 33.5961C208.237 33.3321 208.105 33.0021 208.105 32.6061C208.105 32.2221 208.237 31.9041 208.501 31.6521C208.765 31.3881 209.083 31.2561 209.455 31.2561C209.827 31.2561 210.145 31.3881 210.409 31.6521C210.673 31.9041 210.805 32.2221 210.805 32.6061C210.805 32.9901 210.673 33.3201 210.409 33.5961C210.145 33.8601 209.827 33.9921 209.455 33.9921ZM214.799 33.9921C214.427 33.9921 214.109 33.8601 213.845 33.5961C213.581 33.3321 213.449 33.0021 213.449 32.6061C213.449 32.2221 213.581 31.9041 213.845 31.6521C214.109 31.3881 214.427 31.2561 214.799 31.2561C215.171 31.2561 215.489 31.3881 215.753 31.6521C216.017 31.9041 216.149 32.2221 216.149 32.6061C216.149 32.9901 216.017 33.3201 215.753 33.5961C215.489 33.8601 215.171 33.9921 214.799 33.9921ZM220.143 33.9921C219.771 33.9921 219.453 33.8601 219.189 33.5961C218.925 33.3321 218.793 33.0021 218.793 32.6061C218.793 32.2221 218.925 31.9041 219.189 31.6521C219.453 31.3881 219.771 31.2561 220.143 31.2561C220.515 31.2561 220.833 31.3881 221.097 31.6521C221.361 31.9041 221.493 32.2221 221.493 32.6061C221.493 32.9901 221.361 33.3201 221.097 33.5961C220.833 33.8601 220.515 33.9921 220.143 33.9921ZM225.486 33.9921C225.114 33.9921 224.796 33.8601 224.532 33.5961C224.268 33.3321 224.136 33.0021 224.136 32.6061C224.136 32.2221 224.268 31.9041 224.532 31.6521C224.796 31.3881 225.114 31.2561 225.486 31.2561C225.858 31.2561 226.176 31.3881 226.44 31.6521C226.704 31.9041 226.836 32.2221 226.836 32.6061C226.836 32.9901 226.704 33.3201 226.44 33.5961C226.176 33.8601 225.858 33.9921 225.486 33.9921ZM243.693 24.9381V25.8561L238.419 37.5381H237.015L242.199 26.0901H235.719V28.4481H234.441V24.9381H243.693ZM250.027 30.3381C251.347 30.4101 252.349 30.7701 253.033 31.4181C253.729 32.0541 254.077 32.8881 254.077 33.9201C254.077 34.6401 253.903 35.2821 253.555 35.8461C253.207 36.3981 252.691 36.8361 252.007 37.1601C251.323 37.4841 250.489 37.6461 249.505 37.6461C248.593 37.6461 247.729 37.5021 246.913 37.2141C246.109 36.9141 245.461 36.5181 244.969 36.0261L245.599 35.0001C246.019 35.4321 246.577 35.7861 247.273 36.0621C247.969 36.3261 248.713 36.4581 249.505 36.4581C250.537 36.4581 251.335 36.2361 251.899 35.7921C252.463 35.3361 252.745 34.7121 252.745 33.9201C252.745 33.1401 252.463 32.5281 251.899 32.0841C251.335 31.6401 250.483 31.4181 249.343 31.4181H248.443V30.4641L251.935 26.0901H245.491V24.9381H253.591V25.8561L250.027 30.3381ZM267.113 34.2261H264.593V37.5381H263.297V34.2261H256.187V33.2901L262.865 24.9381H264.305L257.861 33.0741H263.333V30.1581H264.593V33.0741H267.113V34.2261ZM276.197 30.9321C276.989 31.1961 277.595 31.5921 278.015 32.1201C278.447 32.6481 278.663 33.2841 278.663 34.0281C278.663 34.7601 278.465 35.4021 278.069 35.9541C277.673 36.4941 277.103 36.9141 276.359 37.2141C275.627 37.5021 274.763 37.6461 273.767 37.6461C272.255 37.6461 271.067 37.3221 270.203 36.6741C269.339 36.0261 268.907 35.1441 268.907 34.0281C268.907 33.2721 269.111 32.6361 269.519 32.1201C269.939 31.5921 270.545 31.1961 271.337 30.9321C270.689 30.6801 270.197 30.3201 269.861 29.8521C269.525 29.3721 269.357 28.8081 269.357 28.1601C269.357 27.1401 269.753 26.3301 270.545 25.7301C271.349 25.1301 272.423 24.8301 273.767 24.8301C274.655 24.8301 275.429 24.9681 276.089 25.2441C276.761 25.5081 277.283 25.8921 277.655 26.3961C278.027 26.9001 278.213 27.4881 278.213 28.1601C278.213 28.8081 278.039 29.3721 277.691 29.8521C277.343 30.3201 276.845 30.6801 276.197 30.9321ZM270.653 28.1961C270.653 28.8921 270.929 29.4441 271.481 29.8521C272.033 30.2601 272.795 30.4641 273.767 30.4641C274.739 30.4641 275.501 30.2601 276.053 29.8521C276.617 29.4441 276.899 28.8981 276.899 28.2141C276.899 27.5061 276.611 26.9481 276.035 26.5401C275.471 26.1321 274.715 25.9281 273.767 25.9281C272.807 25.9281 272.045 26.1321 271.481 26.5401C270.929 26.9481 270.653 27.5001 270.653 28.1961ZM273.767 36.5481C274.883 36.5481 275.753 36.3201 276.377 35.8641C277.013 35.4081 277.331 34.7901 277.331 34.0101C277.331 33.2301 277.013 32.6181 276.377 32.1741C275.753 31.7181 274.883 31.4901 273.767 31.4901C272.663 31.4901 271.793 31.7181 271.157 32.1741C270.533 32.6181 270.221 33.2301 270.221 34.0101C270.221 34.8021 270.533 35.4261 271.157 35.8821C271.781 36.3261 272.651 36.5481 273.767 36.5481Z" fill="#5F6368"/>
</g>
<defs>
<filter id="filter0_d_1485_3061" x="0" y="0" width="353" height="60" filterUnits="userSpaceOnUse" color-interpolation-filters="sRGB">
<feFlood flood-opacity="0" result="BackgroundImageFix"/>
<feColorMatrix in="SourceAlpha" type="matrix" values="0 0 0 0 0 0 0 0 0 0 0 0 0 0 0 0 0 0 127 0" result="hardAlpha"/>
<feOffset/>
<feGaussianBlur stdDeviation="2.5"/>
<feColorMatrix type="matrix" values="0 0 0 0 0 0 0 0 0 0 0 0 0 0 0 0 0 0 0.2 0"/>
<feBlend mode="normal" in2="BackgroundImageFix" result="effect1_dropShadow_1485_3061"/>
<feBlend mode="normal" in="SourceGraphic" in2="effect1_dropShadow_1485_3061" result="shape"/>
</filter>
</defs>
</svg>
