<svg width="280" height="556" viewBox="0 0 280 556" fill="none" xmlns="http://www.w3.org/2000/svg">
<path d="M227.112 521.91C221.756 525.511 216.768 528.766 210.981 530.57C209.984 530.881 208.732 531.072 208.109 531.772C200.468 540.326 190.182 542.342 179.563 543.099C170.259 543.764 162.633 548.009 155.112 552.904C153.69 553.831 152.87 556.421 150.139 554.892C147.16 553.223 145.038 551.058 144.663 547.662C144.224 543.693 144.295 539.689 143.644 535.713C142.583 529.275 138.586 525.723 133.018 522.759C126.403 519.243 119.71 515.557 115.55 508.73C113.294 505.03 109.919 502.066 107.422 498.578C104.5 494.503 102.009 489.84 103.927 484.237C104.712 481.938 105.066 479.426 105.186 476.986C105.271 475.238 104.719 473.47 102.292 473.328C100.899 473.243 99.5404 472.748 98.1467 472.592C93.4561 472.083 90.1027 469.883 89.1193 465.086C88.4331 461.718 85.4971 459.992 83.9619 457.247C82.9572 455.45 82.653 454.035 83.5232 452.04C89.2537 438.902 88.7231 425.354 85.9711 411.658C84.5986 404.845 83.1058 398.095 79.7029 391.962C78.7478 390.235 79.9434 388.778 80.0425 387.2C80.5589 379.1 79.2147 371.226 77.0569 363.521C76.2009 360.465 77.2409 360.111 79.7312 359.595C85.9852 358.293 92.1615 358.951 98.2811 360.125C99.9649 360.451 102.957 358.619 103.283 362.198C103.46 364.151 105.879 365.042 105.405 367.271C105.136 368.53 106.113 369.471 106.792 370.412C107.938 372.011 109.084 373.27 108.08 375.711C107.124 378.039 111.249 382.078 114.659 382.071C116.612 382.071 117.064 382.885 117.538 384.286C118.465 387.045 118.402 389.896 117.935 392.669C117.164 397.282 116.612 401.93 114.645 406.309C113.18 409.578 117.319 414.325 120.892 413.837C123.446 413.483 125.993 413.051 128.554 412.74C130.521 412.5 137.114 417.098 137.362 419.39C137.942 424.739 142.081 427.555 145.059 431.212C145.717 432.026 146.517 432.726 147.217 433.504C151.313 438.046 153.039 438.393 157.659 435.86C158.791 435.238 160.05 433.469 161.197 434.417C162.824 435.754 164.741 437.268 164.826 439.751C164.925 442.574 164.812 445.404 164.967 448.22C165.066 449.974 163.828 450.788 162.803 451.616C157.334 456.016 155.176 461.534 156.626 468.468C156.909 469.826 156.994 471.34 156.711 472.684C154.928 481.061 160.701 485.921 166.057 489.784C170.889 493.265 177.193 492.713 182.739 489.395C184.939 488.079 187.097 486.706 189.545 485.751C193.252 484.308 193.648 481.62 190.875 478.705C189.821 477.601 188.661 476.597 187.536 475.557C185.088 473.314 183.652 470.71 183.85 467.215C184.062 463.423 183.673 459.808 180.68 456.801C178.579 454.686 180.921 452.458 182.017 451.262C186.008 446.904 186.085 442.412 183.956 437.311C182.124 432.931 183.751 428.198 182.93 423.692C182.782 422.871 183.22 422.68 183.892 422.659C184.126 422.652 184.366 422.701 184.6 422.673C190.458 422.1 190.804 422.072 191.314 427.675C192.028 435.507 195.806 442.086 199.145 448.842C200.221 451.029 200.164 452.875 199.23 454.842C198.141 457.141 198.289 459.377 199.259 461.605C203.673 471.694 205.272 482.865 211.109 492.387C212.156 494.099 211.179 494.948 210.139 495.96C206.737 499.257 206.729 499.285 210.359 502.299C211.547 503.282 212.545 504.315 213.167 505.808C214.865 509.876 217.264 513.435 221.077 515.904C223.369 517.404 224.112 520.41 227.112 521.91Z" fill="#EB4436"/>
<path d="M167.359 442.433C168.745 438.45 165.484 435.691 163.057 432.571C161.635 430.738 160.213 431.672 158.727 432.443C152.636 435.634 152.622 435.627 147.79 430.462C145.71 428.234 143.623 426.005 141.607 423.72C141.005 423.041 140.206 422.157 140.213 421.378C140.284 414.94 134.645 413.405 130.733 410.689C128.886 409.408 125.95 410.71 123.531 411.085C117.517 412.026 116.173 410.158 117.885 404.456C120.085 397.141 121.705 389.67 119.201 381.986C118.607 380.154 117.821 379.362 115.756 379.418C111.497 379.532 110.577 378.315 111.122 374.07C111.178 373.617 111.277 372.938 111.037 372.719C107.485 369.514 108.278 364.469 105.929 360.791C105.342 359.871 105.101 359.453 106.268 358.654C109.968 356.128 110.28 350.801 107.103 347.504C106.778 347.165 106.374 346.825 106.226 346.408C103.651 339.361 100.34 332.414 103.771 324.646C104.549 322.884 105.61 321.703 107.393 321.101C110.181 320.16 110.478 318.165 109.558 315.753C108.936 314.112 108.122 312.548 107.521 310.9C107.195 310.001 106.205 308.749 107.549 308.148C108.653 307.652 108.851 309.181 109.388 309.846C110.4 311.091 110.718 312.803 112.331 313.673C115.239 315.236 117.171 314.267 117.34 311.013C117.439 309.103 117.121 307.299 116.244 305.565C115.331 303.775 116.244 302.877 117.984 302.743C120.807 302.53 123.396 302.884 124.769 305.919C125.929 308.48 127.676 308.65 130.23 307.582C133.768 306.103 135.911 302.24 140.234 302.049C141.069 302.014 140.998 300.012 140.581 299.177C137.199 292.428 139.696 286.258 142.088 279.955C143.779 275.512 145.936 271.31 146.538 266.343C146.927 263.131 150.79 260.952 152.431 257.783C152.99 256.707 154.108 257.853 154.9 258.151C160.128 260.075 163.892 264.1 168.229 267.341C175.381 272.675 181.345 279.849 190.486 282.24C191.561 282.523 192.014 283.075 191.597 284.299C190.811 286.605 190.479 288.982 189.326 291.26C187.656 294.557 189.34 298.413 188.519 301.971C187.769 305.226 187.72 308.593 187.203 311.862C186.814 314.288 185.725 316.85 183.432 318.42C180.199 320.634 177.85 323.832 175.403 326.69C173.797 328.565 174.009 330.843 170.273 331.657C167.436 332.272 166.191 337.494 164.932 341.003C164.437 342.389 165.045 344.066 166.354 344.717C171.335 347.172 174.476 351.7 178.586 355.11C183.567 359.227 190.104 359.376 196.032 360.904C198.551 361.555 198.721 362.524 198.452 364.434C197.964 367.922 197.256 371.36 195.643 374.53C193.054 379.616 193.103 385.198 192.757 390.653C192.545 394.035 191.328 397.006 190.344 400.133C188.512 405.956 188.144 411.905 189.906 417.827C190.38 419.405 190.153 419.765 188.505 420.027C185.887 420.445 182.498 419.398 180.836 421.414C179.301 423.275 180.871 426.409 180.532 428.963C179.944 433.441 181.635 437.509 182.711 441.697C183.836 446.083 181.777 448.552 177.348 448.277C176.924 448.248 176.443 448.319 176.068 448.51C170.061 451.573 167.415 449.96 167.359 442.433Z" fill="#EB4436"/>
<path d="M61.6412 318.604C55.6418 315.788 52.8827 310.065 50.6966 304.596C46.5932 294.323 41.174 284.78 36.1156 275.031C34.6299 272.165 33.6041 269.194 32.8683 266.131C29.5149 252.229 25.1215 238.518 24.3079 224.121C23.9966 218.673 24.4635 213.29 26.6142 207.984C27.8735 204.885 26.6496 201.015 27.5552 197.577C28.1212 195.44 27.4349 192.165 29.9747 191.599C32.649 190.997 33.3847 194.273 34.6299 196.112C35.6699 197.654 36.349 199.437 37.1768 201.121C38.3158 203.456 39.6812 203.923 41.74 201.984C46.6923 197.329 51.7436 192.773 57.0568 187.898C57.6935 189.957 58.408 191.655 58.7405 193.424C59.5612 197.824 61.5634 201.574 64.5206 204.885C66.4732 207.078 66.7562 210 67.7254 212.603C68.2985 214.153 69.105 215.03 70.6827 215.101C74.0856 215.256 77.4885 215.454 80.8915 215.44C84.4006 215.426 85.3486 214.202 84.6694 210.785C83.3464 204.107 82.0517 197.414 80.5236 190.778C80.0991 188.924 80.467 188.33 82.2003 188.648C86.4805 189.441 90.5414 189.483 94.6943 192.49C99.406 195.9 104.288 199.041 108.561 203.067C109.473 203.923 110.768 205.989 112.232 203.916C113.534 202.076 116.01 200.194 113.817 197.463C112.6 195.949 111.143 194.627 109.905 192.971C114.73 194.754 118.734 192.32 122.859 190.834C125.95 189.717 128.801 189.766 131.476 191.846C133.259 193.233 133.294 194.697 131.129 195.384C129.36 195.942 128.045 196.947 126.651 198.008C125.865 198.61 125.073 199.565 123.842 198.893C121.019 197.35 119.81 199.091 118.812 201.333C117.425 204.432 116.032 207.531 114.574 210.594C114.136 211.507 113.69 212.151 114.977 212.823C121.182 216.049 122.364 221.822 122.208 228.005C122.137 230.743 123.22 231.825 125.639 232.292C127.599 232.674 129.516 233.254 131.462 233.679C133.733 234.181 135.558 234.669 137.39 231.903C138.841 229.71 142.364 230.594 144.458 231.776C149.771 234.776 154.78 238.299 159.93 241.588C160.907 242.211 160.914 242.671 160.397 243.782C159.166 246.449 156.768 248.048 155.084 250.262C151.957 254.38 148.887 258.532 145.908 262.749C144.705 264.454 143.722 264.765 141.706 263.711C136.739 261.115 131.391 260.91 125.774 261.094C117.822 261.355 109.65 263.23 101.889 259.396C99.8305 258.377 97.4251 258.066 95.1187 257.57C91.5531 256.806 88.9072 257.117 87.6903 261.101C87.1597 262.827 85.8862 263.626 83.9195 263.534C82.2003 263.449 81.4787 264.468 81.7192 266.3C82.0093 268.508 81.8536 270.779 82.2215 272.972C82.6177 275.328 81.7051 276.304 79.4907 276.297C78.196 276.297 77.1419 276.531 75.9109 277.224C71.8641 279.523 65.1502 276.248 64.2518 271.585C63.2401 266.357 60.7851 261.299 62.2425 255.731C62.5397 254.592 62.0798 253.722 60.6861 253.481C55.0334 252.498 49.5434 250.63 43.6855 250.75C40.9901 250.807 40.2189 251.719 40.5514 254.365C41.3367 260.556 43.5582 265.671 49.1048 269.222C52.1398 271.168 54.6584 273.927 57.3256 276.41C58.6627 277.655 60.1343 278.936 59.5188 281.15C59.4339 281.462 59.4268 281.992 59.6178 282.162C63.9122 285.982 63.0207 291.67 64.6692 296.425C66.1831 300.797 68.8928 304.2 71.5599 307.758C72.1259 308.515 74.2059 309.131 72.7343 310.411C71.284 311.678 69.4658 310.624 68.9706 309.209C67.9235 306.216 65.4544 304.285 63.99 301.632C63.3674 300.507 62.3699 299.587 61.7827 298.455C58.7122 292.534 54.0076 291.126 47.7393 293.496C50.2226 299.523 54.4816 304.568 58.2453 309.909C60.1201 312.569 61.5846 315.272 61.5775 318.597L61.6412 318.604ZM88.5746 222.395C85.6033 222.975 86.2117 225.614 85.5254 227.375C84.8675 229.073 85.9853 229.781 87.5205 229.689C89.1689 229.59 89.7349 230.623 90.3009 231.832C90.789 232.887 91.1286 234.181 91.9493 234.875C93.7604 236.403 95.5008 239.339 98.359 237.245C102.328 234.33 102.073 230.729 98.3095 227.63C95.3664 225.203 91.9139 223.909 88.5746 222.395ZM111.093 211.351C111.136 209.13 107.79 205.974 105.271 205.96C102.922 205.946 102.958 208.047 102.675 209.455C102.328 211.16 105.653 214.705 107.316 214.429C108.992 214.153 111.299 214.153 111.093 211.351Z" fill="#EB4436"/>
<path d="M81.5702 458.202C84.6406 461.541 86.6428 465.44 88.4963 469.515C90.3711 473.639 94.5098 475.146 98.6203 475.295C102.25 475.429 103.183 476.787 102.533 479.936C102.129 481.881 101.344 483.77 101.139 485.73C100.573 491.1 102.051 496.215 105.553 500.077C109.82 504.796 113.421 509.989 117.701 514.934C113.774 516.76 110.053 518.62 106.466 520.771C102.037 523.431 96.795 523.127 91.9205 524.195C85.6452 525.575 79.8439 527.662 75.5567 532.968C72.7409 536.449 68.199 536.286 64.2088 536.951C61.0889 537.474 57.884 537.531 54.7145 537.722C52.4931 537.856 50.5758 538.479 49.2741 540.425C47.8591 542.533 46.0268 542.42 44.0529 541.323C43.6426 541.097 43.2464 540.842 42.8502 540.587C36.0019 536.045 32.9103 539.484 30.4553 544.945C29.5922 546.87 28.7786 548.843 27.6962 550.647C25.977 553.506 23.5787 553.534 21.5553 550.916C20.5932 549.671 20.1545 548.242 19.723 546.763C18.1453 541.358 15.7187 540 10.257 541.832C8.03554 542.575 6.47203 542.158 5.51694 540.241C1.98665 533.194 0.486812 525.66 0.472663 517.8C0.465588 509.94 6.19611 507.131 12.1247 504.563C20.7771 500.813 29.8257 497.799 38.0111 493.222C43.4091 490.208 48.6091 486.551 53.8302 483.084C58.0892 480.254 62.0015 476.908 66.3454 474.269C71.9556 470.866 77.2758 467.428 79.7095 460.912C80.0916 459.886 80.9901 459.03 81.5702 458.202Z" fill="#EB4436"/>
<path d="M114.341 312.046C112.494 311.239 111.851 309.499 111.327 307.956C110.57 305.714 109.084 304.985 107.047 305.36C104.606 305.806 104.295 307.836 104.762 309.746C105.314 312.003 106.24 314.182 107.16 316.326C107.662 317.507 107.733 318.321 106.396 318.851C100.743 321.066 100.474 326.372 99.8731 331.112C99.4132 334.748 100.015 338.378 102.158 341.858C103.785 344.497 103.849 347.858 106.523 350.348C108.589 352.272 105.887 356.34 102.965 356.92C98.7341 357.762 94.7156 357.373 90.5415 356.475C86.4806 355.598 82.3844 356.765 78.373 357.578C76.3497 357.989 75.5361 357.536 75.0338 355.47C72.8123 346.372 70.4281 337.316 66.9898 328.565C66.0489 326.181 65.4192 323.62 65.0655 321.08C63.8345 312.279 58.1535 305.855 53.4983 298.872C53.0455 298.193 52.6281 297.5 52.1966 296.814C51.8923 296.326 51.4466 295.887 51.7013 295.102C54.4322 294.302 56.4697 295.024 58.1039 297.571C61.3654 302.664 66.155 306.803 67.669 312.972C68.0156 314.394 68.9353 314.479 70.0531 314.274C70.5059 314.189 70.9375 313.991 71.3761 313.828C77.5453 311.515 77.7575 311.119 73.4136 306.216C69.1476 301.412 66.5865 296.007 65.5678 289.661C65.1645 287.157 65.4121 284.115 62.7237 282.36C62.5186 282.226 62.3559 281.603 62.4761 281.469C65.0867 278.398 61.9597 277.408 60.4103 276.014C55.9815 272.038 51.574 268.02 46.9117 264.327C43.7635 261.829 44.3719 258.221 43.4451 255.08C43.1692 254.146 44.1597 253.523 45.2704 253.453C49.8195 253.163 54.0855 254.592 58.4365 255.526C59.5755 255.773 59.4977 256.509 59.4411 257.372C59.0803 262.763 61.2451 267.751 61.9455 272.965C62.2497 275.236 63.8628 276.191 65.3485 277.556C71.4186 283.131 77.4745 279.587 83.58 277.875C84.8039 277.528 84.8747 276.651 84.8888 275.696C84.9171 274.054 84.8676 272.406 84.8959 270.765C84.9384 268.628 84.2875 266.35 87.6338 265.664C89.3388 265.31 89.452 262.841 90.3788 261.383C90.8457 260.655 90.9165 259.332 92.2607 259.884C94.9349 260.966 98.0266 260.223 100.524 261.468C107.634 265.02 115.048 264.178 122.555 263.796C128.816 263.485 135.218 262.742 141.189 265.954C143.517 267.206 144.118 268.494 143.121 270.92C141.296 275.37 139.916 280.011 137.893 284.355C136.032 288.352 135.77 292.201 137.312 296.226C138.218 298.575 138.367 300.323 135.268 301.136C133.103 301.702 132.049 304.122 129.877 304.985C128.405 305.572 127.443 306.039 126.524 304.214C124.557 300.287 120.949 299.919 117.157 300.351C113.966 300.712 112.784 302.707 113.74 305.848C114.836 309.414 114.836 309.414 114.341 312.046Z" fill="#EB4436"/>
<path d="M109.213 115.362C108.746 116.168 108.378 117.06 107.791 117.767C105.774 120.179 104.932 122.351 107.953 124.785C110.04 126.462 107.437 126.936 106.729 127.29C102.605 129.341 101.14 132.886 100.171 137.102C99.5414 139.826 100.334 141.672 102.117 143.37C109.106 150.049 117.03 155.56 124.685 161.418C126.128 162.522 127.232 162.09 128.335 160.88C129.743 159.324 130.67 157.187 133.592 157.782C134.781 158.022 135.078 156.253 135.269 155.065C135.587 153.126 136.592 152.136 138.693 151.761C142.237 151.124 145.633 149.985 149.369 150.19C151.47 150.304 152.665 150.877 153.451 152.674C153.734 153.317 154.13 153.919 154.349 154.577C155.135 156.904 156.627 159.324 156.415 161.574C156.167 164.22 152.602 163.314 150.84 164.672C150.104 165.238 149.199 165.585 148.364 166.01C146.369 167.014 146.227 168.288 147.749 169.872C150.203 172.433 152.637 175.001 156.429 175.518C158.488 175.801 160.094 177.039 161.749 178.157C164.926 180.315 168.209 181.765 172.234 180.817C174.257 180.343 181.375 185.606 181.537 187.531C181.58 188.005 181.092 188.55 180.787 189.031C178.524 192.603 176.161 196.12 174.024 199.763C173.012 201.489 172.001 201.447 170.699 200.386C167.961 198.143 165.103 197.089 161.679 198.956C159.889 199.933 159.485 198.327 159.019 197.181C157.618 193.742 157.547 190.056 157.271 186.441C156.995 182.812 154.781 180.166 153.203 177.188C153.005 176.813 152.474 176.374 152.099 176.381C145.272 176.466 142.011 170.424 136.917 167.559C134.123 165.988 131.406 166.752 129.828 169.731C128.93 171.429 130.691 175.065 132.764 176.091C133.585 176.494 135.163 176.02 135.078 177.64C134.993 179.253 133.493 178.744 132.602 178.985C129.814 179.734 127.472 181.248 125.145 182.861C123.447 184.036 121.933 185.394 119.414 184.835C117.469 184.404 117.136 186.371 116.832 187.913C116.627 188.967 117.136 190.219 115.537 190.849C113.422 191.684 111.639 190.545 109.701 190.339C107.684 190.134 106.142 189.667 105.93 187.184C105.788 185.599 104.289 185.026 102.951 184.503C94.4759 181.171 86.0287 177.775 77.5107 174.542C75.1477 173.643 73.6904 172.405 72.8909 169.851C70.4997 162.239 67.79 154.732 65.2219 147.177C64.7833 145.882 64.2032 144.587 64.5286 142.833C66.1133 143.547 67.6202 143.278 69.113 143.399C70.6199 143.519 71.2567 142.493 72.332 141.602C76.3575 138.291 74.886 134.159 74.8506 130.226C74.8223 127.056 75.0699 124.537 79.1308 123.901C81.4301 123.54 83.0644 121.34 84.3307 119.38C85.8872 116.975 87.9176 116.402 90.6343 115.765C94.8791 114.767 98.5155 112.928 101.643 117.916C102.541 119.345 104.706 118.142 105.689 116.578C106.39 115.468 106.963 114.293 108.604 114.64C108.795 114.873 109 115.121 109.213 115.362Z" fill="#EB4436"/>
<path d="M148.229 147.049C144.755 147.891 140.192 148.98 135.65 150.112C135.219 150.218 134.54 150.565 134.511 150.855C134.108 154.93 129.729 155.213 127.91 157.887C126.736 159.614 125.647 159.175 124.274 158.135C117.914 153.303 111.384 148.69 105.54 143.207C101.246 139.175 101.727 133.31 106.778 130.055C107.174 129.801 107.599 129.596 108.002 129.348C112.374 126.624 112.367 126.624 109.205 122.655C108.915 122.294 108.483 121.934 108.42 121.523C108.052 119.224 113.598 113.911 115.834 114.597C117.73 115.177 118.6 114.654 119.902 113.168C122.994 109.645 126.651 106.659 131.236 105.174C132.481 104.77 133.217 103.957 133.775 102.924C136.527 97.8442 141.416 95.7288 146.524 94.2856C147.911 93.8894 149.75 91.4274 151.038 93.6064C151.943 95.1345 149.411 96.0613 148.654 97.4409C146.39 101.558 143.984 105.612 141.459 109.574C140.489 111.095 140.687 112.015 141.904 113.189C145.873 117.01 149.616 120.971 154.985 123.066C161.912 125.775 168.045 130.07 173.691 134.781C177.9 138.29 180.327 143.526 183.398 148.096C186.737 153.062 189.751 158.248 192.92 163.328C193.62 164.446 194.045 165.535 193.72 166.957C192.227 173.53 189.015 179.133 184.551 184.12C183.454 185.344 182.711 185.217 181.763 184.127C180.292 182.437 178.65 180.923 176.783 179.663C175.283 178.652 173.578 177.76 171.859 178.312C168.675 179.331 166.036 178.241 163.588 176.579C161.133 174.902 158.707 173.324 155.686 172.9C155.233 172.836 154.809 172.567 154.384 172.369C152.538 171.485 150.217 170.162 150.153 168.485C150.09 166.893 152.87 166.476 154.554 165.804C155.099 165.585 155.636 165.33 156.202 165.21C159.089 164.566 159.973 163.158 158.834 160.187C157.49 156.692 156.627 153.006 154.519 149.829C152.828 147.275 152.148 146.914 148.229 147.049Z" fill="#EB4436"/>
<path d="M260.433 320.415C258.77 332.555 265.385 341.738 271.717 350.829C275.891 356.821 276.266 356.574 272.276 362.481C268.986 367.348 265.597 372.145 262.406 377.076C261.451 378.555 260.843 378.534 259.47 377.663C254.808 374.699 249.842 372.315 244.486 370.879C242.696 370.398 242.06 369.308 241.89 367.617C241.154 360.252 239.286 353.185 236.251 346.414C235.473 344.674 235.353 342.707 235.657 340.854C236.407 336.241 234.199 332.923 231.164 329.944C228.901 327.73 226.615 325.516 224.196 323.478C219.916 319.87 216.336 315.201 209.664 315.554C207.436 315.675 205.2 313.701 203.191 312.229C199.866 309.796 196.371 307.73 192.006 308.013C190.265 308.126 189.65 307.411 190.181 305.657C191.256 302.084 191.553 298.427 190.994 294.719C190.98 294.606 190.966 294.465 191.015 294.373C193.605 289.385 192.961 283.018 197.722 278.936C199.767 277.188 201.337 275.236 201.691 272.208C202.101 268.741 204.401 268.21 206.877 270.538C207.981 271.571 209.155 272.547 210.4 273.389C217.192 277.995 220.368 285.091 223.234 292.3C224.415 295.271 226.566 296.877 228.95 298.646C237.595 305.077 247.627 307.673 257.971 309.385C260.277 309.767 261.211 310.574 260.857 313.015C260.51 315.462 260.56 317.953 260.433 320.415Z" fill="#EB4436"/>
<path d="M195.416 387.562C194.85 382.333 197.616 377.268 199.271 371.934C200.205 368.927 200.913 365.885 200.892 362.666C200.877 360.239 200.043 359.51 197.595 358.796C191.121 356.893 183.502 357.452 178.649 351.799C175.755 348.424 172.614 345.665 168.779 343.564C167.4 342.814 167.11 341.583 167.711 340.253C168.581 338.343 169.565 336.482 170.576 334.636C171.029 333.808 171.454 333.143 172.755 333.879C174.97 335.131 176.569 333.284 176.59 331.714C176.646 327.122 180.191 324.936 182.766 322.375C185.921 319.234 188.822 316.156 189.82 311.742C190.195 310.086 191.22 310.214 192.423 310.235C195.904 310.291 198.677 312.096 201.422 313.907C205.377 316.517 209.346 318.795 214.376 318.725C217.376 318.682 218.918 322.319 217.234 324.752C216.364 326.004 215.444 327.228 214.645 328.523C211.758 333.228 207.506 335.4 202.059 335.626C197.786 335.81 197.092 337.126 199.703 340.536C201.373 342.715 201.825 345.481 203.679 347.519C207.945 352.216 213.598 350.999 218.791 350.738C221.613 350.596 223.7 350.334 225.342 353.108C227.174 356.213 230.895 356.079 233.541 355.895C237.984 355.591 237.949 358.449 238.706 361.074C238.826 361.498 238.572 362.022 238.642 362.475C239.449 367.533 239.201 372.853 246.516 374.098C250.478 374.778 254.362 377.091 257.963 379.362C259.64 380.416 259.937 381.477 258.925 383.097C257.751 384.993 256.633 386.925 255.515 388.856C254.546 390.54 253.393 391.92 255.452 394.014C256.647 395.231 255.232 396.928 253.428 397.233C252.678 397.36 251.787 397.056 251.03 396.752C244.493 394.162 237.765 392.967 230.719 393.561C228.632 393.738 226.537 393.462 224.429 393.044C222.293 392.627 219.852 392.266 218.062 394.092C213.739 398.499 208.985 398.534 203.856 395.761C203.042 395.323 202.207 395.004 201.217 394.933C195.373 394.53 195.133 394.212 195.416 387.562Z" fill="#EB4436"/>
<path d="M143.318 66.5457C142.158 70.1043 139.802 72.7219 137.121 75.3042C130.272 81.9049 122.646 87.3029 114.375 91.9723C111.85 93.3943 109.954 95.6016 106.628 94.7738C105.412 94.4696 104.57 95.4601 103.905 96.5921C102.921 98.2758 102.115 100.037 100.601 101.459C99.4052 102.584 98.2945 103.568 96.7734 102.959C95.4292 102.422 94.7642 100.964 94.8279 99.521C94.9835 96.1959 93.9081 93.7975 90.4769 92.8566C89.4369 92.5736 89.2035 91.8732 89.062 90.7837C88.7082 88.1378 86.5646 86.5601 84.6756 85.0744C83.0202 83.7727 81.6335 85.5484 80.3105 86.3691C79.1291 87.0978 78.1174 88.0953 77.0279 88.9726C75.6766 90.0692 74.5942 89.1494 73.5896 88.3995C72.019 87.2393 73.8159 86.7016 74.1626 85.9163C77.1764 79.2378 81.7255 73.387 84.3007 66.4254C88.4748 55.1554 93.0521 44.041 97.4455 32.8488C100.686 24.5997 102.2 16.1171 100.261 7.33031C99.5255 3.99104 101.952 2.42045 103.487 0.382935C104.28 -0.671198 104.803 0.729596 105.284 1.25313C112.324 8.9575 119.172 16.8034 125.589 25.0666C129.268 29.7996 134.545 33.2875 139.059 37.3766C143.346 41.2607 143.339 41.296 139.519 45.4489C133.385 52.1204 126.36 57.8367 119.611 63.8502C118.74 64.6285 117.969 65.5199 117.177 66.383C114.651 69.1209 114.835 71.1443 117.821 73.2525C118.288 73.5851 118.854 73.7902 119.292 74.151C127.181 80.5537 125.03 80.5254 134.404 73.7124C137.418 71.5263 139.646 68.3498 142.787 66.2415C142.943 66.4042 143.113 66.5033 143.318 66.5457Z" fill="#EB4436"/>
<path d="M214.043 399.673C214.736 399.34 215.38 399.227 215.72 398.845C219.292 394.763 223.778 395.484 228.567 395.668C236.661 395.987 244.606 396.454 252.197 399.56C254.206 400.38 256.081 400.373 256.994 397.77C257.461 396.44 258.182 396.44 259.321 397.416C267.139 404.158 272.346 412.584 276.47 421.986C280.128 430.32 280.397 438.18 276.902 446.621C274.829 451.629 274.433 457.254 273.853 462.68C273.655 464.548 273.067 465.057 271.306 465.015C268.129 464.937 264.946 465.199 261.776 465.086C256.583 464.895 251.879 466.274 247.535 469.047C247.139 469.295 246.7 469.486 246.275 469.677C243.927 470.738 241.542 472.677 239.222 472.613C236.42 472.535 237.029 468.595 235.352 466.84C234.545 465.991 233.796 465.086 233.01 464.215C229.466 460.296 227.633 456.179 229.749 450.681C231.369 446.465 230.852 441.64 232.657 437.36C233.336 435.747 233.817 434.049 234.425 432.4C235.069 430.66 235.458 428.863 233.873 427.512C231.687 425.651 231.065 423.175 230.93 420.578C230.746 417.126 229.629 414.374 226.99 411.947C223.573 408.799 221.521 404.3 217.375 401.795C216.293 401.137 215.246 400.437 214.043 399.673Z" fill="#EB4436"/>
<path d="M140.709 228.84C138.197 228.239 136.216 228.967 134.278 230.693C131.915 232.802 129.517 230.326 127.111 230.198C125.067 230.085 124.303 228.882 124.359 226.696C124.522 220.845 123.404 215.433 117.9 212.016C117.023 211.471 117.037 210.891 117.525 209.986C118.409 208.337 119.032 206.547 119.86 204.871C120.843 202.89 121.006 199.742 124.798 201.609C125.449 201.935 127.132 200.704 128.038 199.862C129.771 198.249 131.809 197.662 134.044 197.287C138.403 196.558 140.9 197.768 142.994 201.836C143.418 202.663 143.602 203.633 144.975 203.18C147.246 202.437 149.623 202.479 151.915 202.946C154.2 203.413 154.094 201.439 154.597 200.414C155.566 198.44 156.309 197.251 157.617 200.053C158.622 202.204 160.249 202.274 161.975 201.362C165.739 199.374 168.392 201.609 171.215 203.491C172.121 204.092 171.93 204.906 171.937 205.67C172.043 215.108 173.479 224.397 175.587 233.552C177.37 241.313 179.443 248.982 186.673 254.012C191.293 257.231 195.375 261.2 199.846 264.645C201.651 266.039 202.74 267.135 200.575 268.975C199.684 269.732 199.387 270.701 199.351 271.791C199.224 275.88 195.503 277.556 193.253 279.997C192.213 281.122 188.958 279.382 186.886 278.335C180.179 274.953 175.057 269.477 169.39 264.758C165.386 261.426 161.353 258.257 156.535 256.254C154.71 255.497 154.547 254.769 155.757 253.219C158.261 250.015 161.537 247.446 163.298 243.626C163.935 242.246 164.211 241.511 162.662 240.534C157.002 236.976 151.151 233.7 145.824 229.618C144.282 228.437 142.393 229.179 140.709 228.84ZM127.253 220.046C126.8 222.451 127.953 223.852 130.076 224.623C130.592 224.814 131.116 224.786 131.533 225.366C132.75 227.043 138.36 227.623 139.945 226.35C140.893 225.585 141.155 224.446 140.751 223.498C139.98 221.694 138.933 219.848 136.804 219.438C135.077 219.105 133.514 218.978 132.212 217.428C131.292 216.339 129.524 216.678 128.208 217.06C126.673 217.499 127.408 219.006 127.253 220.046Z" fill="#EB4436"/>
<path d="M103.799 189.243C92.2109 187.099 80.58 186.024 68.8714 185.762C66.8692 185.719 65.5604 185.394 65.6948 182.84C65.801 180.887 65.2633 178.892 64.9803 176.926C64.7893 175.61 64.3011 174.549 63.0135 173.806C60.3605 172.292 57.8277 170.573 55.2172 168.988C52.9603 167.622 51.8213 168.118 51.6303 170.94C51.411 174.089 50.8379 177.216 50.3993 180.343C50.279 181.17 50.7106 182.508 49.1471 182.295C46.77 181.97 43.9684 184.962 42.0299 181.538C41.2446 180.145 40.7281 178.715 42.0228 177.003C46.8973 170.558 50.5974 163.236 56.4694 157.541C58.1956 155.864 56.8231 154.76 55.9954 153.636C54.9696 152.249 53.6324 152.15 52.4439 153.537C50.1375 156.232 48.8499 153.268 47.1378 152.631C45.1923 151.909 45.921 150.777 46.3242 149.327C47.6189 144.594 48.8358 139.819 49.706 134.994C52.0194 122.097 56.618 110.296 65.2208 100.186C66.9258 98.1769 67.9163 95.5663 69.2463 93.2317C70.1165 91.7035 71.4961 90.4372 73.1516 91.2578C76.4626 92.8992 78.493 90.8121 80.6932 89.1637C83.6009 86.9918 86.1408 87.7629 86.5723 91.3781C86.8129 93.3873 87.7114 94.5759 89.3456 94.9508C92.2109 95.6158 92.7415 97.6675 92.6637 99.9739C92.5717 102.775 93.9371 104.275 96.3213 105.315C97.5382 105.846 98.564 106.398 99.2927 107.94C100.319 110.126 102.667 110.154 105.044 109.666C106.474 109.376 108.653 107.721 109.395 109.716C109.855 110.947 106.962 111.619 106.176 112.609C103.12 116.458 101.606 115.807 99.4554 111.782C98.564 110.112 95.8685 110.6 94.0574 111.987C93.0528 112.751 92.1755 113.918 90.6969 113.671C86.7846 113.02 84.3296 114.831 82.3699 118.05C81.2875 119.833 79.5825 121.141 77.4955 121.92C72.437 123.794 71.7791 124.997 72.3663 130.6C72.5007 131.881 72.7342 133.154 72.8049 134.442C72.8827 135.8 71.5032 136.939 71.3263 137.597C69.9467 142.748 66.466 140.604 63.438 140.484C61.259 140.399 61.3934 142.125 61.7613 143.512C62.6032 146.681 63.5512 149.836 64.5983 152.949C66.848 159.614 69.2534 166.229 71.4395 172.914C72.0479 174.775 73.3568 175.376 74.9344 175.999C83.5727 179.373 92.1897 182.791 100.8 186.243C102.094 186.759 103.934 186.866 103.799 189.243Z" fill="#EB4436"/>
<path d="M193.314 423.862C194.793 420.091 191.694 416.95 191.305 413.242C190.732 407.788 191.928 402.8 193.682 397.805C193.958 397.027 194.269 396.235 195.401 396.489C205.299 398.746 215.402 400.572 221.755 409.861C222.54 411.007 223.651 411.948 224.698 412.889C227.273 415.195 228.709 417.905 228.631 421.492C228.596 422.942 228.943 424.795 229.855 425.8C232.834 429.076 231.871 432.479 230.598 435.86C229.049 439.978 228.398 444.258 227.895 448.567C227.563 451.418 225.865 452.168 223.502 451.679C217.764 450.491 211.977 449.394 206.983 446.013C206.303 445.553 205.575 444.782 204.874 444.796C197.319 444.895 196.958 438.549 195.026 433.759C193.788 430.703 193.661 427.349 193.314 423.862Z" fill="#EB4436"/>
<path d="M229.292 521.471C224.969 515.302 218.51 512.5 215.913 506.084C215.029 503.89 213.989 501.733 211.845 500.502C209.914 499.391 210.515 498.301 211.838 497.452C214.873 495.514 214.477 493.377 212.864 490.647C207.19 481.046 205.549 469.882 201.141 459.772C200.873 459.157 200.667 458.308 200.873 457.714C202.104 454.134 203.441 450.604 201.665 446.606C207.615 450.384 214.35 451.233 220.271 454.106C220.696 454.311 221.368 453.95 221.927 453.957C224.962 454.021 227.367 454.615 227.049 458.612C226.907 460.353 227.99 461.959 229.214 463.296C231.761 466.069 233.685 469.217 235.624 472.457C237.937 476.32 238.064 479.95 237.357 484.088C235.263 496.257 231.867 508.121 229.292 521.471Z" fill="#EB4436"/>
<path d="M147.797 60.1005C143.51 61.3952 141.02 64.4869 138.197 67.0833C135.346 69.708 132.48 72.2832 129.389 74.6462C126.955 76.4997 125.038 76.3512 123.029 74.3349C122.045 73.3515 121.069 72.3893 120.206 71.2503C118.685 69.2552 119.208 68.477 120.885 66.6446C127.868 59.004 136.598 53.1602 142.986 44.9606C144.26 43.3264 144.769 43.9702 145.774 45.187C152.834 53.7262 158.664 63.1356 164.953 72.2125C165.597 73.1463 166.064 73.9458 165.307 75.0636C161.954 80.0159 159.449 85.5271 155.176 89.871C153.761 91.3142 152.558 91.7811 150.981 90.4086C150.04 89.588 148.908 89.4889 148.038 90.0903C142.845 93.6842 136.202 95.0001 132.112 100.356C131.15 101.622 129.82 101.848 128.993 99.9029C127.762 97.0164 125.993 97.2853 123.736 98.8771C121.43 100.504 119.59 102.577 117.822 104.678C115.635 107.268 113.06 107.897 110.032 106.879C108.065 106.221 106.339 107.02 104.521 107.338C103.594 107.501 102.547 107.735 101.868 106.907C101.118 105.994 101.868 105.138 102.3 104.339C103.078 102.888 103.948 101.488 104.677 100.016C105.674 97.9927 106.721 96.3514 109.488 97.3277C110.386 97.6461 111.546 97.5046 112.452 96.6768C117.1 92.4462 123.212 90.3025 127.974 86.4609C135.728 80.1998 144.055 74.1155 147.486 63.9775C147.634 63.5388 147.755 63.0719 147.79 62.6121C147.832 61.9117 147.797 61.2113 147.797 60.1005Z" fill="#EB4436"/>
<path d="M174.447 489.621C167.981 489.536 159.109 482.978 158.847 476.887C158.628 471.807 158.352 466.579 158.777 461.52C159.152 457.021 163.319 454.318 166.481 451.354C167.394 450.491 168.321 451.375 169.085 451.679C171.815 452.769 174.426 453.37 177.015 451.375C177.447 451.043 178.027 450.653 178.586 451.198C179.159 451.757 178.713 452.295 178.409 452.755C176.959 454.969 177.567 456.752 179.145 458.719C181.267 461.372 181.72 464.782 181.635 468.001C181.522 472.38 183.644 475.316 186.651 477.962C187.267 478.507 187.889 479.044 188.455 479.639C190.967 482.256 190.861 482.667 187.352 484.06C183.765 485.482 180.956 488.489 176.994 489.154C176.067 489.317 175.211 489.84 174.447 489.621Z" fill="#EB4436"/>
<path d="M53.9145 171.011C56.5604 172.617 58.6758 173.877 60.7557 175.178C62.0858 176.013 64.2436 184.149 63.3875 185.224C62.7932 185.974 61.8311 185.741 61.0812 185.507C58.1098 184.574 55.9237 185.203 53.6668 187.644C49.9243 191.684 45.5875 195.164 41.6327 199.02C40.0197 200.598 39.3618 200.456 38.5552 198.362C36.9847 194.287 34.8905 190.693 30.766 188.387C28.7002 187.234 29.4925 184.694 30.5042 182.784C34.7278 174.803 39.5599 167.12 41.8521 158.227C42.7859 154.612 44.0311 154.287 47.2784 156.282C47.9646 156.706 48.7075 157.301 49.4432 157.329C52.9382 157.463 52.2378 159.048 50.5823 160.682C47.8514 163.371 45.7432 166.413 44.0452 169.858C42.9699 172.044 41.3568 173.976 39.9207 175.978C38.2652 178.284 38.3642 180.951 39.9419 182.798C41.4983 184.616 43.4792 187.347 46.7548 185.168C47.0449 184.977 47.4199 184.715 47.717 184.758C52.9452 185.515 52.8391 181.857 53.0938 178.397C53.2636 176.077 53.6032 173.763 53.9145 171.011Z" fill="#EB4436"/>
<path d="M200.863 337.684C211.879 338.859 215.94 330.688 220.885 323.698C224.394 327.009 227.776 330.086 231.002 333.312C231.964 334.274 233.096 335.654 233.117 336.864C233.209 342.17 233.506 347.349 236.018 352.209C236.753 353.631 235.6 353.999 234.355 353.9C231.228 353.659 228.25 352.69 226.375 350.2C224.832 348.148 222.738 347.653 220.899 348.063C217.468 348.827 214.107 348.141 210.74 348.41C207.782 348.643 205.773 346.988 204.733 344.908C203.658 342.715 202.243 340.705 200.863 337.684Z" fill="#EB4436"/>
<path d="M76.0659 212.568C70.8094 212.717 70.1868 212.328 68.1988 206.696C67.7602 205.451 67.3003 204.241 66.3453 203.35C62.6947 199.954 61.7821 195.292 60.4096 190.828C59.9992 189.49 59.9851 188.606 61.8387 188.613C66.2674 188.62 70.6962 188.557 75.1179 188.38C77.2191 188.295 77.8629 189.243 78.2237 191.174C79.3061 197.053 80.4593 202.925 81.8743 208.727C82.5959 211.67 82.0299 212.957 78.8604 212.582C78.1671 212.49 77.4526 212.568 76.0659 212.568Z" fill="#EB4436"/>
<path d="M135.7 191.556C131.094 188.301 126.277 186.349 120.695 189.122C120.065 189.44 119.534 189.419 119.4 188.627C119.28 187.919 119.23 187.113 120.362 187.297C123.022 187.742 124.791 186.023 126.666 184.665C129.078 182.917 131.611 181.616 134.582 181.085C135.912 180.844 138.028 180.993 137.681 178.63C137.412 176.819 137.957 174.378 134.886 174.23C133.387 174.159 132.509 173.048 132.368 171.718C132.184 169.978 133.273 168.393 134.929 169.291C137.49 170.685 140.659 171.761 141.501 175.149C141.954 176.968 143.525 176.515 144.635 176.819C153.302 179.189 155.304 181.955 154.83 191.35C149.574 189.992 144.367 188.881 141.395 183.455C140.016 180.944 137.624 181.573 136.393 184.622C135.537 186.745 135.813 188.995 136.018 191.216C135.912 191.336 135.806 191.442 135.7 191.556Z" fill="#EB4436"/>
<path d="M152.989 195.482C152.925 196.352 152.904 197.407 152.755 198.447C152.571 199.762 152.104 200.385 150.442 200.074C147.789 199.579 145.206 199.628 144.202 196.197C143.799 194.817 142.108 193.721 140.82 192.73C139.738 191.902 139.143 190.756 138.606 189.681C137.997 188.457 138.344 186.589 139.25 185.903C140.389 185.047 140.806 186.865 141.393 187.587C143.919 190.664 147.442 191.839 151.064 192.808C152.458 193.176 153.64 193.473 152.989 195.482Z" fill="#EB4436"/>
<path d="M110.753 202.048C105.985 197.548 102.079 192.596 95.7051 190.962C102.751 189.964 107.711 193.134 111.623 198.532C112.762 200.102 111.206 200.767 110.753 202.048Z" fill="#EB4436"/>
<path d="M115.707 112.1C117.723 107.536 121.643 104.657 124.77 101.134C125.116 100.745 126.057 99.6764 126.744 100.907C127.253 101.834 128.689 103.065 127.465 103.928C123.772 106.539 120.199 109.277 116.811 112.262C116.641 112.411 116.153 112.177 115.707 112.1Z" fill="#EB4436"/>
<path d="M61.5898 318.639C61.7101 318.809 61.8375 318.979 61.9577 319.149C61.3776 319.248 61.7384 318.788 61.6323 318.604C61.6394 318.604 61.5898 318.639 61.5898 318.639Z" fill="#EB4436"/>
<path d="M136.018 191.216C136.301 191.372 136.676 191.598 136.371 191.903C136.067 192.207 135.819 191.881 135.699 191.549C135.805 191.443 135.911 191.337 136.018 191.216Z" fill="#EB4436"/>
<path d="M108.59 114.633C108.859 114.541 109.248 114.286 109.361 114.378C109.771 114.711 109.566 115.071 109.212 115.361C109 115.121 108.795 114.873 108.59 114.633Z" fill="#EB4436"/>
<path d="M142.801 66.2486C143.02 66.093 143.367 65.7676 143.43 65.8171C143.777 66.0789 143.586 66.3406 143.31 66.5529C143.112 66.5033 142.942 66.4043 142.801 66.2486Z" fill="#EB4436"/>
<path d="M98.9184 231.903C98.2605 232.858 97.7582 234.28 96.7606 234.853C95.7207 235.447 94.6099 234.266 93.8954 233.438C92.1055 231.365 92.2045 227.637 88.4337 227.255C88.3629 227.248 88.3063 226.42 88.3629 225.995C88.4266 225.5 88.7308 225.097 89.318 225.323C92.8342 226.675 95.947 228.691 98.7982 231.132C98.9184 231.224 98.8689 231.528 98.9184 231.903Z" fill="#EB4436"/>
<path d="M138.169 224.397C134.483 225.685 133.012 221.97 130.196 221.709C129.538 221.645 129.347 220.449 129.694 219.905C130.231 219.063 131.016 219.643 131.406 220.173C132.332 221.454 133.507 221.885 135.035 221.801C136.825 221.709 137.773 222.756 138.169 224.397Z" fill="#EB4436"/>
</svg>
