<svg width="58" height="58" viewBox="0 0 58 58" fill="none" xmlns="http://www.w3.org/2000/svg">
<path d="M14.4614 44.5874C21.769 54.7876 37.6633 46.4672 44.697 41.032C71.6048 23.2399 29.6234 8.98472 16.4495 14.6068C3.27556 20.2289 5.3268 31.8371 14.4614 44.5874Z" fill="#EB4436"/>
<path fill-rule="evenodd" clip-rule="evenodd" d="M28.796 22.5833C30.582 22.5833 32.1764 23.7178 32.7614 25.4072C32.8691 25.7168 32.7044 26.0548 32.3941 26.1625C32.0846 26.2709 31.7465 26.1055 31.6389 25.7951C31.2201 24.5847 30.0761 23.7708 28.7936 23.7708H28.7825C27.1264 23.7708 25.7774 25.1119 25.7702 26.7665L25.7697 27.8289L31.8117 27.8295C33.794 27.8295 35.4074 29.4429 35.4074 31.426V34.8207C35.4074 36.8038 33.794 38.4172 31.8117 38.4172H25.7618C23.7786 38.4172 22.166 36.8038 22.166 34.8207V31.426C22.166 29.8558 23.177 28.5174 24.5824 28.0281L24.5827 26.78C24.593 24.4541 26.474 22.5833 28.7802 22.5833H28.796ZM31.8117 29.017H25.7618C24.4333 29.017 23.3535 30.0976 23.3535 31.426V34.8207C23.3535 36.1491 24.4333 37.2297 25.7618 37.2297H31.8117C33.1393 37.2297 34.2199 36.1491 34.2199 34.8207V31.426C34.2199 30.0976 33.1393 29.017 31.8117 29.017ZM28.787 31.6499C29.1147 31.6499 29.3807 31.9159 29.3807 32.2437V34.0027C29.3807 34.3305 29.1147 34.5965 28.787 34.5965C28.4592 34.5965 28.1932 34.3305 28.1932 34.0027V32.2437C28.1932 31.9159 28.4592 31.6499 28.787 31.6499Z" fill="white"/>
</svg>
