<svg width="340" height="490" viewBox="0 0 340 490" fill="none" xmlns="http://www.w3.org/2000/svg">
<path d="M173.749 37.512L170.778 47.195L168.693 56.3919L165.987 75.1914L166.742 75.6748L169.314 75.4326L170.29 75.5708L168.693 77.7474L164.702 85.5538L169.359 88.2472L172.154 93.7379L174.815 107.685L173.617 115.104L175.48 120.521L182.887 131.835L189.406 150.591L192.822 156.415L197.435 147.247L204.798 159.206L218.903 193.302L225.6 200.116L240.149 206.62L246.403 210.679L248.443 214.326L250.175 218.95L250.018 218.97L242.233 219.967L239.039 221.378L236.577 223.957L234.049 229.476L233.251 232.605L234.182 235.407L235.579 236.54L237.841 237.967L237.774 240.855L237.442 243.175L229.037 257.572L215.397 251.354L206.526 243.038L202.601 238.398L190.824 235.442L186.566 235.596L172.173 239.601L168.181 238.587L164.322 236.731L158.112 232.606L153.122 231.522L148.997 231.591L141.811 235.029L137.819 239.875L136.888 242.642L135.823 247.093L131.344 253.037L129.215 257.726L123.892 263.754L123.028 267.635L122.761 277.043L121.231 284.252L120.632 291.529L120.765 298.562L105.905 303.4L95.1272 308.648L88.6074 310.466L70.089 311.083L61.6989 313.859L61.5281 312.352L59.0444 308.408L56.2498 308.202L53.4995 309.128L51.1043 308.683L48.5319 307.242L42.5443 305.425L39.794 303.195L39.9711 301.651L39.0396 292.387L38.3746 289.264L28.2615 269.216L25.4227 264.992L19.9673 261.627L15.3539 260.837L11.0071 258.707L6.48318 251.149L3.86658 242.799L3.24587 234.859L5.1532 228.498L10.2545 225.059L6.129 221.208L6.88343 218.8L7.68214 217.252L8.30285 215.257L8.25858 211.405L19.5245 212.574L15.5328 206.518L6.04045 199.258L0.984375 196.815L2.7146 190.481L17.5738 164.618L19.3041 160.38L20.3242 157.003L21.9207 153.523L25.2917 149.042L28.3076 147.008L34.6503 145.526L38.1984 142.182L42.9003 133.009L41.1701 129.319L38.1541 125.594L38.6421 116.383L41.3029 112.828L49.9965 108.963L53.101 105.65L54.1654 100.369V94.0848L53.6775 86.3498L56.2498 82.2054L62.5039 76.7472L65.1205 72.947L66.1848 68.3861L67.0278 57.5339L68.5801 53.282L75.6772 46.7821L91.6451 38.9314L98.032 32.2554L101.447 22.6365L103.222 13.4649L106.859 7.2686L115.997 6.29913L122.608 1L125.358 4.01232L126.777 10.4174L129.394 15.3325L133.184 17.1811L135.071 18.1009L139.906 18.793L149.663 17.2353L153.39 14.916L156.14 11.9389L159.467 11.4889L165.012 16.854L166.875 23.0142L166.387 29.346L167.362 34.6388L173.749 37.512Z" fill="#EB4436" stroke="white" stroke-width="1.5" stroke-linecap="round" stroke-linejoin="round"/>
<path d="M250.177 218.953L252.747 225.816L253.191 228.051L256.65 228.36L263.081 224.44L266.852 224.543L274.126 229.151L286.457 240.943L293.731 245.582L301.228 247.644H321.809L335.027 251.562L336.712 251.665L339.018 254.173L338.886 254.036L337.954 254.963L337.91 260.563L337.289 261.009L335.249 275.467L335.205 280.171L336.358 283.122L336.18 285.697L332.011 289.369L331.7 295.306L332.676 300.727L334.716 305.495L337.776 309.612L334.05 308.137L332.054 309.132L330.59 312.356L333.518 315.751L334.361 317.191L302.824 337.69L296.171 347.044L296.925 349.237L299.676 351.121L302.292 353.69L302.692 358.074L301.539 361.053L298.301 365.847L293.954 374.816L282.776 388.641L276.301 398.836L273.861 406.12V427.075L273.026 433.437L270.225 454.778L271.556 474.78L271.524 479.646L262.95 478.738L251.551 472.46L231.101 457.118L229.373 446.105L224.117 423.693L223.718 414.738L226.712 409.131L240.507 395.691L243.767 393.98L251.552 392.253L252.616 388.233L251.884 385.051L249.689 382.518L247.36 380.363L245.697 377.967L246.562 375.64L248.292 373.483L257.296 365.969L249.955 352.219L245.897 334.746L242.769 330.839L236.982 326.828L231.104 325.183L198.281 324.36L217.797 293.217L221.324 289.922L226.779 286.456L229.773 287.005L236.183 286.73L241.173 271.179L240.308 269.205L237.913 266.543L235.85 265.204L229.041 257.578L237.447 243.182L237.779 240.861L237.846 237.974L235.584 236.547L234.187 235.413L233.255 232.611L234.054 229.482L236.582 223.964L239.044 221.384L242.238 219.974L250.023 218.976L250.177 218.953Z" fill="#EB4436" stroke="white" stroke-width="1.5" stroke-linecap="round" stroke-linejoin="round"/>
<path d="M33.4961 425.191L43.6977 420.304L53.5442 409.741L57.6245 399.414L50.3503 395.412L55.185 390.828L58.6003 384.191L64.1 368.926L67.5153 364.886L71.7736 360.914L74.1688 355.161L71.7736 345.74L68.6691 343.102L60.064 342.108L57.1366 339.881L55.6286 335.015L56.2493 332.65L57.536 330.525L57.7573 326.206L58.4223 322.538L60.5067 320.173L62.1032 317.43L61.6975 313.862L70.0876 311.086L88.6061 310.469L95.1259 308.651L105.904 303.403L120.763 298.565L120.63 291.531L121.229 284.255L122.76 277.046L123.026 267.638L123.891 263.757L129.214 257.729L131.342 253.04L135.822 247.095L136.886 242.645L137.818 239.878L141.81 235.032L148.995 231.594L153.121 231.525L158.111 232.608L164.321 236.734L168.18 238.59L172.171 239.603L186.564 235.599L190.823 235.445L202.599 238.401L206.525 243.04L215.396 251.356L229.035 257.574L235.844 265.2L237.907 266.539L240.302 269.201L241.167 271.175L236.177 286.726L229.767 287.001L226.773 286.452L221.317 289.919L217.791 293.213L198.275 324.356L231.098 325.179L236.975 326.824L242.763 330.835L245.89 334.742L249.949 352.215L257.29 365.965L248.285 373.479L246.555 375.636L245.691 377.964L247.354 380.359L249.682 382.515L251.878 385.047L252.61 388.229L251.545 392.249L243.761 393.977L240.501 395.687L226.706 409.127L223.712 414.734L224.111 423.69L229.367 446.101L231.094 457.114L230.343 456.551L218.589 451.839L206.391 450.541L181.73 453.273L184.524 459.35L172.415 460.476L169.355 461.705L167.093 465.733L167.137 469.965L166.161 473.514L160.971 475.493L156.802 481.839L150.503 484.193L113.91 486.41L106.461 488.899L100.562 469.998L92.4885 461.839L65.2556 455.32L54.4775 450.232L46.982 443.197L33.4961 425.191Z" fill="#EB4436" stroke="white" stroke-width="1.5" stroke-linecap="round" stroke-linejoin="round"/>
</svg>
