<svg width="454" height="586" viewBox="0 0 454 586" fill="none" xmlns="http://www.w3.org/2000/svg">
<path opacity="0.8" d="M106.971 103.731C105.902 106.483 105.186 109.707 106.743 112.216C106.767 112.255 106.792 112.295 106.816 112.335C108.998 115.856 110.012 119.882 109.064 123.953C107.808 129.388 106.816 134.89 105.471 140.347C104.304 145.056 102.584 149.303 101.13 153.88C99.8509 157.885 100.623 161.977 99.5209 166.049C98.1543 171.154 99.5429 176.325 98.5512 181.54C97.7354 185.765 97.8895 189.836 97.5366 194.105C97.0077 200.707 94.9583 207.88 89.8667 212.457C87.0895 214.944 83.6075 216.219 79.8825 216.351C74.835 216.528 70.1623 216.814 65.1368 217.364C60.6401 217.87 56.6292 217.298 52.3085 216.087C47.8787 214.856 43.669 213.117 39.2603 214.988C32.6262 217.782 22.488 223.261 25.0663 232.019C27.0498 238.731 31.8553 243.616 28.9892 251.054C27.5346 254.816 24.2946 257.104 21.4734 259.812C20.2599 260.97 18.6258 262.25 17.1562 263.645C15.3663 265.344 14.3614 267.65 13.235 269.845C13.0529 270.201 12.8593 270.567 12.6569 270.946C10.2546 275.412 9.65969 280.584 8.29309 285.425C6.99249 290.002 8.55797 293.655 8.88797 298.342C9.35083 304.833 9.19684 311.698 1.50498 312.799C-0.87623 313.129 0.138379 312.271 1.01923 313.657C1.96785 315.176 2.01184 318.608 2.16583 320.435C2.42279 323.427 2.09368 326.114 1.02451 328.64C0.409408 330.093 -0.214501 331.624 0.071491 333.176C0.623235 336.08 1.90097 338.875 3.84131 341.097C8.00623 345.872 14.1124 348.799 17.1976 354.564C20.5916 360.902 20.4596 369.043 17.8813 375.601C16.5147 379.078 15.2141 382.775 14.6192 386.471C14.1133 389.612 13.4973 392.271 11.3897 394.754C11.3827 394.763 11.3774 394.772 11.3695 394.781C11.3237 394.83 11.2956 394.873 11.3334 394.928C14.0596 398.953 16.3158 403.471 19.071 407.815C21.3634 411.425 22.862 413.097 27.0497 413.581C29.1661 413.823 30.9516 414.153 32.7361 415.385C34.4996 416.618 35.9102 418.4 37.3868 419.941C40.5829 423.285 41.4426 423.902 46.1593 423.505C51.7137 423.021 57.467 424.231 62.9985 424.804C68.4429 425.354 74.813 425.86 79.9045 427.95C83.6955 429.513 87.1115 432.659 87.7504 436.862C88.5221 441.968 84.9292 445.092 81.1603 447.777C76.8845 450.813 74.6801 455.171 70.9772 458.801C69.3906 460.363 67.5171 461.794 66.1505 463.576C64.3871 465.887 64.5199 467.933 64.0131 470.64C62.9325 476.427 60.2213 481.048 60.4861 487.077C60.6841 491.742 59.2295 495.263 56.3643 498.938C54.6009 501.205 52.1985 503.229 51.3608 506.067C50.6999 508.29 51.1188 510.82 51.1628 513.087C51.2508 518.236 50.8099 523.319 49.5762 528.314C48.7658 531.631 47.5382 534.472 45.9287 536.942C45.1587 538.124 45.7448 539.904 47.151 540.021C50.6779 540.307 54.16 539.251 57.6869 539.713C60.6181 540.109 63.4173 540.681 66.3494 541.033C69.4126 541.407 70.2283 543.146 72.5867 544.774C77.0833 547.921 83.3866 545.787 88.3901 547.26C92.6219 548.493 95.752 548.999 100.006 547.547C102.452 546.711 104.48 546.072 107.081 546.27C110.233 546.534 113.914 546.997 116.911 548.118C119.6 549.131 121.981 550.847 124.648 551.969C129.342 553.928 134.213 555.359 138.004 558.967C139.855 560.705 141.2 562.796 142.347 565.063C143.558 567.439 143.514 569.772 146.468 568.87C151.625 567.307 156.056 563.478 161.433 562.114C165.313 561.124 169.677 561.124 172.344 564.512C173.733 566.272 174.174 568.495 175.76 570.189C177.546 572.104 179.838 573.072 182.372 573.645C187.134 574.701 194.694 576.791 199.123 573.93C202.98 571.444 204.347 566.317 208.315 563.72C212.084 561.278 216.866 560.926 221.231 561.234C225.992 561.564 227.865 563.39 230.884 566.779C241.574 578.727 253.763 565.282 265.907 566.889C268.487 567.219 270.316 568.099 272.608 569.243C276.112 571.004 277.281 571.202 280.08 568.275C282.967 565.26 286.405 561.212 290.726 560.331C295.641 559.341 298.506 563.852 302.452 565.833C303.114 566.163 303.812 566.422 304.529 566.635C309.895 568.23 316.076 565.166 321.34 567.065C323.942 567.989 326.168 570.101 328.063 572.06C331.524 575.603 333.419 579.916 336.13 583.987C336.44 584.451 336.842 584.919 337.283 585.388C338.314 586.488 342.256 586.027 342.808 584.625C344.462 580.378 341.795 576.329 340.957 572.148C340.164 568.165 340.384 564.27 338.136 560.727C334.499 555.05 327.887 552.035 327.226 544.84C326.917 541.539 327.468 538.305 327.865 535.048C328.283 531.682 328.019 528.204 330.113 525.322C333.529 520.635 342.125 519.249 347.525 518.786C351.14 518.478 355.791 519.644 359.23 518.522C362.712 517.378 364.122 511.832 366.194 509.17C368.091 506.716 374.321 502.735 379.603 501.459C380.959 501.131 382.212 500.396 383.519 499.906C384.818 499.4 386.296 499.312 387.661 499.268C388.213 499.246 388.764 499.246 389.315 499.202C389.624 499.158 389.822 499.114 390.043 499.048C390.395 498.938 390.726 498.806 391.056 498.674C391.393 498.546 391.371 498.068 391.034 497.943C384.963 495.695 378.255 491.166 375.804 485.207C374.878 482.985 375.407 481.048 374.988 478.781C374.68 477.065 373.577 476.031 372.983 474.359C372.52 472.994 372.895 471.674 372.013 471.08C371.219 470.552 368.839 470.53 367.825 470.266C360.926 468.483 353.807 465.469 349.972 459.109C347.636 455.215 346.71 450.572 345.322 446.302C345.232 446.027 345.155 445.732 345.088 445.423C344.811 444.137 343.867 443.1 342.72 442.451C341.603 441.824 341.194 440.818 341.293 439.833C341.43 438.47 342.047 436.902 341.486 435.652C341.068 434.706 340.56 433.803 340.075 432.901C337.188 427.466 334.5 421.899 331.656 416.419C329.099 411.557 327.535 406.562 327.645 401.039C327.733 396.858 329.011 392.281 325.374 389.288C319.798 384.711 312.128 384.271 307.41 378.285C303.95 373.884 303.003 368.56 302.716 363.102C302.43 357.491 300.6 352.1 301.768 346.511C302.209 344.332 305.03 342.704 307.146 343.452C309.174 344.178 311.378 344.354 313.34 345.278C315.059 346.07 315.897 347.215 317.286 348.359C321.715 352.034 324.449 348.821 329.077 347.435C332.868 346.29 335.094 347.962 338.686 348.139C340.561 348.227 342.389 347.038 344.219 346.752C345.85 346.489 347.327 346.555 348.936 346.796C353.631 347.479 357.995 349.019 362.734 349.569C367.406 350.119 372.432 352.298 376.818 349.679C380.257 347.611 383.276 345.102 386.781 343.099C390.065 341.207 392.731 337.598 395.707 335.178C401.041 330.799 407.411 330.667 413.516 327.85C417.792 325.869 420.856 323.471 422.707 319.048C423.963 316.056 424.603 312.711 426.211 309.872C428.989 304.943 434.675 304.811 439.723 305.757C443.271 306.418 446.688 307.958 449.134 310.664C449.51 311.086 449.835 311.539 450.124 312.009C450.432 312.511 451.185 312.511 451.448 311.985C454.049 306.857 454.203 301.422 453.872 295.767C453.587 290.86 451.647 286.679 449.95 282.146C448.605 278.537 448.296 274.005 448.12 270.176C447.767 262.254 453.124 255.41 452.683 247.401C452.198 238.467 445.277 232.569 442.743 224.384C441.772 221.215 442.125 218.376 443.491 215.405C444.461 213.271 444.88 212.501 444.329 210.125C443.932 208.474 443.535 206.978 443.425 205.239C442.963 196.657 436.945 192.059 430.355 187.328C425.264 183.652 423.633 177.953 423.919 171.748C424.074 168.425 425.352 165.323 427.247 162.616C429.253 159.755 432.207 158.061 434.278 155.31C438.665 149.435 436.989 140.501 438.974 133.569C440.515 128.201 441.898 122.265 441.944 116.446C441.953 115.245 441.116 114.285 439.987 113.875C436.526 112.555 433.264 109.76 429.694 109.012C425.683 108.154 421.716 110.618 417.77 109.342C414.751 108.351 413.229 105.821 412.766 102.828C411.753 96.4469 415.477 88.0636 409.923 83.3106C407.323 81.088 405.956 81.044 402.848 81.4177C401.547 81.5715 400.292 81.5715 398.991 81.5496C396.059 81.4836 393.327 81.2858 391.32 78.8873C388.984 76.1152 388.94 71.9998 388.014 68.6551C387.479 66.7306 387.152 65.4502 385.819 64.067C385.741 63.986 385.574 63.8702 385.481 63.8079C385.108 63.5599 384.736 63.4807 384.305 63.6022C383.502 63.8288 382.707 64.1026 381.953 64.4962C378.868 66.1466 377.236 69.7994 373.445 70.0415C370.977 70.1955 368.619 68.6771 366.327 68.3911C361.94 67.841 358.502 74.2003 355.394 76.3569C352.441 78.4029 348.584 79.5256 345.256 80.8022C344.276 81.1785 343.291 81.4599 342.316 81.6401C338.166 82.4077 331.133 83.5427 330.267 79.4157C329.716 76.7086 323.435 75.6747 321.208 75.5208C316.646 75.1682 312.987 76.7086 308.821 78.0732C303.201 79.8993 294.429 78.6016 289.272 75.7626C285.48 73.6723 281.888 68.9632 285.811 65.1343C286.736 64.2322 288.213 64.0781 289.073 63.2419C289.778 62.5598 289.492 62.4058 290.02 61.5035C291.167 59.5451 291.938 58.863 294.12 58.2688C294.285 58.2209 294.669 58.1645 295.123 58.0929C296.842 57.8224 297.051 56.6085 296.025 55.206C295.264 54.1692 294.494 53.1187 294.429 53.0097C293.811 52.0195 293.084 50.039 292.093 49.3569C291.012 48.5867 289.47 49.0048 288.081 48.9388C287.199 48.8947 285.348 48.2566 284.665 48.6087C283.915 49.0048 283.518 50.8312 283.055 51.5574C281.91 53.3837 280.344 54.726 278.251 55.2982C273.313 56.6405 267.296 53.7138 265.312 49.0709C263.99 45.9901 265.027 42.6234 261.522 41.017C259.075 39.8948 256.32 40.3789 253.763 39.8948C251.845 39.5207 249.994 38.7945 248.076 38.4425C246.732 38.2004 245.255 38.2885 243.911 37.9584C241.839 37.4522 240.01 36.088 239.04 34.1955C238.582 33.3121 238.327 32.3559 238.188 31.3741C237.878 29.1843 235.972 27.0953 235.844 24.8875C235.381 17.3178 229.166 10.2103 221.561 8.60388C217.947 7.83369 215.302 10.5843 211.511 9.11004C209.131 8.18582 207.213 6.31538 205.78 4.24695C204.516 2.39708 203.79 1.47277 202.239 0.0477415C202.206 0.0172328 202.153 0 202.107 0C202.003 0 201.93 0.0892398 201.938 0.19369C201.952 0.369005 201.966 0.539573 201.98 0.71647C201.986 0.795599 202.007 0.872707 202.036 0.946385C202.524 2.1626 202.264 4.3747 202.606 5.65527C203.091 7.48166 203.951 9.02195 204.921 10.6284C208.006 15.7114 211.07 19.0122 208.227 25.0855C207.389 26.8679 206.066 29.0464 204.369 30.1687C202.1 31.643 200.843 30.1246 198.661 30.5867C191.013 32.2591 200.336 39.7407 201.438 42.7775C201.989 44.2738 202.21 45.7041 201.945 47.3104C201.857 47.8605 201.041 49.4669 201.13 49.819C201.438 51.2713 201.526 50.6331 203.201 50.6552C204.237 50.6552 205.34 50.6111 206.353 50.8752C210.056 51.8434 213.384 55.9803 212.679 59.9412C212.459 61.1735 212.018 62.0097 211.18 62.9338C210.849 63.3079 209.329 64.1222 209.219 64.4522C208.866 65.6405 212.701 68.5451 214.178 69.3152C218.476 71.5378 223.611 71.9998 226.565 76.4449C229.32 80.5815 229.452 86.853 228.526 91.4961C227.578 96.1612 226.961 101.86 222.267 104.457C217.66 107.032 213.45 103.731 211.577 99.4618C209.307 94.2471 210.893 86.4573 206.132 82.7163C205.053 81.8582 204.039 82.078 202.011 81.2858C199.807 80.4277 199.388 79.1071 196.523 79.8114C195.311 80.12 193.966 81.2418 192.798 81.7702C190.748 82.6943 187.641 83.2007 185.811 84.4545C183.32 86.1707 183.254 92.4421 183.409 95.3251C183.541 97.6796 184.357 99.9682 184.643 102.279C184.995 105.205 183.894 108.373 183.386 111.256C182.549 115.899 181.425 121.995 175.826 123.051C173.16 123.557 171.175 122.149 168.994 120.872C166.922 119.663 164.762 118.826 163.616 116.582C162.668 114.734 162.602 112.268 162.183 110.266C162.084 109.797 161.994 109.063 161.887 108.197C161.403 104.265 157.904 104.18 153.939 104.281C151.625 104.347 149.84 103.005 148.407 101.355C145.3 97.7675 142.236 93.411 144.683 88.7459C145.983 86.2586 149.664 84.0149 146.754 81.7043C144.22 79.7015 140.142 81.066 137.233 81.3298C132.912 81.7483 129.055 82.3637 124.868 83.4865C121.562 84.3885 118.388 85.2027 114.993 85.2686C112.326 85.3126 108.27 85.7531 106.133 88.0856C103.29 91.1884 107.478 93.2343 108.271 96.0513C108.8 98.4278 107.808 101.553 106.971 103.731Z" fill="#EB4436"/>
</svg>
