<svg width="388" height="179" viewBox="0 0 388 179" fill="none" xmlns="http://www.w3.org/2000/svg">
<path opacity="0.8" d="M170.148 169.959C175.039 169.716 178.785 167.975 183.346 166.696C186.784 165.726 189.846 166.652 193.019 168.019C196.478 169.518 199.476 172.935 202.803 174.082C205.932 175.163 209.897 172.979 213.071 172.252C220.981 170.422 226.049 174.743 233.342 177.124C237.462 178.47 241.935 179.462 246.254 178.778C249.603 178.249 252.049 177.654 255.464 178.183C261.59 179.131 267.759 172.869 270.954 168.283C279.481 156.069 299.114 166.365 310.418 166.85C313.833 167.004 316.874 165.682 320.267 165.527C322.933 165.416 326.502 164.888 328.64 163.873C329.675 163.388 330.976 162.131 332.452 161.669C333.487 161.338 333.796 161.514 334.413 161.294C335.801 160.742 336.77 159.882 338.313 159.486C339.503 159.199 340.825 159.332 341.904 158.692C342.5 158.339 343.116 158.185 343.711 158.141C347.457 156.135 350.674 153.687 354.156 151.217C358.364 148.241 360.81 145.816 359.069 140.458C358.012 137.195 356.271 133.976 356.293 130.47C356.315 123.018 362.396 121.165 366.869 116.844C370.879 112.963 362.374 105.268 360.06 101.983C351.071 89.2831 372.598 91.223 379.076 90.5843C390.027 89.4813 387.052 80.4638 384.122 73.3201C382.359 69.0642 377.556 64.611 382.183 60.5101C383.285 59.5393 384.585 58.9446 385.841 58.2169C387.758 57.0919 388.925 57.2241 387.052 54.9979C385.267 52.903 382.866 52.4176 381.61 49.5959C379.715 45.362 381.214 39.2332 383.417 34.8672C382.006 34.757 380.596 34.6029 379.164 34.6249C374.736 34.691 370.306 35.0434 366.054 33.4999C362.529 32.2216 359.422 29.8844 357.174 26.8856C355.786 25.0559 354.42 19.1684 352.679 18.3527C351.335 17.7351 346.972 19.8961 345.32 20.0063C343.314 20.1604 341.529 19.8961 339.634 19.1905C335.889 17.7792 333.311 14.7372 329.455 13.5462C327.561 12.9506 325.732 12.4441 324.189 11.1209C322.734 9.9087 322.228 8.03403 320.928 6.77778C318.482 4.4406 313.921 3.46977 310.858 2.12543C309.69 1.618 306.539 -0.34392 305.284 0.0525111C304.314 0.360847 303.918 2.36769 303.521 3.51381C302.133 7.39444 300.238 10.9006 298.211 14.4941C294.178 21.6818 291.093 27.5913 282.258 28.7374C276.926 29.4211 271.241 29.8184 265.864 30.0386C262.118 30.1928 257.403 30.7222 254.142 28.5832C252.423 27.4591 251.366 25.8496 250.198 24.1961C249.361 23.027 248.105 20.0503 246.871 19.3226C246.585 19.1685 246.254 19.0803 245.923 19.0143C246.078 20.2273 245.879 21.4616 244.998 22.3434C244.756 22.5866 244.447 22.7628 244.161 22.9389C243.456 23.4023 242.751 23.6887 242.023 23.7988C240.679 24.2842 235.788 25.6506 231.425 26.0919C231.425 26.2901 231.447 26.4223 231.447 26.6213C231.271 29.1347 228.406 31.6041 225.894 30.1487C225.828 30.435 225.52 30.546 224.859 29.7083C224.529 29.8624 223.889 29.9946 223.647 30.0827C222.413 30.502 221.179 31.2288 220.077 31.9124C217.544 33.4779 216.398 35.705 214.877 38.4394C210.669 45.9796 205.425 47.545 197.25 47.4349C193.085 47.3688 189.34 47.7212 185.374 49.0004C181.429 50.2575 181.451 51.3375 180.923 55.3283C180.548 58.1509 179.359 62.3178 180.747 64.9633C182.002 67.4106 185.396 69.2633 187.114 71.5564C189.142 74.2901 191.279 76.9576 192.314 80.2215C193.394 83.6388 193.239 87.2992 194.055 90.7825C194.848 94.1336 196.237 97.3086 196.434 100.815C196.655 104.584 195.068 107.165 193.526 110.45C191.521 114.771 189.472 119.357 183.699 118.277C179.622 117.528 176.692 113.779 174.423 110.626C172.153 107.473 170.523 103.99 168.429 100.748C167.284 98.9622 165.455 96.4929 163.56 95.4569C161.532 94.3319 162.964 94.7732 161.047 95.567C159.814 96.0744 158.823 96.6911 157.523 97.0443C156.112 97.4188 154.481 97.0444 153.468 95.9634C152.939 95.4128 147.431 94.9274 146.042 94.3979C143.266 93.3179 140.49 91.9727 138.088 90.187C137.163 89.5033 136.083 88.203 135.378 88.2911C134.783 88.3792 133.064 90.231 132.447 90.8045C130.509 92.5902 128.944 94.7512 126.829 96.3387C122.686 99.4916 118.236 99.1613 113.784 96.7801C110.655 95.1036 108.298 93.8694 104.662 94.7292C101.335 95.5009 98.2507 97.2646 94.9236 98.1464C88.7314 99.7779 83.6854 100.351 77.626 97.816C75.4452 96.8902 73.4395 95.7432 71.5666 94.2658C69.7606 92.8545 68.1956 89.7905 66.1687 88.9087C61.9162 87.1001 56.3855 89.5033 53.8511 92.7224C51.0976 96.2286 49.0919 99.6899 44.7295 101.454C39.7494 103.46 34.3076 102.623 29.1736 101.741C24.5244 100.947 20.0951 100.197 16.2613 97.2425C13.9917 95.5009 12.2508 93.3619 10.9066 90.8485C9.69523 88.5774 10.2459 88.5775 7.3596 89.2391C4.73721 89.8566 2.35761 91.0027 0 92.2598C1.12338 92.8774 2.26964 93.5601 3.1511 94.4869C4.29648 95.6771 4.91404 97.0223 5.5527 98.4997C7.11682 102.115 8.59294 105.93 6.67607 109.744C5.88345 111.288 4.58326 112.566 3.28305 113.691C3.19508 113.757 3.1291 113.823 3.04025 113.889C3.1291 113.911 3.21707 113.911 3.30504 113.933C3.61382 113.735 3.98859 113.779 4.16453 114.109C7.57954 114.881 10.9066 115.962 14.0577 117.461C17.2528 118.983 19.6104 121.452 22.5187 123.348C26.2425 125.773 31.5752 123.37 35.1662 125.222C35.6289 124.715 36.0256 124.164 36.5983 123.745C40.7409 120.813 46.0297 122.488 49.6206 125.509C52.353 127.78 54.6886 130.977 56.2976 134.13C57.333 136.18 57.5529 140.524 60.2193 140.832C63.0176 141.142 66.8953 138.187 68.2175 136.07C69.9585 133.27 70.796 130.007 72.7568 127.295C76.2827 122.422 80.9539 121.099 85.977 124.473C89.0402 126.523 92.4332 130.668 96.069 131.661C98.7574 132.388 102.326 130.293 105.192 129.808C111.868 128.64 119.403 129.654 125.198 133.358C130.553 136.776 137.361 140.326 141.283 145.419C145.029 150.247 147.056 156.443 148.224 162.375C148.378 163.19 148.268 163.918 148.048 164.579C154.063 169.055 163.736 170.268 170.148 169.959Z" fill="#EB4436"/>
</svg>
