<svg width="24" height="26" viewBox="0 0 24 26" fill="none" xmlns="http://www.w3.org/2000/svg">
<g opacity="0.9">
<path opacity="0.8" d="M22.8948 14.0358C22.6699 13.1526 22.3798 12.3009 22.0582 11.4502C22.0257 11.3518 21.9852 11.2534 21.9457 11.1558C21.9053 11.0574 21.8648 10.959 21.8323 10.8614C21.7682 10.6971 21.6961 10.5336 21.6232 10.3701C21.5511 10.2067 21.479 10.0424 21.414 9.87889C21.2373 9.50274 21.0598 9.11778 20.8832 8.73372C20.7056 8.34879 20.529 7.9639 20.3523 7.58776C20.2873 7.45681 20.2153 7.31793 20.1423 7.17907C20.0703 7.03934 19.9982 6.90048 19.9331 6.76953C19.9015 6.6711 19.9015 6.67112 19.869 6.60609V6.60518C19.6431 6.37668 19.354 6.0823 19.354 6.04979L19.3215 6.01637C18.4839 5.47852 17.6315 5.03297 16.7737 4.58476C16.3791 4.37824 15.9836 4.17079 15.5873 3.9546C14.7506 3.46333 13.8489 2.842 13.1415 2.18726C12.5614 1.63096 12.2398 1.00874 11.9497 0.354004C11.8856 0.370702 11.8294 0.403234 11.7731 0.435752C11.7169 0.468269 11.6606 0.501626 11.5956 0.517445C9.24645 1.43408 6.99221 1.63098 4.83553 1.36909C4.60528 2.0581 4.36185 2.74096 4.12193 3.41064C3.82752 4.23675 3.53925 5.04347 3.29053 5.82037C2.98997 6.766 2.59714 7.75736 2.19287 8.77594C0.82012 12.2342 -0.675655 16.0009 0.940532 19.3387C3.12972 23.8885 8.05474 26.0812 12.7548 25.8193C13.0281 25.8035 13.2856 25.8114 13.544 25.8193C13.8015 25.8272 14.059 25.836 14.3323 25.8193C14.3692 25.698 14.4008 25.5758 14.4325 25.4545C14.5107 25.1505 14.5898 24.8464 14.7506 24.5432C13.914 25.9502 15.0081 23.9535 15.3298 23.4297C15.7165 22.8084 16.264 22.1861 16.779 21.6623C17.2184 21.1904 17.6763 20.7563 18.1254 20.3309C18.2677 20.1965 18.4092 20.062 18.549 19.9275C18.7124 19.779 18.8759 19.6305 19.0394 19.482C20.13 18.4906 21.211 17.5072 22.219 16.4253C22.3473 16.2619 22.4123 16.196 22.4765 16.131C22.5732 15.9833 22.6619 15.8445 22.7498 15.7056C22.8386 15.5659 22.9274 15.427 23.024 15.2793C23.0434 15.2389 23.0513 15.2363 23.0618 15.2319C23.068 15.2302 23.0759 15.2266 23.0882 15.2143V15.1159V15.0834V14.9524C23.0557 14.658 22.9915 14.3302 22.8948 14.0358Z" fill="#EB4436"/>
</g>
</svg>
