<svg width="163" height="162" viewBox="0 0 163 162" fill="none" xmlns="http://www.w3.org/2000/svg">
<path opacity="0.7" d="M3.52856 12.9326C3.30804 15.9286 2.29363 18.6378 1.21306 21.4138C0.242753 23.8809 -0.859865 25.004 1.03664 26.7441C2.9552 28.529 5.57948 29.1231 7.40981 31.1721C8.88726 32.8022 9.74736 34.8283 10.1443 36.9653C10.453 38.6174 9.68115 43.0455 10.5191 44.1466C10.872 44.6096 12.9449 44.6755 13.8711 44.7856C18.5462 45.3145 23.6183 47.0326 26.8159 50.6677C27.8965 51.9008 28.2052 53.5308 29.1755 54.7648C30.0576 55.8879 30.6972 55.8879 31.8659 56.5489C34.1374 57.8269 35.7471 59.743 35.9897 62.3861C36.1 63.5761 34.424 66.9682 34.6225 67.5632C34.9533 68.5543 38.0406 69.5462 38.8566 70.0523C40.2679 70.9554 41.6131 72.2774 42.5172 73.7534C43.5317 73.7314 44.524 73.6874 45.5384 73.7094C49.6402 73.7974 53.9184 73.5774 57.9759 74.3264C61.5706 74.9645 65.1871 76.9255 65.8928 80.8026C66.5543 84.4808 64.2609 87.9838 63.1583 91.3539C62.4306 93.623 61.8131 95.9361 61.6146 98.3151C61.4161 100.562 61.5706 102.765 61.2838 105.011C60.9751 107.28 60.7766 108.867 61.1956 111.092C61.2177 111.18 61.4382 111.466 61.5264 111.643C62.1218 111.907 62.9378 111.863 63.5773 112.039C63.8199 112.105 65.2753 112.59 66.0471 112.943C66.378 112.722 66.7749 112.568 67.1278 112.414C68.7817 111.709 70.6561 111.577 72.4423 111.466C76.3015 111.224 80.4915 111.577 84.0417 113.141C90.0401 115.762 91.3633 123.736 92.6646 129.463C92.7967 129.992 92.7527 130.499 92.6426 130.939C92.7967 131.16 92.9067 131.402 93.0617 131.622C95.1342 134.354 97.0967 134.904 100.405 135.103C104.639 135.345 106.359 136.931 107.395 140.984C108.233 144.289 109.645 147.285 111.056 150.391C111.718 151.845 112.357 154.4 113.659 155.347C115.599 156.735 117.65 157.109 119.061 159.334C119.59 160.171 119.855 161.075 120.142 162C120.913 161.185 121.641 160.326 122.083 159.929C123.626 158.519 125.169 157.44 127.199 156.823C128.654 156.383 130.197 156.206 131.764 156.184C131.587 155.325 131.631 154.4 132.05 153.475C132.116 153.321 132.205 153.255 132.271 153.144C132.006 147.902 131.984 142.724 131.279 137.438C130.617 132.437 130.043 126.622 130.727 121.622C131.234 117.855 132.844 114.506 136.527 113.031C140.21 111.555 144.179 113.141 147.266 110.189C153.706 104.02 143.738 93.667 150.574 88.2699C152.25 86.9487 155.293 87.7638 156.617 86.6838C157.631 85.8468 156.065 77.2775 155.58 75.2954C154.389 70.4933 155.58 67.3212 156.705 62.6291C157.653 58.6419 158.601 54.2359 160.41 50.5348C161.601 48.0677 163.585 46.2836 162.835 43.3095C162.174 40.7104 160.233 40.0935 158.094 39.0364C154.345 37.1414 152.537 35.3353 150.618 31.6342C146.538 23.77 141.246 16.3907 132.888 12.5796C128.147 10.4215 125.588 17.3818 122.06 19.6949C119.238 21.5678 115.687 22.823 112.269 22.6469C109.005 22.4709 105.852 20.8848 104.043 18.0868C103.073 16.6108 103.095 14.7167 102.213 13.2846C100.979 11.2585 98.7731 10.9716 96.9647 9.76048C95.5093 8.79142 94.3621 7.75549 93.0837 6.85244C89.599 9.12149 86.5782 7.2934 82.7849 7.42543C81.5942 7.46943 80.5356 7.84349 79.3668 8.15243C78.7273 8.30646 77.9996 8.54852 77.3601 8.63653C76.3677 8.76856 75.9929 8.94545 75.8164 8.96745C75.9929 11.1705 76.3015 12.9106 73.942 14.8047C72.7952 15.7297 71.3839 16.0167 70.0607 15.7077C67.1498 18.6158 63.3127 20.8408 59.4315 20.7748C56.0133 20.7088 53.1906 18.6158 49.9048 18.0868C47.457 17.6907 45.3841 17.6687 43.5758 15.6857C42.7598 14.7827 42.1423 13.7256 41.9218 12.5136C41.7895 11.7866 42.3188 10.3326 42.0762 9.73848C40.6428 6.45636 35.6589 7.99841 33.0127 6.96246C29.8371 5.72936 28.7345 -0.725749 25.0737 0.067275C23.1773 0.464227 21.4131 3.59234 19.7151 4.75943C16.76 6.78644 13.3419 7.88751 9.79147 8.35047C7.32159 8.68053 5.55738 8.37248 3.44035 9.69448C3.50652 10.7516 3.61677 11.8746 3.52856 12.9326Z" fill="#E1E1E1"/>
</svg>
