<svg width="30" height="52" viewBox="0 0 30 52" fill="none" xmlns="http://www.w3.org/2000/svg">
<g opacity="0.7">
<path opacity="0.8" d="M22.4298 51.6476C22.6064 51.0315 23.1566 50.7459 23.7287 50.7459C23.7779 50.3847 23.8175 50.0199 23.8553 49.6807C23.9018 49.2554 23.944 48.8713 23.9933 48.5901C24.2569 47.0064 24.6532 45.5326 25.1375 43.9928C25.5752 42.5515 26.12 41.1243 26.6667 39.6927C27.5209 37.4543 28.3795 35.2062 28.8357 32.8852C30.2225 25.6269 27.1404 20.106 21.8796 15.4648C17.1471 11.2859 13.1404 6.99631 11.5119 0.727539C10.5435 1.23375 9.50819 1.67404 8.40789 1.91572C7.59144 2.09413 6.746 2.10293 5.90407 2.11084C5.08939 2.11963 4.27822 2.12751 3.49957 2.28922C0.94566 2.8174 0.923678 3.7191 0.857765 6.60082C0.703968 11.9459 1.38595 17.4229 2.17867 22.6792C2.70509 26.2104 2.65588 29.8453 2.60666 33.4626C2.58469 35.1394 2.56184 36.8136 2.59699 38.472C2.59699 38.6891 2.5135 38.8727 2.42826 39.0582C2.37552 39.1742 2.32192 39.291 2.28852 39.4176C2.47923 39.4721 2.67082 39.5257 2.86065 39.5793C3.59184 39.785 4.31512 39.9871 4.99622 40.2314C7.26363 41.0232 9.11271 41.6613 11.5119 41.8379C13.361 41.9698 15.2321 42.1895 16.9713 42.8055C20.2283 43.9489 24.7851 47.7982 22.4078 51.6036C22.3859 51.6036 22.3858 51.6256 22.4298 51.6476Z" fill="#EAEAEA"/>
<path opacity="0.8" d="M22.4298 51.6476C22.6064 51.0315 23.1566 50.7459 23.7287 50.7459C23.7779 50.3847 23.8175 50.0199 23.8553 49.6807C23.9018 49.2554 23.944 48.8713 23.9933 48.5901C24.2569 47.0064 24.6532 45.5326 25.1375 43.9928C25.5752 42.5515 26.12 41.1243 26.6667 39.6927C27.5209 37.4543 28.3795 35.2062 28.8357 32.8852C30.2225 25.6269 27.1404 20.106 21.8796 15.4648C17.1471 11.2859 13.1404 6.99631 11.5119 0.727539C10.5435 1.23375 9.50819 1.67404 8.40789 1.91572C7.59144 2.09413 6.746 2.10293 5.90407 2.11084C5.08939 2.11963 4.27822 2.12751 3.49957 2.28922C0.94566 2.8174 0.923678 3.7191 0.857765 6.60082C0.703968 11.9459 1.38595 17.4229 2.17867 22.6792C2.70509 26.2104 2.65588 29.8453 2.60666 33.4626C2.58469 35.1394 2.56184 36.8136 2.59699 38.472C2.59699 38.6891 2.5135 38.8727 2.42826 39.0582C2.37552 39.1742 2.32192 39.291 2.28852 39.4176C2.47923 39.4721 2.67082 39.5257 2.86065 39.5793C3.59184 39.785 4.31512 39.9871 4.99622 40.2314C7.26363 41.0232 9.11271 41.6613 11.5119 41.8379C13.361 41.9698 15.2321 42.1895 16.9713 42.8055C20.2283 43.9489 24.7851 47.7982 22.4078 51.6036C22.3859 51.6036 22.3858 51.6256 22.4298 51.6476Z" fill="#E1E1E1"/>
</g>
</svg>
