<svg width="244" height="128" viewBox="0 0 244 128" fill="none" xmlns="http://www.w3.org/2000/svg">
<path opacity="0.7" d="M239.24 81.1044C240.692 81.5215 242.388 82.9897 243.774 83.1439C243.884 83.1658 243.906 83.1658 243.994 83.1877C244.016 82.6393 243.972 81.9157 243.95 81.7186C243.752 79.3725 243.51 76.9606 243.642 74.6145C243.686 73.6938 243.818 72.7065 243.972 71.7638C243.422 71.6762 242.894 71.5886 242.322 71.5667C240.868 71.5229 239.415 71.6762 237.985 71.6324C233.671 71.5229 230.479 69.4834 227.287 66.7869C221.102 61.5463 212.694 59.4411 204.726 59.5515C196.34 59.661 188.261 52.0304 189.847 43.4134C190.463 40.0809 192.092 36.4846 193.413 33.3273C193.61 32.8674 193.897 32.4503 194.161 32.0342C190.947 27.1878 190.463 23.1535 184.762 20.2599C182.054 18.8783 179.083 18.089 176.31 16.8169C173.052 15.3259 170.432 13.572 166.844 12.9798C164.291 12.5636 162.068 12.0371 159.559 12.7608C156.962 13.5063 154.738 14.5585 151.988 14.6242C148.399 14.6907 145.45 13.2873 142.038 12.5417C140.057 12.1028 138.406 12.4761 136.447 12.3666C131.517 12.081 127.753 11.2697 123.923 8.2876C121.458 6.35851 117.804 6.11758 114.701 5.23977C111.487 4.31902 108.493 5.08647 105.235 4.97696C101.78 4.86745 98.2796 4.01236 94.8682 2.91641C93.151 4.03427 91.2801 5.06454 89.1894 5.96339C85.7771 7.41065 83.5107 11.5772 79.13 9.01122C78.0737 8.39798 77.3249 7.30115 76.5112 6.81844C74.6842 5.78819 72.7684 5.67867 71.1181 4.23141C69.9291 3.20116 68.9606 1.60057 68.6531 0C67.8165 0.679827 66.892 1.24925 66.0993 1.99478C62.8416 5.13022 60.2 11.8838 59.7606 16.3132C59.2536 21.4215 58.7693 25.4559 55.292 29.512C52.3647 32.9331 48.5341 35.6077 44.7703 38.0633C38.0133 42.5146 30.9258 45.3207 24.762 38.6556C22.7153 36.4409 23.3753 36.0028 21.681 38.4146C20.2723 40.3875 18.8197 42.1414 17.6746 44.3123C15.562 48.3247 14.7693 52.6884 13.0302 56.8102C10.081 63.739 -5.48143 68.8036 2.02517 78.2756C11.2252 89.8747 15.1657 69.2863 19.4137 64.5503C20.4481 63.4105 21.703 62.8621 22.9579 62.029C24.7401 60.8446 26.1268 59.1782 27.9538 58.0604C31.0137 56.218 35.3497 55.9771 38.8059 56.7007C45.3872 58.0823 50.4499 63.8486 51.6819 70.2947C52.5405 74.8555 49.767 78.6488 46.5973 81.6748C45.2105 83.0116 43.6261 84.0647 41.887 84.8978C40.9405 85.3359 36.8682 85.8623 36.2522 86.6517C35.5263 87.5943 41.1171 93.1197 41.6014 95.4439C42.2174 98.4698 43.5602 101.802 42.2174 104.85C41.6014 106.254 38.6952 108.249 38.6293 109.521C38.5854 110.288 40.5222 111.954 40.8966 112.481C41.2709 113.007 41.5126 113.511 41.7771 114.016C45.5849 112.853 49.4147 111.867 52.0783 110.288C58.5496 106.473 62.622 105.486 69.5995 108.622C77.4576 112.152 85.9538 116.033 94.8023 115.616C99.7542 115.375 101.89 113.994 103.298 109.389C104.069 106.89 104.707 104.412 105.654 101.978C107.612 96.8912 109.549 91.3877 113.709 87.6382C117.584 84.1523 122.844 82.4641 127.246 85.7747C132.442 89.6776 137.152 96.3208 140.079 102.044C141.95 105.705 141.95 109.872 143.799 113.555C145.362 116.646 147.276 119.65 149.654 122.172C151.041 123.641 155.773 128.706 158.173 127.917C161.056 126.974 161.761 120.857 162.311 118.576C163.939 111.757 166.581 105.114 168.693 98.4479C170.147 93.8652 172.964 92.0676 177.212 90.2042C182.208 88.0114 185.444 87.7485 188.526 92.594C190.353 95.4439 192.136 97.0007 194.821 99.062C197.661 101.211 199.905 104.39 203.296 101.737C207.125 98.7335 209.833 95.5753 214.807 98.6012C215.952 99.3029 220.112 103.908 221.587 103.425C222.269 103.206 221.609 98.0537 221.521 97.0663C221.08 91.8704 220.971 86.8269 225.394 83.2096C229.114 80.0523 234.661 79.7886 239.24 81.1044Z" fill="#E1E1E1"/>
</svg>
