<svg width="257" height="261" viewBox="0 0 257 261" fill="none" xmlns="http://www.w3.org/2000/svg">
<path opacity="0.05" d="M77.101 209.956C117.011 249.891 181.484 201.316 208.732 172.036C315.166 73.348 118.35 40.7951 63.9791 75.3992C9.60841 110.003 27.2131 160.037 77.101 209.956Z" fill="#E04545"/>
<path opacity="0.07" d="M83.6355 199.867C118.49 234.743 174.796 192.321 198.592 166.751C291.544 80.5637 119.659 52.1344 72.1759 82.3551C24.6925 112.576 40.0672 156.271 83.6355 199.867Z" fill="#E04545"/>
<path d="M89.8969 190.199C119.907 220.228 168.387 183.703 188.876 161.686C268.909 87.4778 120.914 62.9997 80.03 89.0202C39.1462 115.041 52.384 152.663 89.8969 190.199Z" fill="#E04545"/>
</svg>
