<svg width="351" height="62" viewBox="0 0 351 62" fill="none" xmlns="http://www.w3.org/2000/svg">
<g filter="url(#filter0_dd_1351_3046)">
<path d="M3 23C3 13.5719 3 8.85786 5.92893 5.92893C8.85786 3 13.5719 3 23 3H328C337.428 3 342.142 3 345.071 5.92893C348 8.85786 348 13.5719 348 23V37C348 46.4281 348 51.1421 345.071 54.0711C342.142 57 337.428 57 328 57H23C13.5719 57 8.85786 57 5.92893 54.0711C3 51.1421 3 46.4281 3 37V23Z" fill="white"/>
<rect x="50.5" y="3" width="250" height="54" rx="10" fill="white"/>
<rect width="24" height="24" transform="translate(65.5 18)" fill="white"/>
<path fill-rule="evenodd" clip-rule="evenodd" d="M88.54 30.2615C88.54 29.446 88.4668 28.6619 88.3309 27.9092H77.5V32.3576H83.6891C83.4225 33.7951 82.6123 35.013 81.3943 35.8285V38.714H85.1109C87.2855 36.7119 88.54 33.7637 88.54 30.2615Z" fill="#4285F4"/>
<path fill-rule="evenodd" clip-rule="evenodd" d="M77.4995 41.4998C80.6045 41.4998 83.2077 40.47 85.1104 38.7137L81.3938 35.8282C80.364 36.5182 79.0467 36.9259 77.4995 36.9259C74.5042 36.9259 71.969 34.903 71.0647 32.1848H67.2227V35.1644C69.1149 38.9228 73.004 41.4998 77.4995 41.4998Z" fill="#34A853"/>
<path fill-rule="evenodd" clip-rule="evenodd" d="M71.0652 32.185C70.8352 31.495 70.7045 30.7579 70.7045 30C70.7045 29.242 70.8352 28.505 71.0652 27.815V24.8354H67.2232C66.4443 26.3879 66 28.1443 66 30C66 31.8557 66.4443 33.612 67.2232 35.1645L71.0652 32.185Z" fill="#FBBC05"/>
<path fill-rule="evenodd" clip-rule="evenodd" d="M77.4995 23.0739C79.1879 23.0739 80.7038 23.6541 81.8956 24.7936L85.194 21.4952C83.2024 19.6395 80.5992 18.5 77.4995 18.5C73.004 18.5 69.1149 21.077 67.2227 24.8355L71.0647 27.815C71.969 25.0968 74.5042 23.0739 77.4995 23.0739Z" fill="#EA4335"/>
<path d="M113.426 32.3379C113.426 32.0449 113.38 31.7845 113.289 31.5566C113.204 31.3288 113.051 31.1204 112.83 30.9316C112.609 30.7428 112.296 30.5605 111.893 30.3848C111.495 30.2025 110.988 30.0169 110.369 29.8281C109.692 29.6198 109.067 29.3887 108.494 29.1348C107.928 28.8743 107.433 28.5749 107.01 28.2363C106.587 27.8913 106.258 27.4974 106.023 27.0547C105.789 26.6055 105.672 26.0879 105.672 25.502C105.672 24.9225 105.792 24.3952 106.033 23.9199C106.281 23.4447 106.629 23.0345 107.078 22.6895C107.534 22.3379 108.071 22.0677 108.689 21.8789C109.308 21.6836 109.992 21.5859 110.74 21.5859C111.795 21.5859 112.703 21.7812 113.465 22.1719C114.233 22.5625 114.822 23.0866 115.232 23.7441C115.649 24.4017 115.857 25.1276 115.857 25.9219H113.426C113.426 25.4531 113.325 25.0397 113.123 24.6816C112.928 24.3171 112.628 24.0306 112.225 23.8223C111.827 23.6139 111.323 23.5098 110.711 23.5098C110.132 23.5098 109.65 23.5977 109.266 23.7734C108.882 23.9492 108.595 24.1868 108.406 24.4863C108.217 24.7858 108.123 25.1243 108.123 25.502C108.123 25.7689 108.185 26.013 108.309 26.2344C108.432 26.4492 108.621 26.651 108.875 26.8398C109.129 27.0221 109.448 27.1947 109.832 27.3574C110.216 27.5202 110.669 27.6764 111.189 27.8262C111.977 28.0605 112.664 28.321 113.25 28.6074C113.836 28.8874 114.324 29.2064 114.715 29.5645C115.105 29.9225 115.398 30.3294 115.594 30.7852C115.789 31.2344 115.887 31.7454 115.887 32.3184C115.887 32.9173 115.766 33.4577 115.525 33.9395C115.285 34.4147 114.939 34.8216 114.49 35.1602C114.048 35.4922 113.514 35.7493 112.889 35.9316C112.27 36.1074 111.58 36.1953 110.818 36.1953C110.135 36.1953 109.461 36.1042 108.797 35.9219C108.139 35.7396 107.54 35.4629 107 35.0918C106.46 34.7142 106.03 34.2454 105.711 33.6855C105.392 33.1191 105.232 32.4583 105.232 31.7031H107.684C107.684 32.1654 107.762 32.5592 107.918 32.8848C108.081 33.2103 108.305 33.4772 108.592 33.6855C108.878 33.8874 109.21 34.0371 109.588 34.1348C109.972 34.2324 110.382 34.2812 110.818 34.2812C111.391 34.2812 111.87 34.1999 112.254 34.0371C112.645 33.8743 112.938 33.6465 113.133 33.3535C113.328 33.0605 113.426 32.722 113.426 32.3379ZM120.34 25.4336V36H117.977V25.4336H120.34ZM117.82 22.6602C117.82 22.3021 117.938 22.0059 118.172 21.7715C118.413 21.5306 118.745 21.4102 119.168 21.4102C119.585 21.4102 119.913 21.5306 120.154 21.7715C120.395 22.0059 120.516 22.3021 120.516 22.6602C120.516 23.0117 120.395 23.3047 120.154 23.5391C119.913 23.7734 119.585 23.8906 119.168 23.8906C118.745 23.8906 118.413 23.7734 118.172 23.5391C117.938 23.3047 117.82 23.0117 117.82 22.6602ZM129.686 25.4336H131.824V35.707C131.824 36.6576 131.622 37.4648 131.219 38.1289C130.815 38.793 130.252 39.2975 129.529 39.6426C128.807 39.9941 127.97 40.1699 127.02 40.1699C126.616 40.1699 126.167 40.1113 125.672 39.9941C125.184 39.877 124.708 39.6882 124.246 39.4277C123.79 39.1738 123.41 38.8385 123.104 38.4219L124.207 37.0352C124.585 37.4844 125.001 37.8132 125.457 38.0215C125.913 38.2298 126.391 38.334 126.893 38.334C127.433 38.334 127.892 38.2331 128.27 38.0312C128.654 37.8359 128.95 37.5462 129.158 37.1621C129.367 36.778 129.471 36.3092 129.471 35.7559V27.8262L129.686 25.4336ZM122.508 30.834V30.6289C122.508 29.8281 122.605 29.099 122.801 28.4414C122.996 27.7773 123.276 27.2077 123.641 26.7324C124.005 26.2507 124.448 25.8828 124.969 25.6289C125.49 25.3685 126.079 25.2383 126.736 25.2383C127.42 25.2383 128.003 25.362 128.484 25.6094C128.973 25.8568 129.38 26.2116 129.705 26.6738C130.031 27.1296 130.285 27.6764 130.467 28.3145C130.656 28.946 130.796 29.6491 130.887 30.4238V31.0781C130.802 31.8333 130.659 32.5234 130.457 33.1484C130.255 33.7734 129.988 34.3138 129.656 34.7695C129.324 35.2253 128.914 35.5768 128.426 35.8242C127.944 36.0716 127.374 36.1953 126.717 36.1953C126.072 36.1953 125.49 36.0618 124.969 35.7949C124.454 35.528 124.012 35.1536 123.641 34.6719C123.276 34.1901 122.996 33.6237 122.801 32.9727C122.605 32.3151 122.508 31.6022 122.508 30.834ZM124.861 30.6289V30.834C124.861 31.3158 124.907 31.765 124.998 32.1816C125.096 32.5983 125.242 32.9661 125.438 33.2852C125.639 33.5977 125.893 33.8451 126.199 34.0273C126.512 34.2031 126.88 34.291 127.303 34.291C127.856 34.291 128.309 34.1738 128.66 33.9395C129.018 33.7051 129.292 33.3893 129.48 32.9922C129.676 32.5885 129.812 32.1393 129.891 31.6445V29.877C129.852 29.4928 129.77 29.1348 129.646 28.8027C129.529 28.4707 129.37 28.181 129.168 27.9336C128.966 27.6797 128.712 27.4844 128.406 27.3477C128.1 27.2044 127.739 27.1328 127.322 27.1328C126.899 27.1328 126.531 27.224 126.219 27.4062C125.906 27.5885 125.649 27.8392 125.447 28.1582C125.252 28.4772 125.105 28.8483 125.008 29.2715C124.91 29.6947 124.861 30.1471 124.861 30.6289ZM136.6 27.6895V36H134.246V25.4336H136.463L136.6 27.6895ZM136.18 30.3262L135.418 30.3164C135.424 29.5677 135.529 28.8809 135.73 28.2559C135.939 27.6309 136.225 27.0938 136.59 26.6445C136.961 26.1953 137.404 25.8503 137.918 25.6094C138.432 25.362 139.005 25.2383 139.637 25.2383C140.145 25.2383 140.604 25.3099 141.014 25.4531C141.43 25.5898 141.785 25.8145 142.078 26.127C142.378 26.4395 142.605 26.8464 142.762 27.3477C142.918 27.8424 142.996 28.4512 142.996 29.1738V36H140.633V29.1641C140.633 28.6562 140.558 28.2559 140.408 27.9629C140.265 27.6634 140.053 27.4518 139.773 27.3281C139.5 27.1979 139.158 27.1328 138.748 27.1328C138.344 27.1328 137.983 27.2174 137.664 27.3867C137.345 27.556 137.075 27.7871 136.854 28.0801C136.639 28.373 136.473 28.7116 136.355 29.0957C136.238 29.4798 136.18 29.89 136.18 30.3262ZM158.592 21.7812H161.033V31.2832C161.033 32.3639 160.799 33.2689 160.33 33.998C159.861 34.7272 159.223 35.2773 158.416 35.6484C157.615 36.013 156.72 36.1953 155.73 36.1953C154.708 36.1953 153.797 36.013 152.996 35.6484C152.195 35.2773 151.564 34.7272 151.102 33.998C150.646 33.2689 150.418 32.3639 150.418 31.2832V21.7812H152.859V31.2832C152.859 31.9668 152.977 32.5299 153.211 32.9727C153.445 33.4089 153.777 33.7311 154.207 33.9395C154.637 34.1478 155.145 34.252 155.73 34.252C156.316 34.252 156.821 34.1478 157.244 33.9395C157.674 33.7311 158.006 33.4089 158.24 32.9727C158.475 32.5299 158.592 31.9668 158.592 31.2832V21.7812ZM165.828 27.4648V40.0625H163.475V25.4336H165.643L165.828 27.4648ZM172.713 30.6191V30.8242C172.713 31.5924 172.622 32.3053 172.439 32.9629C172.264 33.6139 172 34.1836 171.648 34.6719C171.303 35.1536 170.877 35.528 170.369 35.7949C169.861 36.0618 169.275 36.1953 168.611 36.1953C167.954 36.1953 167.378 36.0749 166.883 35.834C166.395 35.5866 165.981 35.2383 165.643 34.7891C165.304 34.3398 165.031 33.8125 164.822 33.207C164.62 32.5951 164.477 31.9245 164.393 31.1953V30.4043C164.477 29.6296 164.62 28.9264 164.822 28.2949C165.031 27.6634 165.304 27.1198 165.643 26.6641C165.981 26.2083 166.395 25.8568 166.883 25.6094C167.371 25.362 167.941 25.2383 168.592 25.2383C169.256 25.2383 169.845 25.3685 170.359 25.6289C170.874 25.8828 171.307 26.2474 171.658 26.7227C172.01 27.1914 172.273 27.7578 172.449 28.4219C172.625 29.0794 172.713 29.8118 172.713 30.6191ZM170.359 30.8242V30.6191C170.359 30.1309 170.314 29.6784 170.223 29.2617C170.132 28.8385 169.988 28.4674 169.793 28.1484C169.598 27.8294 169.347 27.582 169.041 27.4062C168.742 27.224 168.38 27.1328 167.957 27.1328C167.54 27.1328 167.182 27.2044 166.883 27.3477C166.583 27.4844 166.333 27.6764 166.131 27.9238C165.929 28.1712 165.773 28.4609 165.662 28.793C165.551 29.1185 165.473 29.4733 165.428 29.8574V31.752C165.506 32.2207 165.639 32.6504 165.828 33.041C166.017 33.4316 166.284 33.7441 166.629 33.9785C166.98 34.2064 167.43 34.3203 167.977 34.3203C168.4 34.3203 168.761 34.2292 169.061 34.0469C169.36 33.8646 169.604 33.6139 169.793 33.2949C169.988 32.9694 170.132 32.5951 170.223 32.1719C170.314 31.7487 170.359 31.2995 170.359 30.8242ZM182.566 33.6562L185.008 25.4336H186.512L186.102 27.8945L183.641 36H182.293L182.566 33.6562ZM181.131 25.4336L183.035 33.6953L183.191 36H181.688L178.826 25.4336H181.131ZM188.797 33.5977L190.643 25.4336H192.938L190.086 36H188.582L188.797 33.5977ZM186.766 25.4336L189.178 33.5586L189.48 36H188.133L185.643 27.8848L185.232 25.4336H186.766ZM197.059 25.4336V36H194.695V25.4336H197.059ZM194.539 22.6602C194.539 22.3021 194.656 22.0059 194.891 21.7715C195.132 21.5306 195.464 21.4102 195.887 21.4102C196.303 21.4102 196.632 21.5306 196.873 21.7715C197.114 22.0059 197.234 22.3021 197.234 22.6602C197.234 23.0117 197.114 23.3047 196.873 23.5391C196.632 23.7734 196.303 23.8906 195.887 23.8906C195.464 23.8906 195.132 23.7734 194.891 23.5391C194.656 23.3047 194.539 23.0117 194.539 22.6602ZM204.48 25.4336V27.1523H198.523V25.4336H204.48ZM200.242 22.8457H202.596V33.0801C202.596 33.4056 202.641 33.6562 202.732 33.832C202.83 34.0013 202.964 34.1152 203.133 34.1738C203.302 34.2324 203.501 34.2617 203.729 34.2617C203.891 34.2617 204.048 34.252 204.197 34.2324C204.347 34.2129 204.467 34.1934 204.559 34.1738L204.568 35.9707C204.373 36.0293 204.145 36.0814 203.885 36.127C203.631 36.1725 203.338 36.1953 203.006 36.1953C202.465 36.1953 201.987 36.1009 201.57 35.9121C201.154 35.7168 200.828 35.401 200.594 34.9648C200.359 34.5286 200.242 33.9492 200.242 33.2266V22.8457ZM208.621 21V36H206.277V21H208.621ZM208.211 30.3262L207.449 30.3164C207.456 29.5872 207.557 28.9134 207.752 28.2949C207.954 27.6764 208.234 27.1393 208.592 26.6836C208.956 26.2214 209.393 25.8665 209.9 25.6191C210.408 25.3652 210.971 25.2383 211.59 25.2383C212.111 25.2383 212.579 25.3099 212.996 25.4531C213.419 25.5964 213.784 25.8275 214.09 26.1465C214.396 26.459 214.627 26.8691 214.783 27.377C214.946 27.8783 215.027 28.4902 215.027 29.2129V36H212.664V29.1934C212.664 28.6855 212.589 28.2819 212.439 27.9824C212.296 27.6829 212.085 27.4681 211.805 27.3379C211.525 27.2012 211.183 27.1328 210.779 27.1328C210.356 27.1328 209.982 27.2174 209.656 27.3867C209.337 27.556 209.07 27.7871 208.855 28.0801C208.641 28.373 208.478 28.7116 208.367 29.0957C208.263 29.4798 208.211 29.89 208.211 30.3262ZM233.543 28.7344V34.1641C233.341 34.431 233.025 34.724 232.596 35.043C232.173 35.3555 231.609 35.6257 230.906 35.8535C230.203 36.0814 229.327 36.1953 228.279 36.1953C227.387 36.1953 226.57 36.0456 225.828 35.7461C225.086 35.4401 224.445 34.9941 223.904 34.4082C223.37 33.8223 222.957 33.1094 222.664 32.2695C222.371 31.4232 222.225 30.4596 222.225 29.3789V28.3926C222.225 27.3184 222.358 26.3613 222.625 25.5215C222.898 24.6751 223.289 23.959 223.797 23.373C224.305 22.7871 224.917 22.3444 225.633 22.0449C226.355 21.7389 227.173 21.5859 228.084 21.5859C229.249 21.5859 230.213 21.7812 230.975 22.1719C231.743 22.556 232.335 23.0898 232.752 23.7734C233.169 24.457 233.432 25.2383 233.543 26.1172H231.141C231.062 25.6224 230.91 25.1797 230.682 24.7891C230.46 24.3984 230.141 24.0924 229.725 23.8711C229.314 23.6432 228.781 23.5293 228.123 23.5293C227.557 23.5293 227.059 23.6367 226.629 23.8516C226.199 24.0664 225.841 24.3822 225.555 24.7988C225.275 25.2155 225.063 25.7233 224.92 26.3223C224.777 26.9212 224.705 27.6048 224.705 28.373V29.3789C224.705 30.1602 224.786 30.8535 224.949 31.459C225.118 32.0645 225.359 32.5755 225.672 32.9922C225.991 33.4089 226.378 33.7246 226.834 33.9395C227.29 34.1478 227.804 34.252 228.377 34.252C228.937 34.252 229.396 34.2064 229.754 34.1152C230.112 34.0176 230.395 33.9036 230.604 33.7734C230.818 33.6367 230.984 33.5065 231.102 33.3828V30.5605H228.143V28.7344H233.543ZM235.574 30.834V30.6094C235.574 29.8477 235.685 29.1413 235.906 28.4902C236.128 27.8327 236.447 27.263 236.863 26.7812C237.286 26.293 237.801 25.9154 238.406 25.6484C239.018 25.375 239.708 25.2383 240.477 25.2383C241.251 25.2383 241.941 25.375 242.547 25.6484C243.159 25.9154 243.676 26.293 244.1 26.7812C244.523 27.263 244.845 27.8327 245.066 28.4902C245.288 29.1413 245.398 29.8477 245.398 30.6094V30.834C245.398 31.5957 245.288 32.3021 245.066 32.9531C244.845 33.6042 244.523 34.1738 244.1 34.6621C243.676 35.1439 243.162 35.5215 242.557 35.7949C241.951 36.0618 241.264 36.1953 240.496 36.1953C239.721 36.1953 239.028 36.0618 238.416 35.7949C237.811 35.5215 237.296 35.1439 236.873 34.6621C236.45 34.1738 236.128 33.6042 235.906 32.9531C235.685 32.3021 235.574 31.5957 235.574 30.834ZM237.928 30.6094V30.834C237.928 31.3092 237.977 31.7585 238.074 32.1816C238.172 32.6048 238.325 32.9759 238.533 33.2949C238.742 33.6139 239.008 33.8646 239.334 34.0469C239.66 34.2292 240.047 34.3203 240.496 34.3203C240.932 34.3203 241.31 34.2292 241.629 34.0469C241.954 33.8646 242.221 33.6139 242.43 33.2949C242.638 32.9759 242.791 32.6048 242.889 32.1816C242.993 31.7585 243.045 31.3092 243.045 30.834V30.6094C243.045 30.1406 242.993 29.6979 242.889 29.2812C242.791 28.8581 242.635 28.4837 242.42 28.1582C242.212 27.8327 241.945 27.5788 241.619 27.3965C241.3 27.2077 240.919 27.1133 240.477 27.1133C240.034 27.1133 239.65 27.2077 239.324 27.3965C239.005 27.5788 238.742 27.8327 238.533 28.1582C238.325 28.4837 238.172 28.8581 238.074 29.2812C237.977 29.6979 237.928 30.1406 237.928 30.6094ZM246.922 30.834V30.6094C246.922 29.8477 247.033 29.1413 247.254 28.4902C247.475 27.8327 247.794 27.263 248.211 26.7812C248.634 26.293 249.148 25.9154 249.754 25.6484C250.366 25.375 251.056 25.2383 251.824 25.2383C252.599 25.2383 253.289 25.375 253.895 25.6484C254.507 25.9154 255.024 26.293 255.447 26.7812C255.87 27.263 256.193 27.8327 256.414 28.4902C256.635 29.1413 256.746 29.8477 256.746 30.6094V30.834C256.746 31.5957 256.635 32.3021 256.414 32.9531C256.193 33.6042 255.87 34.1738 255.447 34.6621C255.024 35.1439 254.51 35.5215 253.904 35.7949C253.299 36.0618 252.612 36.1953 251.844 36.1953C251.069 36.1953 250.376 36.0618 249.764 35.7949C249.158 35.5215 248.644 35.1439 248.221 34.6621C247.798 34.1738 247.475 33.6042 247.254 32.9531C247.033 32.3021 246.922 31.5957 246.922 30.834ZM249.275 30.6094V30.834C249.275 31.3092 249.324 31.7585 249.422 32.1816C249.52 32.6048 249.673 32.9759 249.881 33.2949C250.089 33.6139 250.356 33.8646 250.682 34.0469C251.007 34.2292 251.395 34.3203 251.844 34.3203C252.28 34.3203 252.658 34.2292 252.977 34.0469C253.302 33.8646 253.569 33.6139 253.777 33.2949C253.986 32.9759 254.139 32.6048 254.236 32.1816C254.34 31.7585 254.393 31.3092 254.393 30.834V30.6094C254.393 30.1406 254.34 29.6979 254.236 29.2812C254.139 28.8581 253.982 28.4837 253.768 28.1582C253.559 27.8327 253.292 27.5788 252.967 27.3965C252.648 27.2077 252.267 27.1133 251.824 27.1133C251.382 27.1133 250.997 27.2077 250.672 27.3965C250.353 27.5788 250.089 27.8327 249.881 28.1582C249.673 28.4837 249.52 28.8581 249.422 29.2812C249.324 29.6979 249.275 30.1406 249.275 30.6094ZM265.486 25.4336H267.625V35.707C267.625 36.6576 267.423 37.4648 267.02 38.1289C266.616 38.793 266.053 39.2975 265.33 39.6426C264.607 39.9941 263.771 40.1699 262.82 40.1699C262.417 40.1699 261.967 40.1113 261.473 39.9941C260.984 39.877 260.509 39.6882 260.047 39.4277C259.591 39.1738 259.21 38.8385 258.904 38.4219L260.008 37.0352C260.385 37.4844 260.802 37.8132 261.258 38.0215C261.714 38.2298 262.192 38.334 262.693 38.334C263.234 38.334 263.693 38.2331 264.07 38.0312C264.454 37.8359 264.751 37.5462 264.959 37.1621C265.167 36.778 265.271 36.3092 265.271 35.7559V27.8262L265.486 25.4336ZM258.309 30.834V30.6289C258.309 29.8281 258.406 29.099 258.602 28.4414C258.797 27.7773 259.077 27.2077 259.441 26.7324C259.806 26.2507 260.249 25.8828 260.77 25.6289C261.29 25.3685 261.88 25.2383 262.537 25.2383C263.221 25.2383 263.803 25.362 264.285 25.6094C264.773 25.8568 265.18 26.2116 265.506 26.6738C265.831 27.1296 266.085 27.6764 266.268 28.3145C266.456 28.946 266.596 29.6491 266.688 30.4238V31.0781C266.603 31.8333 266.46 32.5234 266.258 33.1484C266.056 33.7734 265.789 34.3138 265.457 34.7695C265.125 35.2253 264.715 35.5768 264.227 35.8242C263.745 36.0716 263.175 36.1953 262.518 36.1953C261.873 36.1953 261.29 36.0618 260.77 35.7949C260.255 35.528 259.812 35.1536 259.441 34.6719C259.077 34.1901 258.797 33.6237 258.602 32.9727C258.406 32.3151 258.309 31.6022 258.309 30.834ZM260.662 30.6289V30.834C260.662 31.3158 260.708 31.765 260.799 32.1816C260.896 32.5983 261.043 32.9661 261.238 33.2852C261.44 33.5977 261.694 33.8451 262 34.0273C262.312 34.2031 262.68 34.291 263.104 34.291C263.657 34.291 264.109 34.1738 264.461 33.9395C264.819 33.7051 265.092 33.3893 265.281 32.9922C265.477 32.5885 265.613 32.1393 265.691 31.6445V29.877C265.652 29.4928 265.571 29.1348 265.447 28.8027C265.33 28.4707 265.171 28.181 264.969 27.9336C264.767 27.6797 264.513 27.4844 264.207 27.3477C263.901 27.2044 263.54 27.1328 263.123 27.1328C262.7 27.1328 262.332 27.224 262.02 27.4062C261.707 27.5885 261.45 27.8392 261.248 28.1582C261.053 28.4772 260.906 28.8483 260.809 29.2715C260.711 29.6947 260.662 30.1471 260.662 30.6289ZM272.586 21V36H270.223V21H272.586ZM279.822 36.1953C279.041 36.1953 278.335 36.0684 277.703 35.8145C277.078 35.554 276.544 35.1927 276.102 34.7305C275.665 34.2682 275.33 33.7246 275.096 33.0996C274.861 32.4746 274.744 31.8008 274.744 31.0781V30.6875C274.744 29.8607 274.865 29.112 275.105 28.4414C275.346 27.7708 275.682 27.1979 276.111 26.7227C276.541 26.2409 277.049 25.873 277.635 25.6191C278.221 25.3652 278.855 25.2383 279.539 25.2383C280.294 25.2383 280.955 25.3652 281.521 25.6191C282.088 25.873 282.557 26.2311 282.928 26.6934C283.305 27.1491 283.585 27.6927 283.768 28.3242C283.956 28.9557 284.051 29.6523 284.051 30.4141V31.4199H275.887V29.7305H281.727V29.5449C281.714 29.1217 281.629 28.7246 281.473 28.3535C281.323 27.9824 281.092 27.6829 280.779 27.4551C280.467 27.2272 280.05 27.1133 279.529 27.1133C279.139 27.1133 278.79 27.1979 278.484 27.3672C278.185 27.5299 277.934 27.7676 277.732 28.0801C277.531 28.3926 277.374 28.7702 277.264 29.2129C277.16 29.6491 277.107 30.1406 277.107 30.6875V31.0781C277.107 31.5404 277.169 31.9701 277.293 32.3672C277.423 32.7578 277.612 33.0996 277.859 33.3926C278.107 33.6855 278.406 33.9167 278.758 34.0859C279.109 34.2487 279.51 34.3301 279.959 34.3301C280.525 34.3301 281.03 34.2161 281.473 33.9883C281.915 33.7604 282.299 33.4382 282.625 33.0215L283.865 34.2227C283.637 34.5547 283.341 34.8737 282.977 35.1797C282.612 35.4792 282.166 35.7233 281.639 35.9121C281.118 36.1009 280.512 36.1953 279.822 36.1953Z" fill="black" fill-opacity="0.54"/>
</g>
<defs>
<filter id="filter0_dd_1351_3046" x="0" y="0" width="351" height="62" filterUnits="userSpaceOnUse" color-interpolation-filters="sRGB">
<feFlood flood-opacity="0" result="BackgroundImageFix"/>
<feColorMatrix in="SourceAlpha" type="matrix" values="0 0 0 0 0 0 0 0 0 0 0 0 0 0 0 0 0 0 127 0" result="hardAlpha"/>
<feOffset dy="2"/>
<feGaussianBlur stdDeviation="1.5"/>
<feColorMatrix type="matrix" values="0 0 0 0 0 0 0 0 0 0 0 0 0 0 0 0 0 0 0.168 0"/>
<feBlend mode="normal" in2="BackgroundImageFix" result="effect1_dropShadow_1351_3046"/>
<feColorMatrix in="SourceAlpha" type="matrix" values="0 0 0 0 0 0 0 0 0 0 0 0 0 0 0 0 0 0 127 0" result="hardAlpha"/>
<feOffset/>
<feGaussianBlur stdDeviation="1.5"/>
<feColorMatrix type="matrix" values="0 0 0 0 0 0 0 0 0 0 0 0 0 0 0 0 0 0 0.084 0"/>
<feBlend mode="normal" in2="effect1_dropShadow_1351_3046" result="effect2_dropShadow_1351_3046"/>
<feBlend mode="normal" in="SourceGraphic" in2="effect2_dropShadow_1351_3046" result="shape"/>
</filter>
</defs>
</svg>
