<svg width="345" height="54" viewBox="0 0 345 54" fill="none" xmlns="http://www.w3.org/2000/svg">
<path d="M0 16C0 10.3995 0 7.59921 1.08993 5.46009C2.04867 3.57847 3.57847 2.04867 5.46009 1.08993C7.59921 0 10.3995 0 16 0H329C334.601 0 337.401 0 339.54 1.08993C341.422 2.04867 342.951 3.57847 343.91 5.46009C345 7.59921 345 10.3995 345 16V38C345 43.6005 345 46.4008 343.91 48.5399C342.951 50.4215 341.422 51.9513 339.54 52.9101C337.401 54 334.601 54 329 54H16C10.3995 54 7.59921 54 5.46009 52.9101C3.57847 51.9513 2.04867 50.4215 1.08993 48.5399C0 46.4008 0 43.6005 0 38V16Z" fill="#1877F2"/>
<rect x="28" width="290" height="54" rx="10" fill="#1877F2"/>
<rect width="24" height="24" transform="translate(43 15)" fill="#1877F2"/>
<path d="M66.5 27.0699C66.5 20.7186 61.3513 15.5699 55 15.5699C48.6487 15.5699 43.5 20.7186 43.5 27.0699C43.5 32.8099 47.7054 37.5674 53.2031 38.4302V30.3941H50.2832V27.0699H53.2031V24.5363C53.2031 21.6541 54.92 20.0621 57.5468 20.0621C58.805 20.0621 60.1211 20.2867 60.1211 20.2867V23.1168H58.671C57.2424 23.1168 56.7969 24.0032 56.7969 24.9127V27.0699H59.9863L59.4765 30.3941H56.7969V38.4302C62.2946 37.5674 66.5 32.8099 66.5 27.0699Z" fill="white"/>
<path d="M88.748 30.9199C89.4577 30.9199 90.0339 30.8418 90.4766 30.6855C91.3164 30.3861 91.7363 29.8294 91.7363 29.0156C91.7363 28.5404 91.528 28.1725 91.1113 27.9121C90.6947 27.6582 90.0404 27.4336 89.1484 27.2383L87.625 26.8965C86.1276 26.5579 85.0924 26.1901 84.5195 25.793C83.5495 25.1289 83.0645 24.0905 83.0645 22.6777C83.0645 21.3887 83.5332 20.3177 84.4707 19.4648C85.4082 18.612 86.7852 18.1855 88.6016 18.1855C90.1185 18.1855 91.4108 18.5892 92.4785 19.3965C93.5527 20.1973 94.1159 21.3626 94.168 22.8926H91.2773C91.2253 22.0267 90.8477 21.4115 90.1445 21.0469C89.6758 20.806 89.0931 20.6855 88.3965 20.6855C87.6217 20.6855 87.0033 20.8418 86.541 21.1543C86.0788 21.4668 85.8477 21.903 85.8477 22.4629C85.8477 22.9772 86.0755 23.3613 86.5312 23.6152C86.8242 23.7845 87.4492 23.9831 88.4062 24.2109L90.8867 24.8066C91.974 25.0671 92.7943 25.4154 93.3477 25.8516C94.207 26.5286 94.6367 27.5085 94.6367 28.791C94.6367 30.1061 94.1322 31.1999 93.123 32.0723C92.1204 32.9382 90.7012 33.3711 88.8652 33.3711C86.9902 33.3711 85.5156 32.9447 84.4414 32.0918C83.3672 31.2324 82.8301 30.054 82.8301 28.5566H85.7012C85.7923 29.2142 85.9714 29.7057 86.2383 30.0312C86.7266 30.6237 87.5632 30.9199 88.748 30.9199ZM99.5 22.3555V33H96.6777V22.3555H99.5ZM99.5 18.5176V21.0859H96.6777V18.5176H99.5ZM105.213 34.8652C105.512 35.1191 106.017 35.2461 106.727 35.2461C107.729 35.2461 108.4 34.9108 108.738 34.2402C108.96 33.8105 109.07 33.0879 109.07 32.0723V31.3887C108.803 31.8444 108.517 32.1862 108.211 32.4141C107.658 32.8372 106.938 33.0488 106.053 33.0488C104.686 33.0488 103.592 32.5703 102.771 31.6133C101.958 30.6497 101.551 29.3477 101.551 27.707C101.551 26.125 101.945 24.7969 102.732 23.7227C103.52 22.6419 104.637 22.1016 106.082 22.1016C106.616 22.1016 107.081 22.1829 107.479 22.3457C108.156 22.6257 108.702 23.14 109.119 23.8887V22.3555H111.824V32.4531C111.824 33.8268 111.593 34.862 111.131 35.5586C110.337 36.7565 108.813 37.3555 106.561 37.3555C105.2 37.3555 104.09 37.0885 103.23 36.5547C102.371 36.0208 101.896 35.2233 101.805 34.1621H104.832C104.91 34.4876 105.037 34.722 105.213 34.8652ZM104.744 29.3672C105.122 30.2656 105.799 30.7148 106.775 30.7148C107.426 30.7148 107.977 30.4707 108.426 29.9824C108.875 29.4876 109.1 28.7031 109.1 27.6289C109.1 26.6198 108.885 25.8516 108.455 25.3242C108.032 24.7969 107.462 24.5332 106.746 24.5332C105.77 24.5332 105.096 24.9922 104.725 25.9102C104.529 26.3984 104.432 27.0007 104.432 27.7168C104.432 28.3353 104.536 28.8854 104.744 29.3672ZM119.441 24.416C118.497 24.416 117.85 24.8164 117.498 25.6172C117.316 26.0404 117.225 26.5807 117.225 27.2383V33H114.451V22.375H117.137V23.9277C117.495 23.3809 117.833 22.987 118.152 22.7461C118.725 22.3164 119.451 22.1016 120.33 22.1016C121.43 22.1016 122.329 22.3913 123.025 22.9707C123.729 23.5436 124.08 24.4974 124.08 25.832V33H121.229V26.5254C121.229 25.9655 121.154 25.5358 121.004 25.2363C120.73 24.6895 120.21 24.416 119.441 24.416ZM140.965 27.4531V18.6055H144.021V27.4531C144.021 28.9831 143.784 30.1745 143.309 31.0273C142.423 32.5898 140.734 33.3711 138.24 33.3711C135.747 33.3711 134.054 32.5898 133.162 31.0273C132.687 30.1745 132.449 28.9831 132.449 27.4531V18.6055H135.506V27.4531C135.506 28.4427 135.623 29.1654 135.857 29.6211C136.222 30.4284 137.016 30.832 138.24 30.832C139.458 30.832 140.249 30.4284 140.613 29.6211C140.848 29.1654 140.965 28.4427 140.965 27.4531ZM155.594 23.498C156.453 24.416 156.883 25.7637 156.883 27.541C156.883 29.416 156.46 30.8451 155.613 31.8281C154.773 32.8112 153.689 33.3027 152.361 33.3027C151.515 33.3027 150.812 33.0911 150.252 32.668C149.946 32.4336 149.646 32.0918 149.354 31.6426V37.1895H146.6V22.3555H149.266V23.9277C149.565 23.4655 149.884 23.1009 150.223 22.834C150.841 22.3587 151.577 22.1211 152.43 22.1211C153.673 22.1211 154.728 22.5801 155.594 23.498ZM154.012 27.6777C154.012 26.8574 153.823 26.1315 153.445 25.5C153.074 24.8685 152.469 24.5527 151.629 24.5527C150.62 24.5527 149.926 25.0312 149.549 25.9883C149.354 26.4961 149.256 27.1406 149.256 27.9219C149.256 29.1589 149.585 30.028 150.242 30.5293C150.633 30.8223 151.095 30.9688 151.629 30.9688C152.404 30.9688 152.993 30.6693 153.396 30.0703C153.807 29.4714 154.012 28.6738 154.012 27.6777ZM172.547 33L170.877 25.2461L169.188 33H166.297L163.309 22.3555H166.297L167.957 29.9922L169.49 22.3555H172.312L173.934 30.0215L175.594 22.3555H178.494L175.408 33H172.547ZM182.898 22.3555V33H180.076V22.3555H182.898ZM182.898 18.5176V21.0859H180.076V18.5176H182.898ZM190.477 31.0176V33.0977L189.158 33.1465C187.843 33.1921 186.945 32.9642 186.463 32.4629C186.15 32.1439 185.994 31.6523 185.994 30.9883V24.4355H184.51V22.4531H185.994V19.4844H188.748V22.4531H190.477V24.4355H188.748V30.0605C188.748 30.4967 188.803 30.7702 188.914 30.8809C189.025 30.985 189.363 31.0371 189.93 31.0371C190.014 31.0371 190.102 31.0371 190.193 31.0371C190.291 31.0306 190.385 31.0241 190.477 31.0176ZM201.883 26.75V33H199.041V26.5254C199.041 25.9525 198.943 25.4902 198.748 25.1387C198.494 24.6439 198.012 24.3965 197.303 24.3965C196.567 24.3965 196.007 24.6439 195.623 25.1387C195.245 25.627 195.057 26.3268 195.057 27.2383V33H192.283V18.6543H195.057V23.7422C195.46 23.1237 195.926 22.694 196.453 22.4531C196.987 22.2057 197.547 22.082 198.133 22.082C198.79 22.082 199.386 22.196 199.92 22.4238C200.46 22.6517 200.903 23 201.248 23.4688C201.541 23.8659 201.72 24.276 201.785 24.6992C201.85 25.1159 201.883 25.7995 201.883 26.75ZM220.486 21.1543H213.27V24.4648H219.588V26.9648H213.27V33H210.281V18.625H220.486V21.1543ZM222.684 23.5078C223.419 22.5703 224.682 22.1016 226.473 22.1016C227.638 22.1016 228.673 22.3327 229.578 22.7949C230.483 23.2572 230.936 24.1296 230.936 25.4121V30.2949C230.936 30.6335 230.942 31.0436 230.955 31.5254C230.975 31.89 231.03 32.1374 231.121 32.2676C231.212 32.3978 231.349 32.5052 231.531 32.5898V33H228.504C228.419 32.7852 228.361 32.5833 228.328 32.3945C228.296 32.2057 228.27 31.9909 228.25 31.75C227.866 32.1667 227.423 32.5215 226.922 32.8145C226.323 33.1595 225.646 33.332 224.891 33.332C223.927 33.332 223.13 33.0586 222.498 32.5117C221.873 31.9583 221.561 31.1771 221.561 30.168C221.561 28.8594 222.065 27.9121 223.074 27.3262C223.628 27.0072 224.441 26.7793 225.516 26.6426L226.463 26.5254C226.977 26.4603 227.345 26.3789 227.566 26.2812C227.964 26.112 228.162 25.8483 228.162 25.4902C228.162 25.054 228.009 24.7546 227.703 24.5918C227.404 24.4225 226.961 24.3379 226.375 24.3379C225.717 24.3379 225.252 24.5007 224.979 24.8262C224.783 25.0671 224.653 25.3926 224.588 25.8027H221.902C221.961 24.8717 222.221 24.1068 222.684 23.5078ZM224.754 30.9883C225.014 31.2031 225.333 31.3105 225.711 31.3105C226.31 31.3105 226.86 31.1348 227.361 30.7832C227.869 30.4316 228.133 29.7904 228.152 28.8594V27.8242C227.977 27.9349 227.798 28.026 227.615 28.0977C227.439 28.1628 227.195 28.2246 226.883 28.2832L226.258 28.4004C225.672 28.5046 225.252 28.6315 224.998 28.7812C224.568 29.0352 224.354 29.429 224.354 29.9629C224.354 30.4382 224.487 30.7799 224.754 30.9883ZM242.625 26.1738H239.773C239.721 25.7767 239.588 25.4186 239.373 25.0996C239.061 24.6699 238.576 24.4551 237.918 24.4551C236.98 24.4551 236.339 24.9206 235.994 25.8516C235.812 26.3464 235.721 27.0039 235.721 27.8242C235.721 28.6055 235.812 29.2337 235.994 29.709C236.326 30.5944 236.951 31.0371 237.869 31.0371C238.52 31.0371 238.982 30.8613 239.256 30.5098C239.529 30.1582 239.695 29.7025 239.754 29.1426H242.596C242.531 29.9889 242.225 30.7897 241.678 31.5449C240.805 32.7624 239.513 33.3711 237.801 33.3711C236.089 33.3711 234.829 32.8633 234.021 31.8477C233.214 30.832 232.811 29.5137 232.811 27.8926C232.811 26.0632 233.257 24.6406 234.148 23.625C235.04 22.6094 236.271 22.1016 237.84 22.1016C239.174 22.1016 240.265 22.401 241.111 23C241.964 23.599 242.469 24.6569 242.625 26.1738ZM253.66 29.875C253.589 30.5065 253.26 31.1478 252.674 31.7988C251.762 32.834 250.486 33.3516 248.846 33.3516C247.492 33.3516 246.297 32.9154 245.262 32.043C244.227 31.1706 243.709 29.7513 243.709 27.7852C243.709 25.9427 244.174 24.5299 245.105 23.5469C246.043 22.5638 247.257 22.0723 248.748 22.0723C249.633 22.0723 250.431 22.2383 251.141 22.5703C251.85 22.9023 252.436 23.4264 252.898 24.1426C253.315 24.7741 253.585 25.5065 253.709 26.3398C253.781 26.8281 253.81 27.5312 253.797 28.4492H246.512C246.551 29.5169 246.886 30.2656 247.518 30.6953C247.902 30.9622 248.364 31.0957 248.904 31.0957C249.477 31.0957 249.943 30.9329 250.301 30.6074C250.496 30.4316 250.669 30.1875 250.818 29.875H253.66ZM250.906 26.6133C250.861 25.8776 250.636 25.321 250.232 24.9434C249.835 24.5592 249.34 24.3672 248.748 24.3672C248.104 24.3672 247.602 24.569 247.244 24.9727C246.893 25.3763 246.671 25.9232 246.58 26.6133H250.906ZM261.463 33.2832C260.584 33.2832 259.878 33.1074 259.344 32.7559C259.025 32.5475 258.68 32.1829 258.309 31.6621V33H255.584V18.625H258.357V23.7422C258.709 23.2474 259.096 22.8698 259.52 22.6094C260.021 22.2839 260.659 22.1211 261.434 22.1211C262.833 22.1211 263.927 22.6257 264.715 23.6348C265.509 24.6439 265.906 25.946 265.906 27.541C265.906 29.1947 265.516 30.5651 264.734 31.6523C263.953 32.7396 262.863 33.2832 261.463 33.2832ZM262.986 27.834C262.986 27.0788 262.889 26.4538 262.693 25.959C262.322 25.0215 261.639 24.5527 260.643 24.5527C259.633 24.5527 258.94 25.0117 258.562 25.9297C258.367 26.418 258.27 27.0495 258.27 27.8242C258.27 28.7357 258.471 29.4909 258.875 30.0898C259.279 30.6888 259.894 30.9883 260.721 30.9883C261.437 30.9883 261.993 30.6986 262.391 30.1191C262.788 29.5397 262.986 28.778 262.986 27.834ZM276.785 23.7031C277.684 24.8294 278.133 26.1608 278.133 27.6973C278.133 29.2598 277.684 30.5977 276.785 31.7109C275.887 32.8177 274.523 33.3711 272.693 33.3711C270.864 33.3711 269.5 32.8177 268.602 31.7109C267.703 30.5977 267.254 29.2598 267.254 27.6973C267.254 26.1608 267.703 24.8294 268.602 23.7031C269.5 22.5768 270.864 22.0137 272.693 22.0137C274.523 22.0137 275.887 22.5768 276.785 23.7031ZM272.684 24.3672C271.87 24.3672 271.242 24.6569 270.799 25.2363C270.363 25.8092 270.145 26.6296 270.145 27.6973C270.145 28.765 270.363 29.5885 270.799 30.168C271.242 30.7474 271.87 31.0371 272.684 31.0371C273.497 31.0371 274.122 30.7474 274.559 30.168C274.995 29.5885 275.213 28.765 275.213 27.6973C275.213 26.6296 274.995 25.8092 274.559 25.2363C274.122 24.6569 273.497 24.3672 272.684 24.3672ZM289.012 23.7031C289.91 24.8294 290.359 26.1608 290.359 27.6973C290.359 29.2598 289.91 30.5977 289.012 31.7109C288.113 32.8177 286.749 33.3711 284.92 33.3711C283.09 33.3711 281.727 32.8177 280.828 31.7109C279.93 30.5977 279.48 29.2598 279.48 27.6973C279.48 26.1608 279.93 24.8294 280.828 23.7031C281.727 22.5768 283.09 22.0137 284.92 22.0137C286.749 22.0137 288.113 22.5768 289.012 23.7031ZM284.91 24.3672C284.096 24.3672 283.468 24.6569 283.025 25.2363C282.589 25.8092 282.371 26.6296 282.371 27.6973C282.371 28.765 282.589 29.5885 283.025 30.168C283.468 30.7474 284.096 31.0371 284.91 31.0371C285.724 31.0371 286.349 30.7474 286.785 30.168C287.221 29.5885 287.439 28.765 287.439 27.6973C287.439 26.6296 287.221 25.8092 286.785 25.2363C286.349 24.6569 285.724 24.3672 284.91 24.3672ZM302.127 33H298.768L296.219 28.4492L295.066 29.6504V33H292.332V18.6543H295.066V26.4082L298.533 22.4043H301.98L298.26 26.4766L302.127 33Z" fill="white"/>
</svg>
