<svg width="1114" height="77" viewBox="0 0 1114 77" fill="none" xmlns="http://www.w3.org/2000/svg">
<path d="M30.3214 65.6804C46.6861 73.6665 69.9979 50.7351 69.9978 39.0716C72.9993 2.23508 24.6461 11.2715 11.9066 26.8967C-0.832853 42.5218 9.86559 55.6979 30.3214 65.6804Z" fill="#F8C02E"/>
<line x1="983.005" y1="38.5" x2="1075.01" y2="39.5" stroke="#D6D6D6"/>
<path d="M1085.38 12.0238C1069.25 3.58398 1054.38 23.9508 1048.96 35.1891C1043.13 66.356 1072.53 68.4669 1091.13 60.8561C1113.13 51.856 1105.55 22.5735 1085.38 12.0238Z" fill="#EB4436"/>
<line x1="70.1347" y1="38.8566" x2="114.974" y2="36.5719" stroke="#D6D6D6"/>
<line x1="214.884" y1="48.5138" x2="310.884" y2="25.5138" stroke="#D6D6D6"/>
<line x1="311.116" y1="25.5138" x2="407.116" y2="48.5138" stroke="#D6D6D6"/>
<line x1="790.884" y1="48.5138" x2="886.883" y2="25.5138" stroke="#D6D6D6"/>
<line x1="122.064" y1="36.5754" x2="215.065" y2="48.5041" stroke="#D6D6D6"/>
<line x1="406.884" y1="48.5138" x2="502.884" y2="25.5138" stroke="#D6D6D6"/>
<line x1="695.102" y1="28.5105" x2="791.102" y2="48.5105" stroke="#D6D6D6"/>
<line x1="887.067" y1="25.5045" x2="983.067" y2="38.5045" stroke="#D6D6D6"/>
<line x1="503.163" y1="25.5272" x2="599.163" y2="58.5272" stroke="#D6D6D6"/>
<line x1="598.851" y1="58.5228" x2="694.851" y2="28.5228" stroke="#D6D6D6"/>
<rect x="114.66" y="31.5" width="9" height="9" rx="4.5" fill="#FFE49F" stroke="#C8C8C8"/>
<rect x="306.66" y="21.5" width="9" height="9" rx="4.5" fill="#FFE49F" stroke="#C8C8C8"/>
<rect x="210.66" y="44.5" width="9" height="9" rx="4.5" fill="#FFE49F" stroke="#C8C8C8"/>
<rect x="498.66" y="21.5" width="9" height="9" rx="4.5" fill="#EAEAEA" stroke="#CCCCCC"/>
<rect x="690.66" y="24.5" width="9" height="9" rx="4.5" fill="#EAEAEA" stroke="#CCCCCC"/>
<rect x="882.66" y="21.5" width="9" height="9" rx="4.5" fill="#EAEAEA" stroke="#CCCCCC"/>
<rect x="594.66" y="54.5" width="9" height="9" rx="4.5" fill="#EAEAEA" stroke="#CCCCCC"/>
<rect x="402.66" y="44.5" width="9" height="9" rx="4.5" fill="#EAEAEA" stroke="#CCCCCC"/>
<rect x="786.66" y="44.5" width="9" height="9" rx="4.5" fill="#EAEAEA" stroke="#CCCCCC"/>
<rect x="978.66" y="34.5" width="9" height="9" rx="4.5" fill="#EAEAEA" stroke="#CCCCCC"/>
</svg>
