<svg width="586" height="385" viewBox="0 0 586 385" fill="none" xmlns="http://www.w3.org/2000/svg">
<path d="M246.261 361.116L246.102 361.427L245.701 363.382L245.808 364.375L245.5 365.013L243.882 365.917L243.133 365.877L240.818 365.151L237.26 365.219L231.039 362.891L229.769 363.039L228.793 363.51L227.709 363.776L226.117 363.215L225.93 362.734L223.495 359.098L221.556 357.251L219.522 356.051L206.331 352.669L204.164 353.82L202.907 355.983L201.489 357.88L198.773 358.233L194.92 359.943L187.268 365.681L183.121 367.174L173.395 366.113L171.696 366.712L168.057 369.019L160.071 372.376L156.164 373.122L151.936 373.2L147.963 372.366L144.953 370.521L139.147 363.863L138.25 362.33L137.555 360.414L136.645 356.936L135.16 352.984L134.692 350.958L134.063 350.525L125.3 340.39L122.358 339.061L121.274 339.514L120.351 340.489L119.361 341.256L118.131 341.079L116.993 340.193L116.913 339.602L117.181 338.805L117.127 337.328L117.314 337.141L117.274 335.151L117.046 333.26L116.685 333.447L117.274 332.462L118.317 331.162L119.227 329.703L119.36 328.245L117.38 326.284L107.08 323.957L105.956 320.752L107.147 314.211L109.394 307.369L113.983 298.231L111.04 293.04L106.451 288.05L103.977 283.676L104.673 281.464L108.084 277.365L109.008 274.155L108.862 272.276L111.309 272.422L117.469 273.671L119.021 272.72L119.891 274.107L121.811 276.435L122.633 278.074L122.613 279.059L122.292 280.337L122.152 281.762L122.633 283.187L124.238 284.316L125.978 284.692L127.362 285.82L127.937 289.194L128.539 290.935L136.767 305.613L139.663 309.608L140.619 311.484L142.098 313.448L147.054 310.586L151.315 307.727L154.365 303.845L155.856 303.184L158.325 300.614L160.131 298.011L161.655 295.277L162.144 293.833L161.917 291.301L161.977 290.698L164.211 288.195L165.776 286.375L170.277 283.648L171.28 281.911L171.321 281.228L171.38 280.684L171.561 280.402L172.002 280.139L176.196 278.683H176.966L177.327 279.109L177.408 280.456L177.287 281.407L177.267 282.01L177.408 282.456L178.19 282.704L178.953 283.099L183.829 281.436L186.785 279.337L188.03 277.793L188.311 277.525L188.612 277.347L190.478 276.931L196.123 276.871L199.22 277.822L199.561 278.02L200.323 278.223L201.126 278.193L202.25 277.901L206.872 275.881L208.758 274.158L207.072 273.187L206.31 272.157L209.28 270.259L213.661 268.896L214.062 268.44L215.447 267.31L215.728 266.903L215.888 266.19L216.089 265.625L216.491 265.258L217.112 264.921L219.801 265.297L228.363 269.51L229.888 269.372L245.654 257.64L247.159 258.111L249.125 258.107L250.296 257.898L253.025 256.816L257.767 253.372L261.339 251.029L261.74 250.473L262.221 249.51L262.2 248.894L262.02 248.248L261.739 247.618L261.398 247.057L261.197 246.634L261.217 246.371L261.458 246.083L261.899 245.686L266.12 243.008L269.451 242.825L280.501 244.986L281.604 245.965L284.714 247.365L288.173 247.742L288.353 247.861L288.394 248.219V248.716L288.514 249.332L288.935 249.66L289.597 249.869L290.36 249.839L297.109 248.418L300.206 247.286L306.165 243.859L307.537 242.651L309.564 241.315L310.909 239.923L311.571 238.959L312.112 237.865L312.774 233.649L313.557 230.635L314.079 229.102L314.848 227.49L317.317 224.325L318.721 224.106L319.785 224.628L320.087 225.131L320.308 225.976L320.248 227.618L319.967 229.996L319.526 232.085L318.602 235.208L318.482 236.133L318.642 237.246L319.003 238.439L320.368 241.938L322.341 245.087L327.458 247.928L323.665 253.171L321.511 254.63L318.542 254.997L317.398 255.359L316.977 255.801L316.917 256.257L317.077 256.635L317.117 257.012L317.037 257.429L316.374 258.718L315.832 260.087L315.511 261.327L315.632 262.765L315.672 263.529L315.676 263.604L310.18 264.818L306.662 266.781L303.906 269.775L302.822 272.208L303.317 273.02L304.174 273.689L304.227 275.631L303.451 277.384L302.167 278.963L300.682 280.126L297.016 282.027L290.648 290.636L287.973 292.545L282.354 293.831L279.558 295.156L277.029 297.786L275.732 299.654L275.183 301.264L275.638 302.005L278.661 304.702L282.487 312.266L282.849 319.273L280.039 325.456L274.381 330.483L272.976 330.966L270.301 331.262L269.003 332.286L268.08 334.247L267.799 336.433L267.786 338.57L267.103 343.994L266.862 344.377L265.605 347.211L265.511 347.625L263.893 349.779L262.969 350.565L261.725 350.959L252.547 353.083L250.68 354.62L249.274 357.376L248.922 360.991L246.261 361.116Z" fill="#EB4436" stroke="#FEFFFF" stroke-width="1.5" stroke-linecap="round" stroke-linejoin="round"/>
<path d="M360.082 329.026L359.424 328.778L358.622 329.163L356.615 330.986L355.691 331.518L353.417 331.4L347.384 327.793L344.882 326.906L343.625 326.246L335.451 313.877L331.772 310.008L328.2 308.162L324.815 306.77L322.434 304.755L321.016 301.683L320.508 297.018L320.949 292.094L323.049 282.174L323.49 276.654L323.423 270.868L322.888 266.537L321.108 263.899L317.39 263.23L315.675 263.609L315.671 263.533L315.63 262.77L315.51 261.331L315.831 260.092L316.373 258.723L317.035 257.433L317.116 257.016L317.076 256.639L316.915 256.262L316.975 255.805L317.397 255.364L318.54 255.002L321.51 254.634L323.664 253.175L327.457 247.933L331.717 244.277L332.018 243.278L332.52 242.021L333.523 238.96L333.844 238.498L334.285 238.081L335.248 237.797L336.74 237.712L348.084 240.371L353.469 237.98L357.784 240.013L367.77 240.952L375.402 239.586L381.971 236.892L383.215 235.947L383.496 235.311L383.416 234.684L383.135 234.088L382.994 233.223L383.195 232.258L384.138 230.905L385.041 230.388L386.044 229.989L387.294 229.701L388.358 228.646L389.08 228.596L389.462 228.925L389.602 229.939L389.964 230.895L390.606 231.969L395.007 232.417L395.65 232.69L396.552 233.257L398.017 233.883L399.723 235.559L400.044 236.007L400.144 236.608L399.883 237.349L398.919 239.213L398.478 240.351L398.117 241.742L397.896 242.945L397.635 245.23L397.435 246.264L397.234 247.029L397.134 247.62L397.937 251.319L398.278 252.341L398.659 253.225L400.043 255.617L401.448 257.721L402.358 258.138L402.639 257.969L403.22 257.731L405.166 257.443L406.652 260.311L406.692 261.456L406.632 263.009L406.371 265.111L406.592 266.717L407.073 268.06L407.716 269.364L407.816 270.147L407.515 270.984L407.094 272.842L406.552 274.408L406.692 280.202L406.23 281.529L404.244 285.35L404.023 286.641L404.123 287.912L404.344 289.109L404.123 290.039L403.602 291.285L402.538 292.591L402.478 293.368L402.678 294.317L403.721 296.997L405.066 299.739L405.147 300.451L405.187 301.405L404.806 303.86L405.047 304.868L405.468 305.871L406.492 307.585L407.354 308.375L409.488 309.895L412.197 313.276L413.321 314.406L416.277 316.646L416.304 316.656L416.361 316.677L416.291 316.814L406.886 323.324L404.492 327.001L403.984 329.465L404.264 333.761L403.849 336.105L402.819 337.887L401.588 338.626L398.752 339.542L395.434 342.17L394.872 344.335L397.174 350.966L392.919 354.987L392.638 355.459L392.544 355.951L392.638 356.433L392.919 356.914L394.31 358.359L395.381 361.817L396.558 363.605L397.815 364.342L400.638 364.921L401.856 365.717L403.328 368.869L402.833 372.098L399.609 378.525L395.475 383.722L391.582 382.977L387.341 381.046L383.367 382.286L382.218 382.644L382.699 379.722L383.475 377.466L383.996 375.111L383.783 371.824L383.06 369.34L381.977 366.856L379.729 362.76L378.459 359.724L377.616 358.516L376.746 357.818L369.321 353.739L367.341 353.021L365.121 352.874L365.334 352.363L365.829 351.448L368.104 346.097L371.809 341.482L373.722 337.012L370.431 332.56L368.478 331.86L364.504 331.958L362.431 331.662L361.441 330.972L360.492 329.189L360.082 329.026Z" fill="#EB4436" stroke="#FEFFFF" stroke-width="1.5" stroke-linecap="round" stroke-linejoin="round"/>
<path d="M424.265 305.552L423.089 307.488L421.591 308.92L420.039 309.67L418.634 310.737L417.912 312.632L417.31 314.833L416.364 316.67L416.307 316.649L416.28 316.639L413.324 314.399L412.2 313.269L409.491 309.888L407.357 308.368L406.494 307.578L405.471 305.864L405.049 304.861L404.809 303.853L405.19 301.398L405.15 300.444L405.069 299.732L403.724 296.99L402.681 294.31L402.481 293.36L402.54 292.584L403.604 291.278L404.126 290.032L404.347 289.102L404.126 287.905L404.026 286.634L404.247 285.343L406.233 281.521L406.695 280.195L406.554 274.401L407.096 272.835L407.518 270.977L407.819 270.14L407.718 269.357L407.076 268.053L406.595 266.71L406.374 265.104L406.635 263.002L406.695 261.449L406.655 260.304L405.169 257.436L403.223 257.724L402.642 257.962L402.361 258.13L401.451 257.714L400.046 255.61L398.662 253.218L398.28 252.334L397.94 251.312L397.137 247.613L397.237 247.022L397.438 246.257L397.638 245.223L397.899 242.938L398.119 241.735L398.481 240.344L398.922 239.205L399.886 237.342L400.147 236.601L400.047 235.999L399.725 235.552L398.02 233.876L396.555 233.25L395.652 232.683L395.01 232.41L390.609 231.962L389.966 230.888L389.605 229.932L389.464 228.917L389.083 228.589L388.361 228.639L387.297 229.694L386.046 229.982L385.043 230.381L384.141 230.898L383.197 232.251L382.997 233.216L383.137 234.081L383.418 234.677L383.499 235.304L383.218 235.94L381.973 236.885L375.405 239.579L367.773 240.945L357.786 240.006L353.472 237.973L353.853 235.363L353.572 233.787L352.889 231.45L352.568 230.838L352.047 230.46L351.465 230.166L351.024 229.833L350.635 229.231L350.375 228.45L350.215 227.355L350.315 226.29L351.225 223.27L352.168 221.074L352.389 220.079L352.449 219.317L352.349 218.814L352.329 218.187L352.791 217.38L353.674 216.588L355.781 215.627L357.086 215.338L358.356 214.6L361.366 210.584L362.65 209.189L364.917 208.371L366.85 209.084L367.372 209.139L369.318 208.69L369.759 208.381L370.2 207.733L370.08 205.978L370.12 205.718L370.26 205.299L371.304 203.464L372.487 201.938L372.674 200.322L372.588 198.032L372.955 197.558L373.919 197.318L374.822 196.959L375.684 196L377.149 195.172L378.554 193.275L381.25 193.404L382.595 193.908L383.216 194.023L383.457 194.537L383.758 195.82L384.26 196.179L385.484 196.149L392.634 193.883L395.57 192.465L397.416 190.693L398.359 189.419L399.002 188.04L399.383 187.081L399.744 186.297L400.106 185.703L400.266 185.038L400.246 183.554L400.347 182.845L400.647 182.385L401.51 181.956L402.78 181.676L404.928 181.876L406.172 182.326L407.115 183.025L407.697 183.865L408.761 184.264L410.052 183.894L414.467 180.791L416.339 180.376L418.788 180.341L419.851 179.861L420.534 179.411L422.741 176.287L426.34 172.987L428.387 175.457L428.849 175.587L429.531 175.582L430.093 175.257L447.43 177.848L450.079 179.217L451.524 180.342L452.447 180.447L452.855 180.267L453.237 178.677L454.862 178.127L456.568 175.042L456.929 173.997L457.07 172.996L457.01 172.076L457.411 169.774L458.073 168.273L458.956 166.621L459.618 165.79L460.829 164.824L461.19 164.018L461.671 162.211L462.274 161.525L463.036 161.054L464.019 160.784L463.297 159.272L459.35 152.403L457.912 149.17L456.929 145.915L456.909 145.158L459.825 146.04L464.172 146.782L467.732 147.389L470.394 146.522L472.815 147.179L479.597 146.316L481.764 146.652L506.219 154.552L506.005 156.762L506.553 157.243L507.356 157.177L507.851 157.779V158.921L507.316 160.774L506.995 165.32L506.58 167.407L506.794 169.223L508.44 171.614L511.65 174.135L525.496 178.71L530.5 183.583L533.416 185.312L539.008 187.15L540.806 187.22L541.683 187.254L545.028 186.281L550.673 183.338L551.997 181.364L552.345 179.885L552.453 178.255L553.068 175.806L555.035 172.409L557.135 172.009L559.65 172.685L562.874 172.53L562.941 168.913L565.202 164.469L568.466 160.633L572.225 158.424L572.934 158.279L573.656 158.424L574.339 158.88H574.352V158.91L575.69 160.382L578.392 164.838L582.793 168.421L583.944 169.832L584.639 173.099L583.034 179.673L583.342 183.802L582.659 190.026L582.191 191.763L581.429 192.991L578.606 196.475L578.846 199.349L579.77 202.158L580.091 204.815L578.526 207.253L576.332 208.694L575.81 210.458L575.931 212.656L575.65 215.391L574.406 217.668L573.002 219.037L572.386 220.87L573.47 224.554L575.81 227.341L581.322 227.948L584.024 230.276L585 233.986L584.907 238.952L583.877 243.717L583.085 245.062L582.071 246.787L579.73 247.249L570.46 244.751L565.951 245.188L564.292 244.91L562.834 244.219L562.018 243.334L561.335 242.366L560.319 241.442L554.98 239.563L554.405 237.475L555.114 233.523L554.86 231.35L552.799 229.619L549.468 229.649L537.214 233.265L535.97 233.966L535.408 235.388L533.816 241.661L532.746 243.131L529.95 245.992L528.839 247.701L528.666 249.081L528.639 253.3L528.077 255.344L528.237 257.121L528.545 258.515L529.174 259.591L530.298 260.375L528.01 264.352L530.044 266.95L533.843 268.466L539.635 269.615L541.87 270.537L542.82 272.668L541.844 276.848L540.907 278.136L538.191 280.631L537.215 282.492L536.559 285.085L536.479 286.837L537 288.45L538.178 290.587L543.516 296.154L545.175 299.564L543.476 303.22L539.864 305.552L534.405 307.675L530.125 307.586L530.018 303.27L528.707 300.019L523.597 295.373L521.697 292.743L520.854 288.549L520.801 284.76L519.944 281.642L516.707 279.463L514.045 278.756L511.53 278.562L505.885 279.558L497.269 284.091L494.581 284.987L492.922 284.621L489.765 282.671L488.374 282.636L486.969 284.265L486.715 286.452L486.915 288.624L486.862 290.132L484.881 292.94L482.447 293.949L467.611 293.771L464.601 292.644L461.858 290.735L460.213 288.41L457.631 281.502L456.48 280.531L453.617 278.903L452.68 277.962L452.426 276.888L452.613 273.965L451.837 255.562L451.422 254.356L450.406 254.589L448.319 256.167L447.436 257.392L446.981 258.756L446.352 259.907L444.948 260.483L443.971 260.047L440.667 256.822L440.573 254.446L438.004 253.746L431.703 254.54L429.229 256.892L426.981 261.515L425.964 266.216L427.208 268.809L428.934 270.032L429.188 271.955L428.854 274.373L428.867 277.111L430.606 283.908L430.78 286.372L429.977 290.586L426.192 298.694L424.265 305.552Z" fill="#EB4436" stroke="#FEFFFF" stroke-width="1.5" stroke-linecap="round" stroke-linejoin="round"/>
<path d="M342.559 29.1667L341.084 28.546L339.278 28.2316L332.991 29.3271L331.051 30.326L329.258 31.6392L327.345 32.6533L325.043 32.7549L322.368 31.1934L319.05 28.6016L318.408 28.5L316.374 27.7342L317.204 25.6084L316.882 23.9341L316.334 22.4975L316.481 21.0457L317.751 19.5583L321.029 17.7155L322.407 16.395L323.383 12.4635L323.985 11.031L325.738 8.38842L326.754 7.7685L328.199 7.80881L335.17 6.38597L337.123 5.36943L335.919 2.26739L337.979 1.05737L341.203 1.24037L343.597 2.34881L343.798 3.78294L343.919 6.3247L344.373 8.7133L345.644 9.6839L347.249 8.60608L347.918 4.3158L349.096 3.05499L350.768 3.62494L352.012 5.56209L353.029 7.83944L353.992 9.40497L355.329 9.71533L356.761 9.41061L358.032 9.66455L358.888 11.6517L358.54 12.3933L356.814 15.0504L356.385 16.3354L356.934 17.9404L357.964 19.2455L358.285 20.7434L358.539 22.0227L365.375 21.9211L364.318 20.7079L365.482 16.8545L368.96 17.0174L373.188 19.5406L376.533 22.7845L374.152 23.3528L374.165 24.7176L375.997 26.5943L372.059 24.4387L370.561 25.1086L369.417 24.5298H369.317L367.792 28.2945L367.492 28.5992L366.91 29.3094L366.388 29.6947L365.807 29.8673L365.258 29.8415L364.937 29.9326L364.556 30.2115L364.014 30.7895L363.412 31.2208L362.629 31.5303L357.345 31.3175L356.201 30.9217L355.299 30.3332L354.496 29.0547L353.954 27.9591L353.74 24.8337L354.155 21.8292L348.57 21.6769L347.486 22.8039L346.59 24.5596L344.375 26.6959L342.583 29.1361L342.559 29.1667ZM337.139 41.1944L338.301 42.6583L340.04 42.0602L340.321 41.5547L340.355 42.2423L338.689 46.7495L337.686 48.2731L337.244 48.319L336.783 48.1465L336.401 47.6653L336.074 47.113L335.672 46.6221L334.789 45.741L334.248 45.3919L334.369 43.9336L337.139 41.1944Z" fill="#EB4436" stroke="#FEFFFF" stroke-width="1.5" stroke-linecap="round" stroke-linejoin="round"/>
<path d="M375.997 26.5924L376.092 26.69L379.851 29.5663L383.022 30.4184L388.092 29.9266L392.801 28.3845L394.861 26.0918L397.309 25.097L411.744 26.7609H418.901L420.654 29.5663L425.496 29.5615L430.527 30.7529L466.027 53.4055L466.75 56.8622L466.72 56.8719L456.446 60.3061L455.282 60.7559L454.66 60.8768L454.179 60.826L452.895 60.1384L452.774 59.845L452.633 59.5918L453.215 57.7812L451.904 56.8913L445.303 61.9885L444.413 63.8031L443.57 63.4742L442.446 62.5238L439.557 58.6962L439.257 57.7708L439.678 56.7139L439.738 55.9908V55.1919L438.534 53.229L436.701 53.2894L436.059 53.4918L435.457 53.7755L434.814 54.3979L434.433 54.5494L433.369 54.6155L432.627 54.7776L431.824 55.0815L431.322 55.466L430.92 55.9819L430.593 56.1843L430.372 56.1738L430.091 56.0223L429.85 56.1133L429.629 56.3665L429.649 56.8727L430.13 57.1968L431.502 57.3991L432.305 57.2371L433.007 56.9437L433.569 56.959L433.971 57.0856L434.633 60.0191L434.151 61.5306L433.851 62.132L433.369 62.8906L432.667 63.4162L431.784 63.7096L430.7 63.4468L429.951 63.5073L428.767 64.1796L428.266 64.5891L425.978 64.2659L420.934 63.1131L416.7 61.03L414.766 58.6833L413.602 60.8478L413 61.5959L411.977 62.2029L409.829 62.5464L408.217 62.5617L406.591 62.1118H406.089L404.946 62.3037L404.565 62.2029L404.264 61.8644L404.003 61.3742L403.662 61.0098L403.24 60.9292L401.006 61.2936L400.223 61.263L399.2 60.8785L398.738 61.0098L397.654 62.1933L397.112 62.3956L396.41 62.5472L395.627 62.8608L395.206 63.7201L395.326 64.7108L395.607 65.3477L399.2 67.9757V68.673L399.38 70.6634L399.32 71.3204L399.08 71.8105L398.618 72.1185L397.715 72.2096L397.013 72.3966L396.37 72.6747L395.768 73.0383L395.266 73.1697L394.825 73.16L394.337 72.9682L393.755 73.1802L393.274 73.8872L391.829 77.2496L390.564 78.774L388.778 82.0896L387.715 83.548L386.404 83.639L381.246 78.0476L382.23 76.6845L382.511 76.0436L382.751 75.1705L382.932 73.7969L383.694 72.8779V72.6054L382.651 72.0097L381.367 70.7166L380.745 66.7149L379.475 65.8814L379.194 65.3203L378.893 64.1828L378.933 63.5508L379.033 63.1969L379.254 62.9647L379.836 62.5504L380.104 62.2271L380.344 61.7217V61.3476V61.0945L380.264 60.8414L380.204 60.477L380.264 60.007L381.006 55.8852L381.066 55.2983L380.725 54.651L379.816 53.9021L375.982 52.3027L374.678 51.5337L373.916 50.6227L373.414 48.8565L374.016 47.5449L374.256 47.2006L373.554 46.168L372.832 45.3578L364.591 41.2046L363.026 40.6773L361.862 39.2134L361.421 38.5088L361.381 38.0832L361.662 37.6575L362.445 36.9933L363.368 36.6587L364.291 36.8054L366.164 37.7833L366.867 38.5435L367.448 39.0046L367.99 39.1062H368.412L369.214 37.5761L370.338 36.2887L371.322 34.3322L371.863 33.4906L372.084 32.5168L371.883 31.7058L370.419 29.9613L369.917 27.3542L367.79 28.2974L369.315 24.5327H369.415L370.558 25.1116L372.056 24.4417L375.997 26.5924Z" fill="#EB4436" stroke="#FEFFFF" stroke-width="1.5" stroke-linecap="round" stroke-linejoin="round"/>
<path d="M340.321 41.5546L340.883 40.5453L341.03 39.0757L340.963 37.6819L341.123 36.3437L341.07 35.6697L340.762 34.9039L340.548 34.0115L340.842 32.9264L341.31 32.5105L341.993 32.2469L342.555 32.2267L342.676 32.5411L342.756 33.7479L343.599 34.184L344.334 29.5342L343.157 29.4173L342.558 29.1658L342.582 29.1335L344.374 26.6934L346.588 24.5571L347.485 22.8013L348.568 21.6743L354.154 21.8267L353.738 24.8312L353.952 27.9566L354.494 29.0521L355.297 30.3307L356.2 30.9192L357.343 31.315L362.628 31.5278L363.411 31.2182L364.013 30.7869L364.554 30.2089L364.935 29.93L365.257 29.8389L365.805 29.8647L366.387 29.6922L366.908 29.3069L367.49 28.5967L367.791 28.2919L369.918 27.3487L370.42 29.9558L371.884 31.7003L372.085 32.5113L371.864 33.4851L371.322 34.3267L370.341 36.284L369.218 37.5714L368.415 39.1015H367.994L367.451 38.9999L366.87 38.5388L366.167 37.7786L364.295 36.8008L363.371 36.654L362.448 36.9886L361.665 37.6529L361.384 38.0785L361.424 38.5041L361.865 39.2087L363.03 40.6727L364.594 41.1999L372.835 45.3531L373.557 46.1633L374.26 47.196L374.019 47.5402L373.417 48.8518L373.919 50.618L374.681 51.529L375.986 52.298L379.819 53.8974L380.729 54.6463L381.07 55.2936L381.01 55.8805L380.267 60.0023L380.207 60.4723L380.267 60.8367L380.348 61.0898V61.3429V61.717L380.107 62.2224L379.839 62.5457L379.258 62.9601L379.037 63.1922L378.936 63.5461L378.896 64.1781L379.197 65.3156L379.478 65.8767L380.748 66.7102L381.37 70.7119L382.654 72.005L383.698 72.6007V72.8732L382.935 73.7922L382.755 75.1658L382.514 76.0389L382.233 76.6798L381.25 78.043L386.407 83.6344L386.969 84.4816L390.046 90.1657L390.788 94.3343L391.17 95.866L390.769 96.6221L389.966 97.5992L388.301 99.08L387.337 100.4L386.608 101.609L386.708 103.216L386.106 104.137L384.902 105.255L377.27 108.884L375.584 109.035L370.259 108.275L367.871 110.198L366.085 114.705L360.48 115.878L355.436 119.186L354.152 120.368L353.39 121.298L353.189 121.906L353.089 122.419L353.109 122.936L353.249 123.333L353.992 124.393L354.192 125.448L351.303 125.835L347.483 124.121L346.52 123.363L345.998 122.548L345.677 121.825L344.192 119.97L341.998 118.024L339.61 115.338L334.526 114.473L330.853 115.213L328.439 116.082L327.094 116.092L325.569 115.831L320.425 114.095L319.563 113.527L319.222 112.742L319.061 111.917L318.459 109.849L315.549 103.517L315.228 101.941L315.59 101.86L315.991 101.851L316.332 101.81L317.195 101.448L319.422 100.038L321.837 96.8438L323.021 94.7172L323.402 92.8421L319.563 94.082L318.038 92.3883L317.757 91.6418L317.637 91.0065L317.677 90.3713L317.938 88.2632L317.958 87.0379L317.376 86.3366L314.848 85.0153L314.099 84.3897L313.718 83.956L313.979 82.8967L317.417 79.2933L317.959 77.6778L317.638 76.9506L315.871 74.5572L314.908 71.5374L312.052 65.2971L311.369 62.5828L311.429 60.5803L312.072 56.868L314.239 53.3065L317.035 50.4012L320.004 45.47L320.229 44.2777L323.823 43.657L323.984 42.7251L325.495 39.3715L329.455 36.6855L333.335 36.28L335.328 38.1954L336.866 40.8508L337.135 41.1902L334.365 43.9311L334.244 45.3894L334.785 45.7384L335.668 46.6196L336.07 47.1105L336.398 47.6627L336.779 48.144L337.24 48.3165L337.682 48.2705L338.685 46.7469L340.351 42.2398L340.321 41.5546Z" fill="#EB4436" stroke="#FEFFFF" stroke-width="1.5" stroke-linecap="round" stroke-linejoin="round"/>
<path d="M230.43 50.2958L235.532 49.2107L237.966 47.7935L240.027 45.2671L242.381 41.4935L244.2 42.4456L252.548 42.9623L253.338 43.8031L253.752 45.6411L254.006 47.4791L254.354 48.3095H271.197L277.016 46.9729L278.274 46.0966L278.85 45.2461L279.371 44.2538L280.468 42.9623L281.525 42.1215L284.335 40.5665L286.702 39.8417L287.585 38.884L288.228 37.9263L288.897 37.4806L295.88 36.2746L298.221 36.2649L301.579 37.3193L303.078 37.4814L303.773 38.3326L304.469 40.2231L305.379 42.1126L306.65 42.9639L311.559 44.3013L319.84 44.3521L320.232 44.2844L320.007 45.4767L317.038 50.4078L314.242 53.3132L312.075 56.8747L311.432 60.587L311.372 62.5894L312.055 65.3037L314.911 71.5441L315.874 74.5639L317.641 76.9573L317.962 77.6844L317.42 79.3L313.982 82.9034L313.721 83.9627L314.102 84.3964L314.851 85.0219L317.379 86.3432L317.961 87.0446L317.941 88.2699L317.68 90.378L317.64 91.0132L317.76 91.6484L318.041 92.3949L319.566 94.0886L323.405 92.8488L323.024 94.7239L321.84 96.8505L319.425 100.044L317.198 101.454L316.335 101.817L315.994 101.857L315.593 101.867L315.231 101.948L315.553 103.524L318.462 109.856L316.777 113.182L316.696 113.71L316.596 114.917L317.258 123.118L318.221 129.936H318.121L314.462 129.781L312.857 128.986L312.154 128.324L311.211 127.128L309.787 124.847L309.325 123.902L305.004 111.24L304.021 109.016L303.479 107.365L303.078 105.462L302.356 104.339L301.593 103.599L299.459 102.693L297.272 102.924L295.105 105.522L294.523 107.103L291.586 112.462L289.479 114.072L288.315 114.198L287.432 113.8L286.83 113.373L286.349 112.89L286.108 112.568L285.948 111.919L285.727 111.531V111.255L285.907 111.068L286.85 110.676L286.489 110.369L285.319 109.886L281.807 109.75L279.218 108.874L277.285 106.79L268.369 110.344L265.48 104.494L263.486 103.643L260.717 103.703L260.176 103.789L259.975 104.04L259.875 104.564L259.895 106.115L260.035 107.771L259.975 108.44L259.875 108.828L259.795 109.014L259.594 109.251L259.092 109.648L255.795 110.86L252.845 110.865L244.932 112.515L243.246 109.557L243.125 109.084L242.804 105.284L243.767 104.04L246.898 97.6727L247.279 97.1592L253.024 91.7669L253.967 91.9935L255.091 92.4425L263.345 93.7226L264.275 93.2188L265.318 92.5134L267.084 88.2836L268.548 86.0143L269.491 83.795L269.351 80.0859L267.725 79.6111L266.461 78.884L265.337 77.7836L264.735 76.8848L264.173 74.1834L263.303 73.6328L263.163 71.8754L263.284 71.4715L263.243 70.8347L263.022 70.2083L261.899 68.8137L259.892 68.4396L258.266 67.3384L258.145 66.9491L258.005 66.151L257.985 63.3762L254.025 62.9417L252.841 62.0421L252.379 60.5652L248.6 54.6723L247.998 53.3212L247.255 52.7344L246.232 51.2922L244.386 50.7408L243.603 50.8722L243.241 51.1704L243.081 51.9653L243.021 53.1898L242.921 53.8227L242.6 54.3644L239.342 57.3995L237.596 57.6575L237.235 56.9747L236.954 55.8622L236.873 54.7336L236.954 53.7872L236.473 53.3116L236.172 53.1092L235.57 53.0028L230.847 50.619L230.43 50.2958Z" fill="#EB4436" stroke="#FEFFFF" stroke-width="1.5" stroke-linecap="round" stroke-linejoin="round"/>
<path d="M212.14 43.5948L218.741 41.5642L221.671 41.2498L219.972 46.1576L218.594 47.5199L215.544 47.4925L215.209 47.4893L220.018 50.0955L219.998 53.3612L219.176 54.3633L217.871 53.5636L216.868 52.7341L216.126 51.8336L215.464 51.5498L214.781 51.7723L212.507 53.3411L211.202 52.2076L210.841 51.4789L209.576 51.337L208.352 51.0129L204.432 48.1834L203.703 47.7505L204.412 47.1556L207.516 45.3828L212.067 43.6222L212.14 43.5948Z" fill="#EB4436" stroke="#FEFFFF" stroke-width="1.5" stroke-linecap="round" stroke-linejoin="round"/>
<path d="M220.02 50.0955L221.9 51.1137L224.75 51.5031L230.429 50.2955L230.85 50.6179L235.573 53.0017L236.175 53.1081L236.475 53.3104L236.957 53.786L236.876 54.7325L236.957 55.8611L237.238 56.9735L237.599 57.6563L239.345 57.3984L242.603 54.3632L242.924 53.8215L243.024 53.1887L243.084 51.9642L243.244 51.1693L243.606 50.871L244.389 50.7396L246.235 51.291L247.258 52.7332L248.001 53.3201L248.603 54.6712L252.382 60.5641L252.844 62.0409L254.028 62.9406L257.988 63.3751L258.008 66.1498L258.148 66.9479L258.269 67.3373L259.895 68.4385L259.212 70.5352L258.59 71.7928L258.61 72.237L258.831 72.9746L259.212 73.7219L259.653 74.4491L259.734 75.3584L258.971 76.3733L256.523 78.2057L253.788 78.9828L252.122 79.1142L251.098 79.0336L250.456 79.2553L249.734 81.3246L249.312 82.2332L248.964 82.7177L245.794 84.1905L244.831 84.9475L242.143 85.7342L240.53 86.829L238.504 90.3841L238.042 91.7255L235.293 90.8984L234.524 90.5155L233.641 89.9302L232.678 88.75L231.414 87.802L228.685 86.3195L225.467 85.5222L220.912 85.9559L220.229 85.6738L219.801 85.149L219.079 82.6765L218.878 81.5359L218.738 80.0824L218.858 78.4572L220.063 78.1243L223.14 77.1956L223.721 76.8876L224.805 75.5092L225.207 73.8727L225.267 71.3978L225.387 70.7916L225.649 70.2918L226.01 69.9435L226.532 69.6098L227.053 69.1551L227.434 68.5586L228.023 67.376L228.625 66.5569L228.224 65.829L227.802 65.3235L222.277 61.8152L221.234 61.7394L221.214 62.5536L220.913 63.0494L220.392 63.4138L216.893 63.0398L215.829 63.2824L215.006 65.4807L216.993 66.4812L217.314 67.1736L217.394 67.6388L215.909 71.9581L214.324 73.63L211.386 73.884L210.683 74.1822L210.583 75.2883L210.723 76.0662L211.024 76.7022L210.843 77.0956L210.181 77.3076L206.469 77.6156L205.967 77.8324L205.478 78.2613L205.097 79.2609L204.636 80.1138L204.054 80.9917L203.111 81.6076L201.887 81.951L199.78 81.6181L197.566 80.3162L196.643 80.1445L194.876 80.5483L192.87 83.7673L191.465 83.7576L191.057 83.5254L190.616 83.1014L190.415 81.5471L189.512 80.0534L186.021 77.1609L193.292 76.8731L195.198 75.5301L195.279 74.8183L195.179 74.2475L193.995 72.1266L193.694 71.7477L193.394 71.6413L192.531 71.6509L192.21 71.58L191.848 71.368L191.548 71.0496L191.387 70.8529L190.758 69.8226L190.725 69.7807L191.44 68.8222L191.855 66.9931L191.641 65.8911L191.012 64.9761L190.584 64.5013L189.928 63.2929L189.915 62.0893L191.426 61.6346L193.433 62.3529L194.016 62.7342L194.176 67.064L194.617 68.6303L194.798 69.0649L195.078 69.5501L197.186 69.6009L205.4 67.8323L205.319 62.6463L205.098 62.0296L204.757 61.3525L203.714 61.13L201.225 60.1546L199.165 60.4101L199.051 59.9925L198.128 58.6624L197.847 57.8732L198.021 57.2557L198.77 56.8405L200.107 57.134L201.151 56.7801L201.712 55.6619L201.672 53.7038L201.231 53.7135L199.077 52.023L198.77 51.8916L203.706 47.748L204.435 48.1809L208.355 51.0105L209.579 51.3346L210.843 51.4765L211.205 52.2052L212.509 53.3386L214.784 51.7699L215.466 51.5474L216.129 51.8312L216.871 52.7316L217.874 53.5611L219.179 54.3608L220.001 53.3588L220.02 50.0955ZM179.898 73.4962L185.285 73.7324L186.537 73.2157L186.021 77.1609L180.617 74.3942L180.216 74.0557L179.898 73.4962Z" fill="#EB4436" stroke="#FEFFFF" stroke-width="1.5" stroke-linecap="round" stroke-linejoin="round"/>
<path d="M466.749 56.8624L466.994 58.0353L470.82 63.9411L475.635 66.1951L479.341 69.5406L479.233 77.8229L477.976 80.7911L472.959 87.2837L472.357 89.0339L471.688 92.4721L471.193 93.8127L466.778 99.2646L462.618 106.486L460.477 110.201L459.497 113.083L458.243 116.766L458.123 119.314L457.935 123.317L458.925 126.532L459.301 127.283L460.329 129.335L461.413 132.449L461.48 136.596L460.249 139.186L458.269 141.273L456.757 143.355L456.904 145.166L456.925 145.923L457.908 149.178L459.346 152.41L463.292 159.279L464.015 160.792L463.031 161.062L462.269 161.533L461.667 162.219L461.185 164.026L460.824 164.832L459.613 165.798L458.951 166.629L458.068 168.281L457.406 169.782L457.005 172.083L457.065 173.004L456.925 174.004L456.563 175.05L454.858 178.135L453.232 178.685L452.851 180.275L452.443 180.454L451.519 180.35L450.074 179.225L447.426 177.855L430.088 175.265L429.526 175.59L428.844 175.595L428.383 175.465L426.335 172.994L426.597 171.184L426.456 170.449L425.453 168.132L425.012 166.43L424.952 165.719L425.212 165.118L425.333 164.623L425.935 159.05L425.735 157.678L425.173 155.965L423.468 152.376L422.397 150.893L421.354 150.091L420.411 150.181L419.447 150.492L418.002 151.233L415.588 151.504L414.745 151.258L412.357 149.844L412.276 149.478L412.597 149.007L417.079 145.798L417.801 143.074L418.444 133.835L404.825 131.109L402.859 129.958L396.069 123.638L395.307 123.608L393.234 124.76L389.783 121.197L388.94 119.553L388.92 119.07L389.02 117.868L389.382 116.007L385.342 114.734L373.154 115.987L366.084 114.709L367.87 110.202L370.258 108.279L375.583 109.039L377.268 108.888L384.901 105.259L386.105 104.141L386.707 103.22L386.607 101.613L387.336 100.404L388.3 99.084L389.965 97.6032L390.767 96.6261L391.168 95.8699L390.787 94.3383L390.045 90.1697L386.968 84.4856L386.406 83.6384L387.716 83.5473L388.78 82.0889L390.566 78.7733L391.831 77.2489L393.276 73.8865L393.757 73.1795L394.339 72.9675L394.827 73.1593L395.268 73.169L395.77 73.0376L396.372 72.674L397.015 72.3959L397.717 72.2089L398.62 72.1178L399.082 71.8098L399.322 71.3197L399.382 70.6627L399.202 68.6723V67.975L395.609 65.347L395.328 64.7101L395.207 63.7194L395.629 62.8601L396.412 62.5465L397.114 62.3949L397.656 62.1926L398.74 61.0092L399.202 60.8777L400.225 61.2623L401.008 61.2929L403.242 60.9285L403.664 61.0092L404.005 61.3735L404.266 61.8637L404.566 62.2022L404.948 62.303L406.091 62.1111H406.593L408.219 62.561L409.831 62.5457L411.979 62.2022L413.002 61.5952L413.604 60.8471L414.768 58.6826L416.702 61.0293L420.936 63.1124L425.98 64.2652L428.267 64.5884L428.769 64.1789L429.953 63.5066L430.702 63.4461L431.786 63.7089L432.669 63.4155L433.371 62.8899L433.853 62.1313L434.153 61.5299L434.635 60.0184L433.972 57.0849L433.571 56.9583L433.009 56.943L432.306 57.2364L431.504 57.3984L430.132 57.1961L429.651 56.872L429.631 56.3658L429.852 56.1126L430.093 56.0215L430.374 56.1731L430.595 56.1836L430.922 55.9813L431.324 55.4653L431.826 55.0808L432.628 54.7769L433.371 54.6148L434.435 54.5487L434.816 54.3972L435.459 53.7748L436.061 53.4911L436.703 53.2887L438.536 53.2283L439.74 55.1912V55.9901L439.68 56.7132L439.258 57.7701L439.559 58.6955L442.448 62.5231L443.572 63.4735L444.415 63.8024L445.304 61.9878L451.906 56.8906L453.217 57.7806L452.635 59.5912L452.776 59.8443L452.896 60.1377L454.181 60.8253L454.662 60.8761L455.284 60.7552L456.448 60.3054L466.722 56.8712L466.749 56.8624ZM458.352 88.821L457.469 85.8754L458.152 80.966L461.65 79.5681L463.296 79.3053L465.122 80.259L470.647 76.741L470.426 74.9538L470.647 73.5148L470.928 73.0448L473.918 69.9936L468.641 69.0641L466.628 68.2459L466.226 67.9629L465.343 67.1745L464.962 66.9722L463.878 66.6989L463.597 66.5675L463.296 66.3603L462.775 66.4055L462.072 66.7997L459.357 69.3156L452.875 72.2959L451.785 72.7305L450.261 73.0843L449.578 74.2863L449.156 75.4778L448.936 76.508L448.153 77.4069L446.607 77.9018L443.751 77.8615L439.096 78.6588L433.25 79.8704L431.142 79.1635L430.213 79.1538L425.577 79.8704L424.413 79.6584L423.972 80.2235L423.303 81.3941L422.038 84.2704L421.055 86.0358L419.45 87.5893L419.249 87.9778L420.935 91.391L422.219 91.0686H422.781L423.222 91.3814L423.382 92.0472L422.82 93.1105L422.379 93.7812L421.536 94.6986L421.296 95.4798L421.215 96.714L422.118 101.086L420.613 102.92L421.577 104.093L422.118 104.425L423.302 104.782L429.75 105.648L433.729 107.903L435.074 108.95L435.436 108.93L435.897 108.961L438.072 108.372L439.777 109.645L440.901 110.108L441.804 110.702L442.947 110.944L443.769 110.984L447.428 109.555L449.957 108.222L451.823 106.838L453.615 104.783L456.144 99.9289L458.352 88.821Z" fill="#EB4436" stroke="#FEFFFF" stroke-width="1.5" stroke-linecap="round" stroke-linejoin="round"/>
<path d="M194.014 62.7352L195.117 63.4559L196.789 63.7091L198.769 61.8791L198.997 61.5502L199.17 60.994L199.184 60.4837L199.164 60.4103L201.224 60.1548L203.713 61.1302L204.756 61.3527L205.097 62.0299L205.318 62.6466L205.398 67.8325L197.185 69.6012L195.077 69.5504L194.796 69.0651L194.616 68.6306L194.175 67.0642L194.014 62.7352ZM186.536 73.2159L188.882 72.2477L190.722 69.7817L190.755 69.8237L191.384 70.8539L191.544 71.0506L191.845 71.369L192.206 71.581L192.528 71.652L193.39 71.6423L193.691 71.7487L193.991 72.1276L195.175 74.2486L195.275 74.8193L195.195 75.5311L193.288 76.8742L186.017 77.162L186.536 73.2159ZM208.635 95.2082L209.738 95.1172L209.919 94.5577L210.059 93.5299L209.959 92.6633L209.738 91.8716L209.377 91.3218L209.036 90.9236L208.052 90.6463L205.966 88.8663L204.755 86.7986L203.672 85.9868L202.608 85.6136L201.665 85.674L199.157 85.412L192.869 83.7675L194.876 80.5486L196.642 80.1447L197.566 80.3164L199.779 81.6183L201.887 81.9513L203.111 81.6078L204.054 80.9919L204.635 80.114L205.097 79.2612L205.478 78.2615L205.967 77.8327L206.469 77.6158L210.181 77.3079L210.843 77.0958L211.024 76.7025L210.723 76.0664L210.583 75.2885L210.683 74.1825L211.385 73.8842L214.322 73.6319L215.907 71.9599L217.393 67.6406L217.312 67.1755L216.991 66.483L215.004 65.4826L215.828 63.2842L216.891 63.0416L220.39 63.4156L220.912 63.0513L221.212 62.5555L221.232 61.7413L222.275 61.8171L227.8 65.3254L228.222 65.8308L228.624 66.5588L228.021 67.3778L227.433 68.5604L227.051 69.157L226.53 69.6116L226.008 69.9454L225.647 70.2936L225.385 70.7934L225.265 71.3997L225.205 73.8745L224.803 75.511L223.719 76.8895L223.138 77.1974L220.061 78.1261L218.857 78.459L218.736 80.0842L218.876 81.5377L219.077 82.6784L219.799 85.1508L220.227 85.6756L220.91 85.9578L225.465 85.5241L228.683 86.3213L231.412 87.8038L232.676 88.7519L233.639 89.932L234.522 90.5173L235.291 90.9002L238.04 91.7273L238.502 90.3859L240.528 86.8308L242.141 85.7361L244.83 84.9493L245.792 84.1923L248.963 82.7195L249.311 82.235L249.732 81.3265L250.454 79.2571L251.096 79.0354L252.12 79.1161L253.786 78.9846L256.521 78.2075L258.969 76.3752L259.732 75.3602L259.651 74.4509L259.21 73.7238L258.829 72.9765L258.608 72.2389L258.588 71.7947L259.21 70.5371L259.893 68.4403L261.9 68.8144L263.024 70.209L263.244 70.8354L263.285 71.4722L263.164 71.8761L263.304 73.6335L264.174 74.1841L264.736 76.8855L265.338 77.7843L266.462 78.8847L267.726 79.6118L269.352 80.0866L269.493 83.7957L268.549 86.015L267.085 88.2843L265.319 92.5141L264.276 93.2195L263.346 93.7233L255.092 92.4432L253.968 91.9942L253.025 91.7676L247.28 97.1599L246.899 97.6734L243.768 104.04L242.805 105.284L238.323 106.407L237.099 105.954L234.584 106.921L231.012 106.734L229.507 105.753L225.126 100.364L220.451 102.509L211.808 103.612L213.661 105.888L213.821 106.618L214.222 108.018L214.323 109.518L216.73 112.497L219.098 113.604L221.171 116.737L223.017 120.151L223.679 121.729L223.9 122.845L223.7 123.448L223.359 124.082L222.937 124.494L221.733 125.152L220.93 126.404L219.579 127.82L218.797 127.95L212.83 127.759L209.359 125.297L207.914 125.529L206.108 127.327L202.71 132.41L200.843 134.127L197.385 135.768L196.944 136.326L196.964 137.159L197.626 138.886L197.826 139.809L197.726 140.923L197.264 141.575L196.441 142.097L194.053 142.925L192.929 140.311L192.829 138.55L192.528 138.459L191.445 138.67L187.746 139.759L187.284 139.528L186.542 138.886L185.759 137.215L185.317 136.497L184.956 135.744L184.816 135.132L185.016 134.284L185.437 134.138L186.902 134.408L187.725 134.379L189.05 134.735L189.652 134.67L191.946 134.037L192.929 133.44L193.029 132.511L192.768 130.653L193.009 129.718L193.812 128.478L195.236 127.267H195.677L196.299 127.639L197.082 127.85L197.985 127.639L199.396 126.634L199.837 125.609L199.396 124.926L198.794 124.413L198.366 123.9L198.185 122.976L197.885 120.482L195.878 120.894L195.195 121.266L194.232 122.111L193.168 122.392L192.466 123.226L191.302 124.312L190.292 125.619L189.248 126.202L187.904 126.448L187.101 126.252L186.8 126.031L186.86 125.619L186.941 125.197L186.86 124.603L185.977 122.362L185.656 121.759L185.034 121.286L183.603 120.744L182.981 120.366L182.579 119.838L182.218 118.712L181.756 118.008L181.094 116.419L181.435 115.489L191.134 111.027L190.793 109.658L193.529 107.273L196.418 106.075L197.623 105.018L199.094 103.357L200.198 102.451L201.1 101.881L205.335 100.492L206.545 99.6307L207.307 98.694L208.291 95.696L208.635 95.2082Z" fill="#EB4436" stroke="#FEFFFF" stroke-width="1.5" stroke-linecap="round" stroke-linejoin="round"/>
<path d="M154.69 62.5855L156.176 62.829L159.694 62.4654L157.339 68.0149L158.075 71.208L160.884 72.9356L164.683 74.1577L165.218 74.597L165.58 75.2992L166.101 76.0062L167.105 76.4407L167.974 76.2593L172.87 74.0779L176.295 73.3403L179.899 73.4983L180.215 74.0577L180.616 74.3963L186.021 77.163L189.512 80.0554L190.415 81.5492L190.615 83.1034L191.056 83.5275L191.464 83.7596L192.869 83.7693L199.157 85.4138L201.665 85.6758L202.608 85.6154L203.672 85.9886L204.755 86.8004L205.966 88.8682L208.052 90.6481L205.945 92.6643L205.638 93.9598L205.745 94.5797L206.207 94.8925L208.635 95.2101L208.294 95.6938L200.561 97.9461L186.401 96.7772L185.137 96.2331L184.876 95.5172L184.414 94.5595L184.052 94.4184L183.745 94.7611L183.483 95.6075L183.002 96.2927L182.28 97.0086L181.237 97.4721L180.634 97.9155L180.092 98.4798L179.089 99.3061L177.604 100.263L174.286 101.487L172.3 101.915L169.831 102.065L158.921 99.7986L158.6 101.793L158.821 102.644L158.581 103.375L158.059 103.949L156.754 104.935L156.514 105.529L156.454 105.973L156.473 106.597L156.714 107.986L156.975 108.791L156.313 109.466L149.945 110.694L145.905 110.312L145.062 110.473L144.541 111.006L144.3 112.104L144.179 112.425L143.979 112.888L143.036 114.327L142.414 115.594L141.491 116.892L140.119 118.3L138.052 119.406L136.848 120.306L135.443 121.759L134.098 122.035L131.162 121.92L129.657 122.774L125.015 126.453L123.57 127.332L122.567 127.604L122.024 127.307L121.583 126.785L120.399 125.785L116.841 125.509L115.324 124.916L115.61 124.645L118.071 120.483L121.83 116.516L130.62 109.91L130.098 105.078L130.927 101.08L133.362 98.5104L134.539 98.3589L135.235 98.0767L137.122 95.4616L138.473 94.6506L139.797 94.2774L141.015 93.4809L142.018 91.3382L140.667 89.3567L138.727 87.5509L136.8 85.9419L134.419 87.1172L119.022 88.6707L119.664 86.174L121.269 83.122L123.182 80.5585L126.513 78.5495L126.714 74.8639L128.41 74.4761L130.112 74.0868L132.212 72.8445L134.139 71.1629L135.115 69.5159L134.486 67.1862L133.148 64.4824L132.827 62.3034L135.235 61.5496L136.385 60.6242L137.549 60.3154L138.727 60.6242L139.904 61.5496L143.262 62.0503L149.711 60.8975L152.761 61.5496L154.447 62.546L154.69 62.5855Z" fill="#EB4436" stroke="#FEFFFF" stroke-width="1.5" stroke-linecap="round" stroke-linejoin="round"/>
<path d="M22.2016 286.309L23.4682 287.378L29.3943 292.388L34.8847 290.573L35.0993 291.34L36.2902 294.594L36.3573 295.365L37.6011 298.528L38.1495 299.339L39.5006 300.06L41.6678 299.042L42.5777 299.447L43.2469 303.855L39.9023 307.48L31.6214 313.098L25.0127 321.02L20.8118 323.229L16.4105 321.218L10.5105 321.455L4.63738 322.885L1.52008 324.788L3.24604 320.646L4.23568 318.723L4.63738 317.086L2.34951 314.145L1 311.527L1.48141 309.226L4.63896 307.172L12.3983 303.28L12.6121 303.21L12.826 303.19L13.0667 303.21L14.0832 303.547L14.859 303.645L15.6079 303.556L18.4577 302.647L19.0196 301.372L18.8988 299.604L18.9659 297.538L19.8893 292.12L20.317 290.627L22.2016 286.309Z" fill="#EB4436" stroke="#FEFFFF" stroke-width="1.5" stroke-linecap="round" stroke-linejoin="round"/>
<path d="M22.2034 286.309L24.5062 281.028L24.3326 278.909L22.7542 276.007L20.8546 273.907L14.4898 269.902L13.8711 269.512L15.3563 268.056L15.5971 266.792L15.3295 265.493V264.031L15.2356 263.44L14.9278 262.647L14.6469 261.744V260.762L15.1551 259.592L16.6269 257.965L21.1356 250.044L25.7105 244.124L24.7106 242.979L22.5798 240.537L22.1789 238.003L23.9183 235.666L41.3231 219.346L50.5937 214.131L51.8777 213.02L55.2894 209.078L59.5834 206.745L60.9479 205.703L62.4063 203.828L62.9011 202.227L62.8474 198.969L61.8846 197.882L61.202 196.934L60.8405 195.845L61.0276 194.907L63.0613 188.621L63.9578 186.958L64.208 186.318L66.5937 185.889L73.2624 185.549L74.3862 185.34L75.697 184.655L77.483 183.212L83.791 179.773L87.7038 178.413L89.6973 177.074L93.1287 174.113L100.761 169.386L101.182 171.783L100.881 173.639L101.222 174.814L101.924 175.804L102.988 176.684L103.369 177.674L103.469 178.764L103.389 180.604L103.63 181.853L103.851 182.638L106.004 187.514L106.647 192.572L107.108 193.97L108.553 195.483L108.875 195.717L109.175 195.777L109.737 195.687L109.938 195.827L110.138 196.201L110.078 196.59L109.837 197.025L109.496 197.483L109.376 197.918L109.556 198.123L111.181 198.921L111.589 199.041L112.071 199.071L112.633 199.201L113.997 199.869L114.579 200.049L115 200.078L116.064 199.919L116.807 199.38L117.69 199.031L118.271 198.992L119.181 198.723L119.743 199.012L120.405 199.501L120.987 199.83L121.549 199.93L123.375 199.98L124.037 199.88L125.04 199.561L125.341 199.331L125.742 198.932L126.692 196.647L127.214 195.724L127.234 195.309L127.013 195.02L126.21 194.89L125.24 195.369L124.999 195.155L124.799 194.635L125.28 190.667L125.401 190.013L125.561 189.379L125.802 188.749L126.391 187.48L127.174 186.186L127.214 185.557L126.812 184.972L125.461 183.868L124.699 183.483L124.096 183.374L123.635 183.444L123.475 183.334L123.715 182.764L124.096 182.43L124.538 182.125L125.38 181.745L125.642 181.775L125.929 181.975L126.25 182.325L126.451 182.395L126.05 181.695L125.601 181.075L120.124 175.546L124.298 172.005L128.297 177.776L128.719 178.146L129.481 178.936L131.588 181.905L131.95 182.214L132.231 182.249L132.391 182.099L132.531 181.734L132.572 181.414L132.591 180.994L132.812 180.774L133.18 180.554L133.642 180.413L134.023 180.393L134.284 180.528L134.585 180.923L134.846 181.573L134.987 182.368L134.605 183.182L134.384 184.031L134.365 184.921L134.706 186.669L135.187 187.388L135.548 187.688L136.17 187.468L136.331 187.488L136.472 187.688L136.372 188.307L135.95 189.126L134.666 190.744L133.883 191.283L133.302 191.807L132.834 192.561L132.091 194.518L132.312 197.203L128.821 202.371L128.319 202.97L127.797 203.359L126.111 203.867L125.951 204.216L126.292 204.924L126.773 205.264L127.215 205.478L128.86 205.907L129.001 206.041L128.519 207.647L124.74 212.949L120.265 219.684L119.543 221.615L119.503 221.894L119.663 222.213L119.743 222.437L119.443 222.705L118.7 222.87L116.687 222.945L115.222 223.278L113.135 224.771L111.59 224.931L111.282 226.932L111.202 227.818L111.182 230.081L111.39 232.206L111.59 233.29L111.71 234.299L111.63 234.692L111.308 234.901L111.201 235.089L111.221 235.532L111.281 236.069L111.308 236.78L111.16 237.625V238.281L111.308 238.539L112.411 238.048L113.013 237.883L113.775 237.893L114.799 238.648L116.705 238.469L118.15 238.077L118.658 238.226L119.341 238.614L120.806 240.129L121.689 240.77L122.251 240.949L123.254 240.646L123.735 240.596L123.956 240.735L123.715 241.252L123.033 242.256L119.802 246.021L119.441 246.617L119.02 246.925L117.428 245.882L117.127 245.763L116.063 245.653L114.358 245.722L114.037 245.802L112.933 248.096L113.836 250.723L115.301 252.823L115.863 253.115L116.846 253.339L118.739 253.056L119.843 252.485L120.786 251.78L122.672 249.665L124.057 249.715L125.83 250.41L133.014 255.88L133.883 258.132L134.324 260.097L134.425 260.87L134.665 261.868L135.067 262.746L135.508 263.455L135.789 264.164L136.211 264.392L136.331 264.7L139.341 263.203L139.863 261.511L140.104 261L140.512 260.385L141.776 258.907L144.024 256.942L144.866 256.416L145.809 256.03L149.629 255.563L150.732 254.838L152.097 253.667L154.144 251.214L155.074 249.864L156.378 248.742L163.809 246.428L167.682 243.268L168.244 244.923L168.544 245.464L168.926 246.041L169.147 246.627L169.207 247.451L169.126 248.802L169.146 250.044L168.986 251.613L168.584 253.152L167.62 255.062L166.938 255.98L166.576 256.729L166.496 257.439L166.796 260.038L166.716 261.219L166.254 262.528L165.07 264.144L162.963 265.443L162.582 266.097L162.983 267.758L163.404 268.923L163.665 270.459L163.685 271.47L162.22 276.177L163.484 277.212L165.351 279.158L166.133 279.574L166.474 280.108L166.515 280.762L165.893 281.831L165.632 282.504L165.773 286.374L164.208 288.194L161.974 290.697L161.914 291.3L162.141 293.832L161.652 295.276L160.128 298.009L158.322 300.613L155.853 303.182L154.362 303.844L151.312 307.726L147.051 310.584L142.095 313.447L140.617 311.482L139.66 309.607L136.764 305.612L128.536 290.934L127.934 289.193L127.359 285.819L125.975 284.69L124.235 284.315L122.63 283.186L122.149 281.761L122.289 280.336L122.61 279.058L122.63 278.073L121.808 276.434L119.888 274.106L119.018 272.718L117.466 273.67L111.306 272.421L108.86 272.275L108.724 270.518L107.515 268.612L105.567 267.623L86.2832 262.512L77.6542 262.229L69.3598 263.914L58.323 271.666L54.1222 272.766L49.8684 272.969L45.8814 274.292L41.6806 278.021L37.988 283.016L35.2589 286.816L34.5637 289.428L34.8841 290.569L29.3937 292.385L23.4676 287.375L22.2034 286.309ZM106.874 211.924L107.73 211.127L108.373 210.489L109.336 209.213L109.55 207.777L109.443 206.341L108.694 205.543H107.838L106.767 206.66L105.911 207.776H105.055L104.734 208.733L105.269 209.69L105.911 210.328L106.232 211.604L106.874 211.924ZM118.539 210.329L119.503 209.85L120.466 208.893L121.429 206.978L121.858 205.543L121.215 204.107L120.145 203.468L119.289 203.149L118.861 202.191L118.112 201.393L117.47 201.872L116.935 202.67L116.078 203.947L115.329 204.586L114.152 206.181L113.617 207.457L112.225 208.096L111.262 208.574L110.513 209.213L110.085 209.692L110.406 210.489H111.263L112.333 210.329L113.831 208.894L114.794 208.574L116.292 209.372L117.362 209.851L118.539 210.329ZM139.021 159.564L144.365 161.783L145.268 168.3L145.77 169.711L148.466 175.444L148.807 175.739L149.248 176.014L150.051 176.374L150.131 176.764L149.87 177.294L148.907 178.413L148.606 178.554L148.345 178.394L147.984 177.944L147.643 177.814L147.214 177.905L146.733 178.534L146.311 179.414L145.99 181.188L145.729 182.163L145.388 182.972L145.027 183.552L143.923 184.925L141.656 186.139L141.515 185.675L141.355 184.266L139.502 181.513L138.038 180.704L137.395 179.394L129.281 167.795L139.021 159.564Z" fill="#EB4436" stroke="#FEFFFF" stroke-width="1.5" stroke-linecap="round" stroke-linejoin="round"/>
<path d="M64.2036 186.32L64.6763 185.11L64.8902 182.432L64.4759 180.294L62.7499 176.924L62.2148 175.174L64.1413 168.381L70.4153 164.657L84.3414 160.171L92.9767 153.433L95.933 149.057L94.3814 145.457L96.1208 142.373L97.3385 141.143L100.589 139.95L101.071 138.715L101.552 138.374L103.411 137.391L103.251 134.068L107.131 132.682L115.327 124.916L116.843 125.509L119.519 126.996L120.983 129.006L121.766 130.724L122.067 131.744L122.207 132.542L122.067 133.817L121.545 136.287L121.425 136.578L121.284 136.849L120.782 137.361L120.642 137.546L120.341 138.937L120.401 140.151L120.722 140.141L140.448 133.858L141.351 133.621L141.431 136.287L143.217 136.769L146.97 138.937L147.98 139.83L148.482 140.673L148.462 141.005L148.282 141.215L147.96 141.436L147.76 141.587L147.619 141.813L147.66 142.119L147.76 142.45L147.881 142.761L148.001 143.268L148.222 144.788L148.242 145.289V145.831L148.182 146.172L148.082 146.594L147.881 146.965L147.493 147.19L147.031 147.386L146.67 147.627L145.827 148.395L145.325 148.74L142.436 149.994L141.955 150.606L141.553 151.488L140.851 154.705L140.242 156.068L139.018 159.569L129.279 167.799L124.296 172.007L120.122 175.549L106.001 187.518L103.848 182.642L103.627 181.858L103.386 180.608L103.467 178.768L103.366 177.679L102.985 176.689L101.921 175.808L101.219 174.818L100.878 173.643L101.18 171.787L100.758 169.391L93.1258 174.118L89.6944 177.078L87.701 178.418L83.7881 179.778L77.4801 183.216L75.6942 184.66L74.3834 185.344L73.2596 185.554L66.5909 185.893L64.2036 186.32Z" fill="#EB4436" stroke="#FEFFFF" stroke-width="1.5" stroke-linecap="round" stroke-linejoin="round"/>
<path d="M208.057 90.647L209.04 90.9243L209.381 91.3225L209.742 91.8723L209.963 92.6639L210.064 93.5305L209.923 94.5584L209.742 95.1178L208.639 95.2089L206.211 94.8913L205.749 94.5785L205.642 93.9586L205.95 92.6631L208.057 90.647ZM323.487 202.206L322.384 204.875L322.243 205.792L322.364 207.582L322.765 208.743L323.487 210.289L323.708 211.056L323.748 212.123L323.969 212.9L324.069 213.697L324.049 214.524L323.909 215.685L323.728 216.567L323.287 217.285L322.344 217.524L321.314 217.464L319.167 216.891L318.344 217.006L317.723 217.742L317.763 220.034L318.325 221.617L318.726 224.105L317.322 224.325L314.853 227.49L314.084 229.102L313.562 230.634L312.779 233.648L312.117 237.865L311.576 238.958L310.913 239.923L309.569 241.314L307.542 242.651L306.17 243.858L300.21 247.285L297.114 248.418L290.364 249.838L289.602 249.868L288.94 249.659L288.519 249.331L288.399 248.715V248.219L288.358 247.861L288.178 247.741L284.719 247.364L281.609 245.964L280.506 244.985L269.456 242.824L266.124 243.008L261.904 245.685L261.463 246.082L261.222 246.37L261.202 246.634L261.403 247.056L261.744 247.617L262.025 248.248L262.205 248.893L262.226 249.509L261.745 250.473L261.344 251.029L257.772 253.371L253.029 256.815L250.3 257.897L249.13 258.106L247.163 258.111L245.658 257.639L229.893 269.371L228.368 269.51L219.806 265.297L217.117 264.92L216.495 265.257L216.094 265.624L215.893 266.189L215.733 266.903L215.452 267.309L214.067 268.439L213.666 268.895L209.285 270.259L206.315 272.156L207.077 273.186L208.763 274.157L206.877 275.881L202.255 277.901L201.131 278.193L200.328 278.222L199.566 278.019L199.225 277.821L196.128 276.871L190.483 276.93L188.617 277.346L188.316 277.524L188.035 277.792L186.79 279.337L183.834 281.436L178.958 283.099L178.195 282.703L177.412 282.455L177.272 282.01L177.292 281.406L177.412 280.455L177.332 279.108L176.97 278.683H176.201L172.007 280.139L171.566 280.401L171.385 280.684L171.325 281.228L171.285 281.911L170.282 283.648L165.781 286.374L165.64 282.505L165.901 281.832L166.522 280.763L166.482 280.109L166.141 279.574L165.358 279.158L163.492 277.212L162.228 276.177L163.692 271.471L163.673 270.46L163.412 268.924L162.991 267.759L162.59 266.098L162.971 265.443L165.078 264.145L166.262 262.528L166.724 261.219L166.804 260.039L166.503 257.439L166.584 256.73L166.945 255.981L167.628 255.063L168.592 253.152L168.993 251.613L169.154 250.045L169.134 248.803L169.214 247.452L169.154 246.627L168.933 246.041L168.552 245.465L168.252 244.923L167.69 243.269L172.934 238.518L175.201 238.319L176.465 238.255L177.014 238.021L177.596 237.196L177.896 235.536L178.157 232.841L177.676 227.194L179.101 225.518L179.662 225.08L181.529 225.493L182.653 225.946L183.615 226.026L184.766 224.782L185.228 224.115L184.987 223.398L185.489 218.628L185.83 217.334L185.629 216.995L185.068 216.577L184.566 216.343L184.225 216.074L183.944 215.66L183.576 215.322L183.155 215.232L182.612 215.297L182.131 215.122L181.729 214.754L181.188 213.767L180.064 212.851L179.442 212.462L177.195 211.565L176.773 211.176L176.486 210.558L175.984 209.093L175.703 206.266L175.784 201.214L176.084 198.16L177.596 191.761L177.655 188.925L177.315 186.937L176.913 186.048L177.053 185.459L177.996 184.65L178.759 184.79L178.999 184.955L178.94 185.46L179.14 185.719L179.581 185.999L180.364 186.009L181.107 185.589L182.331 184.55L182.953 182.97L182.331 178.622L171.99 177.672L165.341 175.713L163.996 175.973L163.394 175.983L162.953 175.738L162.872 175.243L163.775 173.282L164.116 172.162L164.257 171.201L163.935 169.151L163.855 167.91L163.714 167.064L163.414 166.319L162.692 165.052L162.651 164.527L162.913 164.216L164.578 163.36L165.28 162.774L166.625 161.067L166.906 160.351L166.063 159.099L165.923 157.957L165.903 157.796L165.803 157.545L165.441 157.084L164.237 156.749L161.221 158.066L154.772 160.721L144.371 161.783L139.026 159.564L140.25 156.063L140.859 154.701L141.561 151.483L141.963 150.601L142.444 149.989L145.333 148.736L145.835 148.39L146.678 147.623L147.04 147.382L147.501 147.186L147.89 146.96L148.09 146.589L148.19 146.168L148.25 145.827V145.285L148.231 144.783L148.01 143.264L147.889 142.757L147.768 142.446L147.668 142.114L147.628 141.808L147.768 141.582L147.969 141.431L148.29 141.211L148.47 141L148.49 140.669L147.988 139.826L146.978 138.932L143.226 136.765L141.44 136.283L141.359 133.617L140.456 133.853L120.73 140.137L120.409 140.146L120.349 138.932L120.65 137.542L120.79 137.356L121.292 136.845L121.433 136.574L121.554 136.283L122.075 133.813L122.216 132.537L122.075 131.739L121.775 130.719L120.992 129.002L119.527 126.992L116.852 125.505L120.41 125.781L121.594 126.781L122.035 127.303L122.577 127.6L123.58 127.328L125.025 126.449L129.667 122.77L131.172 121.916L134.109 122.031L135.454 121.754L136.858 120.302L138.063 119.402L140.13 118.296L141.501 116.888L142.424 115.59L143.046 114.323L143.989 112.884L144.19 112.421L144.311 112.099L144.551 111.002L145.073 110.468L145.916 110.307L149.956 110.689L156.324 109.462L156.986 108.787L156.725 107.981L156.484 106.592L156.464 105.968L156.524 105.525L156.765 104.931L158.069 103.944L158.591 103.37L158.832 102.64L158.611 101.789L158.932 99.7943L169.842 102.061L172.31 101.91L174.297 101.482L177.614 100.259L179.1 99.3017L180.103 98.4754L180.645 97.9111L181.247 97.4677L182.29 97.0042L183.013 96.2884L183.494 95.6031L183.755 94.7567L184.063 94.4141L184.424 94.5551L184.886 95.5128L185.147 96.2287L186.412 96.7728L200.572 97.9417L208.304 95.6894L207.321 98.6874L206.559 99.6242L205.348 100.485L201.114 101.875L200.211 102.444L199.108 103.35L197.636 105.012L196.432 106.068L193.543 107.266L190.807 109.652L191.147 111.021L181.448 115.483L181.107 116.413L181.77 118.002L182.231 118.706L182.593 119.832L182.994 120.36L183.616 120.737L185.048 121.28L185.67 121.752L185.991 122.355L186.874 124.597L186.955 125.19L186.874 125.613L186.814 126.024L187.115 126.245L187.917 126.441L189.262 126.195L190.305 125.613L191.316 124.306L192.48 123.22L193.182 122.386L194.246 122.104L195.209 121.259L195.891 120.888L197.898 120.476L198.199 122.969L198.38 123.894L198.807 124.407L199.41 124.919L199.851 125.603L199.41 126.627L197.998 127.632L197.096 127.843L196.313 127.632L195.691 127.26H195.25L193.825 128.471L193.023 129.712L192.782 130.646L193.043 132.504L192.943 133.433L191.96 134.03L189.665 134.663L189.063 134.728L187.739 134.372L186.916 134.402L185.451 134.131L185.03 134.277L184.829 135.125L184.97 135.738L185.331 136.491L185.772 137.208L186.555 138.879L187.298 139.522L187.759 139.752L191.458 138.663L192.542 138.453L192.843 138.543L192.943 140.304L194.067 142.918L196.455 142.09L197.278 141.569L197.74 140.916L197.84 139.802L197.639 138.879L196.977 137.152L196.958 136.319L197.399 135.762L200.857 134.121L202.723 132.403L206.122 127.321L207.927 125.522L209.372 125.291L212.844 127.753L218.81 127.944L219.593 127.813L220.944 126.397L221.747 125.146L222.951 124.487L223.372 124.075L223.713 123.442L223.914 122.839L223.693 121.723L223.031 120.144L221.185 116.73L219.112 113.597L216.744 112.49L214.336 109.511L214.236 108.011L213.835 106.612L213.675 105.881L211.822 103.606L220.464 102.503L225.139 100.358L229.521 105.746L231.026 106.728L234.598 106.914L237.113 105.948L238.337 106.401L242.819 105.278L243.14 109.078L243.261 109.551L244.947 112.51L248.297 120.406L248.879 121.532L249.568 123.241L249.99 124.784L250.009 126.758L251.133 132.645L250.09 134.562L249.688 135.867L249.447 137.875V141.718L249.039 145.666V146.865L249.347 148.218L250.45 149.762L251.353 151.356L252.015 152.193L252.477 155.325L255.889 155.645L256.818 156.437L259.588 157.028L258.745 161.511L258.383 162.332L257.942 164.09L257.641 164.631L257.2 165.256L256.96 165.782L256.819 166.983L256.679 167.584L256.431 167.984L255.748 168.51L255.548 168.885L255.267 169.635L254.866 170.345L254.244 170.815L253.582 170.926L252.539 170.676L252.217 170.746L251.255 171.397L250.131 171.852L249.649 172.208L249.428 173.028L249.409 174.179L249.69 176.529L249.589 177.939L249.162 179.054L247.957 180.289L247.736 181.198L248.92 185.026L248.98 186.534L250.993 188.782L259.548 195.791L261.073 198.217L262.778 200.342L263.581 200.572L264.591 200.377L266.518 199.265L268.765 198.327L271.4 198.511L275.494 198.736L277.982 199.295L282.364 202.238L283.688 203.175L285.233 203.894L286.203 204.173L286.886 204.034L289.936 202.827L291.461 202.508L298.23 203.366L300.724 204.173L301.988 204.219L303.393 203.655L307.735 200.563L313.393 198.288L316.43 201.067L317.654 202.114L318.537 201.62L320.263 201.261H320.925L323.487 202.206ZM166.197 170.446L166.599 170.261L166.9 169.9L167.06 169.64L167.02 168.95L165.093 169.51L165.534 170.501L165.916 170.401L166.197 170.446Z" fill="#EB4436" stroke="#FEFFFF" stroke-width="1.5" stroke-linecap="round" stroke-linejoin="round"/>
<path d="M318.22 129.933L319.825 132.599L320.928 132.881L321.51 133.167L322.058 133.293L322.239 133.473L322.982 135.572L319.002 138.041L318.299 138.733L317.898 139.435L317.757 140.178L317.717 141.182L317.517 141.899L317.075 142.546L315.911 143.801L315.731 144.433L315.931 145.496L316.633 146.469L318.058 147.262L320.044 146.319L325.229 147.713L330.192 152.41L330.673 153.107L331.095 154.049L330.633 155.553L330.212 156.539L325.931 158.864L325.248 157.506L323.462 155.762L321.63 155.371L320.486 156.514L320.366 157.425L319.082 157.841L314.807 157.746L314.627 157.566L314.567 157.39L314.5 156.914L313.095 156.062L311.108 157.089L308.319 158.081L306.707 157.755L305.202 157.695L303.576 157.986L300.426 157.965L298.212 158.436L295.724 159.328L295.002 159.834L294.58 160.81L294.5 161.582L295.122 163.059L287.931 163.765L285.764 165.226L285.477 165.737L285.966 167.459L286.106 168.424L285.906 169.385L283.29 171.871L280.2 175.892L279.638 176.063L279.337 175.867L279.156 175.402L278.916 175.182L278.494 175.112L277.765 175.152L277.143 175.402L276.602 175.872L275.659 177.273L275.237 178.213L274.756 179.627L274.294 182.391L272.047 187.656L271.746 188.675L272.167 190.683L272.81 192.071L273.492 195.076L271.385 198.514L268.75 198.33L266.503 199.268L264.576 200.381L263.566 200.575L262.763 200.345L261.058 198.22L259.533 195.794L250.978 188.785L248.965 186.538L248.905 185.029L247.721 181.202L247.942 180.292L249.147 179.057L249.574 177.942L249.675 176.533L249.394 174.182L249.413 173.031L249.634 172.211L250.116 171.855L251.24 171.4L252.202 170.749L252.524 170.679L253.567 170.929L254.229 170.819L254.851 170.349L255.252 169.638L255.533 168.888L255.733 168.513L256.416 167.987L256.664 167.587L256.804 166.986L256.945 165.785L257.185 165.259L257.627 164.634L257.927 164.093L258.368 162.336L258.73 161.514L259.573 157.031L256.803 156.44L255.874 155.649L252.462 155.328L252 152.196L251.338 151.359L250.435 149.765L249.332 148.222L249.024 146.868V145.669L249.432 141.722V137.878L249.673 135.871L250.075 134.566L251.118 132.648L249.994 126.761L249.975 124.787L249.553 123.244L248.864 121.535L248.283 120.409L244.932 112.513L252.845 110.863L255.795 110.858L259.092 109.645L259.594 109.248L259.794 109.012L259.875 108.825L259.975 108.438L260.035 107.769L259.895 106.113L259.875 104.562L259.975 104.038L260.176 103.786L260.717 103.701L263.486 103.64L265.48 104.492L268.369 110.341L277.285 106.788L279.218 108.871L281.807 109.747L285.318 109.883L286.489 110.366L286.85 110.673L285.907 111.066L285.726 111.252V111.528L285.947 111.916L286.108 112.565L286.348 112.888L286.83 113.371L287.432 113.798L288.315 114.195L289.479 114.069L291.586 112.46L294.523 107.1L295.104 105.519L297.271 102.921L299.459 102.69L301.593 103.596L302.355 104.336L303.078 105.459L303.478 107.362L304.021 109.013L305.004 111.237L309.325 123.9L309.786 124.844L311.211 127.126L312.154 128.321L312.856 128.984L314.462 129.778L318.12 129.934L318.22 129.933Z" fill="#EB4436" stroke="#FEFFFF" stroke-width="1.5" stroke-linecap="round" stroke-linejoin="round"/>
<path d="M322.983 135.572L322.24 133.473L322.059 133.293L321.511 133.167L320.929 132.881L319.826 132.599L318.221 129.933L317.258 123.114L316.596 114.913L316.696 113.707L316.776 113.179L318.462 109.853L319.064 111.92L319.225 112.745L319.565 113.53L320.428 114.098L325.572 115.834L327.097 116.095L328.441 116.086L330.856 115.216L334.528 114.477L339.612 115.342L342.001 118.027L344.194 119.973L345.68 121.828L346.001 122.552L346.523 123.366L347.486 124.124L351.306 125.838L354.195 125.451L356.583 127.144L354.276 129.666L353.292 132.528L349.674 137.016L348.249 138.121L346.504 138.853L344.758 139.205L341.802 140.299L340.256 140.635L339.133 140.61L338.069 139.546L337.527 139.154L336.825 138.994L330.156 139.586L327.902 134.366L326.558 134.246L325.634 133.89L324.33 134.548L322.983 135.572Z" fill="#EB4436" stroke="#FEFFFF" stroke-width="1.5" stroke-linecap="round" stroke-linejoin="round"/>
<path d="M386.147 172.633L387.899 175.864L388.12 176.413L388.442 177.633L388.522 178.758L388.462 180.707L387.92 181.741L387.05 182.511L384.281 183.686L383.699 183.806L383.258 183.801L382.917 183.866L382.536 184.181L381.934 184.821L378.576 187.393L378.355 188.626L378.475 189.575L378.555 193.28L377.151 195.177L375.686 196.006L374.823 196.964L373.921 197.324L372.957 197.563L372.589 198.037L372.676 200.328L372.489 201.944L371.305 203.47L370.262 205.305L370.121 205.724L370.081 205.983L370.202 207.738L369.761 208.387L369.32 208.695L367.373 209.144L366.852 209.09L364.919 208.377L362.652 209.194L361.368 210.59L358.358 214.606L357.087 215.344L355.783 215.632L353.675 216.594L352.792 217.386L352.331 218.192L352.35 218.82L352.451 219.323L352.391 220.084L352.17 221.08L351.227 223.275L350.317 226.296L350.216 227.361L350.377 228.455L350.637 229.237L351.025 229.839L351.466 230.172L352.048 230.465L352.57 230.843L352.891 231.455L353.574 233.793L353.855 235.369L353.473 237.978L348.089 240.369L336.744 237.711L335.253 237.795L334.29 238.079L333.849 238.497L333.527 238.959L332.524 242.02L332.022 243.276L331.722 244.275L327.461 247.931L322.344 245.09L320.371 241.941L319.006 238.442L318.645 237.249L318.485 236.136L318.605 235.211L319.529 232.088L319.97 229.999L320.251 227.621L320.311 225.979L320.09 225.133L319.788 224.631L318.725 224.109L318.323 221.62L317.761 220.037L317.721 217.746L318.343 217.009L319.165 216.895L321.312 217.468L322.342 217.527L323.285 217.288L323.726 216.57L323.907 215.689L324.048 214.528L324.067 213.701L323.967 212.903L323.746 212.126L323.706 211.06L323.485 210.292L322.763 208.747L322.362 207.585L322.241 205.796L322.382 204.878L323.485 202.21L327.679 200.893L327.94 199.955L328.08 198.992L327.859 198.024L327.759 197.37L327.639 196.921L327.258 196.666L326.937 196.357L326.636 195.568L327.198 194.425L327.499 193.032L328.241 190.556L328.944 189.197L329.914 188.108L330.295 187.519L330.455 187.059L330.375 186.709L330.154 186.305L329.813 185.96L328.722 185.7L328.26 185.37L326.896 185.495L326.354 181.603L326.615 180.234L326.414 178.969L326.073 178.124L325.111 176.654L325.191 176.014L325.472 175.635L327.639 174.105L334.228 170.623L335.733 169.202L336.275 168.561L336.664 167.795L338.45 162.054L338.63 161.042L338.43 159.865L342.223 159.65L342.725 159.865L343.367 160.25L343.567 160.946L344.056 163.659L344.578 165.397L345.541 166.208L346.284 166.558L347.427 166.819L350.156 167.859L351.107 168.004L354.057 167.8L354.699 168.095L355.08 168.65L355.702 170.772L356.645 172.213L357.407 172.483L358.277 172.133L359.601 171.022L360.825 170.332L361.809 169.971L363.334 169.181L364.257 168.951L364.94 169.291L365.809 170.021L366.993 170.232L370.645 170.137L371.548 170.512L371.929 171.242L371.849 172.092L371.909 173.003L372.29 173.672L373.039 174.523L373.842 174.593L374.142 175.183L374.283 177.313L374.604 178.463L375.085 178.817L375.647 178.642L376.49 177.773L379.721 176.227L380.31 176.043L386.147 172.633Z" fill="#EB4436" stroke="#FEFFFF" stroke-width="1.5" stroke-linecap="round" stroke-linejoin="round"/>
<path d="M386.146 172.632L380.307 176.043L379.718 176.228L376.487 177.773L375.645 178.643L375.083 178.818L374.601 178.463L374.28 177.314L374.14 175.184L373.839 174.594L373.036 174.524L372.287 173.673L371.906 173.003L371.846 172.093L371.927 171.243L371.546 170.512L370.643 170.137L366.99 170.232L365.807 170.022L364.937 169.292L364.254 168.951L363.331 169.181L361.806 169.972L360.823 170.332L359.599 171.022L358.275 172.133L357.405 172.483L356.642 172.213L355.699 170.773L355.077 168.651L354.696 168.095L354.054 167.8L351.104 168.005L350.154 167.86L347.425 166.819L346.281 166.559L345.539 166.208L344.575 165.397L344.053 163.66L343.565 160.947L343.364 160.251L342.722 159.865L342.22 159.65L338.427 159.865L329.089 161.133L325.933 158.864L330.213 156.54L330.635 155.553L331.096 154.05L330.675 153.108L330.194 152.411L325.23 147.714L320.046 146.32L318.06 147.262L316.635 146.47L315.933 145.497L315.732 144.434L315.913 143.802L317.077 142.547L317.518 141.9L317.719 141.182L317.759 140.179L317.9 139.436L318.301 138.734L319.004 138.042L322.984 135.572L324.328 134.549L325.633 133.891L326.556 134.247L327.901 134.367L330.155 139.587L336.824 138.994L337.526 139.155L338.067 139.547L339.131 140.611L340.255 140.636L341.8 140.3L344.756 139.206L346.502 138.854L348.248 138.121L349.672 137.017L353.291 132.529L354.274 129.667L356.582 127.145L354.194 125.452L353.993 124.397L353.251 123.337L353.11 122.94L353.09 122.423L353.191 121.91L353.391 121.302L354.153 120.372L355.437 119.19L360.481 115.882L366.087 114.709L373.157 115.987L385.345 114.734L389.384 116.007L389.023 117.868L388.923 119.07L388.942 119.553L389.785 121.196L393.236 124.76L390.748 132.957V134.057L390.367 136.225L390.066 137.019L389.464 138.053L389.765 140.592L389.645 141.992L388.361 144.696L387.337 146.285L386.207 147.594L382.997 149.158L381.532 150.271L380.91 152.426L382.716 154.13L386.348 159.495L386.367 159.801L386.006 160.462L386.046 161.023L386.608 162.074L387.237 162.745L389.304 164.187L389.806 165.068L390.027 166.29L389.525 168.882L388.903 171.204L386.146 172.632Z" fill="#EB4436" stroke="#FEFFFF" stroke-width="1.5" stroke-linecap="round" stroke-linejoin="round"/>
<path d="M386.147 172.633L388.903 171.202L389.525 168.88L390.027 166.288L389.806 165.066L389.304 164.185L387.237 162.743L386.608 162.072L386.046 161.021L386.006 160.46L386.367 159.799L386.348 159.493L382.716 154.128L380.91 152.424L381.532 150.269L382.997 149.156L386.207 147.592L387.337 146.283L388.361 144.694L389.645 141.99L389.765 140.59L389.464 138.051L390.066 137.017L390.367 136.223L390.748 134.055V132.955L393.236 124.758L395.31 123.606L396.072 123.636L402.861 129.956L404.828 131.107L418.446 133.833L417.804 143.072L417.082 145.795L412.6 149.005L412.279 149.476L412.359 149.842L414.747 151.256L415.59 151.502L418.005 151.231L419.45 150.49L420.414 150.179L421.357 150.089L422.4 150.891L423.47 152.374L425.176 155.963L425.738 157.676L425.938 159.048L425.336 164.621L425.215 165.116L424.955 165.717L425.015 166.428L425.456 168.13L426.459 170.446L426.6 171.182L426.338 172.992L422.74 176.293L420.532 179.417L419.85 179.867L418.786 180.347L416.338 180.381L414.465 180.797L410.05 183.9L408.759 184.27L407.695 183.87L407.114 183.031L406.171 182.331L404.926 181.882L402.779 181.682L401.508 181.961L400.645 182.391L400.345 182.851L400.244 183.56L400.264 185.044L400.104 185.708L399.743 186.302L399.381 187.087L399 188.046L398.358 189.425L397.414 190.698L395.569 192.471L392.632 193.889L385.482 196.155L384.258 196.185L383.756 195.825L383.455 194.543L383.215 194.029L382.593 193.914L381.248 193.41L378.552 193.28L378.472 189.575L378.352 188.627L378.573 187.393L381.931 184.821L382.533 184.182L382.914 183.866L383.255 183.801L383.696 183.806L384.278 183.686L387.047 182.511L387.917 181.741L388.459 180.707L388.519 178.758L388.438 177.633L388.117 176.414L387.896 175.864L386.147 172.633Z" fill="#EB4436" stroke="#FEFFFF" stroke-width="1.5" stroke-linecap="round" stroke-linejoin="round"/>
<path d="M325.933 158.863L329.09 161.131L338.428 159.864L338.628 161.041L338.447 162.053L336.661 167.794L336.273 168.56L335.731 169.201L334.226 170.622L327.637 174.104L325.47 175.634L325.189 176.013L325.108 176.654L326.071 178.123L326.412 178.968L326.613 180.233L326.351 181.602L326.893 185.494L320.606 185.735L319.261 184.655L318.78 183.482L318.178 183.212L317.596 183.241L315.127 184.91L314.646 185.06L314.398 185.01V184.79L314.498 184.37L314.518 183.82V183.086L313.836 182.081L313.374 181.931L312.833 182.311L312.351 183.27L312.411 183.935L312.852 184.834L313.093 187.097L313.274 188.021L314.016 190.463L314.057 191.122L313.976 191.776V192.28L314.297 192.589L315.267 193.218L315.448 193.612L315.569 194.456L315.629 194.745L315.749 194.955L315.949 195.214L316.37 195.713L316.872 196.641L317.254 197.14L317.755 197.584L319.782 198.448L320.163 198.837L320.404 199.505L320.103 199.865L316.411 201.067L313.374 198.288L310.685 196.647L308.016 192.878L307.695 188.319L307.895 186.486L308.056 182.569L308.677 180.375L308.858 179.48L308.878 174.31L308.617 173.51L307.975 172.899L304.918 171.439L304.136 170.688L303.473 169.817L303.654 168.527L303.975 167.856L304.397 167.24L304.758 166.585L305.12 165.684L305.341 164.883L305.541 163.897L305.2 163.392L304.779 163.091L299.836 161.549H299.314L298.753 161.749L298.07 162.17L297.308 162.515L295.12 163.056L294.498 161.579L294.579 160.807L295 159.831L295.722 159.325L298.21 158.433L300.424 157.962L303.575 157.982L305.2 157.692L306.705 157.752L308.318 158.078L311.107 157.086L313.093 156.059L314.498 156.911L314.565 157.387L314.625 157.562L314.805 157.743L319.08 157.838L320.364 157.422L320.484 156.51L321.628 155.368L323.461 155.759L325.246 157.503L325.933 158.863Z" fill="#EB4436" stroke="#FEFFFF" stroke-width="1.5" stroke-linecap="round" stroke-linejoin="round"/>
<path d="M144.363 161.782L154.764 160.721L161.213 158.066L164.229 156.749L165.433 157.084L165.795 157.545L165.895 157.796L165.915 157.956L166.055 159.099L166.898 160.351L166.617 161.066L165.272 162.774L164.57 163.36L162.905 164.216L162.644 164.526L162.684 165.052L163.406 166.318L163.707 167.064L163.847 167.91L163.928 169.15L164.249 171.201L164.108 172.161L163.767 173.282L162.865 175.242L162.945 175.737L163.386 175.983L163.988 175.973L165.333 175.712L171.982 177.672L182.323 178.622L182.945 182.97L182.323 184.549L181.099 185.588L180.356 186.009L179.573 185.999L179.132 185.719L178.932 185.46L178.992 184.955L178.751 184.79L177.989 184.649L177.046 185.459L176.905 186.048L177.307 186.937L177.648 188.925L177.588 191.761L176.076 198.16L175.776 201.214L175.695 206.266L175.976 209.092L176.478 210.558L176.765 211.176L177.187 211.565L179.434 212.462L180.056 212.851L181.18 213.767L181.721 214.754L182.123 215.122L182.605 215.296L183.147 215.232L183.568 215.321L183.936 215.66L184.217 216.074L184.558 216.343L185.06 216.577L185.622 216.995L185.822 217.334L185.481 218.628L184.979 223.398L185.22 224.115L184.758 224.781L183.608 226.025L182.645 225.946L181.521 225.493L179.655 225.08L179.093 225.517L177.668 227.194L178.15 232.84L177.888 235.535L177.588 237.196L177.006 238.021L176.458 238.255L175.193 238.319L172.926 238.518L167.682 243.269L163.809 246.428L156.378 248.742L155.074 249.865L154.144 251.215L152.097 253.667L150.732 254.838L149.629 255.563L145.809 256.03L144.866 256.417L144.023 256.943L141.776 258.907L140.512 260.386L140.104 261.001L139.863 261.512L139.341 263.203L136.331 264.7L136.21 264.393L135.789 264.165L135.508 263.455L135.067 262.746L134.665 261.868L134.425 260.871L134.324 260.097L133.883 258.132L133.013 255.88L125.829 250.41L124.057 249.715L122.672 249.665L120.786 251.781L119.843 252.485L118.739 253.056L116.846 253.339L115.863 253.116L115.301 252.823L113.836 250.723L112.933 248.097L114.037 245.802L114.358 245.723L116.063 245.653L117.127 245.763L117.428 245.882L119.02 246.925L119.441 246.617L119.802 246.022L123.033 242.256L123.715 241.253L123.956 240.736L123.735 240.596L123.254 240.646L122.25 240.949L121.689 240.771L120.805 240.13L119.341 238.614L118.658 238.226L118.15 238.077L116.705 238.47L114.799 238.649L113.775 237.893L113.013 237.884L112.411 238.048L111.308 238.54L111.16 238.281V237.625L111.308 236.78L111.281 236.069L111.221 235.532L111.201 235.09L111.308 234.901L111.63 234.692L111.71 234.3L111.59 233.29L111.39 232.206L111.182 230.082L111.202 227.818L111.282 226.932L111.59 224.931L113.135 224.772L115.222 223.279L116.687 222.945L118.7 222.87L119.443 222.706L119.743 222.437L119.663 222.213L119.503 221.895L119.543 221.616L120.265 219.684L124.74 212.95L128.519 207.647L129 206.042L128.86 205.907L127.214 205.478L126.773 205.264L126.292 204.925L125.951 204.217L126.111 203.868L127.797 203.359L128.319 202.971L128.82 202.372L132.312 197.203L132.091 194.518L132.834 192.562L133.302 191.808L133.883 191.284L134.666 190.745L135.95 189.127L136.371 188.308L136.472 187.688L136.331 187.489L136.17 187.468L135.548 187.688L135.187 187.389L134.705 186.67L134.365 184.921L134.384 184.032L134.605 183.182L134.986 182.368L134.846 181.573L134.585 180.923L134.284 180.528L134.023 180.394L133.642 180.414L133.18 180.554L132.812 180.774L132.591 180.994L132.572 181.414L132.531 181.734L132.391 182.1L132.231 182.249L131.95 182.215L131.588 181.905L129.481 178.936L128.719 178.146L128.297 177.776L124.298 172.005L129.281 167.797L137.394 179.396L138.037 180.706L139.501 181.515L141.354 184.268L141.515 185.677L141.655 186.142L143.922 184.927L145.026 183.554L145.387 182.974L145.728 182.165L145.989 181.19L146.311 179.416L146.732 178.536L147.213 177.907L147.642 177.816L147.983 177.946L148.344 178.396L148.605 178.556L148.906 178.415L149.869 177.296L150.13 176.766L150.05 176.376L149.247 176.016L148.806 175.741L148.465 175.446L145.769 169.713L145.267 168.302L144.363 161.782ZM166.195 170.446L165.914 170.401L165.533 170.501L165.092 169.51L167.018 168.95L167.058 169.64L166.898 169.9L166.597 170.261L166.195 170.446ZM120.122 175.543L125.6 181.072L126.048 181.692L126.449 182.392L126.249 182.322L125.927 181.972L125.64 181.772L125.379 181.742L124.536 182.122L124.095 182.427L123.714 182.761L123.473 183.331L123.633 183.441L124.095 183.371L124.697 183.48L125.459 183.865L126.81 184.969L127.212 185.554L127.172 186.183L126.389 187.477L125.8 188.746L125.56 189.376L125.399 190.01L125.279 190.664L124.797 194.633L124.998 195.152L125.238 195.366L126.208 194.887L127.011 195.017L127.232 195.307L127.212 195.721L126.69 196.644L125.74 198.929L125.339 199.328L125.039 199.558L124.036 199.877L123.374 199.977L121.547 199.927L120.985 199.827L120.404 199.498L119.742 199.009L119.18 198.72L118.27 198.989L117.688 199.028L116.805 199.378L116.062 199.916L114.999 200.076L114.577 200.046L113.996 199.866L112.631 199.198L112.069 199.068L111.588 199.038L111.18 198.918L109.555 198.12L109.374 197.915L109.495 197.481L109.836 197.022L110.076 196.587L110.136 196.198L109.936 195.824L109.736 195.685L109.174 195.774L108.873 195.714L108.552 195.48L107.107 193.968L106.645 192.57L106.003 187.511L120.122 175.543ZM106.872 211.924L106.229 211.604L105.908 210.328L105.266 209.691L104.73 208.734L105.052 207.777H105.908L106.764 206.66L107.834 205.544H108.691L109.44 206.342L109.547 207.778L109.333 209.213L108.369 210.489L107.727 211.127L106.872 211.924ZM118.537 210.328L117.359 209.849L116.289 209.37L114.791 208.573L113.827 208.892L112.33 210.328L111.259 210.488H110.403L110.082 209.691L110.51 209.212L111.259 208.573L112.222 208.094L113.614 207.456L114.149 206.18L115.326 204.584L116.075 203.946L116.931 202.669L117.466 201.871L118.109 201.392L118.858 202.19L119.285 203.148L120.142 203.467L121.212 204.106L121.854 205.541L121.426 206.977L120.463 208.892L119.499 209.849L118.537 210.328Z" fill="#EB4436" stroke="#FEFFFF" stroke-width="1.5" stroke-linecap="round" stroke-linejoin="round"/>
<path d="M313.378 198.291L307.719 200.566L303.378 203.658L301.973 204.222L300.709 204.177L298.214 203.369L291.445 202.511L289.92 202.83L286.87 204.037L286.188 204.177L285.218 203.897L283.672 203.179L282.348 202.241L277.967 199.298L275.478 198.739L271.385 198.514L273.492 195.076L272.809 192.071L272.167 190.683L271.745 188.675L272.046 187.656L274.294 182.391L274.755 179.627L275.237 178.213L275.658 177.273L276.601 175.872L277.143 175.402L277.765 175.152L278.494 175.112L278.915 175.182L279.156 175.402L279.337 175.867L279.637 176.063L280.199 175.892L283.29 171.871L285.905 169.385L286.106 168.424L285.965 167.459L285.477 165.737L285.764 165.226L287.931 163.765L295.121 163.059L297.309 162.518L298.071 162.173L298.754 161.752L299.316 161.552H299.837L304.78 163.094L305.202 163.395L305.543 163.9L305.342 164.886L305.121 165.687L304.76 166.588L304.398 167.243L303.977 167.859L303.656 168.53L303.475 169.821L304.137 170.691L304.92 171.442L307.976 172.902L308.619 173.513L308.879 174.313L308.859 179.483L308.679 180.378L308.057 182.572L307.897 186.489L307.696 188.322L308.017 192.881L310.686 196.65L313.378 198.291ZM323.485 202.207L320.91 201.264H320.247L318.522 201.623L317.638 202.117L316.414 201.07L320.107 199.868L320.408 199.508L320.167 198.84L319.786 198.451L317.759 197.587L317.257 197.143L316.876 196.644L316.374 195.716L315.953 195.217L315.752 194.958L315.632 194.748L315.572 194.459L315.452 193.615L315.271 193.221L314.301 192.592L313.98 192.283V191.779L314.06 191.125L314.02 190.466L313.277 188.024L313.097 187.1L312.856 184.837L312.415 183.938L312.355 183.273L312.836 182.314L313.378 181.934L313.839 182.084L314.522 183.089V183.823L314.502 184.373L314.402 184.793V185.013L314.65 185.063L315.131 184.913L317.6 183.244L318.181 183.215L318.784 183.485L319.265 184.658L320.61 185.738L326.897 185.498L328.262 185.373L328.723 185.702L329.814 185.962L330.155 186.307L330.376 186.712L330.456 187.062L330.296 187.521L329.915 188.11L328.945 189.199L328.243 190.558L327.5 193.034L327.199 194.427L326.638 195.57L326.938 196.359L327.259 196.668L327.641 196.923L327.761 197.372L327.861 198.026L328.082 198.994L327.941 199.957L327.68 200.895L323.485 202.207Z" fill="#EB4436" stroke="#FEFFFF" stroke-width="1.5" stroke-linecap="round" stroke-linejoin="round"/>
<path d="M458.152 80.9669L457.47 85.8763L458.353 88.8219L454.199 88.6905L440.441 82.0624L439.617 82.8798L439.637 84.3123L439.517 86.7437L438.835 88.5994L438.112 89.961L437.042 91.2419L435.156 92.8252L434.715 93.9748L434.354 98.5448L434.594 100.222L435.056 101.411L436.059 102.761L436.42 103.375L436.701 103.98L437.203 105.52L437.404 106.341L438.072 108.375L435.898 108.963L435.436 108.933L435.075 108.953L433.73 107.906L429.75 105.65L423.302 104.784L422.119 104.427L421.577 104.095L420.614 102.922L422.119 101.089L421.216 96.7164L421.296 95.4822L421.537 94.7011L422.38 93.7837L422.821 93.113L423.383 92.0497L423.223 91.3838L422.782 91.071H422.22L420.936 91.3935L419.25 87.9803L419.45 87.5917L421.056 86.0383L422.039 84.2728L423.303 81.3965L423.973 80.226L424.414 79.6609L425.578 79.8729L430.213 79.1563L431.143 79.1659L433.25 79.8729L439.097 78.6613L443.752 77.864L446.608 77.9043L448.153 77.4094L448.936 76.5105L449.157 75.4803L449.579 74.2888L450.261 73.0868L451.786 72.7329L452.876 72.2984L459.357 69.3181L462.073 66.8021L462.775 66.4079L463.297 66.3628L463.598 66.57L463.879 66.7014L464.962 66.9747L465.343 67.177L466.227 67.9654L466.628 68.2484L468.641 69.0666L473.919 69.9961L470.547 71.4157L468.581 71.8147L466.146 71.6632V72.4613L466.346 72.8651L470.427 74.9555L470.648 76.7427L465.122 80.2607L464.842 77.5198L465.524 76.7927L465.544 75.9196L465.423 75.2279L464.901 74.4605L464.299 73.8244L463.476 73.1271L462.974 73.248L462.553 73.6019L462.191 74.0058L461.67 74.3597L461.329 74.6322L461.188 75.0869L461.128 75.4198L460.988 75.7431L460.968 75.9196L461.149 76.1163L461.53 76.4396L461.69 76.8539L461.409 77.2578L459.885 78.0148L458.533 78.7717L458.152 80.9669Z" fill="#EB4436" stroke="#FEFFFF" stroke-width="1.5" stroke-linecap="round" stroke-linejoin="round"/>
<path d="M473.919 69.9956L470.929 73.0469L470.648 73.5168L470.427 74.9558L466.347 72.8655L466.146 72.4616V71.6635L468.581 71.8151L470.548 71.416L473.919 69.9956ZM458.354 88.8214L456.147 99.9293L453.618 104.784L451.826 106.838L449.959 108.222L447.431 109.555L443.772 110.985L442.95 110.944L441.806 110.703L440.903 110.108L439.78 109.646L438.074 108.373L437.406 106.339L437.205 105.518L436.703 103.978L436.422 103.373L436.061 102.759L435.058 101.409L434.596 100.22L434.355 98.5427L434.717 93.9727L435.158 92.8231L437.044 91.2399L438.114 89.9589L438.837 88.5973L439.519 86.7416L439.639 84.3103L439.619 82.8778L440.443 82.0603L454.201 88.6884L458.354 88.8214ZM465.124 80.261L463.297 79.3074L461.652 79.5701L458.154 80.968L458.535 78.7729L459.886 78.0159L461.411 77.2589L461.691 76.8551L461.531 76.4407L461.15 76.1175L460.969 75.9208L460.989 75.7442L461.13 75.4209L461.19 75.088L461.33 74.6333L461.671 74.3609L462.193 74.007L462.554 73.6031L462.975 73.2492L463.477 73.1283L464.301 73.8256L464.903 74.4616L465.424 75.2291L465.545 75.9208L465.525 76.7938L464.843 77.5209L465.124 80.261Z" fill="#EB4436" stroke="#FEFFFF" stroke-width="1.5" stroke-linecap="round" stroke-linejoin="round"/>
</svg>
